<svg width="124" height="122" viewBox="0 0 124 122" fill="none" xmlns="http://www.w3.org/2000/svg">
<path d="M90.3829 7.15276C79.5917 1.35705 66.9638 -1.21518 53.9176 0.547069C48.8425 1.23117 44.0011 2.5337 39.4531 4.36162C53.51 15.0227 73.0441 8.17617 90.3829 7.15823V7.15276Z" fill="#FFF8EF"/>
<path d="M120.898 47.0171C120.306 44.4722 119.561 41.993 118.67 39.5959C117.573 36.6406 116.258 33.8002 114.747 31.0966C113.481 28.8309 112.079 26.6637 110.552 24.6004C109.678 23.4237 108.765 22.2799 107.814 21.1689C108.319 25.4049 108.058 29.909 107.548 33.6251C106.33 40.9696 107.265 48.0186 110.286 54.2357C112.634 59.3145 117.111 63.4793 122.382 65.1704C122.653 61.1533 122.528 57.0542 121.979 52.9113C121.713 50.9082 121.349 48.9435 120.904 47.0171H120.898Z" fill="#FFF8EF"/>
<path d="M6.59045 74.2882C5.57435 72.1921 3.99859 70.9552 2.08594 70.2383C2.33045 71.8473 2.63474 73.4289 2.99336 74.9887C3.58563 77.5335 4.33004 80.0127 5.22117 82.4098C5.96558 84.4183 6.81866 86.3612 7.75326 88.2548C7.70979 87.7951 7.68805 87.3244 7.70435 86.8373C7.66632 82.4262 8.70415 77.8674 6.58502 74.2882H6.59045Z" fill="#E0D3C2"/>
<path d="M16.8384 101.707C23.7228 109.429 32.4928 115.312 42.306 118.711C41.7898 105.543 27.9774 103.913 16.8384 101.707Z" fill="#E0D3C2"/>
<path d="M60.3619 111.766C56.5148 103.447 46.3919 101.499 41.0017 93.9461C34.7856 84.292 32.1937 73.0454 24.3638 63.6103C18.452 56.6434 10.5079 54.1095 1.94447 52.6865C1.22179 58.0061 1.18376 63.5118 1.92274 69.094C1.97164 69.4771 2.03141 69.8602 2.09118 70.2378C4.00383 70.9548 5.5796 72.1916 6.5957 74.2877C8.71483 77.867 7.67699 82.4258 7.71503 86.8369C7.69873 87.324 7.71503 87.7946 7.76394 88.2543C8.2095 89.1519 8.66592 90.0385 9.15495 90.9087C10.421 93.1744 11.8229 95.3416 13.3497 97.4049C14.4528 98.8935 15.6156 100.327 16.8436 101.701C27.9772 103.907 41.7896 105.537 42.3112 118.705C49.3043 121.124 56.83 122.284 64.573 121.94C63.9698 118.3 62.2799 114.891 60.3727 111.766H60.3619Z" fill="#6B6159"/>
<path d="M91.8119 100.903C84.9492 94.6471 74.7176 96.0262 66.2084 93.8645C54.8629 90.9748 59.3783 75.4594 54.3087 66.2049C51.9016 60.4584 46.5494 57.3115 40.8006 55.3249C28.7052 51.5979 12.5346 49.2775 5.92185 37.8174C3.99289 42.5349 2.63991 47.5207 1.93896 52.687C10.5024 54.11 18.4465 56.6493 24.3583 63.6108C32.1882 73.0459 34.7801 84.2925 40.9962 93.9466C46.3864 101.505 56.5148 103.453 60.3564 111.766C62.2636 114.891 63.9535 118.301 64.5566 121.94C66.3497 121.858 68.1591 121.71 69.974 121.464C80.249 120.079 89.5623 116.172 97.4086 110.447C96.3164 106.715 94.7678 103.179 91.8064 100.903H91.8119Z" fill="#302821"/>
<path d="M88.4865 59.3852C88.443 46.6937 97.6259 25.0214 80.9663 23.4014C60.2912 20.8018 36.2092 31.7967 18.9029 18.0928C13.366 23.7352 8.943 30.4394 5.92188 37.8113C12.5347 49.2659 28.6998 51.5919 40.8006 55.3189C46.544 57.3055 51.8962 60.4469 54.3087 66.1988C59.3783 75.4533 54.8575 90.9743 66.2085 93.8584C74.7176 96.0257 84.9546 94.6465 91.8119 100.896C94.7733 103.179 96.3219 106.709 97.414 110.441C102.994 106.369 107.825 101.384 111.715 95.7301C96.8924 90.1479 88.6876 75.5245 88.4865 59.3797V59.3852Z" fill="#6B6159"/>
<path d="M110.281 54.2415C107.26 48.0244 106.325 40.97 107.542 33.6309C108.053 29.9149 108.314 25.4108 107.809 21.1748C102.907 15.4612 96.9901 10.7053 90.3828 7.15891C73.0439 8.18233 53.5099 15.0233 39.453 4.3623C31.6176 7.51465 24.6625 12.2377 18.9028 18.0991C36.2091 31.803 60.2965 20.8081 80.9662 23.4077C97.6259 25.0277 88.443 46.6945 88.4864 59.3915C88.6875 75.5363 96.8923 90.1596 111.715 95.7419C117.823 86.8705 121.626 76.3627 122.376 65.1817C117.106 63.4906 112.628 59.3258 110.281 54.247V54.2415Z" fill="#E0D3C2"/>
</svg>
