<svg width="124" height="122" viewBox="0 0 124 122" fill="none" xmlns="http://www.w3.org/2000/svg">
<g clip-path="url(#clip0_235_3418)">
<path d="M90.3832 7.15276C79.5919 1.35705 66.9641 -1.21518 53.9178 0.547069C48.8428 1.23117 44.0014 2.5337 39.4534 4.36162C53.5103 15.0227 73.0443 8.17617 90.3832 7.15823V7.15276Z" fill="#CDE1FF"/>
<path d="M120.899 47.0171C120.306 44.4722 119.562 41.993 118.671 39.5959C117.573 36.6406 116.258 33.8002 114.748 31.0966C113.482 28.8309 112.08 26.6637 110.553 24.6004C109.678 23.4237 108.765 22.2799 107.814 21.1689C108.32 25.4049 108.059 29.909 107.548 33.6251C106.331 40.9696 107.266 48.0186 110.287 54.2357C112.634 59.3145 117.111 63.4793 122.382 65.1704C122.654 61.1533 122.529 57.0542 121.98 52.9113C121.714 50.9082 121.35 48.9435 120.904 47.0171H120.899Z" fill="#CDE1FF"/>
<path d="M6.59045 74.2882C5.57435 72.1921 3.99859 70.9552 2.08594 70.2383C2.33045 71.8473 2.63474 73.4289 2.99336 74.9887C3.58563 77.5335 4.33004 80.0127 5.22117 82.4098C5.96558 84.4183 6.81866 86.3612 7.75326 88.2548C7.70979 87.7951 7.68805 87.3244 7.70435 86.8373C7.66632 82.4262 8.70415 77.8674 6.58502 74.2882H6.59045Z" fill="#A4C4F5"/>
<path d="M16.8384 101.707C23.7228 109.429 32.4928 115.312 42.306 118.711C41.7898 105.543 27.9774 103.913 16.8384 101.707Z" fill="#A4C4F5"/>
<path d="M60.3621 111.766C56.5151 103.447 46.3921 101.499 41.0019 93.9461C34.7858 84.292 32.194 73.0454 24.364 63.6103C18.4522 56.6434 10.5082 54.1095 1.94472 52.6865C1.22204 58.0061 1.184 63.5118 1.92298 69.094C1.97188 69.4771 2.03166 69.8602 2.09143 70.2378C4.00408 70.9548 5.57984 72.1916 6.59594 74.2877C8.71507 77.867 7.67724 82.4258 7.71527 86.8369C7.69897 87.324 7.71528 87.7946 7.76418 88.2543C8.20974 89.1519 8.66617 90.0385 9.1552 90.9087C10.4212 93.1744 11.8231 95.3416 13.35 97.4049C14.453 98.8935 15.6158 100.327 16.8438 101.701C27.9774 103.907 41.7898 105.537 42.3115 118.705C49.3046 121.124 56.8302 122.284 64.5732 121.94C63.9701 118.3 62.2802 114.891 60.373 111.766H60.3621Z" fill="#0064FF"/>
<path d="M91.8121 100.903C84.9494 94.6471 74.7178 96.0262 66.2087 93.8645C54.8632 90.9748 59.3785 75.4594 54.3089 66.2049C51.9018 60.4584 46.5496 57.3115 40.8008 55.3249C28.7055 51.5979 12.5349 49.2775 5.92209 37.8174C3.99314 42.5349 2.64015 47.5207 1.93921 52.687C10.5027 54.11 18.4467 56.6493 24.3585 63.6108C32.1885 73.0459 34.7803 84.2925 40.9964 93.9466C46.3866 101.505 56.515 103.453 60.3566 111.766C62.2638 114.891 63.9537 118.301 64.5568 121.94C66.3499 121.858 68.1594 121.71 69.9742 121.464C80.2493 120.079 89.5626 116.172 97.4088 110.447C96.3166 106.715 94.768 103.179 91.8067 100.903H91.8121Z" fill="#003588"/>
<path d="M88.4868 59.3852C88.4433 46.6937 97.6262 25.0214 80.9666 23.4014C60.2914 20.8018 36.2094 31.7967 18.9032 18.0928C13.3662 23.7352 8.94324 30.4394 5.92212 37.8113C12.5349 49.2659 28.7001 51.5919 40.8009 55.3189C46.5442 57.3055 51.8964 60.4469 54.309 66.1988C59.3786 75.4533 54.8578 90.9743 66.2087 93.8584C74.7178 96.0257 84.9549 94.6465 91.8122 100.896C94.7735 103.179 96.3221 106.709 97.4143 110.441C102.995 106.369 107.825 101.384 111.716 95.7301C96.8926 90.1479 88.6878 75.5245 88.4868 59.3797V59.3852Z" fill="#0064FF"/>
<path d="M110.281 54.2415C107.26 48.0244 106.326 40.97 107.543 33.6309C108.054 29.9149 108.314 25.4108 107.809 21.1748C102.908 15.4612 96.9906 10.7053 90.3833 7.15891C73.0444 8.18233 53.5104 15.0233 39.4535 4.3623C31.6181 7.51465 24.663 12.2377 18.9033 18.0991C36.2096 31.803 60.297 20.8081 80.9667 23.4077C97.6264 25.0277 88.4434 46.6945 88.4869 59.3915C88.688 75.5363 96.8928 90.1596 111.716 95.7419C117.823 86.8705 121.627 76.3627 122.377 65.1817C117.106 63.4906 112.629 59.3258 110.281 54.247V54.2415Z" fill="#A4C4F5"/>
</g>
<defs>
<clipPath id="clip0_235_3418">
<rect width="123.898" height="121.999" fill="white"/>
</clipPath>
</defs>
</svg>
