<svg width="250" height="276" viewBox="0 0 250 276" fill="none" xmlns="http://www.w3.org/2000/svg">
<g opacity="0.8" clip-path="url(#clip0_258_506)">
<path d="M122.919 255.054C166.116 245.026 192.987 201.807 182.938 158.522C172.889 115.237 129.725 88.2769 86.5289 98.3053C43.3325 108.334 16.4611 151.553 26.5101 194.838C36.5591 238.123 79.723 265.083 122.919 255.054Z" stroke="#FF5906" stroke-miterlimit="10"/>
<path d="M21.9372 195.627C21.0232 194.403 20.1068 193.169 19.4906 191.778C18.8744 190.386 18.5719 188.803 18.9451 187.323C19.0247 187.011 19.1375 186.702 19.352 186.456C19.5664 186.211 19.9023 186.067 20.2117 186.137C20.4187 186.187 20.5807 186.323 20.7403 186.45C23.4077 188.725 24.8074 192.415 24.3092 195.882C25.5412 197.119 26.7708 198.346 28.0027 199.584" stroke="#FF5906" stroke-miterlimit="10"/>
<path d="M20.1705 186.147C21.8801 184.858 23.3815 183.279 24.5883 181.508" stroke="#FF5906" stroke-miterlimit="10"/>
<path d="M71.1594 258.159C68.3002 257.724 65.6245 256.115 63.8998 253.784C63.7591 253.599 63.6215 253.38 63.6433 253.147C63.6675 252.924 63.8527 252.739 64.0595 252.648C64.2663 252.556 64.5026 252.545 64.7333 252.557C68.0461 252.56 71.3266 254.062 73.5107 256.547C76.1074 255.15 78.953 254.217 81.8773 253.81" stroke="#FF5906" stroke-miterlimit="10"/>
<path d="M62.342 245.016C63.5405 247.513 64.0823 250.314 63.8961 253.066" stroke="#FF5906" stroke-miterlimit="10"/>
<path d="M159.591 238.597C162.239 237.841 165.083 237.834 167.734 238.546" stroke="#FF5906" stroke-miterlimit="10"/>
<path d="M171.18 222.142C170.87 224.641 170.972 227.185 171.511 229.65C171.617 230.104 171.729 230.589 171.558 231.021C171.352 231.536 170.824 231.833 170.349 232.128C168.967 233.004 167.843 234.288 167.156 235.775C166.957 236.224 166.785 236.699 166.802 237.195C166.82 237.692 167.035 238.197 167.462 238.446C168.089 238.812 168.877 238.509 169.496 238.137C171.723 236.782 173.294 234.382 173.647 231.787" stroke="#FF5906" stroke-miterlimit="10"/>
<path d="M179.347 147.451C180.138 149.172 181.474 150.625 183.122 151.548C183.658 151.848 184.239 152.105 184.71 152.496C186.32 153.863 186.185 156.419 187.355 158.182C187.788 158.832 188.665 159.379 189.3 158.938C189.89 158.529 189.781 157.64 189.577 156.948C189.014 155.131 188.177 153.399 187.097 151.833" stroke="#FF5906" stroke-miterlimit="10"/>
<path d="M188.373 159.012C186.364 160.088 184.764 161.895 183.921 164.017" stroke="#FF5906" stroke-miterlimit="10"/>
<path d="M95.1278 89.6933C97.4352 88.4068 100.296 88.1454 102.807 88.9987C103.113 89.1017 103.414 89.2278 103.646 89.4349C103.879 89.642 104.051 89.9612 104.005 90.2766C103.933 90.7613 103.43 91.0302 102.986 91.2204C100.821 92.0929 98.4422 92.4167 96.1217 92.1502C95.5967 92.0871 95.0462 92.0082 94.5629 92.2183C94.0876 92.4157 93.7775 92.8577 93.4603 93.2686C91.7428 95.5063 89.4402 97.2813 86.8383 98.375" stroke="#FF5906" stroke-miterlimit="10"/>
<path d="M103.665 90.7798C104.509 93.0104 105.962 95.0125 107.818 96.5075" stroke="#FF5906" stroke-miterlimit="10"/>
<path d="M43.0856 148.553C43.4059 144.975 45.3861 141.578 48.3599 139.56C49.3537 143.279 47.9728 147.528 44.9799 149.931C46.0082 152.162 46.341 154.718 45.9243 157.132" stroke="#FF5906" stroke-miterlimit="10"/>
<path d="M48.2699 139.733C50.8931 140.321 53.7222 139.925 56.0908 138.668" stroke="#FF5906" stroke-miterlimit="10"/>
<path d="M68.8933 110.136C69.1198 111.346 70.1515 112.281 71.3177 112.674C72.484 113.067 73.7398 113.004 74.9518 112.799C77.6382 112.349 80.2116 111.273 82.4115 109.664" stroke="#FF5906" stroke-miterlimit="10"/>
<path d="M93.965 130.757C95.9463 133.398 98.5437 135.559 101.509 137.014" stroke="#FF5906" stroke-miterlimit="10"/>
<path d="M73.6649 160.344C74.5944 163.131 74.6854 166.189 73.9102 169.024" stroke="#FF5906" stroke-miterlimit="10"/>
<path d="M120.725 182.269C120.705 183.775 121.786 185.112 123.104 185.829C124.421 186.546 125.947 186.758 127.43 186.969" stroke="#FF5906" stroke-miterlimit="10"/>
<path d="M93.5481 228.261C92.6276 226.027 90.2121 224.509 87.8003 224.645" stroke="#FF5906" stroke-miterlimit="10"/>
<path d="M130.258 230.304L128.263 234.151C128.067 234.523 127.863 234.908 127.533 235.17C126.795 235.733 125.76 235.483 124.837 235.437C123.209 235.347 121.545 236.038 120.458 237.248C119.836 237.936 119.402 239.016 119.975 239.753C120.47 240.389 121.41 240.367 122.207 240.247C124.646 239.855 126.992 238.919 129.026 237.532" stroke="#FF5906" stroke-miterlimit="10"/>
<path d="M119.71 239.173C118.596 237.462 116.86 236.157 114.899 235.568" stroke="#FF5906" stroke-miterlimit="10"/>
<path d="M149.162 173.327C149.751 174.648 150.782 175.769 152.062 176.462C152.532 176.712 153.05 176.929 153.392 177.329C153.853 177.864 153.918 178.61 153.971 179.305C154.151 181.625 154.484 184.137 156.109 185.805C156.407 186.106 156.754 186.385 157.156 186.476C157.557 186.568 158.044 186.422 158.253 186.058C158.43 185.745 158.37 185.346 158.299 184.992C157.704 182.149 156.661 179.388 155.227 176.859" stroke="#FF5906" stroke-miterlimit="10"/>
<path d="M156.881 186.464C156.302 187.055 155.712 187.649 155.231 188.338C154.75 189.026 154.399 189.804 154.308 190.63" stroke="#FF5906" stroke-miterlimit="10"/>
<path d="M149.627 146.658C150.298 146.601 150.968 146.869 151.516 147.264C152.064 147.659 152.51 148.176 152.945 148.695C153.809 149.703 154.672 150.71 155.526 151.72" stroke="#FF5906" stroke-miterlimit="10"/>
<path d="M134.876 120.258C137.967 120.987 140.554 123.575 141.286 126.68C140.958 126.996 140.454 127.069 140.019 126.974C139.584 126.879 139.183 126.646 138.799 126.398C136.859 125.151 135.093 123.624 133.59 121.873C131.772 122.883 129.582 123.228 127.536 122.832" stroke="#FF5906" stroke-miterlimit="10"/>
<path d="M140.95 126.867C140.457 129.049 140.609 131.386 141.38 133.492" stroke="#FF5906" stroke-miterlimit="10"/>
<path d="M62.7245 201.62C62.4905 203.372 61.4221 204.991 59.8958 205.901C59.0744 206.385 58.0783 206.725 57.608 207.552C57.2515 208.168 57.2647 208.927 57.3508 209.625C57.5707 211.554 58.2147 213.44 59.2191 215.1" stroke="#FF5906" stroke-miterlimit="10"/>
<path d="M57.9301 207.162C58.542 207.085 59.1586 207.356 59.6034 207.775C60.0481 208.194 60.3417 208.757 60.5838 209.332C61.1189 210.655 61.357 212.101 61.2747 213.524C61.2416 214.13 61.1492 214.761 61.327 215.34C61.4785 215.805 61.7853 216.191 62.0896 216.566C63.2991 218.081 64.5085 219.595 65.7283 221.108" stroke="#FF5906" stroke-miterlimit="10"/>
</g>
<path d="M180.466 155.874C181.207 153.34 180.09 150.754 177.148 148.19C177.029 148.087 176.907 147.983 176.791 147.887L176.643 147.758C173.631 145.133 170.86 144.358 168.406 145.453C163.409 147.683 161.609 156.718 161.557 160.475C161.339 163.653 160.319 166.269 158.526 168.252C158.337 168.46 158.223 168.587 158.276 168.802L158.33 169.035L158.562 169.09C158.81 169.147 158.942 168.99 159.125 168.774C160.873 166.685 163.377 165.287 166.545 164.624C171.339 163.907 179.078 160.631 180.466 155.877L180.466 155.874Z" fill="#FF5906"/>
<path d="M182.819 128.367C182.449 121.825 176.573 113.446 175.204 111.957L184.405 107.685C184.042 110.479 184.004 117.998 191.555 123.098L182.817 128.366L182.819 128.367Z" fill="#FF5906"/>
<path d="M202.231 120.706C202.044 117.632 199.975 116.667 198.192 117.186C196.408 117.703 186.813 119.707 179.356 129.793C171.9 139.878 171.362 144.742 171.362 144.742C172.05 147.86 176.777 153.31 181.406 152.757C187.963 149.142 202.991 133.259 202.231 120.709L202.231 120.706Z" fill="white" stroke="#EA5028"/>
<path d="M185.436 149.869C183.927 151.145 182.544 152.133 181.409 152.757C176.778 153.311 172.051 147.861 171.363 144.74C171.363 144.74 171.558 142.978 173.333 139.377C177.198 146.052 182.419 148.693 185.438 149.871L185.436 149.869Z" fill="#FF5906"/>
<path d="M192.606 135.4C193.669 136.31 194.803 137.121 195.945 137.924C196.12 137.643 196.289 137.357 196.452 137.082C195.335 136.3 194.233 135.5 193.187 134.608C192.829 134.297 192.248 135.093 192.606 135.403L192.606 135.4Z" fill="#FF5906"/>
<path d="M190.51 139.543C191.34 140.347 192.2 141.124 193.221 141.624C193.408 141.356 193.595 141.089 193.78 140.806C192.764 140.324 191.908 139.555 191.085 138.757C190.748 138.438 190.173 139.224 190.508 139.545L190.51 139.543Z" fill="#FF5906"/>
<path d="M188.491 144.425C188.881 144.886 189.31 145.298 189.775 145.656C189.969 145.405 190.156 145.164 190.352 144.915C189.879 144.55 189.458 144.131 189.056 143.66C188.765 143.31 188.205 144.082 188.491 144.425Z" fill="#FF5906"/>
<path d="M185.132 147.7C185.581 148.101 186.031 148.502 186.511 148.847C186.725 148.61 186.938 148.373 187.15 148.122C186.632 147.775 186.166 147.343 185.699 146.926C185.357 146.631 184.79 147.401 185.132 147.697L185.132 147.7Z" fill="#FF5906"/>
<path d="M125.546 108.01C126.287 105.476 125.17 102.89 122.228 100.326C122.109 100.222 121.987 100.118 121.871 100.023L121.723 99.8938C118.711 97.2684 115.94 96.4935 113.487 97.5883C108.49 99.8184 106.69 108.853 106.638 112.611C106.419 115.788 105.399 118.405 103.607 120.388C103.417 120.596 103.304 120.723 103.356 120.938L103.411 121.171L103.643 121.225C103.891 121.283 104.022 121.126 104.204 120.908C105.952 118.819 108.456 117.421 111.624 116.758C116.418 116.041 124.156 112.766 125.545 108.011L125.546 108.01Z" fill="#FF5906"/>
<path d="M140.961 91.8869C147.492 91.3596 156.595 96.0356 158.257 97.1882L161.232 87.4896C158.514 88.2305 151.07 89.2958 144.987 82.5125L140.963 91.8882L140.961 91.8869Z" fill="#FF5906"/>
<path d="M145.9 71.6109C148.97 71.3758 150.209 73.2942 149.939 75.1309C149.67 76.969 148.995 86.7481 140.024 95.5127C131.052 104.277 126.307 105.475 126.307 105.475C123.124 105.219 117.079 101.281 116.995 96.6195C119.68 89.6306 133.361 72.5736 145.897 71.6111L145.9 71.6109Z" fill="#FEFDFF" stroke="#EA5028"/>
<path d="M119.303 92.2316C118.246 93.9011 117.456 95.4059 116.993 96.6153C117.076 101.279 123.121 105.217 126.307 105.472C126.307 105.472 128.026 105.038 131.35 102.788C124.21 99.8711 120.88 95.0602 119.301 92.2302L119.303 92.2316Z" fill="#FF5906"/>
<path d="M132.742 83.2182C131.69 82.2915 130.712 81.2679 129.738 80.2346C129.95 79.9857 130.169 79.7418 130.379 79.5084C131.328 80.5204 132.29 81.5123 133.321 82.425C133.679 82.7357 133.098 83.531 132.74 83.2203L132.742 83.2182Z" fill="#FF5906"/>
<path d="M128.917 85.8532C128.011 85.1524 127.124 84.4136 126.447 83.4414C126.645 83.1835 126.843 82.9257 127.054 82.6658C127.714 83.6364 128.592 84.3711 129.492 85.0669C129.853 85.3531 129.278 86.1393 128.915 85.8552L128.917 85.8532Z" fill="#FF5906"/>
<path d="M124.335 88.5002C123.833 88.1922 123.366 87.8326 122.938 87.4218C123.122 87.1612 123.297 86.9108 123.479 86.649C123.913 87.0658 124.384 87.4161 124.9 87.735C125.279 87.9633 124.708 88.7258 124.335 88.5002Z" fill="#FF5906"/>
<path d="M121.559 92.2845C121.097 91.899 120.636 91.5147 120.218 91.0846C120.384 90.8066 120.55 90.5286 120.727 90.2473C121.155 90.7162 121.648 91.1121 122.127 91.5121C122.47 91.8079 121.903 92.5783 121.56 92.2825L121.559 92.2845Z" fill="#FF5906"/>
<path d="M231.868 30.6822C237.057 77.3631 182.033 115.193 164.229 122.64C158.802 121.797 149.099 113.047 149.009 109.375C153.953 90.7221 183.911 31.0442 230.863 29.8062C231.513 29.7731 231.803 30.0691 231.868 30.6822Z" fill="white" stroke="#EA5028"/>
<path d="M225.522 64.708C226.436 62.7955 227.27 60.8396 228.017 58.8697C223.965 59.2225 216.825 58.9557 210.983 53.6336C204.915 48.5755 203.673 41.5374 203.469 37.4756C201.626 38.4767 199.816 39.5704 198.053 40.7297C198.775 45.1925 200.909 52.1881 207.472 57.6933C213.798 63.4245 220.993 64.5966 225.521 64.7095L225.522 64.708Z" fill="#FF5906"/>
<path d="M228.015 58.8629C223.965 59.2199 216.824 58.9503 210.982 53.6325C204.914 48.5729 203.673 41.5348 203.473 37.4741C211.788 32.9266 220.949 30.0574 230.864 29.802C231.513 29.7761 231.804 30.0649 231.872 30.6806C232.974 40.5375 231.383 50.0047 228.015 58.8629Z" fill="white" stroke="#EA5028"/>
<path d="M149.81 120.706C149.09 120.079 148.938 119.02 149.453 118.216L153.781 111.446C154.082 110.974 154.576 110.655 155.13 110.576C155.685 110.498 156.248 110.663 156.67 111.031L162.043 115.714C162.467 116.083 162.707 116.618 162.704 117.177C162.702 117.737 162.453 118.27 162.027 118.632L155.912 123.845C155.186 124.465 154.116 124.459 153.396 123.832L149.808 120.705L149.81 120.706Z" fill="#2F201C"/>
<path d="M173.883 117.639C170.098 119.885 166.781 121.582 164.231 122.645C158.806 121.801 149.097 113.046 149.009 109.378C149.686 106.813 150.845 103.476 152.45 99.6232C155.359 105.889 161.135 112.649 173.883 117.639Z" fill="#FF5906"/>
<path d="M182.066 57.5847C181.611 56.9874 181.156 56.3868 180.712 55.7861C180.905 55.537 181.104 55.2799 181.299 55.032C181.777 55.6783 182.26 56.3293 182.751 56.9703C183.028 57.3325 182.344 57.9481 182.068 57.5859L182.066 57.5847Z" fill="#D7521E"/>
<path d="M177.644 61.1129C177.357 60.7864 177.058 60.4758 176.743 60.1773C176.929 59.9268 177.11 59.6715 177.302 59.4257C177.619 59.7233 177.918 60.0339 178.202 60.3612C178.501 60.6845 177.942 61.4361 177.644 61.1129Z" fill="#D7521E"/>
<path d="M173.994 66.6325C173.449 66.2886 172.923 65.9475 172.435 65.5399C172.612 65.2746 172.789 65.0081 172.972 64.7477C173.465 65.1728 174.01 65.5167 174.559 65.8654C174.937 66.1085 174.361 66.8769 173.994 66.6325Z" fill="#D7521E"/>
<path d="M169.934 71.6795L168.688 70.6044C168.853 70.3268 169.024 70.054 169.197 69.7825L170.502 70.9082C170.844 71.2035 170.276 71.9748 169.934 71.6795Z" fill="#D7521E"/>
<path d="M166.257 77.9439C165.68 77.5714 165.139 77.1611 164.606 76.7277C164.772 76.4494 164.932 76.1663 165.092 75.8832C165.655 76.342 166.225 76.7777 166.826 77.1708C167.2 77.4243 166.627 78.1906 166.257 77.9439Z" fill="#D7521E"/>
<path d="M162.789 83.6573C162.211 83.2979 161.665 82.8958 161.136 82.4565C161.291 82.1687 161.45 81.8845 161.604 81.5966C162.16 82.0634 162.736 82.5037 163.357 82.8844C163.738 83.1297 163.165 83.8957 162.789 83.6573Z" fill="#D7521E"/>
<path d="M197.284 79.9559C202.714 79.5832 206.814 74.8788 206.441 69.4484C206.069 64.018 201.364 59.9179 195.934 60.2907C190.503 60.6634 186.403 65.3678 186.776 70.7982C187.149 76.2286 191.853 80.3287 197.284 79.9559Z" fill="#FF5906"/>
<path d="M197.146 77.9425C201.464 77.6461 204.724 73.905 204.428 69.5866C204.132 65.2682 200.391 62.0077 196.072 62.3041C191.754 62.6005 188.493 66.3416 188.79 70.66C189.086 74.9784 192.827 78.2389 197.146 77.9425Z" fill="#2F201C"/>
<mask id="mask0_258_506" style="mask-type:luminance" maskUnits="userSpaceOnUse" x="189" y="61" width="15" height="19">
<path d="M196.602 79.0431C200.307 78.0134 203.313 73.1853 203.317 68.2592C203.32 63.3331 200.32 60.1744 196.615 61.204C192.91 62.2337 189.904 67.0618 189.901 71.9879C189.897 76.914 192.897 80.0727 196.602 79.0431Z" fill="white"/>
</mask>
<g mask="url(#mask0_258_506)">
<g opacity="0.1">
<path d="M205.795 67.5701C201.999 64.3157 197.536 70.2846 193.738 67.029C191.98 65.5219 192.049 63.1708 192.19 60.8528L187.88 66.6168C187.718 68.8274 187.573 70.9337 189.551 72.6292C193.347 75.8836 197.81 69.9148 201.608 73.1703C202.624 74.041 203.027 75.1931 203.161 76.4574L207.478 70.6836C207.324 69.5554 206.881 68.5006 205.794 67.5689L205.795 67.5701Z" fill="white"/>
</g>
</g>
<path d="M201.225 68.223C200.338 68.6544 200.619 72.7482 198.931 75.5181C201.905 73.1296 203.469 67.4313 201.225 68.223Z" fill="white"/>
<path d="M173.954 96.1179C178.058 99.6942 184.283 99.2668 187.86 95.1634C191.436 91.0599 191.009 84.8343 186.905 81.258C182.802 77.6816 176.576 78.109 173 82.2124C169.423 86.3159 169.851 92.5415 173.954 96.1179Z" fill="#FF5906"/>
<path d="M175.28 94.5964C178.543 97.4404 183.494 97.1006 186.338 93.8374C189.182 90.5742 188.842 85.6234 185.579 82.7794C182.316 79.9354 177.365 80.2752 174.521 83.5384C171.677 86.8016 172.017 91.7524 175.28 94.5964Z" fill="#2F201C"/>
<mask id="mask1_258_506" style="mask-type:luminance" maskUnits="userSpaceOnUse" x="173" y="80" width="15" height="18">
<path d="M174.94 95.8811C177.688 98.1805 182.373 96.8242 185.405 92.8516C188.436 88.8789 188.667 83.7944 185.919 81.4949C183.171 79.1954 178.486 80.5518 175.455 84.5244C172.423 88.497 172.193 93.5816 174.94 95.8811Z" fill="white"/>
</mask>
<g mask="url(#mask1_258_506)">
<g opacity="0.1">
<path d="M189.616 86.1345C185.82 82.8802 181.357 88.849 177.559 85.5935C175.801 84.0863 175.87 81.7353 176.011 79.4173L171.701 85.1813C171.539 87.3919 171.394 89.4981 173.372 91.1937C177.168 94.4481 181.631 88.4792 185.429 91.7347C186.445 92.6055 186.848 93.7576 186.981 95.0238L191.298 89.25C191.143 88.1218 190.7 87.067 189.613 86.1353L189.616 86.1345Z" fill="white"/>
</g>
</g>
<path d="M185.046 86.7872C184.159 87.2186 184.44 91.3124 182.752 94.0823C185.726 91.6938 187.289 85.9955 185.046 86.7872Z" fill="white"/>
<defs>
<clipPath id="clip0_258_506">
<rect width="174.783" height="168.782" fill="white" transform="translate(0 110.864) rotate(-13.0702)"/>
</clipPath>
</defs>
</svg>
