<svg width="218" height="215" viewBox="0 0 218 215" fill="none" xmlns="http://www.w3.org/2000/svg">
<path d="M128.81 133.456L119.461 138.399L122.275 143.723L131.623 138.78L128.81 133.456Z" fill="#DB3B12"/>
<path d="M125.954 139.346C132.09 136.099 139.696 138.446 142.942 144.583C146.136 150.624 143.916 158.091 137.989 161.419L137.703 161.575C131.567 164.821 123.961 162.474 120.716 156.337C117.471 150.2 119.818 142.593 125.954 139.346Z" fill="#FFF2EB" stroke="#DB3B12"/>
<path d="M129.058 94.9347L87.3782 116.971L88.9571 119.959L130.637 97.9226L129.058 94.9347Z" fill="#DB3B12"/>
<path d="M121.042 113.023C124.257 113.829 127.143 115.952 128.823 119.128C131.898 124.943 129.791 132.102 124.148 135.272L123.877 135.42C118.031 138.515 110.756 136.243 107.636 130.337C105.955 127.16 105.824 123.576 106.976 120.462L121.042 113.023Z" fill="#FFF2EB" stroke="#DB3B12"/>
<path d="M106.636 86.594L120.237 112.331L106.839 119.414L93.2381 93.6776L106.636 86.594Z" fill="white" stroke="#DB3B12"/>
<path d="M130.643 119.756L135.665 129.259L112.138 141.698L107.116 132.195L130.643 119.756Z" fill="white" stroke="#DB3B12"/>
<path d="M100.433 79.5604L104.22 86.7268L94.7178 91.7505L90.9308 84.5841L100.433 79.5604Z" fill="#DB3B12" stroke="#DB3B12"/>
<path d="M112.3 58.1139L76.3374 46.9517L66.5207 82.3334L68.0903 82.7691L77.0893 50.346L88.1858 71.3464L89.7461 70.5245L78.5411 49.3294L111.824 59.6632L112.3 58.1139Z" fill="#DB3B12"/>
<path d="M111.968 55.1897C114.155 59.6465 113.687 65.0196 111.045 70.1906C108.334 75.4976 103.351 80.5459 96.7267 84.0486C90.1025 87.5513 83.1264 88.8261 77.2152 88.0784C71.4566 87.3498 66.7539 84.712 64.3037 80.3957L111.968 55.1897Z" fill="white" stroke="#DB3B12"/>
<path d="M75.7084 44.2807C77.4343 43.3692 79.5676 43.9997 80.5274 45.6821L80.5818 45.7847C81.5111 47.5517 80.8365 49.735 79.0761 50.6648C77.3148 51.5948 75.1322 50.9217 74.2026 49.1608C73.2726 47.3991 73.9475 45.2106 75.7084 44.2807Z" fill="white" stroke="#DB3B12"/>
<path d="M77.8986 100.568L97.9509 138.514L31.5741 173.607L11.5218 135.662L77.8986 100.568Z" fill="white" stroke="#DB3B12"/>
<path d="M25.4569 131.342L15.3892 136.688L23.4782 151.93L33.546 146.585L25.4569 131.342Z" fill="#EA5028"/>
<path d="M38.2347 124.585L28.1626 129.933L36.2517 145.175L46.3237 139.828L38.2347 124.585Z" fill="#EA5028"/>
<path d="M51.0337 117.817L40.9617 123.165L49.0507 138.408L59.1228 133.06L51.0337 117.817Z" fill="#EA5028"/>
<path d="M63.8113 111.06L53.7393 116.408L61.8283 131.65L71.9004 126.303L63.8113 111.06Z" fill="#EA5028"/>
<path d="M76.599 104.303L66.5312 109.648L74.6203 124.891L84.6881 119.545L76.599 104.303Z" fill="#EA5028"/>
<path d="M34.9327 149.274L24.8606 154.622L32.9497 169.865L43.0217 164.517L34.9327 149.274Z" fill="#EA5028"/>
<path d="M47.7133 142.511L37.6455 147.856L45.7346 163.099L55.8024 157.754L47.7133 142.511Z" fill="#EA5028"/>
<path d="M60.4992 135.755L50.4314 141.1L58.5205 156.343L68.5882 150.998L60.4992 135.755Z" fill="#EA5028"/>
<path d="M73.2899 128.986L63.2222 134.332L71.3112 149.574L81.379 144.229L73.2899 128.986Z" fill="#EA5028"/>
<path d="M86.0818 122.227L76.0098 127.574L84.0988 142.817L94.1709 137.469L86.0818 122.227Z" fill="#EA5028"/>
<path d="M185.517 40.518L205.57 78.4635L139.193 113.557L119.14 75.6119L185.517 40.518Z" fill="white" stroke="#DB3B12"/>
<path d="M133.064 71.2789L122.996 76.6243L131.085 91.8669L141.153 86.5215L133.064 71.2789Z" fill="#EA5028"/>
<path d="M145.858 64.5298L135.791 69.8752L143.88 85.1179L153.947 79.7725L145.858 64.5298Z" fill="#EA5028"/>
<path d="M158.65 57.7666L148.578 63.1143L156.667 78.3569L166.739 73.0093L158.65 57.7666Z" fill="#EA5028"/>
<path d="M171.434 51.0096L161.366 56.355L169.455 71.5977L179.523 66.2522L171.434 51.0096Z" fill="#EA5028"/>
<path d="M184.222 44.2439L174.154 49.5894L182.243 64.832L192.311 59.4866L184.222 44.2439Z" fill="#EA5028"/>
<path d="M142.552 89.2158L132.48 94.5635L140.569 109.806L150.641 104.458L142.552 89.2158Z" fill="#EA5028"/>
<path d="M155.333 82.4473L145.266 87.7944L153.358 103.036L163.425 97.6885L155.333 82.4473Z" fill="#EA5028"/>
<path d="M168.123 75.6998L158.055 81.0452L166.144 96.2878L176.212 90.9424L168.123 75.6998Z" fill="#EA5028"/>
<path d="M180.908 68.9344L170.84 74.2798L178.929 89.5225L188.997 84.1771L180.908 68.9344Z" fill="#EA5028"/>
<path d="M193.702 62.1772L183.63 67.5249L191.719 82.7676L201.791 77.4199L193.702 62.1772Z" fill="#EA5028"/>
</svg>
