<svg width="56" height="56" viewBox="0 0 56 56" fill="none" xmlns="http://www.w3.org/2000/svg">
<g clip-path="url(#clip0_615_10)">
<path d="M27.79 52.8C25.11 52.8 22.5 52.36 19.95 51.48C17.4 50.6 15.42 49.66 14.01 48.68L12.77 51.83H9.54L9 34.54H12.02C12.43 35.93 13.12 37.5 14.09 39.24C15.06 40.99 16.16 42.55 17.4 43.94C18.7 45.33 20.18 46.5 21.85 47.46C23.52 48.42 25.31 48.9 27.21 48.9C29.72 48.9 31.59 48.35 32.82 47.25C34.05 46.15 34.66 44.46 34.66 42.18C34.66 40.94 34.38 39.92 33.83 39.12C33.28 38.32 32.52 37.62 31.55 37.03C30.47 36.41 29.29 35.89 28.01 35.45C26.73 35.01 25.15 34.49 23.27 33.87C21.39 33.25 19.79 32.63 18.45 31.99C17.11 31.36 15.72 30.36 14.29 29C13.05 27.8 12.05 26.34 11.31 24.64C10.57 22.94 10.19 20.92 10.19 18.57C10.19 14.21 11.83 10.69 15.1 8C18.37 5.31 22.66 4 27.96 4C30.47 4 32.78 4.29 34.89 4.86C37 5.43 38.77 6.06 40.21 6.74L41.08 4.01H44.23L44.89 19.81H41.99C41.02 16.6 39.37 13.82 37.02 11.49C34.67 9.16 32.15 7.99 29.44 7.99C27.31 7.99 25.65 8.48 24.43 9.47C23.22 10.46 22.61 11.83 22.61 13.59C22.61 15.94 23.5 17.64 25.28 18.69C27.06 19.74 29.54 20.73 32.74 21.66C37.67 23.08 41.28 25.02 43.57 27.48C45.86 29.94 47 33.06 47 36.86C47 41.93 45.23 45.85 41.68 48.63C38.13 51.41 33.5 52.8 27.79 52.8Z" fill="#0064FF"/>
</g>
<defs>
<clipPath id="clip0_615_10">
<rect width="38" height="48.8" fill="white" transform="translate(9 4)"/>
</clipPath>
</defs>
</svg>
