<svg width="182" height="96" viewBox="0 0 182 96" fill="none" xmlns="http://www.w3.org/2000/svg">
<path d="M171.707 42.4046C172.324 42.8207 173.017 43.2522 173.788 43.6991C174.558 44.1306 175.337 44.5468 176.123 44.9475C176.909 45.3481 177.671 45.718 178.411 46.0571C179.151 46.3961 179.806 46.6735 180.376 46.8893L178.712 48.5768C178.141 48.1607 177.525 47.7292 176.862 47.2823C176.215 46.8199 175.552 46.3653 174.874 45.9184C174.196 45.456 173.518 45.0091 172.84 44.5776C172.162 44.1461 171.522 43.7377 170.921 43.3524C169.765 44.724 168.471 45.9184 167.038 46.9355C165.62 47.9527 164.125 48.8234 162.553 49.5477L161.952 48.8311C162.907 48.338 163.817 47.7677 164.68 47.1205C165.558 46.4578 166.367 45.7643 167.107 45.0399C167.847 44.3002 168.502 43.545 169.072 42.7744C169.657 41.9885 170.143 41.2179 170.528 40.4627C170.698 40.1391 170.675 39.8848 170.459 39.6999C170.336 39.592 170.12 39.461 169.812 39.3069C169.503 39.1374 169.234 39.0064 169.003 38.9139L169.604 38.1973C169.896 38.2743 170.22 38.3668 170.574 38.4747C170.929 38.5671 171.283 38.6673 171.638 38.7752C171.992 38.8831 172.339 38.991 172.678 39.0988C173.017 39.2067 173.333 39.3146 173.626 39.4225C173.349 39.9619 173.048 40.4781 172.724 40.9713C172.416 41.4645 172.077 41.9422 171.707 42.4046ZM181.509 54.9109C180.892 54.8801 180.091 54.857 179.105 54.8416C178.118 54.8261 177.109 54.8107 176.076 54.7953C175.645 54.7953 175.121 54.803 174.504 54.8184C173.888 54.8184 173.218 54.8339 172.493 54.8647C171.784 54.8801 171.052 54.9032 170.297 54.934C169.557 54.9494 168.848 54.9726 168.17 55.0034C167.492 55.0188 166.876 55.0419 166.321 55.0727C165.782 55.1035 165.358 55.1267 165.049 55.1421C164.464 55.1729 163.84 55.2191 163.177 55.2808C162.514 55.327 161.898 55.3887 161.328 55.4657L160.588 53.4314C161.281 53.5239 162.013 53.6009 162.784 53.6626C163.57 53.7088 164.317 53.7473 165.026 53.7782C165.412 53.7936 165.889 53.8013 166.46 53.8013C167.045 53.8013 167.669 53.8013 168.332 53.8013C169.01 53.7859 169.704 53.7705 170.413 53.7551C171.137 53.7242 171.83 53.7011 172.493 53.6857C173.171 53.6703 173.795 53.6549 174.366 53.6395C174.936 53.6086 175.406 53.5855 175.776 53.5701C176.808 53.5085 177.856 53.4314 178.92 53.3389C179.999 53.2465 180.954 53.1386 181.786 53.0153L181.509 54.9109Z" fill="white"/>
<path d="M146.982 52.5566C146.982 52.9573 146.966 53.3888 146.936 53.8512C146.92 54.3135 146.897 54.7759 146.866 55.2382C146.835 55.7006 146.797 56.1475 146.751 56.579C146.704 57.0105 146.651 57.3881 146.589 57.7117L145.04 57.9891C145.009 57.7117 144.978 57.3727 144.948 56.972C144.932 56.5867 144.917 56.186 144.901 55.7699C144.886 55.3384 144.871 54.9146 144.855 54.4985C144.855 54.0669 144.855 53.6817 144.855 53.3426V50.7073C144.686 50.7073 144.508 50.715 144.323 50.7304C144.154 50.7458 143.984 50.7612 143.815 50.7766C143.645 50.792 143.406 50.8151 143.098 50.846C142.805 50.8614 142.482 50.8922 142.127 50.9384C141.788 50.9693 141.441 51.0078 141.087 51.054C140.748 51.0848 140.447 51.1157 140.185 51.1465L139.053 49.2278C139.299 49.274 139.584 49.3125 139.908 49.3434C140.247 49.3742 140.594 49.405 140.948 49.4358C141.303 49.4666 141.642 49.4898 141.965 49.5052C142.289 49.5052 142.559 49.5052 142.775 49.5052C143.638 49.4744 144.454 49.4358 145.225 49.3896C145.996 49.3434 146.743 49.2817 147.467 49.2047C148.192 49.1276 148.901 49.0428 149.594 48.9504C150.288 48.8425 150.989 48.7192 151.698 48.5805V49.5514C150.866 49.7518 150.064 49.9213 149.294 50.06C148.523 50.1987 147.752 50.322 146.982 50.4299V52.5566ZM152.229 52.6953C150.827 52.7416 149.571 52.8803 148.461 53.1114L147.56 51.3083C148.038 51.4008 148.5 51.4624 148.947 51.4932C149.394 51.5241 149.818 51.5318 150.218 51.5164C150.557 51.5009 150.896 51.4932 151.235 51.4932C151.59 51.4778 151.921 51.4547 152.229 51.4239V40.1196C152.229 39.8885 152.191 39.6804 152.114 39.4955C152.052 39.3105 151.929 39.141 151.744 38.9869C151.574 38.8328 151.336 38.6941 151.027 38.5708C150.719 38.4475 150.334 38.3242 149.872 38.2009L150.288 37.3687C151.027 37.4612 151.775 37.5845 152.53 37.7386C153.301 37.8773 153.986 38.0237 154.587 38.1778C154.557 38.3165 154.526 38.486 154.495 38.6864C154.464 38.8867 154.433 39.0871 154.402 39.2874C154.387 39.4878 154.372 39.6727 154.356 39.8422C154.341 40.0118 154.333 40.1351 154.333 40.2121V51.2158C154.333 51.6936 154.318 52.2407 154.287 52.8572C154.271 53.4582 154.241 54.0669 154.194 54.6834C154.148 55.2999 154.094 55.8932 154.033 56.4634C153.986 57.0336 153.932 57.5114 153.871 57.8967L152.414 58.0816C152.384 57.7888 152.36 57.4343 152.345 57.0182C152.33 56.6175 152.307 56.186 152.276 55.7237C152.26 55.2613 152.245 54.7913 152.229 54.3135C152.229 53.8204 152.229 53.3503 152.229 52.9034V52.6953ZM150.519 45.321C150.519 45.7679 150.403 46.1917 150.172 46.5924C149.941 46.9777 149.625 47.3168 149.224 47.6096C148.824 47.887 148.354 48.1104 147.814 48.28C147.275 48.4495 146.697 48.5343 146.08 48.5343C145.464 48.5343 144.886 48.4495 144.347 48.28C143.807 48.1104 143.329 47.8793 142.913 47.5865C142.513 47.2936 142.189 46.9546 141.942 46.5693C141.711 46.184 141.596 45.7679 141.596 45.321C141.596 44.8586 141.711 44.4348 141.942 44.0495C142.189 43.6643 142.513 43.3329 142.913 43.0555C143.314 42.7627 143.784 42.5392 144.323 42.3851C144.878 42.2156 145.464 42.1308 146.08 42.1308C146.728 42.1308 147.321 42.2233 147.86 42.4082C148.415 42.5778 148.885 42.8089 149.27 43.1017C149.671 43.3946 149.979 43.7336 150.195 44.1189C150.411 44.5042 150.519 44.9049 150.519 45.321ZM143.838 45.3441C143.838 45.6215 143.892 45.8912 144 46.1532C144.123 46.4152 144.285 46.6464 144.485 46.8467C144.686 47.0316 144.924 47.1858 145.202 47.3091C145.479 47.4169 145.772 47.4709 146.08 47.4709C146.389 47.4709 146.674 47.4169 146.936 47.3091C147.213 47.1858 147.452 47.0316 147.652 46.8467C147.868 46.6464 148.038 46.4229 148.161 46.1763C148.284 45.9143 148.346 45.6369 148.346 45.3441C148.346 45.0513 148.284 44.7739 148.161 44.5119C148.053 44.2345 147.891 43.9956 147.675 43.7953C147.475 43.5949 147.236 43.4331 146.959 43.3098C146.697 43.1865 146.404 43.1249 146.08 43.1249C145.448 43.1249 144.917 43.3329 144.485 43.749C144.054 44.1651 143.838 44.6968 143.838 45.3441ZM148.901 39.5417C148.654 39.5417 148.384 39.5417 148.092 39.5417C147.814 39.5417 147.529 39.5494 147.236 39.5648C146.959 39.5648 146.689 39.5725 146.427 39.588C146.165 39.588 145.934 39.588 145.734 39.588C145.626 39.588 145.472 39.5957 145.271 39.6111C145.071 39.6111 144.855 39.6265 144.624 39.6573C144.393 39.6727 144.162 39.6958 143.93 39.7267C143.699 39.7575 143.499 39.7883 143.329 39.8191L142.382 38.1085C142.567 38.1547 142.79 38.2009 143.052 38.2472C143.329 38.278 143.607 38.3165 143.884 38.3627C144.177 38.3936 144.462 38.4244 144.74 38.4552C145.017 38.4706 145.248 38.4783 145.433 38.4783C145.618 38.4783 145.857 38.4706 146.15 38.4552C146.442 38.4398 146.766 38.4167 147.121 38.3859C147.49 38.3396 147.86 38.3011 148.23 38.2703C148.615 38.224 148.978 38.1778 149.317 38.1316L148.901 39.5417ZM151.374 41.5067C150.866 41.5067 150.265 41.5144 149.571 41.5298C148.893 41.5298 148.192 41.5452 147.467 41.576C146.743 41.5914 146.042 41.6145 145.364 41.6454C144.686 41.6608 144.108 41.6762 143.63 41.6916C143.445 41.707 143.206 41.7301 142.913 41.761C142.636 41.7918 142.343 41.8226 142.035 41.8534C141.742 41.8842 141.449 41.9151 141.156 41.9459C140.879 41.9767 140.648 42.0075 140.463 42.0384L139.515 40.2121C139.715 40.2583 139.97 40.3046 140.278 40.3508C140.586 40.3816 140.902 40.4125 141.226 40.4433C141.549 40.4741 141.858 40.5049 142.15 40.5358C142.459 40.5512 142.721 40.5589 142.936 40.5589C143.43 40.5589 144.023 40.5512 144.716 40.5358C145.41 40.5049 146.15 40.4664 146.936 40.4202C147.722 40.3585 148.515 40.2892 149.317 40.2121C150.134 40.1196 150.912 40.0041 151.652 39.8654L151.374 41.5067ZM153.686 36.3516C154.456 36.4594 155.266 36.5981 156.113 36.7677C156.976 36.9372 157.701 37.0836 158.286 37.2069C158.255 37.3456 158.224 37.5151 158.194 37.7155C158.163 37.9158 158.132 38.1162 158.101 38.3165C158.07 38.5169 158.047 38.7018 158.032 38.8713C158.016 39.0408 158.009 39.1641 158.009 39.2412V52.0481C158.009 52.5258 158.001 53.0729 157.986 53.6894C157.97 54.2904 157.939 54.8992 157.893 55.5156C157.862 56.1321 157.824 56.7177 157.778 57.2725C157.731 57.8427 157.685 58.3205 157.639 58.7058L156.09 58.9138C156.059 58.621 156.028 58.2665 155.998 57.8504C155.982 57.4497 155.959 57.0105 155.928 56.5328C155.913 56.0704 155.897 55.6004 155.882 55.1226C155.867 54.6295 155.859 54.1594 155.859 53.7125V39.195C155.859 38.9638 155.82 38.7557 155.743 38.5708C155.666 38.3705 155.528 38.1932 155.327 38.0391C155.142 37.8696 154.88 37.7232 154.541 37.5999C154.218 37.4612 153.801 37.3302 153.293 37.2069L153.686 36.3516Z" fill="white"/>
<path d="M125.565 40.3046C125.303 40.2892 125.003 40.2892 124.664 40.3046C124.34 40.3046 124.001 40.3123 123.647 40.3277C123.292 40.3431 122.945 40.3662 122.606 40.397C122.267 40.4125 121.959 40.4279 121.682 40.4433C121.512 40.4587 121.289 40.4818 121.011 40.5126C120.749 40.528 120.456 40.5512 120.133 40.582C119.825 40.6128 119.501 40.6513 119.162 40.6976C118.823 40.7438 118.507 40.7977 118.214 40.8594L117.151 39.01C117.32 39.0408 117.551 39.0794 117.844 39.1256C118.152 39.1718 118.468 39.2104 118.792 39.2412C119.131 39.272 119.462 39.3028 119.786 39.3337C120.125 39.3491 120.418 39.3568 120.665 39.3568C121.081 39.3568 121.589 39.3568 122.19 39.3568C122.791 39.3414 123.431 39.326 124.109 39.3105C124.787 39.2797 125.473 39.2412 126.166 39.195C126.875 39.1487 127.546 39.0948 128.178 39.0331C128.147 39.1256 128.108 39.2566 128.062 39.4261C128.031 39.5802 127.993 39.7421 127.946 39.9116C127.916 40.0811 127.885 40.2429 127.854 40.397C127.823 40.5512 127.8 40.6745 127.785 40.7669L127.345 43.356C127.484 43.3252 127.615 43.3098 127.738 43.3098C127.877 43.2944 128.016 43.279 128.154 43.2636L127.97 44.7431C127.076 44.6968 126.274 44.6737 125.565 44.6737C124.872 44.6583 124.24 44.6583 123.67 44.6737C123.115 44.6891 122.606 44.7122 122.144 44.7431C121.697 44.7739 121.281 44.797 120.896 44.8124C120.896 44.9357 120.888 45.059 120.873 45.1823C120.857 45.3056 120.849 45.4289 120.849 45.5522V47.5865C120.849 47.833 120.903 48.018 121.011 48.1413C121.135 48.2646 121.289 48.3185 121.474 48.3031C122.075 48.2569 122.776 48.1798 123.577 48.0719C124.394 47.964 125.242 47.8253 126.12 47.6558C127.014 47.4709 127.916 47.2628 128.825 47.0316C129.75 46.8005 130.628 46.5462 131.46 46.2688V39.195C131.46 38.7172 131.237 38.3319 130.79 38.0391C130.358 37.7309 129.634 37.4535 128.617 37.2069L128.964 36.3516C129.349 36.3978 129.765 36.4594 130.212 36.5365C130.674 36.5981 131.129 36.6752 131.576 36.7677C132.023 36.8447 132.447 36.9218 132.847 36.9988C133.248 37.0759 133.595 37.1375 133.888 37.1838C133.857 37.3225 133.826 37.492 133.795 37.6924C133.764 37.8927 133.733 38.1008 133.703 38.3165C133.687 38.5169 133.672 38.7018 133.656 38.8713C133.641 39.0408 133.633 39.1641 133.633 39.2412V43.4947C133.957 43.4793 134.311 43.4562 134.697 43.4254C135.082 43.3792 135.475 43.3329 135.876 43.2867C136.276 43.2404 136.669 43.1942 137.055 43.148C137.455 43.0863 137.833 43.0247 138.187 42.963L137.933 44.7893C137.656 44.7739 137.34 44.7662 136.985 44.7662C136.631 44.7662 136.253 44.7662 135.852 44.7662C135.467 44.7662 135.082 44.7662 134.697 44.7662C134.311 44.7662 133.957 44.7662 133.633 44.7662V46.4768C133.633 46.7542 133.618 47.0779 133.587 47.4478C133.572 47.8176 133.548 48.1952 133.518 48.5805C133.487 48.9504 133.448 49.3048 133.402 49.6439C133.371 49.9675 133.333 50.2218 133.286 50.4067L131.645 50.661C131.614 50.4915 131.591 50.2835 131.576 50.0369C131.56 49.7903 131.537 49.536 131.506 49.274C131.491 48.9966 131.476 48.7269 131.46 48.4649C131.46 48.2029 131.46 47.964 131.46 47.7483V47.2166C130.674 47.494 129.819 47.7714 128.894 48.0488C127.97 48.3262 127.037 48.5805 126.097 48.8117C125.157 49.0428 124.248 49.2509 123.369 49.4358C122.506 49.6053 121.736 49.7363 121.058 49.8288C120.194 49.9367 119.586 49.8288 119.231 49.5052C118.877 49.1661 118.7 48.6267 118.7 47.887V45.922C118.7 45.6446 118.676 45.4135 118.63 45.2285C118.599 45.0436 118.522 44.8895 118.399 44.7662C118.291 44.6429 118.129 44.535 117.914 44.4425C117.698 44.3501 117.405 44.2422 117.035 44.1189L117.382 43.4023C118.877 43.5718 120.279 43.6489 121.589 43.6334C122.915 43.618 124.178 43.5718 125.38 43.4947L125.565 40.3046ZM129.634 50.8228C130.235 50.8999 130.782 51.054 131.275 51.2852C131.784 51.5164 132.215 51.8092 132.57 52.1636C132.94 52.5027 133.225 52.8957 133.425 53.3426C133.626 53.7741 133.726 54.2365 133.726 54.7296C133.726 55.2844 133.595 55.8007 133.333 56.2785C133.086 56.7562 132.732 57.1723 132.269 57.5268C131.822 57.8813 131.291 58.1587 130.674 58.359C130.058 58.5594 129.395 58.6595 128.686 58.6595C127.946 58.6595 127.268 58.5594 126.652 58.359C126.035 58.1587 125.504 57.8813 125.057 57.5268C124.61 57.1723 124.255 56.7562 123.993 56.2785C123.747 55.8007 123.624 55.2844 123.624 54.7296C123.624 54.2211 123.724 53.7433 123.924 53.2964C124.14 52.8494 124.44 52.4565 124.826 52.1174C125.211 51.7629 125.658 51.4701 126.166 51.239C126.69 51.0078 127.268 50.8614 127.9 50.7997C127.869 50.6148 127.785 50.4684 127.646 50.3605C127.507 50.2526 127.261 50.1447 126.906 50.0369L127.299 49.3434C127.469 49.3742 127.669 49.4127 127.9 49.4589C128.131 49.5052 128.363 49.5591 128.594 49.6208C128.84 49.667 129.079 49.7132 129.31 49.7595C129.541 49.8057 129.75 49.8519 129.934 49.8982C129.857 50.0677 129.796 50.2218 129.75 50.3605C129.703 50.4992 129.665 50.6533 129.634 50.8228ZM131.437 54.614C131.437 54.2134 131.36 53.8435 131.206 53.5044C131.067 53.1654 130.867 52.8726 130.605 52.626C130.358 52.364 130.065 52.1636 129.726 52.0249C129.403 51.8708 129.048 51.7938 128.663 51.7938C128.262 51.7938 127.892 51.8708 127.553 52.0249C127.214 52.1636 126.914 52.364 126.652 52.626C126.405 52.8726 126.205 53.1654 126.051 53.5044C125.912 53.8435 125.843 54.2134 125.843 54.614C125.843 55.0147 125.912 55.3846 126.051 55.7237C126.205 56.0473 126.405 56.3324 126.652 56.579C126.914 56.841 127.214 57.0413 127.553 57.18C127.892 57.3187 128.262 57.3881 128.663 57.3881C129.048 57.3881 129.41 57.3187 129.75 57.18C130.089 57.0413 130.381 56.841 130.628 56.579C130.875 56.3324 131.067 56.0473 131.206 55.7237C131.36 55.3846 131.437 55.0147 131.437 54.614Z" fill="white"/>
<path d="M101.717 41.368C102.395 41.4604 103.019 41.6454 103.589 41.9228C104.159 42.1848 104.645 42.5238 105.045 42.9399C105.462 43.3406 105.778 43.803 105.993 44.327C106.224 44.8509 106.34 45.4135 106.34 46.0145C106.34 46.6926 106.194 47.3245 105.901 47.9101C105.623 48.4803 105.23 48.9812 104.722 49.4127C104.213 49.8288 103.612 50.1602 102.919 50.4067C102.225 50.6379 101.478 50.7535 100.676 50.7535C99.875 50.7535 99.1275 50.6379 98.434 50.4067C97.7559 50.1602 97.1703 49.8288 96.6771 49.4127C96.1839 48.9812 95.791 48.4803 95.4981 47.9101C95.2207 47.3245 95.082 46.6926 95.082 46.0145C95.082 45.398 95.2053 44.8201 95.4519 44.2807C95.6985 43.7259 96.0375 43.2404 96.4691 42.8243C96.9006 42.4082 97.4169 42.0692 98.0179 41.8072C98.6189 41.5452 99.2816 41.3834 100.006 41.3217C100.006 41.0906 99.9366 40.9056 99.7979 40.7669C99.6746 40.6282 99.4203 40.4972 99.0351 40.3739L99.428 39.6804C99.5822 39.7267 99.7748 39.7729 100.006 39.8191C100.237 39.8654 100.468 39.9116 100.699 39.9578C100.946 40.0041 101.185 40.0503 101.416 40.0965C101.663 40.1428 101.878 40.189 102.063 40.2352C102.002 40.3739 101.94 40.5435 101.878 40.7438C101.817 40.9442 101.763 41.1522 101.717 41.368ZM104.075 45.9451C104.075 45.452 103.982 44.9973 103.797 44.5812C103.628 44.1497 103.389 43.7798 103.081 43.4716C102.788 43.148 102.433 42.8937 102.017 42.7088C101.616 42.5238 101.185 42.4314 100.723 42.4314C100.26 42.4314 99.8287 42.5238 99.428 42.7088C99.0273 42.8937 98.6729 43.148 98.3647 43.4716C98.0718 43.7798 97.8407 44.1497 97.6711 44.5812C97.5016 44.9973 97.4169 45.452 97.4169 45.9451C97.4169 46.4383 97.5016 46.9007 97.6711 47.3322C97.8407 47.7483 98.0718 48.1104 98.3647 48.4187C98.6729 48.7115 99.0273 48.9427 99.428 49.1122C99.8287 49.2817 100.26 49.3665 100.723 49.3665C101.185 49.3665 101.616 49.2817 102.017 49.1122C102.433 48.9427 102.788 48.7115 103.081 48.4187C103.389 48.1104 103.628 47.7483 103.797 47.3322C103.982 46.9007 104.075 46.4383 104.075 45.9451ZM111.773 52.0481C111.773 52.5258 111.757 53.0806 111.726 53.7125C111.711 54.3289 111.688 54.9531 111.657 55.585C111.626 56.2014 111.588 56.7871 111.541 57.3419C111.495 57.9121 111.449 58.3667 111.403 58.7058L109.808 58.9138C109.777 58.6672 109.746 58.3359 109.715 57.9198C109.7 57.5037 109.677 57.0568 109.646 56.579C109.63 56.1167 109.615 55.6389 109.6 55.1457C109.6 54.6372 109.6 54.1594 109.6 53.7125V39.195C109.6 38.7172 109.376 38.3319 108.929 38.0391C108.498 37.7309 107.773 37.4535 106.756 37.2069L107.126 36.3516C107.511 36.3978 107.927 36.4594 108.374 36.5365C108.821 36.5981 109.268 36.6752 109.715 36.7677C110.162 36.8447 110.586 36.9218 110.987 36.9988C111.403 37.0759 111.757 37.1375 112.05 37.1838C112.019 37.3225 111.981 37.492 111.934 37.6924C111.904 37.8927 111.873 38.1008 111.842 38.3165C111.826 38.5169 111.811 38.7018 111.796 38.8713C111.78 39.0408 111.773 39.1641 111.773 39.2412V45.6446C112.451 45.5984 113.214 45.529 114.061 45.4366C114.909 45.3441 115.679 45.2362 116.373 45.1129L116.142 46.9854C115.864 46.97 115.541 46.9623 115.171 46.9623C114.816 46.9623 114.439 46.9623 114.038 46.9623C113.653 46.9623 113.26 46.9623 112.859 46.9623C112.474 46.9623 112.112 46.9623 111.773 46.9623V52.0481Z" fill="white"/>
<g clip-path="url(#clip0_1246_672)">
<path d="M38.9702 54.6594L37.6148 56.5997L33.2314 53.5382L33.2307 53.5379L17.7075 42.6751L2.08502 53.67L0.722656 51.7343L17.7041 39.7832L38.9702 54.6594Z" fill="white"/>
<path d="M69.9689 46.6618L68.4956 48.5143L53.5569 36.634L33.7726 52.8626L32.2715 51.0325L50.408 36.1547L50.4084 36.1543L53.5342 33.5918L69.9689 46.6618Z" fill="white"/>
<path d="M15.1333 71.3225L12.8455 71.9309L9.89844 60.8443L12.1863 60.2363L15.1333 71.3225Z" fill="white"/>
<path d="M14.0897 72.9822L3.59531 75.0181L3.14453 72.694L13.6389 70.6582L14.0897 72.9822Z" fill="white"/>
<path d="M36.1722 0.00348499L36.1718 0.00387027C45.678 0.168746 54.2664 4.16196 60.4948 10.4709L60.7895 10.7733L60.7903 10.7737C67.0333 17.2575 70.8322 26.1254 70.6648 35.7999V35.8003L70.2625 58.8596V59.0961L70.2622 59.1077L70.2229 61.1042C70.2024 62.2669 70.1246 63.4107 69.9898 64.5429C69.937 64.9973 69.8761 65.4518 69.8071 65.906L69.8064 65.9103C69.5979 67.251 69.3119 68.5622 68.9568 69.8436C68.9361 69.9229 68.91 70.0214 68.8794 70.1237L68.8798 70.1241C68.6716 70.8547 68.4385 71.5821 68.1847 72.2902V72.291C67.7683 73.4504 67.2944 74.5767 66.7642 75.678C66.3602 76.5185 65.9236 77.3438 65.4534 78.1492C65.4151 78.2164 65.3549 78.3204 65.2816 78.4297C64.6817 79.4445 64.0342 80.4189 63.3313 81.3683L63.3317 81.3686C62.6502 82.2909 61.9221 83.1829 61.1471 84.0317C60.5294 84.7182 59.8816 85.3859 59.2041 86.0267L59.2037 86.0271C58.3936 86.7925 57.5452 87.5271 56.6624 88.2179C54.9685 89.5444 53.1525 90.7148 51.2356 91.7182L51.236 91.7185C50.8259 91.934 50.4129 92.1364 49.9935 92.3296L49.9931 92.3292C49.86 92.3963 49.7329 92.4545 49.6178 92.5049C49.2573 92.6691 48.8853 92.835 48.504 92.99C47.1673 93.5462 45.7854 94.0317 44.3664 94.4202L44.366 94.4198C42.4183 94.9546 40.4023 95.3263 38.3425 95.5221L38.2866 95.5275H38.2712C37.0297 95.6417 35.7724 95.689 34.4997 95.665C33.4304 95.6486 32.379 95.5793 31.3423 95.4651V95.4647C29.0682 95.2239 26.8621 94.7597 24.7369 94.0877L24.4611 94.0021C24.2514 93.9358 24.0433 93.8666 23.8358 93.7952H23.8311L23.642 93.7293C21.9169 93.1285 20.2549 92.3933 18.6679 91.5448H18.6675C16.6227 90.4509 14.6993 89.1645 12.9183 87.6981V87.6977C10.3734 85.6093 8.12507 83.1737 6.25137 80.4555C2.57538 75.1516 0.320872 68.8049 0.0332634 61.9804L0.0201638 61.6671C0.00923984 61.3601 0.00491357 61.054 0.00475239 60.7463C-0.00334331 60.4427 0.000550176 60.1435 0.00436711 59.8725V59.8686L0.446288 34.5674C0.785154 15.2153 16.855 -0.335485 36.1722 0.00348499ZM36.1306 2.37029C18.1251 2.05434 3.1292 16.5592 2.81309 34.6086L2.37117 59.9056C2.36717 60.1899 2.3641 60.4453 2.37117 60.6962L2.37156 60.7128V60.7297C2.37156 61.02 2.37585 61.3032 2.38581 61.5831L2.39775 61.8621V61.8667L2.39814 61.8717C2.6563 68.0376 4.63584 73.7857 7.8792 78.6404L8.19706 79.1074L8.1986 79.1097C9.83668 81.4866 11.7833 83.6337 13.979 85.5001L14.4217 85.8695L14.4233 85.8707C16.0826 87.237 17.8757 88.4365 19.7841 89.4573L20.0627 89.6045C21.4025 90.3048 22.7961 90.9169 24.2345 91.428H24.2376L24.4283 91.4955C24.7604 91.6124 25.0911 91.7211 25.4243 91.8222L25.4312 91.8245L25.4382 91.8264C27.4181 92.4535 29.4744 92.887 31.5965 93.1114L31.6019 93.1121C32.5693 93.2188 33.5458 93.283 34.5359 93.2982H34.5401C35.7461 93.321 36.9369 93.2756 38.1121 93.1653L38.1672 93.1603H38.1683C40.0755 92.9761 41.9403 92.6313 43.7403 92.137H43.7411C45.0568 91.7767 46.3468 91.3244 47.6032 90.8012L47.6124 90.7973C47.9491 90.6604 48.2873 90.5104 48.6369 90.3512L48.645 90.3473L48.6531 90.3439C48.7729 90.2914 48.8675 90.2483 48.9555 90.2028L48.979 90.1905L49.0029 90.1797C49.3883 90.0021 49.7643 89.8175 50.1353 89.6226L50.1368 89.6218C51.9279 88.6844 53.6231 87.5913 55.2033 86.3538L55.2037 86.3535C56.0252 85.7107 56.8181 85.0245 57.5782 84.3064C58.2082 83.7106 58.8131 83.0866 59.3929 82.4421L59.396 82.439L59.3987 82.4355C60.1149 81.651 60.7917 80.823 61.428 79.962L61.4283 79.9608C62.0908 79.0662 62.6994 78.15 63.2619 77.196L63.2854 77.1559L63.3116 77.1182C63.3306 77.091 63.3521 77.0556 63.4037 76.9652L63.4064 76.9606L63.4091 76.9556C63.8464 76.2065 64.2536 75.4376 64.6308 74.6528L64.6312 74.652C65.1266 73.623 65.5683 72.5719 65.9566 71.4907C66.1919 70.834 66.4089 70.1572 66.6031 69.4757L66.6058 69.4653L66.6089 69.4553C66.6284 69.391 66.6463 69.3231 66.6709 69.2287L66.6755 69.2118C66.9655 68.1652 67.206 67.0989 67.3914 66.0131L67.4673 65.5466C67.532 65.1197 67.5892 64.6929 67.6387 64.2663L67.6391 64.2628C67.7645 63.2102 67.837 62.1451 67.856 61.0599V61.0572L67.8953 59.0611V58.8387L68.298 35.7587C68.454 26.7405 64.9145 18.4702 59.085 12.4158V12.4154C53.3387 6.45555 45.3799 2.64668 36.5517 2.38031L36.1306 2.37029Z" fill="white"/>
<path d="M11.1118 59.7761C13.8734 59.6795 16.7314 59.8975 19.6201 60.438H19.6289L19.7387 60.4592C22.7429 61.0316 25.7843 61.9564 28.7629 63.2448L29.0888 63.3866C29.4094 63.5277 29.7318 63.6748 30.0536 63.8293L30.408 63.9958C30.6437 64.1082 30.8782 64.2237 31.1112 64.341L31.4595 64.5178L31.461 64.5186C32.5306 65.0693 33.5632 65.6529 34.5583 66.2732C34.5837 66.2871 34.6038 66.299 34.6177 66.3075C34.6279 66.3137 34.6382 66.32 34.6439 66.3237L34.6462 66.3252L34.655 66.3306C36.0258 67.1864 37.3128 68.0984 38.5241 69.058L39.0384 69.4722L39.0446 69.4772L39.0511 69.4826C39.2979 69.6902 39.5531 69.9051 39.8017 70.121C39.9188 70.2225 40.0464 70.3333 40.1715 70.4458C40.8935 71.0866 41.5857 71.7465 42.2436 72.4289C42.9027 73.1094 43.5299 73.8072 44.118 74.5198L44.3677 74.8261L44.3684 74.8273C44.5655 75.0726 44.7608 75.3211 44.9537 75.5755C45.8291 76.7209 46.6131 77.9021 47.2958 79.107L47.4862 79.4468C47.6119 79.674 47.7349 79.9027 47.8545 80.133L48.0313 80.4798L48.0329 80.4829L48.0344 80.4863C48.1622 80.7458 48.2932 81.0156 48.4174 81.2846L48.6466 81.7928C49.1672 82.98 49.5909 84.1819 49.9173 85.3925C49.9431 85.4869 49.9678 85.5805 49.9913 85.673L50.0595 85.9477L50.0603 85.9508C50.4963 87.7572 50.7103 89.5733 50.6809 91.3768L48.3141 91.3383C48.34 89.7499 48.152 88.1347 47.7601 86.5099L47.6973 86.2563C47.6765 86.1744 47.6553 86.0943 47.6337 86.0152L47.633 86.0117C47.296 84.7612 46.8417 83.5147 46.2694 82.2798L46.2691 82.2783C46.1568 82.035 46.0353 81.7845 45.9107 81.5316C45.702 81.1146 45.4766 80.6973 45.2373 80.2756L45.2365 80.2748C44.6095 79.168 43.8861 78.0767 43.0731 77.013L43.0704 77.0095C42.8937 76.7764 42.7119 76.5449 42.5237 76.3106L42.2921 76.0267C41.7464 75.3654 41.1619 74.7142 40.5437 74.076L40.5418 74.074C39.93 73.4395 39.2817 72.8213 38.6 72.2162L38.5969 72.2135L38.5942 72.2108C38.4846 72.1122 38.3693 72.0119 38.2517 71.9099L38.2505 71.9091C38.0194 71.7084 37.7796 71.5063 37.5312 71.2973C36.2627 70.2603 34.9041 69.2801 33.4449 68.3664L33.4352 68.3626L33.3455 68.3067C32.3966 67.7137 31.4074 67.1538 30.3772 66.6234C29.9332 66.3956 29.4958 66.1788 29.0626 65.9792L29.0449 65.9707C28.6454 65.7785 28.2391 65.5961 27.8282 65.4194L27.8255 65.4186C25.0314 64.2098 22.1829 63.341 19.3743 62.7998L19.2922 62.7844C16.5307 62.2597 13.8097 62.0499 11.1947 62.1414C7.73853 62.2635 4.48948 62.9078 1.6246 64.047L0.75 61.8474C3.89768 60.5958 7.41921 59.9066 11.1118 59.7761Z" fill="white"/>
<path d="M34.9062 82.7426L34.9132 82.7496L34.9328 82.7615L43.4865 87.8503H43.4958L44.0514 88.1871L48.6636 90.9369L47.4511 92.97L42.8393 90.2202L42.8358 90.2179L42.8323 90.216L42.7765 90.1821L33.7227 84.7958L33.7149 84.7912L33.5647 84.7006L33.4422 84.6263L33.4414 84.6255L0.609375 65.0812L1.81994 63.0469L34.9062 82.7426Z" fill="white"/>
<path d="M25.0218 77.244L22.7386 77.8697L18.3633 61.9109L20.6465 61.2852L25.0218 77.244Z" fill="white"/>
<path d="M35.4712 83.4782L33.1791 84.0704L28.291 65.1406L30.5827 64.5488L35.4712 83.4782Z" fill="white"/>
<path d="M44.6668 89.166L42.384 89.792L37.1406 70.6812L39.4238 70.0547L44.6668 89.166Z" fill="white"/>
<path d="M24.0958 78.7209L8.36192 81.6683L7.92578 79.3416L23.66 76.3945L24.0958 78.7209Z" fill="white"/>
<path d="M34.6373 84.799L14.7369 88.5313L14.3008 86.2049L34.2007 82.4727L34.6373 84.799Z" fill="white"/>
<path d="M44.1325 90.0549L24.2522 93.7794L24.1443 93.7998H24.0302V92.5954L23.8164 91.4527L43.6967 87.7285L44.1325 90.0549Z" fill="white"/>
<path d="M51.115 84.7168C53.0068 84.7168 54.7626 85.3132 56.1692 86.3415L54.7721 88.2526C53.7721 87.5214 52.5057 87.084 51.115 87.084C50.4633 87.084 49.8386 87.1809 49.2568 87.3595L48.5625 85.0963C49.3694 84.8487 50.2281 84.7168 51.115 84.7168Z" fill="white"/>
<path d="M51.1162 79.1992C54.6855 79.1992 57.9486 80.4311 60.4513 82.4815L58.951 84.3127C56.8692 82.6072 54.1356 81.5664 51.1162 81.5664C49.7891 81.5664 48.5152 81.769 47.3262 82.1401L46.6211 79.8804C48.036 79.4388 49.5475 79.1992 51.1162 79.1992Z" fill="white"/>
<path d="M51.1166 72.9453C56.1122 72.9454 60.7158 74.5902 64.3214 77.3426L62.8851 79.2243C59.6891 76.7847 55.5896 75.3125 51.1166 75.3125C48.549 75.3125 46.1035 75.8006 43.8798 76.6745L43.0137 74.4714C45.5085 73.491 48.2476 72.9453 51.1166 72.9453Z" fill="white"/>
<path d="M51.1151 67.0586C57.0592 67.0586 62.564 68.8472 67.0493 71.8731L65.7254 73.8354C61.6257 71.0696 56.5807 69.4258 51.1151 69.4258C46.934 69.4258 43.001 70.3857 39.5477 72.0785L38.5059 69.9529C42.2803 68.1028 46.5693 67.0586 51.1151 67.0586Z" fill="white"/>
<path d="M51.1157 61.543C57.6171 61.543 64.0377 63.3937 69.2557 66.594L68.0182 68.6118C63.1757 65.6418 57.184 63.9102 51.1157 63.9102C45.0443 63.9102 39.3897 65.5411 34.6317 68.3571L33.4258 66.3201C38.5468 63.2892 44.6176 61.543 51.1157 61.543Z" fill="white"/>
<path d="M51.1156 56.0234C57.7999 56.0234 64.1012 57.5943 69.6066 60.3633L68.5428 62.4781C63.3644 59.8736 57.4272 58.3906 51.1156 58.3906C42.7962 58.3906 35.1242 60.9654 28.9787 65.303L27.6133 63.3693C34.1559 58.7512 42.3046 56.0234 51.1156 56.0234Z" fill="white"/>
<path d="M36.1239 27.4199C42.5924 27.4199 48.2565 30.8797 51.3577 36.0468L49.328 37.2651C46.6374 32.782 41.7281 29.7871 36.1239 29.7871C28.2226 29.7872 21.7155 35.7399 20.8401 43.4065L18.4883 43.138C19.4987 34.2896 27.0052 27.42 36.1239 27.4199Z" fill="white"/>
</g>
<defs>
<clipPath id="clip0_1246_672">
<rect width="70.6685" height="95.6739" fill="white"/>
</clipPath>
</defs>
</svg>
