<svg width="131" height="69" viewBox="0 0 131 69" fill="none" xmlns="http://www.w3.org/2000/svg">
<path d="M123.119 30.4084C123.561 30.7068 124.059 31.0162 124.611 31.3366C125.164 31.6461 125.722 31.9444 126.285 32.2317C126.849 32.519 127.396 32.7843 127.926 33.0274C128.457 33.2705 128.926 33.4694 129.335 33.6241L128.142 34.8341C127.733 34.5358 127.291 34.2263 126.816 33.9059C126.352 33.5744 125.877 33.2484 125.39 32.9279C124.904 32.5964 124.418 32.2759 123.932 31.9665C123.445 31.6571 122.987 31.3643 122.556 31.088C121.727 32.0715 120.799 32.9279 119.771 33.6572C118.754 34.3866 117.683 35.0109 116.555 35.5303L116.124 35.0165C116.81 34.6628 117.462 34.254 118.08 33.7899C118.71 33.3147 119.29 32.8174 119.821 32.298C120.351 31.7676 120.821 31.2261 121.23 30.6736C121.65 30.11 121.998 29.5575 122.274 29.016C122.396 28.784 122.379 28.6016 122.224 28.469C122.136 28.3917 121.981 28.2977 121.76 28.1872C121.539 28.0657 121.346 27.9718 121.18 27.9055L121.611 27.3916C121.821 27.4469 122.053 27.5132 122.307 27.5905C122.561 27.6568 122.816 27.7286 123.07 27.806C123.324 27.8833 123.573 27.9607 123.816 28.0381C124.059 28.1154 124.285 28.1928 124.495 28.2701C124.296 28.6569 124.081 29.0271 123.849 29.3807C123.628 29.7343 123.385 30.0769 123.119 30.4084ZM130.148 39.3759C129.706 39.3538 129.131 39.3372 128.424 39.3262C127.716 39.3151 126.993 39.3041 126.252 39.293C125.943 39.293 125.567 39.2985 125.125 39.3096C124.683 39.3096 124.202 39.3206 123.683 39.3427C123.175 39.3538 122.65 39.3704 122.108 39.3925C121.578 39.4035 121.07 39.4201 120.583 39.4422C120.097 39.4532 119.655 39.4698 119.257 39.4919C118.871 39.514 118.567 39.5306 118.346 39.5416C117.926 39.5637 117.478 39.5969 117.003 39.6411C116.528 39.6743 116.086 39.7185 115.677 39.7737L115.146 38.315C115.644 38.3813 116.169 38.4366 116.721 38.4808C117.285 38.5139 117.821 38.5416 118.329 38.5637C118.605 38.5747 118.948 38.5803 119.357 38.5803C119.777 38.5803 120.224 38.5803 120.699 38.5803C121.186 38.5692 121.683 38.5581 122.191 38.5471C122.711 38.525 123.208 38.5084 123.683 38.4974C124.169 38.4863 124.617 38.4753 125.026 38.4642C125.435 38.4421 125.772 38.4255 126.037 38.4145C126.777 38.3703 127.529 38.315 128.291 38.2487C129.065 38.1824 129.75 38.1051 130.346 38.0167L130.148 39.3759Z" fill="#2C1D12"/>
<path d="M105.391 37.685C105.391 37.9724 105.38 38.2818 105.357 38.6133C105.346 38.9448 105.33 39.2763 105.308 39.6078C105.286 39.9394 105.258 40.2598 105.225 40.5692C105.192 40.8786 105.153 41.1494 105.109 41.3814L103.998 41.5804C103.976 41.3814 103.954 41.1383 103.932 40.851C103.921 40.5748 103.91 40.2874 103.899 39.9891C103.888 39.6797 103.877 39.3758 103.866 39.0774C103.866 38.768 103.866 38.4917 103.866 38.2486V36.359C103.744 36.359 103.617 36.3645 103.484 36.3756C103.363 36.3866 103.241 36.3977 103.12 36.4087C102.998 36.4198 102.827 36.4363 102.606 36.4584C102.396 36.4695 102.164 36.4916 101.91 36.5247C101.667 36.5468 101.418 36.5745 101.164 36.6076C100.921 36.6297 100.705 36.6518 100.517 36.6739L99.7051 35.2981C99.8819 35.3313 100.086 35.3589 100.318 35.381C100.561 35.4031 100.81 35.4252 101.064 35.4473C101.318 35.4694 101.562 35.486 101.794 35.497C102.026 35.497 102.219 35.497 102.374 35.497C102.993 35.4749 103.578 35.4473 104.131 35.4142C104.683 35.381 105.219 35.3368 105.739 35.2816C106.258 35.2263 106.766 35.1655 107.264 35.0992C107.761 35.0219 108.264 34.9335 108.772 34.834V35.5302C108.175 35.6739 107.601 35.7954 107.048 35.8949C106.496 35.9943 105.943 36.0827 105.391 36.1601V37.685ZM109.153 37.7845C108.148 37.8177 107.247 37.9171 106.451 38.0829L105.805 36.79C106.148 36.8563 106.479 36.9005 106.8 36.9226C107.12 36.9447 107.424 36.9502 107.711 36.9391C107.954 36.9281 108.197 36.9226 108.441 36.9226C108.695 36.9115 108.932 36.8949 109.153 36.8728V28.7673C109.153 28.6015 109.126 28.4523 109.07 28.3197C109.026 28.1871 108.938 28.0656 108.805 27.9551C108.684 27.8446 108.512 27.7451 108.291 27.6567C108.07 27.5683 107.794 27.4799 107.463 27.3915L107.761 26.7948C108.291 26.8611 108.827 26.9495 109.369 27.06C109.921 27.1594 110.413 27.2644 110.844 27.3749C110.822 27.4744 110.8 27.5959 110.778 27.7396C110.756 27.8832 110.733 28.0269 110.711 28.1706C110.7 28.3142 110.689 28.4468 110.678 28.5684C110.667 28.6899 110.662 28.7783 110.662 28.8336V36.7237C110.662 37.0662 110.651 37.4585 110.629 37.9005C110.617 38.3315 110.595 38.768 110.562 39.21C110.529 39.652 110.49 40.0775 110.446 40.4864C110.413 40.8952 110.374 41.2378 110.33 41.514L109.286 41.6467C109.264 41.4367 109.247 41.1825 109.236 40.8842C109.225 40.5969 109.209 40.2874 109.186 39.9559C109.175 39.6244 109.164 39.2874 109.153 38.9448C109.153 38.5912 109.153 38.2541 109.153 37.9337V37.7845ZM107.927 32.4968C107.927 32.8173 107.844 33.1212 107.678 33.4085C107.512 33.6848 107.286 33.9279 106.998 34.1378C106.711 34.3367 106.374 34.497 105.987 34.6185C105.601 34.7401 105.186 34.8009 104.744 34.8009C104.302 34.8009 103.888 34.7401 103.501 34.6185C103.114 34.497 102.772 34.3312 102.473 34.1213C102.186 33.9113 101.954 33.6682 101.777 33.3919C101.611 33.1157 101.528 32.8173 101.528 32.4968C101.528 32.1653 101.611 31.8614 101.777 31.5852C101.954 31.3089 102.186 31.0713 102.473 30.8724C102.761 30.6624 103.098 30.5022 103.484 30.3917C103.882 30.2702 104.302 30.2094 104.744 30.2094C105.208 30.2094 105.634 30.2757 106.02 30.4083C106.418 30.5298 106.755 30.6956 107.032 30.9056C107.319 31.1155 107.54 31.3586 107.695 31.6349C107.849 31.9112 107.927 32.1985 107.927 32.4968ZM103.136 32.5134C103.136 32.7123 103.175 32.9057 103.252 33.0936C103.341 33.2814 103.457 33.4472 103.6 33.5908C103.744 33.7234 103.915 33.8339 104.114 33.9223C104.313 33.9997 104.523 34.0384 104.744 34.0384C104.965 34.0384 105.17 33.9997 105.357 33.9223C105.556 33.8339 105.728 33.7234 105.871 33.5908C106.026 33.4472 106.148 33.2869 106.236 33.1101C106.324 32.9223 106.369 32.7234 106.369 32.5134C106.369 32.3034 106.324 32.1045 106.236 31.9167C106.159 31.7178 106.043 31.5465 105.888 31.4028C105.744 31.2592 105.573 31.1431 105.374 31.0547C105.186 30.9663 104.976 30.9221 104.744 30.9221C104.291 30.9221 103.91 31.0713 103.6 31.3697C103.291 31.668 103.136 32.0493 103.136 32.5134ZM106.766 28.3529C106.59 28.3529 106.396 28.3529 106.186 28.3529C105.987 28.3529 105.783 28.3584 105.573 28.3695C105.374 28.3695 105.181 28.375 104.993 28.386C104.805 28.386 104.639 28.386 104.495 28.386C104.418 28.386 104.308 28.3916 104.164 28.4026C104.02 28.4026 103.866 28.4137 103.7 28.4358C103.534 28.4468 103.368 28.4634 103.203 28.4855C103.037 28.5076 102.893 28.5297 102.772 28.5518L102.092 27.3252C102.225 27.3583 102.385 27.3915 102.573 27.4246C102.772 27.4467 102.971 27.4744 103.169 27.5075C103.379 27.5296 103.584 27.5517 103.783 27.5738C103.982 27.5849 104.147 27.5904 104.28 27.5904C104.413 27.5904 104.584 27.5849 104.794 27.5738C105.004 27.5628 105.236 27.5462 105.49 27.5241C105.755 27.4909 106.02 27.4633 106.286 27.4412C106.562 27.4081 106.822 27.3749 107.065 27.3418L106.766 28.3529ZM108.54 29.7618C108.175 29.7618 107.744 29.7674 107.247 29.7784C106.761 29.7784 106.258 29.7895 105.739 29.8116C105.219 29.8226 104.716 29.8392 104.23 29.8613C103.744 29.8723 103.33 29.8834 102.987 29.8944C102.854 29.9055 102.683 29.9221 102.473 29.9442C102.274 29.9663 102.064 29.9884 101.843 30.0105C101.633 30.0326 101.423 30.0547 101.213 30.0768C101.015 30.0989 100.849 30.121 100.716 30.1431L100.037 28.8336C100.18 28.8667 100.363 28.8999 100.584 28.933C100.805 28.9551 101.031 28.9772 101.263 28.9993C101.495 29.0214 101.716 29.0435 101.926 29.0656C102.147 29.0767 102.335 29.0822 102.49 29.0822C102.843 29.0822 103.269 29.0767 103.766 29.0656C104.263 29.0435 104.794 29.0159 105.357 28.9828C105.921 28.9386 106.49 28.8888 107.065 28.8336C107.65 28.7673 108.208 28.6844 108.739 28.5849L108.54 29.7618ZM110.198 26.0654C110.75 26.1428 111.33 26.2422 111.938 26.3638C112.557 26.4853 113.076 26.5903 113.496 26.6787C113.474 26.7782 113.452 26.8997 113.43 27.0434C113.408 27.1871 113.386 27.3307 113.364 27.4744C113.341 27.618 113.325 27.7506 113.314 27.8722C113.303 27.9937 113.297 28.0821 113.297 28.1374V37.3204C113.297 37.6629 113.292 38.0552 113.281 38.4973C113.27 38.9282 113.247 39.3647 113.214 39.8067C113.192 40.2488 113.165 40.6687 113.131 41.0665C113.098 41.4754 113.065 41.8179 113.032 42.0942L111.921 42.2434C111.899 42.0334 111.877 41.7793 111.855 41.4809C111.844 41.1936 111.827 40.8786 111.805 40.5361C111.794 40.2046 111.783 39.8675 111.772 39.525C111.761 39.1713 111.756 38.8343 111.756 38.5138V28.1042C111.756 27.9385 111.728 27.7893 111.673 27.6567C111.618 27.513 111.518 27.386 111.374 27.2755C111.242 27.1539 111.054 27.0489 110.811 26.9605C110.579 26.8611 110.28 26.7671 109.916 26.6787L110.198 26.0654Z" fill="#2C1D12"/>
<path d="M90.0335 28.8999C89.8456 28.8888 89.6301 28.8888 89.387 28.8999C89.1549 28.8999 88.9118 28.9054 88.6577 28.9165C88.4035 28.9275 88.1549 28.9441 87.9118 28.9662C87.6686 28.9772 87.4476 28.9883 87.2487 28.9993C87.1272 29.0104 86.9669 29.027 86.768 29.0491C86.5802 29.0601 86.3702 29.0767 86.1381 29.0988C85.9171 29.1209 85.6851 29.1485 85.442 29.1817C85.1989 29.2148 84.9723 29.2535 84.7624 29.2977L83.9999 27.9716C84.1214 27.9937 84.2872 28.0214 84.4971 28.0545C84.7182 28.0877 84.9447 28.1153 85.1768 28.1374C85.4199 28.1595 85.6574 28.1816 85.8895 28.2037C86.1326 28.2148 86.3426 28.2203 86.5194 28.2203C86.8178 28.2203 87.1824 28.2203 87.6134 28.2203C88.0444 28.2092 88.503 28.1982 88.9892 28.1871C89.4754 28.165 89.9672 28.1374 90.4644 28.1042C90.9727 28.0711 91.4534 28.0324 91.9065 27.9882C91.8844 28.0545 91.8568 28.1485 91.8236 28.27C91.8015 28.3805 91.7739 28.4965 91.7408 28.6181C91.7187 28.7397 91.6966 28.8557 91.6745 28.9662C91.6524 29.0767 91.6358 29.1651 91.6247 29.2314L91.3098 31.0879C91.4092 31.0658 91.5032 31.0547 91.5916 31.0547C91.691 31.0437 91.7905 31.0326 91.8899 31.0216L91.7573 32.0824C91.1164 32.0493 90.5418 32.0327 90.0335 32.0327C89.5362 32.0217 89.0831 32.0217 88.6742 32.0327C88.2764 32.0438 87.9118 32.0603 87.5802 32.0824C87.2598 32.1045 86.9614 32.1211 86.6851 32.1322C86.6851 32.2206 86.6796 32.309 86.6686 32.3974C86.6575 32.4858 86.652 32.5742 86.652 32.6626V34.1213C86.652 34.2981 86.6907 34.4307 86.768 34.5191C86.8564 34.6075 86.9669 34.6462 87.0995 34.6351C87.5305 34.602 88.0333 34.5467 88.6079 34.4693C89.1936 34.392 89.8014 34.2925 90.4313 34.171C91.0722 34.0384 91.7187 33.8892 92.3706 33.7234C93.0337 33.5577 93.6635 33.3753 94.2603 33.1764V28.1042C94.2603 27.7617 94.1 27.4854 93.7796 27.2755C93.4702 27.0545 92.9508 26.8555 92.2215 26.6787L92.4701 26.0654C92.7464 26.0986 93.0447 26.1428 93.3652 26.198C93.6967 26.2422 94.0227 26.2975 94.3432 26.3638C94.6636 26.419 94.9675 26.4743 95.2548 26.5296C95.5421 26.5848 95.7908 26.629 96.0007 26.6622C95.9786 26.7616 95.9565 26.8832 95.9344 27.0268C95.9123 27.1705 95.8902 27.3197 95.8681 27.4744C95.8571 27.618 95.846 27.7506 95.835 27.8722C95.8239 27.9937 95.8184 28.0821 95.8184 28.1374V31.1873C96.0505 31.1763 96.3046 31.1597 96.5809 31.1376C96.8571 31.1045 97.1389 31.0713 97.4262 31.0382C97.7136 31.005 97.9954 30.9719 98.2716 30.9387C98.5589 30.8945 98.8297 30.8503 99.0838 30.8061L98.9015 32.1156C98.7026 32.1045 98.476 32.099 98.2219 32.099C97.9677 32.099 97.697 32.099 97.4097 32.099C97.1334 32.099 96.8571 32.099 96.5809 32.099C96.3046 32.099 96.0505 32.099 95.8184 32.099V33.3256C95.8184 33.5245 95.8073 33.7566 95.7852 34.0218C95.7742 34.287 95.7576 34.5578 95.7355 34.834C95.7134 35.0992 95.6858 35.3534 95.6526 35.5965C95.6305 35.8286 95.6029 36.0109 95.5698 36.1435L94.3929 36.3258C94.3708 36.2043 94.3542 36.0551 94.3432 35.8783C94.3321 35.7015 94.3155 35.5191 94.2934 35.3313C94.2824 35.1324 94.2713 34.939 94.2603 34.7511C94.2603 34.5633 94.2603 34.392 94.2603 34.2373V33.856C93.6967 34.055 93.0834 34.2539 92.4204 34.4528C91.7573 34.6517 91.0888 34.834 90.4147 34.9998C89.7406 35.1655 89.0886 35.3147 88.4588 35.4473C87.8399 35.5689 87.2874 35.6628 86.8012 35.7291C86.1823 35.8065 85.7459 35.7291 85.4917 35.497C85.2375 35.2539 85.1104 34.8672 85.1104 34.3367V32.9278C85.1104 32.7289 85.0939 32.5631 85.0607 32.4305C85.0386 32.2979 84.9834 32.1874 84.895 32.099C84.8176 32.0106 84.7016 31.9333 84.5469 31.867C84.3922 31.8006 84.1822 31.7233 83.917 31.6349L84.1656 31.121C85.2375 31.2426 86.2431 31.2978 87.1824 31.2868C88.1328 31.2757 89.0389 31.2426 89.9008 31.1873L90.0335 28.8999ZM92.9508 36.4419C93.3818 36.4971 93.7741 36.6076 94.1277 36.7734C94.4923 36.9391 94.8018 37.1491 95.0559 37.4033C95.3211 37.6464 95.5256 37.9282 95.6692 38.2486C95.8129 38.558 95.8847 38.8896 95.8847 39.2432C95.8847 39.641 95.7908 40.0112 95.6029 40.3537C95.4261 40.6963 95.1719 40.9947 94.8404 41.2488C94.52 41.503 94.1387 41.7019 93.6967 41.8456C93.2547 41.9892 92.7795 42.0611 92.2712 42.0611C91.7408 42.0611 91.2545 41.9892 90.8125 41.8456C90.3705 41.7019 89.9893 41.503 89.6688 41.2488C89.3483 40.9947 89.0942 40.6963 88.9063 40.3537C88.7295 40.0112 88.6411 39.641 88.6411 39.2432C88.6411 38.8785 88.7129 38.5359 88.8566 38.2155C89.0113 37.895 89.2268 37.6132 89.503 37.3701C89.7793 37.1159 90.0998 36.906 90.4644 36.7402C90.8401 36.5745 91.2545 36.4695 91.7076 36.4253C91.6855 36.2927 91.6247 36.1877 91.5253 36.1103C91.4258 36.033 91.249 35.9556 90.9948 35.8783L91.2766 35.381C91.3982 35.4031 91.5418 35.4307 91.7076 35.4639C91.8734 35.497 92.0391 35.5357 92.2049 35.5799C92.3817 35.6131 92.553 35.6462 92.7187 35.6794C92.8845 35.7125 93.0337 35.7457 93.1663 35.7788C93.111 35.9004 93.0668 36.0109 93.0337 36.1103C93.0005 36.2098 92.9729 36.3203 92.9508 36.4419ZM94.2437 39.1603C94.2437 38.873 94.1884 38.6078 94.0779 38.3647C93.9785 38.1215 93.8348 37.9116 93.647 37.7348C93.4702 37.5469 93.2602 37.4033 93.0171 37.3038C92.785 37.1933 92.5309 37.138 92.2546 37.138C91.9673 37.138 91.7021 37.1933 91.459 37.3038C91.2159 37.4033 91.0004 37.5469 90.8125 37.7348C90.6357 37.9116 90.4921 38.1215 90.3815 38.3647C90.2821 38.6078 90.2324 38.873 90.2324 39.1603C90.2324 39.4476 90.2821 39.7128 90.3815 39.9559C90.4921 40.188 90.6357 40.3924 90.8125 40.5692C91.0004 40.7571 91.2159 40.9007 91.459 41.0002C91.7021 41.0997 91.9673 41.1494 92.2546 41.1494C92.5309 41.1494 92.7906 41.0997 93.0337 41.0002C93.2768 40.9007 93.4867 40.7571 93.6635 40.5692C93.8404 40.3924 93.9785 40.188 94.0779 39.9559C94.1884 39.7128 94.2437 39.4476 94.2437 39.1603Z" fill="#2C1D12"/>
<path d="M72.935 29.6624C73.4212 29.7287 73.8687 29.8613 74.2776 30.0602C74.6865 30.248 75.0346 30.4912 75.3219 30.7895C75.6203 31.0768 75.8468 31.4084 76.0015 31.7841C76.1673 32.1598 76.2501 32.5631 76.2501 32.9941C76.2501 33.4803 76.1452 33.9334 75.9352 34.3533C75.7363 34.7622 75.4545 35.1213 75.0898 35.4307C74.7252 35.7291 74.2942 35.9667 73.7969 36.1435C73.2996 36.3093 72.7637 36.3921 72.1891 36.3921C71.6144 36.3921 71.0785 36.3093 70.5812 36.1435C70.095 35.9667 69.6751 35.7291 69.3215 35.4307C68.9678 35.1213 68.6861 34.7622 68.4761 34.3533C68.2772 33.9334 68.1777 33.4803 68.1777 32.9941C68.1777 32.5521 68.2661 32.1377 68.4429 31.7509C68.6198 31.3531 68.8629 31.005 69.1723 30.7066C69.4817 30.4083 69.8519 30.1652 70.2829 29.9773C70.7138 29.7895 71.189 29.6734 71.7084 29.6292C71.7084 29.4635 71.6586 29.3309 71.5592 29.2314C71.4708 29.1319 71.2885 29.038 71.0122 28.9496L71.294 28.4523C71.4045 28.4855 71.5426 28.5186 71.7084 28.5518C71.8741 28.5849 72.0399 28.6181 72.2056 28.6513C72.3825 28.6844 72.5537 28.7176 72.7195 28.7507C72.8963 28.7839 73.051 28.817 73.1836 28.8502C73.1394 28.9496 73.0952 29.0712 73.051 29.2148C73.0068 29.3585 72.9681 29.5077 72.935 29.6624ZM74.6257 32.9444C74.6257 32.5908 74.5594 32.2648 74.4268 31.9664C74.3052 31.657 74.134 31.3918 73.913 31.1708C73.703 30.9387 73.4488 30.7564 73.1505 30.6238C72.8632 30.4912 72.5537 30.4249 72.2222 30.4249C71.8907 30.4249 71.5813 30.4912 71.294 30.6238C71.0067 30.7564 70.7525 30.9387 70.5315 31.1708C70.3215 31.3918 70.1558 31.657 70.0342 31.9664C69.9127 32.2648 69.8519 32.5908 69.8519 32.9444C69.8519 33.298 69.9127 33.6295 70.0342 33.9389C70.1558 34.2373 70.3215 34.497 70.5315 34.718C70.7525 34.9279 71.0067 35.0937 71.294 35.2153C71.5813 35.3368 71.8907 35.3976 72.2222 35.3976C72.5537 35.3976 72.8632 35.3368 73.1505 35.2153C73.4488 35.0937 73.703 34.9279 73.913 34.718C74.134 34.497 74.3052 34.2373 74.4268 33.9389C74.5594 33.6295 74.6257 33.298 74.6257 32.9444ZM80.1454 37.3204C80.1454 37.6629 80.1344 38.0608 80.1123 38.5138C80.1012 38.9559 80.0847 39.4034 80.0626 39.8565C80.0405 40.2985 80.0128 40.7184 79.9797 41.1162C79.9465 41.5251 79.9134 41.8511 79.8802 42.0942L78.7365 42.2434C78.7144 42.0666 78.6923 41.829 78.6702 41.5306C78.6591 41.2323 78.6426 40.9118 78.6205 40.5692C78.6094 40.2377 78.5984 39.8951 78.5873 39.5415C78.5873 39.1769 78.5873 38.8343 78.5873 38.5138V28.1042C78.5873 27.7617 78.4271 27.4854 78.1066 27.2755C77.7972 27.0545 77.2778 26.8555 76.5485 26.6787L76.8137 26.0654C77.09 26.0986 77.3883 26.1428 77.7088 26.198C78.0293 26.2422 78.3497 26.2975 78.6702 26.3638C78.9907 26.419 79.2946 26.4743 79.5819 26.5296C79.8802 26.5848 80.1344 26.629 80.3444 26.6622C80.3223 26.7616 80.2946 26.8832 80.2615 27.0268C80.2394 27.1705 80.2173 27.3197 80.1952 27.4744C80.1841 27.618 80.1731 27.7506 80.162 27.8722C80.151 27.9937 80.1454 28.0821 80.1454 28.1374V32.7289C80.6317 32.6957 81.1787 32.646 81.7864 32.5797C82.3942 32.5134 82.9467 32.4361 83.444 32.3476L83.2783 33.6903C83.0794 33.6792 82.8473 33.6737 82.5821 33.6737C82.3279 33.6737 82.0572 33.6737 81.7699 33.6737C81.4936 33.6737 81.2118 33.6737 80.9245 33.6737C80.6482 33.6737 80.3886 33.6737 80.1454 33.6737V37.3204Z" fill="#2C1D12"/>
<g clip-path="url(#clip0_1289_163)">
<path d="M27.9434 39.1922L26.9716 40.5834L23.8285 38.3883L23.828 38.388L12.6973 30.599L1.49542 38.4827L0.518555 37.0948L12.6948 28.5254L27.9434 39.1922Z" fill="#2C1D12"/>
<path d="M50.17 33.4586L49.1136 34.7869L38.4021 26.2683L24.216 37.9048L23.1396 36.5925L36.1442 25.9246L36.1444 25.9243L38.3858 24.0869L50.17 33.4586Z" fill="#2C1D12"/>
<path d="M10.8512 51.1411L9.21079 51.5773L7.09766 43.6278L8.73811 43.1919L10.8512 51.1411Z" fill="#2C1D12"/>
<path d="M10.102 52.331L2.57713 53.7907L2.25391 52.1243L9.77876 50.6646L10.102 52.331Z" fill="#2C1D12"/>
<path d="M25.9368 0.00243448L25.9365 0.00271074C32.7528 0.120933 38.9109 2.98421 43.377 7.50795L43.5883 7.72481L43.5889 7.72509C48.0653 12.3742 50.7892 18.7328 50.6692 25.6697V25.67L50.3808 42.2044V42.374L50.3805 42.3823L50.3523 43.8139C50.3376 44.6475 50.2819 45.4677 50.1852 46.2795C50.1473 46.6054 50.1037 46.9312 50.0542 47.2569L50.0537 47.26C49.9042 48.2213 49.6991 49.1615 49.4445 50.0803C49.4297 50.1372 49.411 50.2078 49.389 50.2812L49.3893 50.2815C49.24 50.8053 49.0729 51.3269 48.8909 51.8346V51.8352C48.5923 52.6665 48.2525 53.4741 47.8723 54.2638C47.5827 54.8665 47.2696 55.4583 46.9325 56.0357C46.905 56.0839 46.8618 56.1585 46.8092 56.2369C46.3791 56.9645 45.9148 57.6632 45.4108 58.3439L45.4111 58.3442C44.9224 59.0054 44.4004 59.645 43.8447 60.2537C43.4018 60.7459 42.9373 61.2247 42.4515 61.6842L42.4512 61.6845C41.8703 62.2333 41.262 62.76 40.629 63.2553C39.4144 64.2065 38.1123 65.0457 36.7378 65.7652L36.7381 65.7654C36.444 65.9199 36.1478 66.065 35.8471 66.2036L35.8469 66.2033C35.7514 66.2514 35.6603 66.2931 35.5778 66.3293C35.3193 66.447 35.0525 66.5659 34.7791 66.6771C33.8206 67.0759 32.8298 67.424 31.8123 67.7026L31.812 67.7023C30.4154 68.0858 28.9699 68.3523 27.4929 68.4927L27.4529 68.4966H27.4418C26.5516 68.5785 25.6501 68.6124 24.7375 68.5952C23.9708 68.5834 23.2169 68.5338 22.4735 68.4518V68.4515C20.843 68.2789 19.2611 67.9461 17.7373 67.4642L17.5395 67.4028C17.3891 67.3553 17.2399 67.3057 17.0911 67.2545H17.0878L16.9521 67.2073C15.7152 66.7764 14.5235 66.2493 13.3856 65.6408H13.3853C11.9191 64.8565 10.5399 63.9341 9.26291 62.8826V62.8824C7.4381 61.3849 5.82597 59.6385 4.48246 57.6894C1.84664 53.8863 0.230077 49.3355 0.0238511 44.4421L0.0144582 44.2175C0.0066253 43.9973 0.0035232 43.7779 0.00340764 43.5572C-0.00239727 43.3395 0.000394496 43.125 0.00313137 42.9306V42.9279L0.320005 24.786C0.562984 10.9098 12.0856 -0.240619 25.9368 0.00243448ZM25.9069 1.69952C12.9964 1.47297 2.24375 11.8734 2.01709 24.8155L1.70021 42.9544C1.69734 43.1582 1.69515 43.3414 1.70021 43.5213L1.70049 43.5332V43.5453C1.70049 43.7535 1.70357 43.9565 1.71071 44.1573L1.71928 44.3573V44.3606L1.71955 44.3642C1.90467 48.7853 3.32406 52.907 5.64967 56.388L5.87759 56.7228L5.87869 56.7245C7.05326 58.4287 8.44905 59.9683 10.0235 61.3066L10.3409 61.5715L10.342 61.5723C11.5318 62.552 12.8175 63.4121 14.1859 64.144L14.3857 64.2496C15.3464 64.7517 16.3456 65.1906 17.377 65.5571H17.3792L17.516 65.6055C17.7541 65.6894 17.9912 65.7673 18.2301 65.8398L18.2351 65.8414L18.2401 65.8428C19.6598 66.2924 21.1342 66.6032 22.6559 66.7641L22.6597 66.7647C23.3533 66.8411 24.0536 66.8872 24.7635 66.8981H24.7665C25.6312 66.9145 26.4851 66.8819 27.3277 66.8028L27.3672 66.7992H27.3681C28.7356 66.6672 30.0727 66.4199 31.3634 66.0655H31.3639C32.3074 65.8072 33.2323 65.4828 34.1332 65.1077L34.1398 65.1049C34.3813 65.0067 34.6237 64.8992 34.8744 64.785L34.8802 64.7822L34.886 64.7797C34.9719 64.7421 35.0398 64.7112 35.1029 64.6786L35.1197 64.6698L35.1369 64.662C35.4132 64.5347 35.6828 64.4023 35.9488 64.2626L35.9499 64.262C37.2342 63.5898 38.4497 62.8061 39.5828 61.9188L39.583 61.9185C40.1721 61.4576 40.7406 60.9656 41.2856 60.4507C41.7374 60.0234 42.1711 59.576 42.5868 59.1139L42.5891 59.1116L42.591 59.1092C43.1046 58.5467 43.5898 57.9529 44.0461 57.3355L44.0463 57.3347C44.5213 56.6932 44.9578 56.0363 45.3611 55.3523L45.3779 55.3235L45.3967 55.2965C45.4104 55.277 45.4257 55.2516 45.4627 55.1868L45.4647 55.1835L45.4666 55.1799C45.7801 54.6428 46.0722 54.0914 46.3426 53.5286L46.3429 53.5281C46.6981 52.7903 47.0148 52.0366 47.2933 51.2614C47.462 50.7905 47.6176 50.3052 47.7568 49.8165L47.7588 49.809L47.761 49.8019C47.775 49.7558 47.7878 49.7071 47.8055 49.6394L47.8088 49.6273C48.0167 48.8768 48.1891 48.1123 48.3221 47.3337L48.3765 46.9992C48.4229 46.6931 48.4639 46.3871 48.4994 46.0812L48.4997 46.0787C48.5896 45.3239 48.6416 44.5602 48.6552 43.7821V43.7802L48.6834 42.3488V42.1894L48.9721 25.6402C49.084 19.1739 46.5461 13.2437 42.3661 8.90252V8.90224C38.2458 4.6288 32.539 1.8977 26.2089 1.7067L25.9069 1.69952Z" fill="#2C1D12"/>
<path d="M7.9679 42.8616C9.94801 42.7924 11.9973 42.9487 14.0686 43.3363H14.075L14.1537 43.3515C16.3078 43.7619 18.4886 44.4249 20.6243 45.3488L20.858 45.4505C21.0879 45.5517 21.3191 45.6571 21.5498 45.7679L21.804 45.8873C21.973 45.9679 22.1411 46.0507 22.3082 46.1348L22.5579 46.2616L22.559 46.2622C23.3259 46.6571 24.0663 47.0755 24.7799 47.5203C24.7981 47.5302 24.8125 47.5388 24.8224 47.5448C24.8298 47.5493 24.8371 47.5539 24.8412 47.5564L24.8429 47.5576L24.8492 47.5614C25.8321 48.1751 26.755 48.829 27.6235 49.5171L27.9923 49.8141L27.9967 49.8177L28.0014 49.8215C28.1783 49.9704 28.3613 50.1245 28.5395 50.2793C28.6235 50.3521 28.715 50.4315 28.8048 50.5122C29.3224 50.9717 29.8187 51.4449 30.2905 51.9341C30.7631 52.422 31.2128 52.9224 31.6345 53.4334L31.8135 53.653L31.8141 53.6538C31.9554 53.8298 32.0954 54.008 32.2337 54.1904C32.8615 55.0117 33.4236 55.8586 33.9131 56.7226L34.0496 56.9662C34.1397 57.1292 34.2279 57.2931 34.3137 57.4583L34.4405 57.7069L34.4416 57.7091L34.4427 57.7116C34.5343 57.8976 34.6283 58.0911 34.7173 58.284L34.8817 58.6484C35.255 59.4997 35.5588 60.3614 35.7928 61.2295C35.8113 61.2972 35.829 61.3643 35.8459 61.4306L35.8948 61.6276L35.8953 61.6298C36.208 62.9251 36.3614 64.2273 36.3404 65.5204L34.6433 65.4928C34.6618 64.3539 34.527 63.1958 34.246 62.0307L34.201 61.8489C34.186 61.7901 34.1709 61.7327 34.1554 61.676L34.1549 61.6735C33.9132 60.7768 33.5875 59.8831 33.1772 58.9976L33.1769 58.9965C33.0964 58.822 33.0092 58.6424 32.92 58.4611C32.7703 58.1621 32.6087 57.8629 32.4371 57.5605L32.4365 57.5599C31.9869 56.7663 31.4682 55.9838 30.8853 55.2211L30.8834 55.2186C30.7567 55.0515 30.6263 54.8855 30.4913 54.7175L30.3253 54.5139C29.934 54.0397 29.5149 53.5728 29.0716 53.1151L29.0702 53.1138C28.6316 52.6588 28.1667 52.2155 27.6779 51.7816L27.6757 51.7797L27.6737 51.7777C27.5952 51.707 27.5125 51.6351 27.4281 51.562L27.4273 51.5614C27.2616 51.4175 27.0896 51.2726 26.9115 51.1227C26.0019 50.3792 25.0278 49.6764 23.9815 49.0212L23.9746 49.0184L23.9102 48.9784C23.2299 48.5532 22.5205 48.1517 21.7819 47.7714C21.4635 47.6081 21.1499 47.4526 20.8393 47.3095L20.8266 47.3034C20.5401 47.1656 20.2488 47.0347 19.9541 46.9081L19.9522 46.9075C17.9487 46.0407 15.9062 45.4178 13.8924 45.0297L13.8335 45.0187C11.8534 44.6425 9.90235 44.492 8.0273 44.5576C5.54911 44.6452 3.21943 45.1072 1.1652 45.924L0.538086 44.3468C2.79509 43.4494 5.32015 42.9552 7.9679 42.8616Z" fill="#2C1D12"/>
<path d="M25.0296 59.3296L25.0346 59.3346L25.0487 59.3431L31.182 62.992H31.1886L31.587 63.2335L34.8941 65.2052L34.0247 66.663L30.7178 64.6913L30.7154 64.6896L30.7129 64.6883L30.6728 64.664L24.1809 60.8018L24.1754 60.7985L24.0676 60.7336L23.9798 60.6802L23.9792 60.6797L0.4375 46.6657L1.30552 45.207L25.0296 59.3296Z" fill="#2C1D12"/>
<path d="M17.9423 55.3869L16.3052 55.8356L13.168 44.3925L14.8051 43.9438L17.9423 55.3869Z" fill="#2C1D12"/>
<path d="M25.4336 59.8573L23.7901 60.2819L20.2852 46.7085L21.9284 46.2842L25.4336 59.8573Z" fill="#2C1D12"/>
<path d="M32.0274 63.9359L30.3905 64.3848L26.6309 50.6816L28.268 50.2324L32.0274 63.9359Z" fill="#2C1D12"/>
<path d="M17.2771 56.4454L5.99535 58.5588L5.68262 56.8905L16.9646 54.7773L17.2771 56.4454Z" fill="#2C1D12"/>
<path d="M24.8359 60.8048L10.5666 63.481L10.2539 61.8129L24.5229 59.1367L24.8359 60.8048Z" fill="#2C1D12"/>
<path d="M31.6455 64.5729L17.3906 67.2435L17.3132 67.2581H17.2315V66.3945L17.0781 65.5751L31.333 62.9048L31.6455 64.5729Z" fill="#2C1D12"/>
<path d="M36.6515 60.7456C38.008 60.7456 39.267 61.1732 40.2755 61.9106L39.2738 63.2809C38.5567 62.7566 37.6487 62.443 36.6515 62.443C36.1842 62.443 35.7363 62.5125 35.3191 62.6405L34.8213 61.0177C35.3998 60.8402 36.0156 60.7456 36.6515 60.7456Z" fill="#2C1D12"/>
<path d="M36.6519 56.7881C39.2112 56.7881 41.551 57.6714 43.3454 59.1416L42.2697 60.4546C40.777 59.2317 38.8169 58.4854 36.6519 58.4854C35.7003 58.4854 34.7868 58.6307 33.9343 58.8968L33.4287 57.2765C34.4432 56.9599 35.527 56.7881 36.6519 56.7881Z" fill="#2C1D12"/>
<path d="M36.6519 52.3042C40.2339 52.3042 43.5348 53.4837 46.1202 55.4572L45.0903 56.8065C42.7987 55.0572 39.8592 54.0016 36.6519 54.0016C34.8108 54.0016 33.0573 54.3516 31.4628 54.9781L30.8418 53.3985C32.6307 52.6955 34.5947 52.3042 36.6519 52.3042Z" fill="#2C1D12"/>
<path d="M36.6516 48.0835C40.9137 48.0835 44.8609 49.366 48.077 51.5357L47.1278 52.9427C44.1881 50.9595 40.5707 49.7809 36.6516 49.7809C33.6536 49.7809 30.8335 50.4692 28.3574 51.6829L27.6104 50.1588C30.3167 48.8322 33.3921 48.0835 36.6516 48.0835Z" fill="#2C1D12"/>
<path d="M36.6511 44.1284C41.3129 44.1284 45.9166 45.4554 49.6581 47.7502L48.7708 49.197C45.2986 47.0674 41.0023 45.8258 36.6511 45.8258C32.2977 45.8258 28.2431 46.9952 24.8315 49.0144L23.9668 47.5538C27.6387 45.3806 31.9917 44.1284 36.6511 44.1284Z" fill="#2C1D12"/>
<path d="M36.6518 40.1709C41.4447 40.1709 45.9629 41.2973 49.9105 43.2827L49.1478 44.7991C45.4346 42.9316 41.1774 41.8683 36.6518 41.8683C30.6865 41.8683 25.1854 43.7144 20.7789 46.8247L19.7998 45.4381C24.4911 42.1268 30.334 40.1709 36.6518 40.1709Z" fill="#2C1D12"/>
<path d="M25.9012 19.6611C30.5394 19.6611 34.6008 22.1419 36.8244 25.8469L35.369 26.7205C33.4398 23.506 29.9196 21.3585 25.9012 21.3585C20.2358 21.3585 15.5699 25.6268 14.9422 31.1241L13.2559 30.9316C13.9803 24.587 19.3628 19.6612 25.9012 19.6611Z" fill="#2C1D12"/>
</g>
<defs>
<clipPath id="clip0_1289_163">
<rect width="50.6718" height="68.6016" fill="white"/>
</clipPath>
</defs>
</svg>
