<svg width="112" height="59" viewBox="0 0 112 59" fill="none" xmlns="http://www.w3.org/2000/svg">
<path d="M105.459 26.047C105.838 26.3025 106.264 26.5676 106.737 26.8421C107.21 27.1071 107.688 27.3627 108.171 27.6088C108.654 27.8549 109.122 28.082 109.577 28.2903C110.031 28.4985 110.433 28.6689 110.784 28.8014L109.761 29.8379C109.411 29.5823 109.032 29.3173 108.625 29.0428C108.228 28.7588 107.821 28.4796 107.404 28.2051C106.988 27.9211 106.571 27.6466 106.155 27.3816C105.738 27.1166 105.346 26.8657 104.976 26.6291C104.267 27.4715 103.471 28.2051 102.591 28.8298C101.72 29.4545 100.802 29.9893 99.8367 30.4342L99.4676 29.9941C100.054 29.6912 100.613 29.341 101.143 28.9434C101.683 28.5364 102.179 28.1104 102.634 27.6656C103.088 27.2112 103.49 26.7474 103.841 26.2741C104.2 25.7914 104.498 25.3181 104.735 24.8543C104.839 24.6555 104.825 24.4994 104.693 24.3858C104.617 24.3195 104.484 24.2391 104.295 24.1444C104.106 24.0403 103.94 23.9598 103.798 23.903L104.167 23.4629C104.347 23.5102 104.546 23.567 104.764 23.6333C104.981 23.6901 105.199 23.7516 105.417 23.8178C105.634 23.8841 105.847 23.9504 106.056 24.0166C106.264 24.0829 106.458 24.1491 106.638 24.2154C106.467 24.5467 106.283 24.8638 106.084 25.1667C105.895 25.4696 105.686 25.763 105.459 26.047ZM111.479 33.7282C111.101 33.7093 110.608 33.6951 110.003 33.6856C109.397 33.6762 108.777 33.6667 108.143 33.6572C107.878 33.6572 107.556 33.662 107.177 33.6714C106.799 33.6714 106.387 33.6809 105.942 33.6998C105.507 33.7093 105.057 33.7235 104.593 33.7424C104.139 33.7519 103.703 33.7661 103.287 33.785C102.87 33.7945 102.492 33.8087 102.151 33.8276C101.82 33.8465 101.559 33.8607 101.37 33.8702C101.01 33.8891 100.627 33.9175 100.22 33.9554C99.8131 33.9838 99.4344 34.0216 99.0842 34.069L98.6299 32.8195C99.0558 32.8763 99.5054 32.9236 99.9787 32.9615C100.461 32.9899 100.921 33.0136 101.356 33.0325C101.593 33.042 101.886 33.0467 102.236 33.0467C102.596 33.0467 102.979 33.0467 103.386 33.0467C103.803 33.0372 104.229 33.0278 104.664 33.0183C105.109 32.9994 105.535 32.9852 105.942 32.9757C106.358 32.9662 106.742 32.9568 107.092 32.9473C107.442 32.9284 107.731 32.9142 107.958 32.9047C108.592 32.8669 109.236 32.8195 109.889 32.7627C110.552 32.7059 111.139 32.6397 111.65 32.564L111.479 33.7282Z" fill="white"/>
<path d="M90.2743 32.2801C90.2743 32.5262 90.2648 32.7912 90.2459 33.0752C90.2364 33.3592 90.2222 33.6431 90.2033 33.9271C90.1844 34.2111 90.1607 34.4856 90.1323 34.7506C90.1039 35.0156 90.0708 35.2475 90.0329 35.4463L89.0816 35.6167C89.0627 35.4463 89.0438 35.2381 89.0248 34.992C89.0154 34.7553 89.0059 34.5092 88.9965 34.2537C88.987 33.9886 88.9775 33.7283 88.9681 33.4728C88.9681 33.2077 88.9681 32.9711 88.9681 32.7628V31.1442C88.8639 31.1442 88.7551 31.149 88.6415 31.1584C88.5374 31.1679 88.4333 31.1774 88.3291 31.1868C88.225 31.1963 88.0783 31.2105 87.889 31.2294C87.7091 31.2389 87.5104 31.2578 87.2927 31.2862C87.0844 31.3052 86.8714 31.3288 86.6537 31.3572C86.4455 31.3762 86.2609 31.3951 86.1 31.414L85.4043 30.2356C85.5557 30.264 85.7309 30.2876 85.9296 30.3066C86.1379 30.3255 86.3508 30.3444 86.5686 30.3633C86.7863 30.3823 86.9945 30.3965 87.1933 30.4059C87.392 30.4059 87.5577 30.4059 87.6902 30.4059C88.2203 30.387 88.722 30.3633 89.1952 30.335C89.6685 30.3066 90.1276 30.2687 90.5725 30.2214C91.0173 30.174 91.4527 30.122 91.8787 30.0652C92.3046 29.9989 92.7353 29.9232 93.1707 29.838V30.4343C92.6596 30.5574 92.1674 30.6615 91.6941 30.7467C91.2208 30.8319 90.7476 30.9076 90.2743 30.9739V32.2801ZM93.4973 32.3653C92.6359 32.3937 91.8645 32.4789 91.183 32.6209L90.6292 31.5134C90.9227 31.5702 91.2066 31.6081 91.4811 31.627C91.7556 31.6459 92.0159 31.6507 92.262 31.6412C92.4703 31.6317 92.6785 31.627 92.8868 31.627C93.1045 31.6175 93.308 31.6033 93.4973 31.5844V24.6415C93.4973 24.4995 93.4736 24.3717 93.4263 24.2581C93.3884 24.1445 93.3127 24.0404 93.1991 23.9457C93.095 23.8511 92.9483 23.7659 92.759 23.6902C92.5697 23.6145 92.333 23.5387 92.0491 23.463L92.3046 22.9519C92.759 23.0087 93.2181 23.0844 93.6819 23.179C94.1551 23.2642 94.5764 23.3542 94.9455 23.4488C94.9266 23.534 94.9076 23.6381 94.8887 23.7612C94.8698 23.8842 94.8509 24.0073 94.8319 24.1303C94.8225 24.2534 94.813 24.367 94.8035 24.4711C94.7941 24.5752 94.7893 24.6509 94.7893 24.6983V31.4566C94.7893 31.75 94.7799 32.0861 94.7609 32.4647C94.7515 32.8338 94.7325 33.2077 94.7041 33.5863C94.6757 33.965 94.6426 34.3294 94.6048 34.6796C94.5764 35.0298 94.5432 35.3233 94.5054 35.5599L93.6109 35.6735C93.5919 35.4936 93.5777 35.2759 93.5683 35.0204C93.5588 34.7743 93.5446 34.5092 93.5257 34.2253C93.5162 33.9413 93.5068 33.6526 93.4973 33.3592C93.4973 33.0563 93.4973 32.7676 93.4973 32.4931V32.3653ZM92.4466 27.8361C92.4466 28.1106 92.3756 28.3709 92.2336 28.617C92.0917 28.8536 91.8976 29.0618 91.6515 29.2417C91.4054 29.4121 91.1167 29.5493 90.7854 29.6534C90.4541 29.7576 90.0992 29.8096 89.7206 29.8096C89.3419 29.8096 88.987 29.7576 88.6557 29.6534C88.3244 29.5493 88.031 29.4073 87.7754 29.2275C87.5293 29.0476 87.3305 28.8394 87.1791 28.6028C87.0371 28.3661 86.9661 28.1106 86.9661 27.8361C86.9661 27.5521 87.0371 27.2918 87.1791 27.0552C87.3305 26.8185 87.5293 26.615 87.7754 26.4446C88.0215 26.2648 88.3102 26.1275 88.6415 26.0329C88.9823 25.9288 89.3419 25.8767 89.7206 25.8767C90.1181 25.8767 90.4825 25.9335 90.8138 26.0471C91.1546 26.1512 91.4433 26.2932 91.6799 26.473C91.926 26.6529 92.1153 26.8611 92.2478 27.0978C92.3804 27.3344 92.4466 27.5805 92.4466 27.8361ZM88.3433 27.8503C88.3433 28.0206 88.3765 28.1863 88.4427 28.3472C88.5184 28.5081 88.6178 28.6501 88.7409 28.7731C88.8639 28.8867 89.0106 28.9814 89.181 29.0571C89.3514 29.1234 89.5313 29.1565 89.7206 29.1565C89.9099 29.1565 90.085 29.1234 90.2459 29.0571C90.4163 28.9814 90.563 28.8867 90.686 28.7731C90.8186 28.6501 90.9227 28.5128 90.9984 28.3614C91.0741 28.2005 91.112 28.0301 91.112 27.8503C91.112 27.6704 91.0741 27.5 90.9984 27.3391C90.9321 27.1687 90.8328 27.022 90.7002 26.899C90.5772 26.7759 90.4305 26.6765 90.2601 26.6008C90.0992 26.5251 89.9193 26.4872 89.7206 26.4872C89.3325 26.4872 89.0059 26.615 88.7409 26.8706C88.4758 27.1262 88.3433 27.4527 88.3433 27.8503ZM91.4527 24.2865C91.3013 24.2865 91.1357 24.2865 90.9558 24.2865C90.7854 24.2865 90.6103 24.2912 90.4305 24.3007C90.2601 24.3007 90.0944 24.3054 89.9335 24.3149C89.7726 24.3149 89.6306 24.3149 89.5076 24.3149C89.4413 24.3149 89.3467 24.3196 89.2236 24.3291C89.1006 24.3291 88.9681 24.3386 88.8261 24.3575C88.6841 24.367 88.5421 24.3812 88.4001 24.4001C88.2581 24.419 88.1351 24.438 88.031 24.4569L87.4488 23.4062C87.5624 23.4346 87.6997 23.463 87.8606 23.4914C88.031 23.5103 88.2013 23.534 88.3717 23.5624C88.5516 23.5813 88.7267 23.6003 88.8971 23.6192C89.0674 23.6287 89.2094 23.6334 89.323 23.6334C89.4366 23.6334 89.5833 23.6287 89.7632 23.6192C89.943 23.6097 90.1418 23.5955 90.3595 23.5766C90.5867 23.5482 90.8138 23.5245 91.041 23.5056C91.2776 23.4772 91.5001 23.4488 91.7083 23.4204L91.4527 24.2865ZM92.972 25.4934C92.6596 25.4934 92.2904 25.4981 91.8645 25.5076C91.448 25.5076 91.0173 25.517 90.5725 25.5359C90.1276 25.5454 89.6969 25.5596 89.2804 25.5785C88.8639 25.588 88.509 25.5975 88.2155 25.6069C88.102 25.6164 87.9552 25.6306 87.7754 25.6495C87.605 25.6685 87.4252 25.6874 87.2359 25.7063C87.056 25.7253 86.8762 25.7442 86.6963 25.7631C86.526 25.7821 86.384 25.801 86.2704 25.8199L85.6883 24.6983C85.8113 24.7266 85.9675 24.755 86.1568 24.7834C86.3461 24.8024 86.5402 24.8213 86.7389 24.8402C86.9377 24.8592 87.127 24.8781 87.3069 24.897C87.4962 24.9065 87.6571 24.9112 87.7896 24.9112C88.0925 24.9112 88.4569 24.9065 88.8829 24.897C89.3088 24.8781 89.7632 24.8544 90.2459 24.826C90.7286 24.7882 91.2161 24.7456 91.7083 24.6983C92.21 24.6415 92.688 24.5705 93.1423 24.4853L92.972 25.4934ZM94.3918 22.3271C94.8651 22.3934 95.362 22.4786 95.8826 22.5827C96.4127 22.6868 96.8575 22.7768 97.2172 22.8525C97.1983 22.9377 97.1794 23.0418 97.1604 23.1648C97.1415 23.2879 97.1226 23.4109 97.1036 23.534C97.0847 23.657 97.0705 23.7706 97.061 23.8748C97.0516 23.9789 97.0468 24.0546 97.0468 24.1019V31.9677C97.0468 32.2612 97.0421 32.5972 97.0327 32.9758C97.0232 33.345 97.0043 33.7189 96.9759 34.0975C96.9569 34.4761 96.9333 34.8358 96.9049 35.1765C96.8765 35.5268 96.8481 35.8202 96.8197 36.0568L95.8684 36.1846C95.8495 36.0048 95.8305 35.7871 95.8116 35.5315C95.8021 35.2854 95.7879 35.0156 95.769 34.7222C95.7595 34.4382 95.7501 34.1495 95.7406 33.8561C95.7311 33.5532 95.7264 33.2645 95.7264 32.99V24.0735C95.7264 23.9315 95.7027 23.8038 95.6554 23.6902C95.6081 23.5671 95.5229 23.4583 95.3999 23.3636C95.2863 23.2595 95.1254 23.1696 94.9171 23.0939C94.7183 23.0087 94.4628 22.9282 94.1504 22.8525L94.3918 22.3271Z" fill="white"/>
<path d="M77.1195 24.755C76.9586 24.7456 76.774 24.7456 76.5658 24.755C76.367 24.755 76.1588 24.7598 75.9411 24.7692C75.7234 24.7787 75.5104 24.7929 75.3021 24.8118C75.0939 24.8213 74.9046 24.8308 74.7342 24.8402C74.6301 24.8497 74.4928 24.8639 74.3225 24.8828C74.1616 24.8923 73.9817 24.9065 73.7829 24.9254C73.5936 24.9444 73.3949 24.968 73.1866 24.9964C72.9784 25.0248 72.7843 25.0579 72.6045 25.0958L71.9514 23.9599C72.0555 23.9789 72.1975 24.0025 72.3773 24.0309C72.5666 24.0593 72.7607 24.083 72.9594 24.1019C73.1677 24.1209 73.3712 24.1398 73.57 24.1587C73.7782 24.1682 73.958 24.1729 74.1095 24.1729C74.3651 24.1729 74.6774 24.1729 75.0466 24.1729C75.4157 24.1635 75.8085 24.154 76.225 24.1445C76.6415 24.1256 77.0627 24.1019 77.4887 24.0735C77.9241 24.0451 78.3358 24.012 78.7239 23.9741C78.705 24.0309 78.6813 24.1114 78.6529 24.2155C78.634 24.3102 78.6103 24.4096 78.5819 24.5137C78.563 24.6178 78.5441 24.7172 78.5251 24.8118C78.5062 24.9065 78.492 24.9822 78.4826 25.039L78.2128 26.6292C78.298 26.6103 78.3784 26.6008 78.4542 26.6008C78.5393 26.5914 78.6245 26.5819 78.7097 26.5724L78.5961 27.4811C78.0471 27.4527 77.5549 27.4385 77.1195 27.4385C76.6936 27.429 76.3055 27.429 75.9553 27.4385C75.6145 27.448 75.3021 27.4622 75.0182 27.4811C74.7437 27.5 74.4881 27.5142 74.2515 27.5237C74.2515 27.5994 74.2467 27.6751 74.2373 27.7509C74.2278 27.8266 74.2231 27.9023 74.2231 27.978V29.2275C74.2231 29.3789 74.2562 29.4925 74.3225 29.5682C74.3982 29.644 74.4928 29.6771 74.6064 29.6676C74.9756 29.6392 75.4063 29.5919 75.8985 29.5257C76.4001 29.4594 76.9207 29.3742 77.4603 29.2701C78.0093 29.1565 78.563 29.0287 79.1215 28.8867C79.6894 28.7447 80.2289 28.5886 80.7401 28.4182V24.0735C80.7401 23.7801 80.6028 23.5435 80.3283 23.3636C80.0633 23.1743 79.6184 23.0039 78.9937 22.8525L79.2067 22.3271C79.4433 22.3555 79.6989 22.3934 79.9734 22.4407C80.2573 22.4786 80.5366 22.5259 80.8111 22.5827C81.0856 22.63 81.3459 22.6774 81.592 22.7247C81.8381 22.772 82.051 22.8099 82.2309 22.8383C82.212 22.9235 82.193 23.0276 82.1741 23.1506C82.1552 23.2737 82.1362 23.4015 82.1173 23.534C82.1078 23.657 82.0984 23.7706 82.0889 23.8748C82.0794 23.9789 82.0747 24.0546 82.0747 24.1019V26.7144C82.2735 26.7049 82.4912 26.6907 82.7278 26.6718C82.9645 26.6434 83.2058 26.615 83.4519 26.5866C83.698 26.5582 83.9394 26.5298 84.176 26.5014C84.4221 26.4636 84.654 26.4257 84.8718 26.3878L84.7156 27.5095C84.5452 27.5 84.3512 27.4953 84.1334 27.4953C83.9157 27.4953 83.6838 27.4953 83.4377 27.4953C83.2011 27.4953 82.9645 27.4953 82.7278 27.4953C82.4912 27.4953 82.2735 27.4953 82.0747 27.4953V28.546C82.0747 28.7164 82.0652 28.9151 82.0463 29.1423C82.0368 29.3695 82.0226 29.6014 82.0037 29.838C81.9848 30.0652 81.9611 30.2829 81.9327 30.4911C81.9138 30.6899 81.8901 30.8461 81.8617 30.9597L80.8537 31.1159C80.8347 31.0117 80.8205 30.8839 80.8111 30.7325C80.8016 30.5811 80.7874 30.4249 80.7685 30.264C80.759 30.0936 80.7495 29.9279 80.7401 29.767C80.7401 29.6061 80.7401 29.4594 80.7401 29.3269V29.0003C80.2573 29.1707 79.732 29.3411 79.1641 29.5115C78.5961 29.6818 78.0235 29.838 77.4461 29.98C76.8687 30.122 76.3102 30.2498 75.7707 30.3633C75.2406 30.4675 74.7673 30.5479 74.3509 30.6047C73.8208 30.671 73.4469 30.6047 73.2292 30.4059C73.0115 30.1977 72.9026 29.8664 72.9026 29.4121V28.2052C72.9026 28.0348 72.8884 27.8929 72.86 27.7793C72.8411 27.6657 72.7938 27.571 72.7181 27.4953C72.6518 27.4196 72.5524 27.3533 72.4199 27.2965C72.2874 27.2397 72.1075 27.1735 71.8804 27.0978L72.0933 26.6576C73.0115 26.7617 73.8729 26.8091 74.6774 26.7996C75.4915 26.7901 76.2676 26.7617 77.0059 26.7144L77.1195 24.755ZM79.6184 31.2152C79.9876 31.2626 80.3236 31.3572 80.6265 31.4992C80.9388 31.6412 81.2039 31.821 81.4216 32.0387C81.6488 32.247 81.8239 32.4884 81.9469 32.7628C82.07 33.0279 82.1315 33.3118 82.1315 33.6147C82.1315 33.9555 82.051 34.2726 81.8901 34.566C81.7387 34.8595 81.521 35.115 81.237 35.3327C80.9625 35.5504 80.6359 35.7208 80.2573 35.8439C79.8787 35.9669 79.4717 36.0284 79.0363 36.0284C78.5819 36.0284 78.1655 35.9669 77.7868 35.8439C77.4082 35.7208 77.0817 35.5504 76.8072 35.3327C76.5327 35.115 76.315 34.8595 76.154 34.566C76.0026 34.2726 75.9269 33.9555 75.9269 33.6147C75.9269 33.3024 75.9884 33.009 76.1114 32.7345C76.244 32.46 76.4285 32.2186 76.6652 32.0103C76.9018 31.7926 77.1763 31.6128 77.4887 31.4708C77.8105 31.3288 78.1655 31.2389 78.5535 31.201C78.5346 31.0875 78.4826 30.9975 78.3974 30.9313C78.3122 30.865 78.1607 30.7988 77.943 30.7325L78.1844 30.3066C78.2885 30.3255 78.4116 30.3491 78.5535 30.3775C78.6955 30.4059 78.8375 30.4391 78.9795 30.4769C79.1309 30.5053 79.2777 30.5337 79.4196 30.5621C79.5616 30.5905 79.6894 30.6189 79.803 30.6473C79.7557 30.7514 79.7178 30.8461 79.6894 30.9313C79.661 31.0165 79.6373 31.1111 79.6184 31.2152ZM80.7259 33.5438C80.7259 33.2976 80.6785 33.0705 80.5839 32.8622C80.4987 32.654 80.3756 32.4742 80.2147 32.3227C80.0633 32.1618 79.8834 32.0387 79.6752 31.9535C79.4764 31.8589 79.2587 31.8116 79.0221 31.8116C78.776 31.8116 78.5488 31.8589 78.3406 31.9535C78.1323 32.0387 77.9477 32.1618 77.7868 32.3227C77.6354 32.4742 77.5123 32.654 77.4177 32.8622C77.3325 33.0705 77.2899 33.2976 77.2899 33.5438C77.2899 33.7899 77.3325 34.017 77.4177 34.2253C77.5123 34.424 77.6354 34.5992 77.7868 34.7506C77.9477 34.9115 78.1323 35.0346 78.3406 35.1198C78.5488 35.2049 78.776 35.2475 79.0221 35.2475C79.2587 35.2475 79.4812 35.2049 79.6894 35.1198C79.8976 35.0346 80.0775 34.9115 80.2289 34.7506C80.3804 34.5992 80.4987 34.424 80.5839 34.2253C80.6785 34.017 80.7259 33.7899 80.7259 33.5438Z" fill="white"/>
<path d="M62.4733 25.4082C62.8898 25.465 63.2732 25.5785 63.6234 25.7489C63.9736 25.9098 64.2718 26.1181 64.5179 26.3736C64.7734 26.6197 64.9675 26.9037 65.1 27.2255C65.242 27.5474 65.313 27.8929 65.313 28.262C65.313 28.6785 65.2231 29.0666 65.0432 29.4263C64.8728 29.7765 64.6315 30.0841 64.3191 30.3491C64.0067 30.6047 63.6376 30.8082 63.2116 30.9597C62.7857 31.1017 62.3266 31.1726 61.8344 31.1726C61.3422 31.1726 60.8831 31.1017 60.4572 30.9597C60.0407 30.8082 59.681 30.6047 59.3781 30.3491C59.0752 30.0841 58.8338 29.7765 58.654 29.4263C58.4836 29.0666 58.3984 28.6785 58.3984 28.262C58.3984 27.8834 58.4742 27.5284 58.6256 27.1971C58.7771 26.8564 58.9853 26.5582 59.2503 26.3027C59.5154 26.0471 59.8325 25.8388 60.2016 25.6779C60.5708 25.517 60.9778 25.4176 61.4227 25.3798C61.4227 25.2378 61.3801 25.1242 61.2949 25.039C61.2192 24.9538 61.063 24.8734 60.8263 24.7976L61.0677 24.3717C61.1624 24.4001 61.2807 24.4285 61.4227 24.4569C61.5646 24.4853 61.7066 24.5137 61.8486 24.5421C62.0001 24.5705 62.1468 24.5989 62.2888 24.6273C62.4402 24.6557 62.5727 24.6841 62.6863 24.7125C62.6484 24.7976 62.6106 24.9018 62.5727 25.0248C62.5349 25.1479 62.5017 25.2756 62.4733 25.4082ZM63.9215 28.2194C63.9215 27.9165 63.8648 27.6373 63.7512 27.3817C63.6471 27.1167 63.5003 26.8895 63.311 26.7002C63.1312 26.5014 62.9135 26.3452 62.6579 26.2317C62.4118 26.1181 62.1468 26.0613 61.8628 26.0613C61.5788 26.0613 61.3138 26.1181 61.0677 26.2317C60.8216 26.3452 60.6039 26.5014 60.4146 26.7002C60.2347 26.8895 60.0928 27.1167 59.9886 27.3817C59.8845 27.6373 59.8325 27.9165 59.8325 28.2194C59.8325 28.5223 59.8845 28.8063 59.9886 29.0713C60.0928 29.3269 60.2347 29.5493 60.4146 29.7386C60.6039 29.9185 60.8216 30.0605 61.0677 30.1646C61.3138 30.2687 61.5788 30.3208 61.8628 30.3208C62.1468 30.3208 62.4118 30.2687 62.6579 30.1646C62.9135 30.0605 63.1312 29.9185 63.311 29.7386C63.5003 29.5493 63.6471 29.3269 63.7512 29.0713C63.8648 28.8063 63.9215 28.5223 63.9215 28.2194ZM68.6496 31.9677C68.6496 32.2612 68.6401 32.6019 68.6212 32.99C68.6117 33.3686 68.5975 33.752 68.5786 34.1401C68.5596 34.5187 68.536 34.8784 68.5076 35.2191C68.4792 35.5694 68.4508 35.8486 68.4224 36.0568L67.4427 36.1846C67.4238 36.0332 67.4048 35.8297 67.3859 35.5741C67.3765 35.3185 67.3623 35.044 67.3433 34.7506C67.3339 34.4666 67.3244 34.1732 67.3149 33.8703C67.3149 33.5579 67.3149 33.2645 67.3149 32.99V24.0735C67.3149 23.7801 67.1777 23.5435 66.9032 23.3636C66.6381 23.1743 66.1933 23.0039 65.5685 22.8525L65.7957 22.3271C66.0324 22.3555 66.2879 22.3934 66.5624 22.4407C66.8369 22.4786 67.1114 22.5259 67.3859 22.5827C67.6604 22.63 67.9207 22.6774 68.1668 22.7247C68.4224 22.772 68.6401 22.8099 68.8199 22.8383C68.801 22.9235 68.7773 23.0276 68.7489 23.1506C68.73 23.2737 68.7111 23.4015 68.6922 23.534C68.6827 23.657 68.6732 23.7706 68.6638 23.8748C68.6543 23.9789 68.6496 24.0546 68.6496 24.1019V28.0348C69.066 28.0064 69.5346 27.9638 70.0552 27.9071C70.5758 27.8503 71.0491 27.784 71.475 27.7083L71.333 28.8583C71.1626 28.8489 70.9639 28.8441 70.7367 28.8441C70.519 28.8441 70.2871 28.8441 70.041 28.8441C69.8043 28.8441 69.563 28.8441 69.3169 28.8441C69.0802 28.8441 68.8578 28.8441 68.6496 28.8441V31.9677Z" fill="white"/>
<g clip-path="url(#clip0_1142_138)">
<path d="M23.9355 33.5704L23.1031 34.7621L20.4108 32.8818L20.4104 32.8815L10.8762 26.2098L1.28109 32.9627L0.444336 31.7738L10.8741 24.4336L23.9355 33.5704Z" fill="white"/>
<path d="M42.9741 28.6593L42.0692 29.797L32.8941 22.5003L20.7427 32.4677L19.8208 31.3437L30.96 22.2059L30.9603 22.2057L32.8801 20.6318L42.9741 28.6593Z" fill="white"/>
<path d="M9.29527 43.8061L7.89012 44.1797L6.08008 37.3705L7.48523 36.9971L9.29527 43.8061Z" fill="white"/>
<path d="M8.65354 44.8249L2.20802 46.0752L1.93115 44.6479L8.37668 43.3975L8.65354 44.8249Z" fill="white"/>
<path d="M22.216 0.00236346L22.2158 0.0026001C28.0544 0.103865 33.3293 2.55645 37.1547 6.43132L37.3357 6.61708L37.3362 6.61732C41.1706 10.5996 43.5038 16.0461 43.401 21.9881V21.9883L43.1539 36.1511V36.2964L43.1537 36.3035L43.1296 37.5297C43.117 38.2438 43.0692 38.9463 42.9864 39.6417C42.954 39.9208 42.9166 40.1999 42.8742 40.4789L42.8738 40.4815C42.7457 41.305 42.57 42.1103 42.352 42.8974C42.3393 42.946 42.3232 43.0065 42.3044 43.0694L42.3046 43.0696C42.1768 43.5183 42.0336 43.9651 41.8777 44.4V44.4005C41.622 45.1126 41.3309 45.8044 41.0053 46.4807C40.7572 46.997 40.489 47.5039 40.2002 47.9985C40.1767 48.0398 40.1397 48.1037 40.0947 48.1708C39.7263 48.7941 39.3285 49.3926 38.8968 49.9756L38.8971 49.9759C38.4785 50.5423 38.0314 51.0902 37.5553 51.6115C37.1759 52.0331 36.7781 52.4433 36.362 52.8368L36.3617 52.8371C35.8642 53.3071 35.3431 53.7583 34.8009 54.1826C33.7605 54.9973 32.6451 55.7162 31.4678 56.3324L31.4681 56.3327C31.2162 56.465 30.9625 56.5893 30.7049 56.708L30.7047 56.7077C30.6229 56.7489 30.5449 56.7846 30.4742 56.8156C30.2528 56.9165 30.0243 57.0183 29.7901 57.1136C28.9691 57.4552 28.1204 57.7534 27.2488 57.992L27.2486 57.9917C26.0523 58.3202 24.8141 58.5485 23.549 58.6687L23.5147 58.6721H23.5052C22.7427 58.7422 21.9705 58.7712 21.1888 58.7565C20.5321 58.7465 19.8863 58.7039 19.2496 58.6337V58.6335C17.8529 58.4856 16.4979 58.2005 15.1926 57.7877L15.0232 57.7352C14.8944 57.6945 14.7666 57.652 14.6392 57.6081H14.6363L14.5201 57.5677C13.4606 57.1986 12.4398 56.7471 11.4651 56.2259H11.4649C10.209 55.5541 9.02762 54.764 7.9338 53.8634V53.8631C6.37073 52.5804 4.98983 51.0845 3.83903 49.4151C1.58128 46.1574 0.196588 42.2594 0.0199417 38.0678L0.0118961 37.8754C0.00518672 37.6869 0.00252957 37.4989 0.00243058 37.3099C-0.0025417 37.1234 -0.00015037 36.9396 0.00219394 36.7732V36.7708L0.273617 21.2311C0.481744 9.34526 10.3516 -0.205828 22.216 0.00236346ZM22.1905 1.45603C11.1318 1.26197 1.92143 10.1707 1.72728 21.2564L1.45586 36.7935C1.4534 36.9681 1.45152 37.125 1.45586 37.2791L1.45609 37.2893V37.2997C1.45609 37.478 1.45873 37.6519 1.46485 37.8239L1.47218 37.9952V37.998L1.47242 38.0011C1.63098 41.7881 2.84679 45.3186 4.83882 48.3003L5.03405 48.5871L5.03499 48.5885C6.04109 50.0483 7.23667 51.3671 8.58526 52.5133L8.85716 52.7403L8.85811 52.741C9.87728 53.5802 10.9786 54.3168 12.1507 54.9438L12.3218 55.0342C13.1447 55.4643 14.0006 55.8403 14.8841 56.1542H14.886L15.0031 56.1957C15.207 56.2675 15.4102 56.3342 15.6148 56.3963L15.6191 56.3977L15.6233 56.3989C16.8394 56.784 18.1024 57.0503 19.4057 57.1881L19.409 57.1886C20.0032 57.2541 20.603 57.2936 21.211 57.3029H21.2136C21.9543 57.3169 22.6857 57.289 23.4075 57.2212L23.4413 57.2182H23.4421C24.6134 57.1051 25.7588 56.8933 26.8643 56.5897H26.8648C27.6729 56.3684 28.4652 56.0906 29.2368 55.7692L29.2425 55.7669C29.4493 55.6828 29.657 55.5907 29.8717 55.4928L29.8767 55.4905L29.8817 55.4883C29.9552 55.4562 30.0134 55.4296 30.0674 55.4017L30.0819 55.3942L30.0965 55.3875C30.3332 55.2785 30.5642 55.165 30.792 55.0454L30.793 55.0449C31.893 54.4691 32.9342 53.7978 33.9047 53.0377L33.905 53.0375C34.4095 52.6427 34.8965 52.2213 35.3634 51.7802C35.7503 51.4143 36.1219 51.031 36.4779 50.6352L36.4798 50.6333L36.4815 50.6311C36.9214 50.1493 37.3371 49.6408 37.7278 49.1119L37.7281 49.1112C38.1349 48.5617 38.5088 47.999 38.8542 47.4131L38.8687 47.3885L38.8848 47.3653C38.8964 47.3486 38.9096 47.3268 38.9413 47.2714L38.943 47.2685L38.9446 47.2654C39.2132 46.8054 39.4633 46.3331 39.695 45.8511L39.6952 45.8506C39.9995 45.2186 40.2708 44.573 40.5093 43.909C40.6538 43.5057 40.7871 43.0899 40.9064 42.6714L40.908 42.665L40.9099 42.6588C40.9219 42.6194 40.9329 42.5776 40.948 42.5197L40.9508 42.5093C41.1289 41.8665 41.2766 41.2116 41.3905 40.5447L41.4371 40.2581C41.4769 39.996 41.512 39.7339 41.5424 39.4718L41.5427 39.4697C41.6197 38.8232 41.6642 38.169 41.6759 37.5025V37.5008L41.7 36.2748V36.1383L41.9473 21.9628C42.0431 16.4239 39.8693 11.3444 36.2889 7.62587V7.62563C32.7595 3.96515 27.8713 1.62578 22.4491 1.46218L22.1905 1.45603Z" fill="white"/>
<path d="M6.82506 36.7138C8.52115 36.6545 10.2765 36.7884 12.0507 37.1204H12.0562L12.1236 37.1334C13.9687 37.485 15.8367 38.0529 17.6661 38.8443L17.8663 38.9314C18.0632 39.018 18.2612 39.1083 18.4589 39.2033L18.6766 39.3055C18.8213 39.3746 18.9653 39.4455 19.1084 39.5175L19.3223 39.6261L19.3233 39.6266C19.9802 39.9649 20.6144 40.3233 21.2256 40.7043C21.2412 40.7128 21.2536 40.7201 21.2621 40.7253C21.2684 40.7292 21.2747 40.733 21.2781 40.7353L21.2796 40.7362L21.285 40.7395C22.1269 41.2652 22.9174 41.8253 23.6613 42.4147L23.9772 42.6691L23.981 42.6721L23.985 42.6754C24.1366 42.803 24.2934 42.9349 24.446 43.0676C24.518 43.1299 24.5963 43.1979 24.6732 43.267C25.1166 43.6606 25.5417 44.0659 25.9458 44.485C26.3506 44.903 26.7359 45.3316 27.0971 45.7692L27.2504 45.9574L27.2509 45.9581C27.3719 46.1088 27.4918 46.2614 27.6103 46.4176C28.148 47.1211 28.6295 47.8466 29.0488 48.5866L29.1657 48.7954C29.2429 48.9349 29.3185 49.0753 29.392 49.2168L29.5006 49.4298L29.5015 49.4317L29.5025 49.4338C29.5809 49.5931 29.6614 49.7589 29.7377 49.9241L29.8785 50.2362C30.1982 50.9654 30.4584 51.7036 30.6589 52.4471C30.6747 52.5051 30.6899 52.5626 30.7044 52.6194L30.7462 52.7881L30.7467 52.79C31.0145 53.8995 31.146 55.0149 31.1279 56.1226L29.6743 56.0989C29.6902 55.1234 29.5747 54.1314 29.334 53.1334L29.2954 52.9777C29.2826 52.9273 29.2696 52.8782 29.2564 52.8295L29.2559 52.8274C29.0489 52.0594 28.7699 51.2938 28.4184 50.5354L28.4182 50.5344C28.3492 50.385 28.2746 50.2311 28.1981 50.0758C28.0699 49.8197 27.9315 49.5634 27.7845 49.3044L27.784 49.3039C27.3989 48.6241 26.9546 47.9538 26.4553 47.3005L26.4536 47.2984C26.3451 47.1552 26.2334 47.013 26.1179 46.8691L25.9756 46.6947C25.6404 46.2886 25.2815 45.8887 24.9018 45.4966L24.9006 45.4955C24.5249 45.1057 24.1267 44.7261 23.7079 44.3544L23.706 44.3527L23.7044 44.3511C23.6371 44.2905 23.5663 44.2289 23.494 44.1663L23.4933 44.1658C23.3514 44.0425 23.2041 43.9184 23.0515 43.79C22.2724 43.1531 21.438 42.5511 20.5417 41.9899L20.5358 41.9875L20.4807 41.9532C19.8979 41.589 19.2903 41.2451 18.6576 40.9194C18.3849 40.7795 18.1163 40.6463 17.8502 40.5237L17.8393 40.5185C17.594 40.4004 17.3444 40.2884 17.092 40.1799L17.0904 40.1794C15.3743 39.4369 13.6247 38.9033 11.8997 38.571L11.8493 38.5615C10.1532 38.2392 8.48204 38.1104 6.87594 38.1666C4.75321 38.2415 2.75768 38.6373 0.998104 39.337L0.460938 37.986C2.39421 37.2173 4.55709 36.7939 6.82506 36.7138Z" fill="white"/>
<path d="M21.4392 50.8196L21.4435 50.8238L21.4556 50.8311L26.7092 53.9567H26.7148L27.0561 54.1635L29.8888 55.8524L29.1441 57.1011L26.3116 55.4122L26.3095 55.4108L26.3073 55.4096L26.273 55.3888L20.7123 52.0806L20.7076 52.0778L20.6153 52.0221L20.54 51.9765L20.5395 51.976L0.374512 39.9721L1.11803 38.7227L21.4392 50.8196Z" fill="white"/>
<path d="M15.3684 47.4424L13.9661 47.8267L11.2788 38.0249L12.6811 37.6406L15.3684 47.4424Z" fill="white"/>
<path d="M21.7855 51.2717L20.3777 51.6354L17.3755 40.009L18.783 39.6455L21.7855 51.2717Z" fill="white"/>
<path d="M27.4335 54.7653L26.0314 55.1498L22.811 43.4121L24.2133 43.0273L27.4335 54.7653Z" fill="white"/>
<path d="M14.7991 48.3487L5.13555 50.159L4.86768 48.73L14.5315 46.9199L14.7991 48.3487Z" fill="white"/>
<path d="M21.2736 52.0831L9.05108 54.3754L8.7832 52.9466L21.0055 50.6543L21.2736 52.0831Z" fill="white"/>
<path d="M27.1058 55.3107L14.8956 57.5982L14.8293 57.6108H14.7593V56.871L14.6279 56.1692L26.8382 53.8818L27.1058 55.3107Z" fill="white"/>
<path d="M31.3944 52.0322C32.5563 52.0322 33.6347 52.3985 34.4986 53.0301L33.6405 54.2038C33.0263 53.7548 32.2485 53.4861 31.3944 53.4861C30.9941 53.4861 30.6104 53.5457 30.2531 53.6553L29.8267 52.2653C30.3222 52.1133 30.8496 52.0322 31.3944 52.0322Z" fill="white"/>
<path d="M31.3946 48.6426C33.5868 48.6426 35.591 49.3992 37.1281 50.6585L36.2067 51.7832C34.928 50.7357 33.2491 50.0965 31.3946 50.0965C30.5796 50.0965 29.7971 50.2209 29.0668 50.4488L28.6338 49.061C29.5028 48.7897 30.4311 48.6426 31.3946 48.6426Z" fill="white"/>
<path d="M31.3947 44.8018C34.463 44.8018 37.2904 45.812 39.505 47.5025L38.6228 48.6582C36.6598 47.1599 34.1419 46.2557 31.3947 46.2557C29.8177 46.2557 28.3157 46.5555 26.9499 47.0922L26.418 45.7391C27.9503 45.1369 29.6326 44.8018 31.3947 44.8018Z" fill="white"/>
<path d="M31.3943 41.1865C35.0451 41.1865 38.4261 42.2851 41.1809 44.1435L40.3678 45.3487C37.8499 43.65 34.7513 42.6404 31.3943 42.6404C28.8264 42.6404 26.4108 43.23 24.2898 44.2697L23.6499 42.9641C25.9681 41.8278 28.6023 41.1865 31.3943 41.1865Z" fill="white"/>
<path d="M31.3943 37.7988C35.3873 37.7988 39.3307 38.9355 42.5356 40.9011L41.7755 42.1404C38.8013 40.3163 35.1213 39.2527 31.3943 39.2527C27.6652 39.2527 24.1923 40.2544 21.27 41.984L20.5293 40.7329C23.6745 38.8714 27.4032 37.7988 31.3943 37.7988Z" fill="white"/>
<path d="M31.3943 34.4092C35.4998 34.4092 39.3699 35.374 42.7513 37.0747L42.0979 38.3736C38.9174 36.7739 35.2708 35.8631 31.3943 35.8631C26.2847 35.8631 21.5726 37.4444 17.7981 40.1086L16.9595 38.9209C20.9779 36.0845 25.9827 34.4092 31.3943 34.4092Z" fill="white"/>
<path d="M22.1866 16.8408C26.1595 16.8408 29.6383 18.9658 31.543 22.1394L30.2964 22.8876C28.6439 20.1342 25.6286 18.2947 22.1866 18.2947C17.3337 18.2948 13.3371 21.9508 12.7994 26.6596L11.355 26.4947C11.9756 21.0601 16.586 16.8409 22.1866 16.8408Z" fill="white"/>
</g>
<defs>
<clipPath id="clip0_1142_138">
<rect width="43.4037" height="58.7618" fill="white"/>
</clipPath>
</defs>
</svg>
