<svg width="100" height="53" viewBox="0 0 100 53" fill="none" xmlns="http://www.w3.org/2000/svg">
<path d="M94.1279 23.2468C94.4658 23.4749 94.846 23.7115 95.2684 23.9565C95.6908 24.1931 96.1175 24.4212 96.5483 24.6408C96.9792 24.8605 97.3974 25.0632 97.8029 25.2491C98.2084 25.435 98.5675 25.587 98.8801 25.7053L97.9677 26.6304C97.6551 26.4023 97.3171 26.1658 96.9539 25.9207C96.599 25.6673 96.2358 25.4181 95.864 25.1731C95.4923 24.9196 95.1206 24.6746 94.7488 24.4381C94.3771 24.2015 94.0265 23.9776 93.697 23.7664C93.0634 24.5183 92.3537 25.1731 91.568 25.7307C90.7908 26.2883 89.9713 26.7656 89.1095 27.1627L88.7801 26.7698C89.3039 26.4995 89.8023 26.1869 90.2754 25.832C90.757 25.4688 91.2005 25.0886 91.606 24.6915C92.0116 24.286 92.3706 23.872 92.6832 23.4496C93.0042 23.0187 93.2704 22.5963 93.4816 22.1823C93.5745 22.0049 93.5618 21.8655 93.4436 21.7641C93.376 21.705 93.2577 21.6332 93.0887 21.5487C92.9198 21.4558 92.7719 21.384 92.6452 21.3333L92.9747 20.9404C93.1352 20.9827 93.3126 21.0334 93.5069 21.0925C93.7012 21.1432 93.8956 21.1981 94.0899 21.2572C94.2842 21.3164 94.4743 21.3755 94.6601 21.4347C94.846 21.4938 95.0192 21.5529 95.1797 21.6121C95.0276 21.9078 94.8629 22.1908 94.6855 22.4611C94.5165 22.7315 94.3306 22.9934 94.1279 23.2468ZM99.5011 30.1027C99.1631 30.0858 98.7238 30.0731 98.1831 30.0647C97.6424 30.0562 97.089 30.0478 96.523 30.0393C96.2864 30.0393 95.9992 30.0436 95.6613 30.052C95.3233 30.052 94.9558 30.0605 94.5588 30.0774C94.1701 30.0858 93.7688 30.0985 93.3549 30.1154C92.9493 30.1238 92.5607 30.1365 92.189 30.1534C91.8173 30.1618 91.4793 30.1745 91.1752 30.1914C90.8795 30.2083 90.6472 30.221 90.4782 30.2294C90.1571 30.2463 89.815 30.2717 89.4517 30.3055C89.0884 30.3308 88.7505 30.3646 88.4379 30.4068L88.0324 29.2917C88.4126 29.3423 88.8139 29.3846 89.2363 29.4184C89.6671 29.4437 90.0769 29.4648 90.4655 29.4817C90.6767 29.4902 90.9386 29.4944 91.2512 29.4944C91.5722 29.4944 91.9144 29.4944 92.2777 29.4944C92.6494 29.486 93.0296 29.4775 93.4182 29.4691C93.8153 29.4522 94.1955 29.4395 94.5588 29.431C94.9305 29.4226 95.2726 29.4142 95.5852 29.4057C95.8978 29.3888 96.1555 29.3761 96.3583 29.3677C96.9243 29.3339 97.4988 29.2917 98.0817 29.241C98.6731 29.1903 99.1969 29.1311 99.6531 29.0635L99.5011 30.1027Z" fill="white"/>
<path d="M80.5738 28.81C80.5738 29.0296 80.5653 29.2662 80.5484 29.5196C80.54 29.7731 80.5273 30.0265 80.5104 30.28C80.4935 30.5335 80.4724 30.7785 80.447 31.015C80.4217 31.2516 80.3921 31.4585 80.3583 31.636L79.5093 31.788C79.4924 31.636 79.4755 31.4501 79.4586 31.2304C79.4501 31.0192 79.4417 30.7996 79.4332 30.5715C79.4248 30.3349 79.4163 30.1026 79.4079 29.8745C79.4079 29.6379 79.4079 29.4267 79.4079 29.2408V27.7962C79.315 27.7962 79.2178 27.8004 79.1164 27.8088C79.0235 27.8173 78.9306 27.8257 78.8376 27.8342C78.7447 27.8426 78.6137 27.8553 78.4448 27.8722C78.2843 27.8807 78.1068 27.8976 77.9125 27.9229C77.7267 27.9398 77.5366 27.9609 77.3423 27.9863C77.1564 28.0032 76.9917 28.0201 76.848 28.037L76.2271 26.9851C76.3622 27.0105 76.5185 27.0316 76.696 27.0485C76.8818 27.0654 77.0719 27.0823 77.2662 27.0992C77.4605 27.1161 77.6464 27.1288 77.8238 27.1372C78.0012 27.1372 78.1491 27.1372 78.2674 27.1372C78.7405 27.1203 79.1882 27.0992 79.6107 27.0738C80.0331 27.0485 80.4428 27.0147 80.8399 26.9725C81.237 26.9302 81.6256 26.8838 82.0058 26.8331C82.3859 26.7739 82.7703 26.7063 83.159 26.6303V27.1625C82.7028 27.2724 82.2634 27.3653 81.841 27.4413C81.4186 27.5174 80.9962 27.585 80.5738 27.6441V28.81ZM83.4504 28.886C82.6816 28.9114 81.9931 28.9874 81.3848 29.1141L80.8906 28.1257C81.1525 28.1764 81.4059 28.2101 81.6509 28.227C81.8959 28.2439 82.1283 28.2482 82.3479 28.2397C82.5338 28.2313 82.7197 28.227 82.9055 28.227C83.0998 28.2186 83.2815 28.2059 83.4504 28.189V21.9921C83.4504 21.8654 83.4293 21.7514 83.3871 21.65C83.3533 21.5486 83.2857 21.4557 83.1843 21.3712C83.0914 21.2867 82.9604 21.2107 82.7915 21.1431C82.6225 21.0755 82.4113 21.0079 82.1578 20.9403L82.3859 20.4841C82.7915 20.5348 83.2012 20.6024 83.6152 20.6869C84.0376 20.7629 84.4136 20.8432 84.743 20.9276C84.7261 21.0037 84.7092 21.0966 84.6923 21.2064C84.6755 21.3163 84.6586 21.4261 84.6417 21.5359C84.6332 21.6458 84.6248 21.7471 84.6163 21.8401C84.6079 21.933 84.6036 22.0006 84.6036 22.0428V28.075C84.6036 28.3369 84.5952 28.6368 84.5783 28.9747C84.5698 29.3042 84.553 29.6379 84.5276 29.9759C84.5023 30.3138 84.4727 30.6391 84.4389 30.9516C84.4136 31.2642 84.384 31.5261 84.3502 31.7373L83.5518 31.8387C83.5349 31.6782 83.5222 31.4839 83.5138 31.2558C83.5054 31.0361 83.4927 30.7996 83.4758 30.5461C83.4673 30.2927 83.4589 30.035 83.4504 29.7731C83.4504 29.5027 83.4504 29.2451 83.4504 29.0001V28.886ZM82.5127 24.8435C82.5127 25.0885 82.4493 25.3208 82.3226 25.5405C82.1959 25.7517 82.0227 25.9375 81.803 26.0981C81.5833 26.2501 81.3257 26.3726 81.03 26.4656C80.7343 26.5585 80.4175 26.605 80.0795 26.605C79.7416 26.605 79.4248 26.5585 79.1291 26.4656C78.8334 26.3726 78.5715 26.2459 78.3434 26.0854C78.1237 25.9249 77.9463 25.739 77.8111 25.5278C77.6844 25.3166 77.6211 25.0885 77.6211 24.8435C77.6211 24.59 77.6844 24.3577 77.8111 24.1465C77.9463 23.9353 78.1237 23.7536 78.3434 23.6016C78.563 23.441 78.8207 23.3185 79.1164 23.2341C79.4206 23.1411 79.7416 23.0947 80.0795 23.0947C80.4344 23.0947 80.7596 23.1453 81.0553 23.2467C81.3595 23.3397 81.6171 23.4664 81.8283 23.6269C82.048 23.7874 82.217 23.9733 82.3353 24.1845C82.4535 24.3957 82.5127 24.6154 82.5127 24.8435ZM78.8503 24.8561C78.8503 25.0082 78.8799 25.1561 78.939 25.2997C79.0066 25.4433 79.0953 25.57 79.2051 25.6799C79.315 25.7812 79.4459 25.8657 79.598 25.9333C79.75 25.9924 79.9106 26.022 80.0795 26.022C80.2485 26.022 80.4048 25.9924 80.5484 25.9333C80.7005 25.8657 80.8314 25.7812 80.9413 25.6799C81.0595 25.57 81.1525 25.4475 81.2201 25.3124C81.2877 25.1687 81.3214 25.0167 81.3214 24.8561C81.3214 24.6956 81.2877 24.5436 81.2201 24.3999C81.1609 24.2479 81.0722 24.1169 80.9539 24.0071C80.8441 23.8973 80.7132 23.8085 80.5611 23.741C80.4175 23.6734 80.257 23.6396 80.0795 23.6396C79.7332 23.6396 79.4417 23.7536 79.2051 23.9817C78.9686 24.2098 78.8503 24.5013 78.8503 24.8561ZM81.6256 21.6753C81.4904 21.6753 81.3426 21.6753 81.182 21.6753C81.03 21.6753 80.8737 21.6796 80.7132 21.688C80.5611 21.688 80.4132 21.6922 80.2696 21.7007C80.126 21.7007 79.9993 21.7007 79.8894 21.7007C79.8303 21.7007 79.7458 21.7049 79.636 21.7133C79.5262 21.7133 79.4079 21.7218 79.2812 21.7387C79.1544 21.7471 79.0277 21.7598 78.901 21.7767C78.7743 21.7936 78.6644 21.8105 78.5715 21.8274L78.0519 20.8896C78.1533 20.915 78.2758 20.9403 78.4194 20.9657C78.5715 20.9826 78.7236 21.0037 78.8756 21.029C79.0362 21.0459 79.1925 21.0628 79.3445 21.0797C79.4966 21.0882 79.6233 21.0924 79.7247 21.0924C79.8261 21.0924 79.957 21.0882 80.1176 21.0797C80.2781 21.0713 80.4555 21.0586 80.6498 21.0417C80.8526 21.0164 81.0553 20.9952 81.2581 20.9783C81.4693 20.953 81.6678 20.9276 81.8537 20.9023L81.6256 21.6753ZM82.9816 22.7525C82.7028 22.7525 82.3733 22.7567 81.9931 22.7652C81.6214 22.7652 81.237 22.7736 80.8399 22.7905C80.4428 22.799 80.0584 22.8116 79.6867 22.8285C79.315 22.837 78.9981 22.8454 78.7362 22.8539C78.6349 22.8623 78.5039 22.875 78.3434 22.8919C78.1913 22.9088 78.0308 22.9257 77.8618 22.9426C77.7013 22.9595 77.5408 22.9764 77.3803 22.9933C77.2282 23.0102 77.1015 23.0271 77.0001 23.044L76.4805 22.0428C76.5904 22.0682 76.7298 22.0935 76.8987 22.1189C77.0677 22.1358 77.2409 22.1527 77.4183 22.1696C77.5957 22.1865 77.7647 22.2034 77.9252 22.2202C78.0942 22.2287 78.2378 22.2329 78.3561 22.2329C78.6264 22.2329 78.9517 22.2287 79.3319 22.2202C79.712 22.2034 80.1176 22.1822 80.5484 22.1569C80.9793 22.1231 81.4144 22.0851 81.8537 22.0428C82.3015 21.9921 82.7281 21.9288 83.1336 21.8527L82.9816 22.7525ZM84.2488 19.9265C84.6712 19.9857 85.1148 20.0617 85.5794 20.1546C86.0525 20.2476 86.4496 20.3278 86.7706 20.3954C86.7538 20.4714 86.7369 20.5644 86.72 20.6742C86.7031 20.784 86.6862 20.8939 86.6693 21.0037C86.6524 21.1135 86.6397 21.2149 86.6313 21.3078C86.6228 21.4008 86.6186 21.4683 86.6186 21.5106V28.5312C86.6186 28.7931 86.6144 29.093 86.6059 29.4309C86.5975 29.7604 86.5806 30.0941 86.5552 30.4321C86.5383 30.77 86.5172 31.091 86.4919 31.3952C86.4665 31.7078 86.4412 31.9697 86.4158 32.1809L85.5668 32.2949C85.5499 32.1344 85.533 31.9401 85.5161 31.712C85.5076 31.4923 85.4949 31.2516 85.478 30.9897C85.4696 30.7362 85.4612 30.4785 85.4527 30.2166C85.4443 29.9463 85.44 29.6886 85.44 29.4436V21.4852C85.44 21.3585 85.4189 21.2445 85.3767 21.1431C85.3344 21.0333 85.2584 20.9361 85.1486 20.8516C85.0472 20.7587 84.9036 20.6784 84.7177 20.6108C84.5403 20.5348 84.3122 20.463 84.0334 20.3954L84.2488 19.9265Z" fill="white"/>
<path d="M68.8329 22.0935C68.6893 22.0851 68.5245 22.0851 68.3387 22.0935C68.1612 22.0935 67.9754 22.0977 67.7811 22.1062C67.5868 22.1146 67.3967 22.1273 67.2108 22.1442C67.0249 22.1527 66.856 22.1611 66.7039 22.1696C66.611 22.178 66.4885 22.1907 66.3364 22.2076C66.1928 22.216 66.0322 22.2287 65.8548 22.2456C65.6859 22.2625 65.5084 22.2836 65.3226 22.309C65.1367 22.3343 64.9635 22.3639 64.803 22.3977L64.2201 21.3839C64.313 21.4008 64.4397 21.4219 64.6002 21.4472C64.7692 21.4726 64.9424 21.4937 65.1198 21.5106C65.3057 21.5275 65.4873 21.5444 65.6647 21.5613C65.8506 21.5697 66.0111 21.5739 66.1463 21.5739C66.3744 21.5739 66.6532 21.5739 66.9827 21.5739C67.3122 21.5655 67.6628 21.5571 68.0345 21.5486C68.4062 21.5317 68.7822 21.5106 69.1624 21.4852C69.551 21.4599 69.9185 21.4303 70.2649 21.3965C70.248 21.4472 70.2269 21.519 70.2015 21.612C70.1846 21.6964 70.1635 21.7852 70.1382 21.8781C70.1213 21.971 70.1044 22.0597 70.0875 22.1442C70.0706 22.2287 70.0579 22.2963 70.0495 22.347L69.8087 23.7663C69.8847 23.7494 69.9565 23.741 70.0241 23.741C70.1001 23.7325 70.1762 23.7241 70.2522 23.7156L70.1508 24.5267C69.6608 24.5013 69.2215 24.4886 68.8329 24.4886C68.4527 24.4802 68.1063 24.4802 67.7937 24.4886C67.4896 24.4971 67.2108 24.5098 66.9573 24.5267C66.7123 24.5436 66.4842 24.5562 66.273 24.5647C66.273 24.6323 66.2688 24.6998 66.2604 24.7674C66.2519 24.835 66.2477 24.9026 66.2477 24.9702V26.0854C66.2477 26.2206 66.2773 26.3219 66.3364 26.3895C66.404 26.4571 66.4885 26.4867 66.5898 26.4782C66.9193 26.4529 67.3037 26.4106 67.743 26.3515C68.1908 26.2924 68.6555 26.2163 69.137 26.1234C69.627 26.022 70.1213 25.908 70.6197 25.7812C71.1266 25.6545 71.6082 25.5151 72.0644 25.363V21.4852C72.0644 21.2233 71.9419 21.0121 71.6969 20.8516C71.4603 20.6826 71.0633 20.5306 70.5057 20.3954L70.6958 19.9265C70.907 19.9519 71.1351 19.9857 71.3801 20.0279C71.6335 20.0617 71.8828 20.1039 72.1278 20.1546C72.3728 20.1969 72.6051 20.2391 72.8247 20.2813C73.0444 20.3236 73.2345 20.3574 73.395 20.3827C73.3781 20.4588 73.3612 20.5517 73.3443 20.6615C73.3274 20.7714 73.3105 20.8854 73.2936 21.0037C73.2852 21.1135 73.2767 21.2149 73.2683 21.3078C73.2598 21.4008 73.2556 21.4683 73.2556 21.5106V23.8423C73.433 23.8339 73.6273 23.8212 73.8385 23.8043C74.0498 23.779 74.2652 23.7536 74.4849 23.7283C74.7045 23.7029 74.9199 23.6776 75.1312 23.6522C75.3508 23.6185 75.5578 23.5847 75.7521 23.5509L75.6127 24.552C75.4606 24.5436 75.2874 24.5393 75.0931 24.5393C74.8988 24.5393 74.6918 24.5393 74.4722 24.5393C74.261 24.5393 74.0498 24.5393 73.8385 24.5393C73.6273 24.5393 73.433 24.5393 73.2556 24.5393V25.4771C73.2556 25.6292 73.2472 25.8066 73.2303 26.0093C73.2218 26.2121 73.2091 26.4191 73.1922 26.6303C73.1754 26.8331 73.1542 27.0274 73.1289 27.2132C73.112 27.3907 73.0909 27.5301 73.0655 27.6314L72.1658 27.7708C72.1489 27.6779 72.1362 27.5638 72.1278 27.4287C72.1193 27.2935 72.1066 27.1541 72.0897 27.0105C72.0813 26.8584 72.0728 26.7106 72.0644 26.5669C72.0644 26.4233 72.0644 26.2924 72.0644 26.1741V25.8826C71.6335 26.0347 71.1646 26.1868 70.6577 26.3388C70.1508 26.4909 69.6397 26.6303 69.1244 26.757C68.609 26.8838 68.1105 26.9978 67.629 27.0992C67.1559 27.1921 66.7335 27.2639 66.3617 27.3146C65.8886 27.3738 65.5549 27.3146 65.3606 27.1372C65.1663 26.9513 65.0691 26.6556 65.0691 26.2501V25.173C65.0691 25.0209 65.0565 24.8942 65.0311 24.7928C65.0142 24.6914 64.972 24.6069 64.9044 24.5393C64.8453 24.4717 64.7565 24.4126 64.6383 24.3619C64.52 24.3112 64.3595 24.2521 64.1567 24.1845L64.3468 23.7916C65.1663 23.8846 65.9351 23.9268 66.6532 23.9184C67.3798 23.9099 68.0725 23.8846 68.7315 23.8423L68.8329 22.0935ZM71.0633 27.8595C71.3927 27.9018 71.6927 27.9863 71.963 28.113C72.2418 28.2397 72.4784 28.4002 72.6727 28.5945C72.8754 28.7804 73.0317 28.9958 73.1416 29.2408C73.2514 29.4774 73.3063 29.7309 73.3063 30.0012C73.3063 30.3053 73.2345 30.5884 73.0909 30.8503C72.9557 31.1122 72.7614 31.3403 72.5079 31.5346C72.2629 31.7289 71.9715 31.881 71.6335 31.9908C71.2956 32.1006 70.9323 32.1555 70.5437 32.1555C70.1382 32.1555 69.7664 32.1006 69.4285 31.9908C69.0906 31.881 68.7991 31.7289 68.5541 31.5346C68.3091 31.3403 68.1148 31.1122 67.9712 30.8503C67.836 30.5884 67.7684 30.3053 67.7684 30.0012C67.7684 29.7224 67.8233 29.4605 67.9331 29.2155C68.0514 28.9705 68.2162 28.7551 68.4274 28.5692C68.6386 28.3749 68.8836 28.2144 69.1624 28.0876C69.4496 27.9609 69.7664 27.8807 70.1128 27.8469C70.0959 27.7455 70.0495 27.6652 69.9734 27.6061C69.8974 27.547 69.7622 27.4878 69.5679 27.4287L69.7833 27.0485C69.8763 27.0654 69.9861 27.0865 70.1128 27.1119C70.2395 27.1372 70.3663 27.1668 70.493 27.2006C70.6282 27.2259 70.7591 27.2513 70.8858 27.2766C71.0126 27.3019 71.1266 27.3273 71.228 27.3526C71.1858 27.4456 71.152 27.5301 71.1266 27.6061C71.1013 27.6821 71.0802 27.7666 71.0633 27.8595ZM72.0517 29.9378C72.0517 29.7182 72.0095 29.5154 71.925 29.3296C71.849 29.1437 71.7391 28.9832 71.5955 28.848C71.4603 28.7044 71.2998 28.5945 71.1139 28.5185C70.9365 28.434 70.7422 28.3918 70.531 28.3918C70.3114 28.3918 70.1086 28.434 69.9227 28.5185C69.7369 28.5945 69.5721 28.7044 69.4285 28.848C69.2933 28.9832 69.1835 29.1437 69.099 29.3296C69.023 29.5154 68.985 29.7182 68.985 29.9378C68.985 30.1575 69.023 30.3603 69.099 30.5461C69.1835 30.7235 69.2933 30.8798 69.4285 31.015C69.5721 31.1586 69.7369 31.2685 69.9227 31.3445C70.1086 31.4205 70.3114 31.4585 70.531 31.4585C70.7422 31.4585 70.9408 31.4205 71.1266 31.3445C71.3125 31.2685 71.473 31.1586 71.6082 31.015C71.7434 30.8798 71.849 30.7235 71.925 30.5461C72.0095 30.3603 72.0517 30.1575 72.0517 29.9378Z" fill="white"/>
<path d="M55.7607 22.6765C56.1324 22.7272 56.4746 22.8285 56.7872 22.9806C57.0998 23.1242 57.3659 23.3101 57.5855 23.5382C57.8137 23.7579 57.9868 24.0113 58.1051 24.2985C58.2318 24.5858 58.2952 24.8942 58.2952 25.2236C58.2952 25.5954 58.215 25.9418 58.0544 26.2628C57.9024 26.5754 57.6869 26.85 57.4081 27.0865C57.1293 27.3146 56.7998 27.4963 56.4197 27.6314C56.0395 27.7582 55.6297 27.8215 55.1904 27.8215C54.7511 27.8215 54.3414 27.7582 53.9612 27.6314C53.5895 27.4963 53.2684 27.3146 52.9981 27.0865C52.7277 26.85 52.5123 26.5754 52.3518 26.2628C52.1997 25.9418 52.1237 25.5954 52.1237 25.2236C52.1237 24.8857 52.1913 24.5689 52.3264 24.2732C52.4616 23.9691 52.6475 23.7029 52.884 23.4748C53.1206 23.2467 53.4036 23.0609 53.7331 22.9172C54.0626 22.7736 54.4259 22.6849 54.8229 22.6511C54.8229 22.5244 54.7849 22.423 54.7089 22.347C54.6413 22.2709 54.5019 22.1991 54.2907 22.1315L54.5061 21.7514C54.5906 21.7767 54.6962 21.8021 54.8229 21.8274C54.9497 21.8527 55.0764 21.8781 55.2031 21.9034C55.3383 21.9288 55.4692 21.9541 55.596 21.9795C55.7311 22.0048 55.8494 22.0302 55.9508 22.0555C55.917 22.1315 55.8832 22.2245 55.8494 22.3343C55.8156 22.4441 55.786 22.5582 55.7607 22.6765ZM57.0533 25.1856C57.0533 24.9153 57.0026 24.6661 56.9012 24.4379C56.8083 24.2014 56.6773 23.9986 56.5084 23.8297C56.3479 23.6522 56.1535 23.5128 55.9254 23.4115C55.7058 23.3101 55.4692 23.2594 55.2158 23.2594C54.9623 23.2594 54.7258 23.3101 54.5061 23.4115C54.2865 23.5128 54.0921 23.6522 53.9232 23.8297C53.7627 23.9986 53.6359 24.2014 53.543 24.4379C53.4501 24.6661 53.4036 24.9153 53.4036 25.1856C53.4036 25.456 53.4501 25.7094 53.543 25.946C53.6359 26.1741 53.7627 26.3726 53.9232 26.5416C54.0921 26.7021 54.2865 26.8288 54.5061 26.9218C54.7258 27.0147 54.9623 27.0612 55.2158 27.0612C55.4692 27.0612 55.7058 27.0147 55.9254 26.9218C56.1535 26.8288 56.3479 26.7021 56.5084 26.5416C56.6773 26.3726 56.8083 26.1741 56.9012 25.946C57.0026 25.7094 57.0533 25.456 57.0533 25.1856ZM61.2733 28.5312C61.2733 28.7931 61.2648 29.0972 61.2479 29.4436C61.2395 29.7815 61.2268 30.1237 61.2099 30.4701C61.193 30.808 61.1719 31.1291 61.1465 31.4332C61.1212 31.7458 61.0958 31.995 61.0705 32.1809L60.1961 32.2949C60.1792 32.1598 60.1623 31.9781 60.1454 31.75C60.137 31.5219 60.1243 31.2769 60.1074 31.015C60.0989 30.7616 60.0905 30.4997 60.082 30.2293C60.082 29.9505 60.082 29.6886 60.082 29.4436V21.4852C60.082 21.2233 59.9595 21.0121 59.7145 20.8516C59.478 20.6826 59.0809 20.5306 58.5233 20.3954L58.7261 19.9265C58.9373 19.9519 59.1654 19.9857 59.4104 20.0279C59.6554 20.0617 59.9004 20.1039 60.1454 20.1546C60.3904 20.1969 60.6227 20.2391 60.8424 20.2813C61.0705 20.3236 61.2648 20.3574 61.4253 20.3827C61.4084 20.4588 61.3873 20.5517 61.362 20.6615C61.3451 20.7714 61.3282 20.8854 61.3113 21.0037C61.3028 21.1135 61.2944 21.2149 61.2859 21.3078C61.2775 21.4008 61.2733 21.4683 61.2733 21.5106V25.0209C61.645 24.9955 62.0632 24.9575 62.5278 24.9068C62.9925 24.8561 63.4149 24.797 63.7951 24.7294L63.6684 25.7559C63.5163 25.7474 63.3389 25.7432 63.1361 25.7432C62.9418 25.7432 62.7348 25.7432 62.5152 25.7432C62.304 25.7432 62.0885 25.7432 61.8689 25.7432C61.6577 25.7432 61.4591 25.7432 61.2733 25.7432V28.5312Z" fill="white"/>
<g clip-path="url(#clip0_1246_246)">
<path d="M21.3635 29.9634L20.6205 31.027L18.2175 29.3487L18.2171 29.3485L9.70749 23.3937L1.14337 29.421L0.396534 28.3599L9.70559 21.8083L21.3635 29.9634Z" fill="white"/>
<path d="M38.3564 25.5799L37.5488 26.5954L29.3595 20.0827L18.5139 28.9791L17.6911 27.9759L27.6333 19.82L27.6335 19.8198L29.3471 18.415L38.3564 25.5799Z" fill="white"/>
<path d="M8.29625 39.0986L7.04209 39.4321L5.42655 33.3545L6.68071 33.0212L8.29625 39.0986Z" fill="white"/>
<path d="M7.7235 40.0084L1.97058 41.1244L1.72346 39.8504L7.47638 38.7344L7.7235 40.0084Z" fill="white"/>
<path d="M19.8289 0.00151628L19.8287 0.00172749C25.0399 0.0921109 29.748 2.28115 33.1623 5.73965L33.3239 5.90545L33.3243 5.90567C36.7467 9.45999 38.8292 14.3213 38.7374 19.6248V19.625L38.5169 32.2659V32.3956L38.5167 32.4019L38.4951 33.4964C38.4839 34.1337 38.4413 34.7607 38.3674 35.3814C38.3384 35.6305 38.305 35.8797 38.2673 36.1287L38.2668 36.131C38.1525 36.866 37.9958 37.5848 37.8011 38.2872C37.7898 38.3307 37.7755 38.3847 37.7587 38.4408L37.7589 38.441C37.6448 38.8415 37.517 39.2402 37.3778 39.6284V39.6288C37.1496 40.2645 36.8898 40.8819 36.5991 41.4856C36.3777 41.9464 36.1383 42.3988 35.8806 42.8403C35.8596 42.8771 35.8266 42.9341 35.7864 42.994C35.4576 43.5503 35.1026 44.0845 34.7172 44.6049L34.7175 44.6051C34.3439 45.1107 33.9448 45.5997 33.5199 46.065C33.1813 46.4413 32.8262 46.8074 32.4548 47.1587L32.4546 47.1589C32.0104 47.5784 31.5454 47.9811 31.0614 48.3598C30.1328 49.087 29.1373 49.7286 28.0865 50.2787L28.0867 50.2789C27.8619 50.397 27.6355 50.5079 27.4056 50.6138L27.4054 50.6136C27.3324 50.6504 27.2627 50.6823 27.1997 50.7099C27.002 50.8 26.7981 50.8909 26.5891 50.9759C25.8563 51.2808 25.0988 51.5469 24.3209 51.7599L24.3207 51.7597C23.2529 52.0529 22.1478 52.2566 21.0186 52.3639L20.988 52.3669H20.9796C20.2989 52.4295 19.6098 52.4554 18.912 52.4423C18.3259 52.4333 17.7495 52.3953 17.1812 52.3327V52.3325C15.9345 52.2004 14.7252 51.946 13.5602 51.5776L13.409 51.5307C13.294 51.4944 13.1799 51.4564 13.0662 51.4173H13.0636L12.9599 51.3812C12.0143 51.0518 11.1032 50.6488 10.2332 50.1836H10.233C9.11205 49.584 8.05762 48.8788 7.08134 48.0749V48.0747C5.68623 46.9298 4.45371 45.5947 3.42657 44.1046C1.41143 41.197 0.175525 37.7178 0.0178609 33.9767L0.0106798 33.805C0.00469136 33.6366 0.00231973 33.4689 0.00223138 33.3002C-0.00220661 33.1337 -7.22388e-05 32.9697 0.00202017 32.8211V32.819L0.244277 18.9491C0.430041 8.34047 9.23936 -0.184304 19.8289 0.00151628ZM19.8061 1.29898C9.93567 1.12577 1.71502 9.07718 1.54174 18.9717L1.29948 32.8393C1.29728 32.9951 1.29561 33.1351 1.29948 33.2727L1.29969 33.2818V33.2911C1.29969 33.4502 1.30204 33.6054 1.30751 33.7589L1.31405 33.9118V33.9144L1.31426 33.9171C1.45579 37.2972 2.54095 40.4483 4.31893 43.1096L4.49318 43.3656L4.49402 43.3668C5.39201 44.6698 6.45912 45.8469 7.6628 46.8699L7.90548 47.0725L7.90632 47.0731C8.81598 47.8221 9.79894 48.4797 10.8451 49.0393L10.9978 49.12C11.7323 49.5039 12.4962 49.8394 13.2848 50.1196H13.2865L13.391 50.1566C13.573 50.2207 13.7544 50.2803 13.937 50.3357L13.9408 50.337L13.9446 50.338C15.03 50.6817 16.1572 50.9194 17.3206 51.0424L17.3235 51.0428C17.8538 51.1013 18.3892 51.1365 18.9319 51.1448H18.9342C19.5953 51.1573 20.2481 51.1324 20.8923 51.072L20.9225 51.0692H20.9232C21.9686 50.9683 22.9909 50.7792 23.9777 50.5082H23.9781C24.6994 50.3108 25.4065 50.0628 26.0953 49.776L26.1003 49.7739C26.2849 49.6988 26.4703 49.6166 26.6619 49.5293L26.6664 49.5272L26.6708 49.5253C26.7365 49.4965 26.7884 49.4729 26.8366 49.448L26.8495 49.4412L26.8626 49.4353C27.0739 49.3379 27.28 49.2367 27.4833 49.1299L27.4842 49.1295C28.466 48.6156 29.3953 48.0164 30.2616 47.338L30.2618 47.3378C30.7121 46.9854 31.1468 46.6093 31.5635 46.2156C31.9088 45.889 32.2405 45.5469 32.5583 45.1936L32.56 45.1919L32.5614 45.19C32.9541 44.7599 33.3251 44.306 33.6739 43.834L33.6741 43.8334C34.0372 43.3429 34.3709 42.8407 34.6792 42.3178L34.6921 42.2958L34.7065 42.2751C34.7169 42.2602 34.7286 42.2408 34.757 42.1912L34.7584 42.1887L34.7599 42.186C34.9996 41.7753 35.2229 41.3538 35.4297 40.9236L35.4299 40.9231C35.7014 40.3591 35.9436 39.7829 36.1564 39.1902C36.2854 38.8302 36.4044 38.4591 36.5108 38.0855L36.5123 38.0798L36.514 38.0743C36.5247 38.0391 36.5345 38.0019 36.548 37.9502L36.5505 37.9409C36.7095 37.3671 36.8413 36.7826 36.943 36.1874L36.9846 35.9316C37.0201 35.6976 37.0514 35.4637 37.0786 35.2298L37.0788 35.2279C37.1475 34.6508 37.1873 34.067 37.1977 33.4721V33.4706L37.2192 32.3763V32.2545L37.4399 19.6022C37.5255 14.6585 35.5852 10.1248 32.3895 6.80584V6.80563C29.2394 3.53848 24.8764 1.45049 20.0369 1.30447L19.8061 1.29898Z" fill="white"/>
<path d="M6.09154 32.7688C7.60538 32.7158 9.17212 32.8353 10.7557 33.1316H10.7605L10.8207 33.1432C12.4676 33.457 14.1348 33.964 15.7677 34.6703L15.9464 34.748C16.1221 34.8254 16.2988 34.906 16.4752 34.9907L16.6695 35.0819C16.7987 35.1436 16.9273 35.2069 17.055 35.2712L17.2459 35.3681L17.2468 35.3686C17.8331 35.6705 18.3992 35.9904 18.9447 36.3304C18.9586 36.338 18.9696 36.3446 18.9772 36.3492C18.9828 36.3526 18.9885 36.3561 18.9916 36.3581L18.9928 36.3589L18.9977 36.3619C19.7491 36.831 20.4547 37.331 21.1187 37.857L21.4006 38.0841L21.404 38.0868L21.4076 38.0898C21.5429 38.2036 21.6828 38.3214 21.819 38.4397C21.8833 38.4954 21.9532 38.5561 22.0218 38.6178C22.4176 38.9691 22.797 39.3308 23.1577 39.7049C23.519 40.0779 23.8628 40.4605 24.1852 40.8511L24.3221 41.019L24.3225 41.0197C24.4305 41.1542 24.5376 41.2904 24.6433 41.4298C25.1232 42.0578 25.553 42.7053 25.9273 43.3658L26.0316 43.5521C26.1005 43.6766 26.1679 43.8019 26.2335 43.9282L26.3305 44.1183L26.3313 44.12L26.3322 44.1219C26.4022 44.2641 26.474 44.4121 26.5421 44.5595L26.6678 44.8381C26.9532 45.4889 27.1854 46.1478 27.3643 46.8115C27.3784 46.8632 27.392 46.9145 27.4049 46.9652L27.4423 47.1158L27.4427 47.1175C27.6817 48.1077 27.799 49.1033 27.783 50.092L26.4855 50.0708C26.4997 49.2001 26.3966 48.3147 26.1818 47.424L26.1474 47.285C26.1359 47.24 26.1243 47.1962 26.1125 47.1528L26.1121 47.1509C25.9274 46.4654 25.6783 45.7821 25.3646 45.1051L25.3644 45.1043C25.3028 44.9709 25.2362 44.8336 25.168 44.6949C25.0536 44.4663 24.93 44.2376 24.7988 44.0064L24.7984 44.006C24.4546 43.3992 24.0581 42.801 23.6124 42.2179L23.6109 42.216C23.5141 42.0882 23.4144 41.9613 23.3112 41.8328L23.1843 41.6772C22.8851 41.3147 22.5647 40.9577 22.2258 40.6078L22.2248 40.6068C21.8894 40.2589 21.534 39.92 21.1603 39.5883L21.1586 39.5868L21.1571 39.5853C21.097 39.5313 21.0338 39.4763 20.9693 39.4204L20.9687 39.42C20.842 39.3099 20.7106 39.1991 20.5744 39.0846C19.879 38.5161 19.1342 37.9788 18.3343 37.4779L18.329 37.4758L18.2798 37.4452C17.7597 37.1201 17.2173 36.8132 16.6526 36.5224C16.4093 36.3975 16.1694 36.2787 15.932 36.1692L15.9223 36.1646C15.7033 36.0592 15.4806 35.9592 15.2553 35.8624L15.2538 35.8619C13.7221 35.1992 12.1606 34.723 10.6209 34.4263L10.5759 34.4179C9.0621 34.1303 7.57047 34.0152 6.13695 34.0654C4.24232 34.1323 2.46122 34.4855 0.890719 35.11L0.411274 33.9042C2.1368 33.2181 4.06727 32.8403 6.09154 32.7688Z" fill="white"/>
<path d="M19.1356 45.3588L19.1394 45.3626L19.1501 45.3691L23.8392 48.1588H23.8443L24.1488 48.3434L26.6772 49.8508L26.0125 50.9654L23.4844 49.4579L23.4825 49.4567L23.4806 49.4556L23.4499 49.437L18.4867 46.4843L18.4825 46.4818L18.4001 46.4322L18.333 46.3914L18.3325 46.391L0.334328 35.677L0.997948 34.5618L19.1356 45.3588Z" fill="white"/>
<path d="M13.7171 42.3445L12.4655 42.6875L10.067 33.939L11.3186 33.5959L13.7171 42.3445Z" fill="white"/>
<path d="M19.4445 45.7622L18.188 46.0868L15.5084 35.7097L16.7647 35.3853L19.4445 45.7622Z" fill="white"/>
<path d="M24.4854 48.8804L23.234 49.2236L20.3597 38.7472L21.6113 38.4038L24.4854 48.8804Z" fill="white"/>
<path d="M13.2087 43.1537L4.58353 44.7695L4.34444 43.494L12.9698 41.8784L13.2087 43.1537Z" fill="white"/>
<path d="M18.9878 46.4865L8.07859 48.5325L7.8395 47.2572L18.7485 45.2112L18.9878 46.4865Z" fill="white"/>
<path d="M24.1934 49.3673L13.2952 51.4091L13.236 51.4203H13.1735V50.76L13.0563 50.1336L23.9545 48.092L24.1934 49.3673Z" fill="white"/>
<path d="M28.021 46.4414C29.058 46.4414 30.0206 46.7683 30.7917 47.3321L30.0258 48.3797C29.4776 47.9788 28.7834 47.7391 28.021 47.7391C27.6638 47.7391 27.3213 47.7922 27.0023 47.8901L26.6217 46.6494C27.0641 46.5137 27.5348 46.4414 28.021 46.4414Z" fill="white"/>
<path d="M28.021 43.4158C29.9777 43.4158 31.7665 44.0911 33.1384 45.2151L32.316 46.2189C31.1748 45.284 29.6762 44.7134 28.021 44.7134C27.2935 44.7134 26.5952 44.8245 25.9434 45.0279L25.5569 43.7892C26.3325 43.5471 27.1611 43.4158 28.021 43.4158Z" fill="white"/>
<path d="M28.0211 39.9878C30.7597 39.9878 33.2833 40.8895 35.2599 42.3983L34.4725 43.4299C32.7205 42.0925 30.4732 41.2855 28.0211 41.2855C26.6136 41.2855 25.273 41.553 24.054 42.0321L23.5792 40.8244C24.9468 40.2869 26.4484 39.9878 28.0211 39.9878Z" fill="white"/>
<path d="M28.021 36.7607C31.2795 36.7607 34.2972 37.7413 36.7559 39.4L36.0302 40.4757C33.7828 38.9595 31.0172 38.0584 28.021 38.0584C25.7289 38.0584 23.5729 38.5846 21.6798 39.5126L21.1087 38.3473C23.1778 37.3331 25.529 36.7608 28.021 36.7607Z" fill="white"/>
<path d="M28.0209 33.7373C31.585 33.7373 35.1046 34.7518 37.9651 36.5063L37.2867 37.6124C34.6321 35.9842 31.3475 35.035 28.0209 35.035C24.6926 35.035 21.5928 35.9291 18.9846 37.4728L18.3235 36.3561C21.1307 34.6946 24.4587 33.7373 28.0209 33.7373Z" fill="white"/>
<path d="M28.021 30.7114C31.6853 30.7114 35.1395 31.5726 38.1576 33.0905L37.5744 34.2498C34.7357 32.822 31.4809 32.0091 28.021 32.0091C23.4604 32.0091 19.2546 33.4205 15.8858 35.7984L15.1372 34.7383C18.7238 32.2067 23.1909 30.7114 28.021 30.7114Z" fill="white"/>
<path d="M19.8024 15.0312C23.3484 15.0312 26.4534 16.9278 28.1534 19.7604L27.0408 20.4283C25.5658 17.9707 22.8745 16.3289 19.8024 16.3289C15.471 16.329 11.9038 19.5922 11.4239 23.795L10.1347 23.6478C10.6886 18.7972 14.8036 15.0313 19.8024 15.0312Z" fill="white"/>
</g>
<defs>
<clipPath id="clip0_1246_246">
<rect width="38.7398" height="52.4475" fill="white"/>
</clipPath>
</defs>
</svg>
