<svg width="131" height="69" viewBox="0 0 131 69" fill="none" xmlns="http://www.w3.org/2000/svg">
<path d="M123.119 30.4084C123.561 30.7068 124.058 31.0162 124.611 31.3366C125.163 31.6461 125.721 31.9444 126.285 32.2317C126.848 32.519 127.395 32.7843 127.926 33.0274C128.456 33.2705 128.926 33.4694 129.335 33.6241L128.141 34.8341C127.732 34.5358 127.29 34.2263 126.815 33.9059C126.351 33.5744 125.876 33.2484 125.39 32.9279C124.903 32.5964 124.417 32.2759 123.931 31.9665C123.445 31.6571 122.986 31.3643 122.555 31.088C121.726 32.0715 120.798 32.9279 119.77 33.6572C118.754 34.3866 117.682 35.0109 116.555 35.5303L116.124 35.0165C116.809 34.6628 117.461 34.254 118.08 33.7899C118.71 33.3147 119.29 32.8174 119.82 32.298C120.351 31.7676 120.82 31.2261 121.229 30.6736C121.649 30.11 121.997 29.5575 122.273 29.016C122.395 28.784 122.378 28.6016 122.224 28.469C122.135 28.3917 121.98 28.2977 121.759 28.1872C121.538 28.0657 121.345 27.9718 121.179 27.9055L121.61 27.3916C121.82 27.4469 122.052 27.5132 122.306 27.5905C122.561 27.6568 122.815 27.7286 123.069 27.806C123.323 27.8833 123.572 27.9607 123.815 28.0381C124.058 28.1154 124.285 28.1928 124.494 28.2701C124.296 28.6569 124.08 29.0271 123.848 29.3807C123.627 29.7343 123.384 30.0769 123.119 30.4084ZM130.147 39.3759C129.705 39.3538 129.13 39.3372 128.423 39.3262C127.716 39.3151 126.992 39.3041 126.252 39.293C125.942 39.293 125.566 39.2985 125.124 39.3096C124.682 39.3096 124.202 39.3206 123.682 39.3427C123.174 39.3538 122.649 39.3704 122.108 39.3925C121.577 39.4035 121.069 39.4201 120.583 39.4422C120.096 39.4532 119.654 39.4698 119.257 39.4919C118.87 39.514 118.566 39.5306 118.345 39.5416C117.925 39.5637 117.477 39.5969 117.002 39.6411C116.527 39.6743 116.085 39.7185 115.676 39.7737L115.146 38.315C115.643 38.3813 116.168 38.4366 116.72 38.4808C117.284 38.5139 117.82 38.5416 118.328 38.5637C118.605 38.5747 118.947 38.5803 119.356 38.5803C119.776 38.5803 120.223 38.5803 120.699 38.5803C121.185 38.5692 121.682 38.5581 122.19 38.5471C122.71 38.525 123.207 38.5084 123.682 38.4974C124.168 38.4863 124.616 38.4753 125.025 38.4642C125.434 38.4421 125.771 38.4255 126.036 38.4145C126.776 38.3703 127.528 38.315 128.29 38.2487C129.064 38.1824 129.749 38.1051 130.346 38.0167L130.147 39.3759Z" fill="white"/>
<path d="M105.391 37.685C105.391 37.9724 105.38 38.2818 105.358 38.6133C105.347 38.9448 105.33 39.2763 105.308 39.6078C105.286 39.9394 105.258 40.2598 105.225 40.5692C105.192 40.8786 105.153 41.1494 105.109 41.3814L103.998 41.5804C103.976 41.3814 103.954 41.1383 103.932 40.851C103.921 40.5748 103.91 40.2874 103.899 39.9891C103.888 39.6797 103.877 39.3758 103.866 39.0774C103.866 38.768 103.866 38.4917 103.866 38.2486V36.359C103.744 36.359 103.617 36.3645 103.485 36.3756C103.363 36.3866 103.241 36.3977 103.12 36.4087C102.998 36.4198 102.827 36.4363 102.606 36.4584C102.396 36.4695 102.164 36.4916 101.91 36.5247C101.667 36.5468 101.418 36.5745 101.164 36.6076C100.921 36.6297 100.705 36.6518 100.518 36.6739L99.7053 35.2981C99.8821 35.3313 100.087 35.3589 100.319 35.381C100.562 35.4031 100.81 35.4252 101.065 35.4473C101.319 35.4694 101.562 35.486 101.794 35.497C102.026 35.497 102.219 35.497 102.374 35.497C102.993 35.4749 103.579 35.4473 104.131 35.4142C104.684 35.381 105.22 35.3368 105.739 35.2816C106.258 35.2263 106.767 35.1655 107.264 35.0992C107.761 35.0219 108.264 34.9335 108.772 34.834V35.5302C108.176 35.6739 107.601 35.7954 107.048 35.8949C106.496 35.9943 105.943 36.0827 105.391 36.1601V37.685ZM109.154 37.7845C108.148 37.8177 107.247 37.9171 106.452 38.0829L105.805 36.79C106.148 36.8563 106.479 36.9005 106.8 36.9226C107.12 36.9447 107.424 36.9502 107.711 36.9391C107.955 36.9281 108.198 36.9226 108.441 36.9226C108.695 36.9115 108.933 36.8949 109.154 36.8728V28.7673C109.154 28.6015 109.126 28.4523 109.071 28.3197C109.026 28.1871 108.938 28.0656 108.805 27.9551C108.684 27.8446 108.513 27.7451 108.292 27.6567C108.071 27.5683 107.794 27.4799 107.463 27.3915L107.761 26.7948C108.292 26.8611 108.828 26.9495 109.369 27.06C109.922 27.1594 110.413 27.2644 110.844 27.3749C110.822 27.4744 110.8 27.5959 110.778 27.7396C110.756 27.8832 110.734 28.0269 110.712 28.1706C110.701 28.3142 110.69 28.4468 110.678 28.5684C110.667 28.6899 110.662 28.7783 110.662 28.8336V36.7237C110.662 37.0662 110.651 37.4585 110.629 37.9005C110.618 38.3315 110.596 38.768 110.562 39.21C110.529 39.652 110.491 40.0775 110.446 40.4864C110.413 40.8952 110.375 41.2378 110.33 41.514L109.286 41.6467C109.264 41.4367 109.247 41.1825 109.236 40.8842C109.225 40.5969 109.209 40.2874 109.187 39.9559C109.176 39.6244 109.165 39.2874 109.154 38.9448C109.154 38.5912 109.154 38.2541 109.154 37.9337V37.7845ZM107.927 32.4968C107.927 32.8173 107.844 33.1212 107.678 33.4085C107.513 33.6848 107.286 33.9279 106.999 34.1378C106.711 34.3367 106.374 34.497 105.988 34.6185C105.601 34.7401 105.186 34.8009 104.744 34.8009C104.302 34.8009 103.888 34.7401 103.501 34.6185C103.114 34.497 102.772 34.3312 102.473 34.1213C102.186 33.9113 101.954 33.6682 101.777 33.3919C101.612 33.1157 101.529 32.8173 101.529 32.4968C101.529 32.1653 101.612 31.8614 101.777 31.5852C101.954 31.3089 102.186 31.0713 102.473 30.8724C102.761 30.6624 103.098 30.5022 103.485 30.3917C103.882 30.2702 104.302 30.2094 104.744 30.2094C105.208 30.2094 105.634 30.2757 106.021 30.4083C106.419 30.5298 106.756 30.6956 107.032 30.9056C107.319 31.1155 107.54 31.3586 107.695 31.6349C107.85 31.9112 107.927 32.1985 107.927 32.4968ZM103.137 32.5134C103.137 32.7123 103.175 32.9057 103.253 33.0936C103.341 33.2814 103.457 33.4472 103.601 33.5908C103.744 33.7234 103.916 33.8339 104.114 33.9223C104.313 33.9997 104.523 34.0384 104.744 34.0384C104.965 34.0384 105.17 33.9997 105.358 33.9223C105.557 33.8339 105.728 33.7234 105.872 33.5908C106.026 33.4472 106.148 33.2869 106.236 33.1101C106.325 32.9223 106.369 32.7234 106.369 32.5134C106.369 32.3034 106.325 32.1045 106.236 31.9167C106.159 31.7178 106.043 31.5465 105.888 31.4028C105.744 31.2592 105.573 31.1431 105.374 31.0547C105.186 30.9663 104.976 30.9221 104.744 30.9221C104.291 30.9221 103.91 31.0713 103.601 31.3697C103.291 31.668 103.137 32.0493 103.137 32.5134ZM106.767 28.3529C106.59 28.3529 106.396 28.3529 106.186 28.3529C105.988 28.3529 105.783 28.3584 105.573 28.3695C105.374 28.3695 105.181 28.375 104.993 28.386C104.805 28.386 104.639 28.386 104.496 28.386C104.418 28.386 104.308 28.3916 104.164 28.4026C104.021 28.4026 103.866 28.4137 103.7 28.4358C103.534 28.4468 103.369 28.4634 103.203 28.4855C103.037 28.5076 102.893 28.5297 102.772 28.5518L102.092 27.3252C102.225 27.3583 102.385 27.3915 102.573 27.4246C102.772 27.4467 102.971 27.4744 103.17 27.5075C103.38 27.5296 103.584 27.5517 103.783 27.5738C103.982 27.5849 104.148 27.5904 104.28 27.5904C104.413 27.5904 104.584 27.5849 104.794 27.5738C105.004 27.5628 105.236 27.5462 105.49 27.5241C105.755 27.4909 106.021 27.4633 106.286 27.4412C106.562 27.4081 106.822 27.3749 107.065 27.3418L106.767 28.3529ZM108.54 29.7618C108.176 29.7618 107.745 29.7674 107.247 29.7784C106.761 29.7784 106.258 29.7895 105.739 29.8116C105.22 29.8226 104.717 29.8392 104.231 29.8613C103.744 29.8723 103.33 29.8834 102.987 29.8944C102.855 29.9055 102.683 29.9221 102.473 29.9442C102.275 29.9663 102.065 29.9884 101.844 30.0105C101.634 30.0326 101.424 30.0547 101.214 30.0768C101.015 30.0989 100.849 30.121 100.716 30.1431L100.037 28.8336C100.18 28.8667 100.363 28.8999 100.584 28.933C100.805 28.9551 101.031 28.9772 101.263 28.9993C101.496 29.0214 101.717 29.0435 101.926 29.0656C102.147 29.0767 102.335 29.0822 102.49 29.0822C102.844 29.0822 103.269 29.0767 103.766 29.0656C104.264 29.0435 104.794 29.0159 105.358 28.9828C105.921 28.9386 106.49 28.8888 107.065 28.8336C107.651 28.7673 108.209 28.6844 108.739 28.5849L108.54 29.7618ZM110.198 26.0654C110.75 26.1428 111.33 26.2422 111.938 26.3638C112.557 26.4853 113.076 26.5903 113.496 26.6787C113.474 26.7782 113.452 26.8997 113.43 27.0434C113.408 27.1871 113.386 27.3307 113.364 27.4744C113.342 27.618 113.325 27.7506 113.314 27.8722C113.303 27.9937 113.297 28.0821 113.297 28.1374V37.3204C113.297 37.6629 113.292 38.0552 113.281 38.4973C113.27 38.9282 113.248 39.3647 113.215 39.8067C113.192 40.2488 113.165 40.6687 113.132 41.0665C113.099 41.4754 113.065 41.8179 113.032 42.0942L111.922 42.2434C111.9 42.0334 111.877 41.7793 111.855 41.4809C111.844 41.1936 111.828 40.8786 111.806 40.5361C111.795 40.2046 111.784 39.8675 111.772 39.525C111.761 39.1713 111.756 38.8343 111.756 38.5138V28.1042C111.756 27.9385 111.728 27.7893 111.673 27.6567C111.618 27.513 111.518 27.386 111.375 27.2755C111.242 27.1539 111.054 27.0489 110.811 26.9605C110.579 26.8611 110.281 26.7671 109.916 26.6787L110.198 26.0654Z" fill="white"/>
<path d="M90.0332 28.8999C89.8454 28.8888 89.6299 28.8888 89.3868 28.8999C89.1547 28.8999 88.9116 28.9054 88.6574 28.9165C88.4033 28.9275 88.1546 28.9441 87.9115 28.9662C87.6684 28.9772 87.4474 28.9883 87.2485 28.9993C87.1269 29.0104 86.9667 29.027 86.7678 29.0491C86.5799 29.0601 86.37 29.0767 86.1379 29.0988C85.9169 29.1209 85.6848 29.1485 85.4417 29.1817C85.1986 29.2148 84.9721 29.2535 84.7621 29.2977L83.9996 27.9716C84.1212 27.9937 84.2869 28.0214 84.4969 28.0545C84.7179 28.0877 84.9444 28.1153 85.1765 28.1374C85.4196 28.1595 85.6572 28.1816 85.8893 28.2037C86.1324 28.2148 86.3423 28.2203 86.5191 28.2203C86.8175 28.2203 87.1822 28.2203 87.6131 28.2203C88.0441 28.2092 88.5027 28.1982 88.9889 28.1871C89.4752 28.165 89.9669 28.1374 90.4642 28.1042C90.9725 28.0711 91.4532 28.0324 91.9063 27.9882C91.8842 28.0545 91.8565 28.1485 91.8234 28.27C91.8013 28.3805 91.7737 28.4965 91.7405 28.6181C91.7184 28.7397 91.6963 28.8557 91.6742 28.9662C91.6521 29.0767 91.6355 29.1651 91.6245 29.2314L91.3095 31.0879C91.409 31.0658 91.5029 31.0547 91.5913 31.0547C91.6908 31.0437 91.7902 31.0326 91.8897 31.0216L91.7571 32.0824C91.1162 32.0493 90.5415 32.0327 90.0332 32.0327C89.5359 32.0217 89.0829 32.0217 88.674 32.0327C88.2762 32.0438 87.9115 32.0603 87.58 32.0824C87.2595 32.1045 86.9612 32.1211 86.6849 32.1322C86.6849 32.2206 86.6794 32.309 86.6683 32.3974C86.6573 32.4858 86.6518 32.5742 86.6518 32.6626V34.1213C86.6518 34.2981 86.6904 34.4307 86.7678 34.5191C86.8562 34.6075 86.9667 34.6462 87.0993 34.6351C87.5303 34.602 88.0331 34.5467 88.6077 34.4693C89.1934 34.392 89.8011 34.2925 90.431 34.171C91.072 34.0384 91.7184 33.8892 92.3704 33.7234C93.0334 33.5577 93.6633 33.3753 94.26 33.1764V28.1042C94.26 27.7617 94.0998 27.4854 93.7793 27.2755C93.4699 27.0545 92.9505 26.8555 92.2212 26.6787L92.4698 26.0654C92.7461 26.0986 93.0445 26.1428 93.3649 26.198C93.6965 26.2422 94.0224 26.2975 94.3429 26.3638C94.6634 26.419 94.9673 26.4743 95.2546 26.5296C95.5419 26.5848 95.7905 26.629 96.0005 26.6622C95.9784 26.7616 95.9563 26.8832 95.9342 27.0268C95.9121 27.1705 95.89 27.3197 95.8679 27.4744C95.8568 27.618 95.8458 27.7506 95.8347 27.8722C95.8237 27.9937 95.8182 28.0821 95.8182 28.1374V31.1873C96.0502 31.1763 96.3044 31.1597 96.5806 31.1376C96.8569 31.1045 97.1387 31.0713 97.426 31.0382C97.7133 31.005 97.9951 30.9719 98.2714 30.9387C98.5587 30.8945 98.8294 30.8503 99.0836 30.8061L98.9012 32.1156C98.7023 32.1045 98.4758 32.099 98.2216 32.099C97.9675 32.099 97.6967 32.099 97.4094 32.099C97.1332 32.099 96.8569 32.099 96.5806 32.099C96.3044 32.099 96.0502 32.099 95.8182 32.099V33.3256C95.8182 33.5245 95.8071 33.7566 95.785 34.0218C95.774 34.287 95.7574 34.5578 95.7353 34.834C95.7132 35.0992 95.6855 35.3534 95.6524 35.5965C95.6303 35.8286 95.6027 36.0109 95.5695 36.1435L94.3926 36.3258C94.3705 36.2043 94.354 36.0551 94.3429 35.8783C94.3319 35.7015 94.3153 35.5191 94.2932 35.3313C94.2821 35.1324 94.2711 34.939 94.26 34.7511C94.26 34.5633 94.26 34.392 94.26 34.2373V33.856C93.6965 34.055 93.0832 34.2539 92.4201 34.4528C91.7571 34.6517 91.0885 34.834 90.4145 34.9998C89.7404 35.1655 89.0884 35.3147 88.4585 35.4473C87.8397 35.5689 87.2872 35.6628 86.8009 35.7291C86.1821 35.8065 85.7456 35.7291 85.4914 35.497C85.2373 35.2539 85.1102 34.8672 85.1102 34.3367V32.9278C85.1102 32.7289 85.0936 32.5631 85.0605 32.4305C85.0384 32.2979 84.9831 32.1874 84.8947 32.099C84.8174 32.0106 84.7013 31.9333 84.5466 31.867C84.3919 31.8006 84.182 31.7233 83.9167 31.6349L84.1654 31.121C85.2373 31.2426 86.2429 31.2978 87.1822 31.2868C88.1325 31.2757 89.0387 31.2426 89.9006 31.1873L90.0332 28.8999ZM92.9505 36.4419C93.3815 36.4971 93.7738 36.6076 94.1274 36.7734C94.4921 36.9391 94.8015 37.1491 95.0557 37.4033C95.3209 37.6464 95.5253 37.9282 95.669 38.2486C95.8126 38.558 95.8845 38.8896 95.8845 39.2432C95.8845 39.641 95.7905 40.0112 95.6027 40.3537C95.4259 40.6963 95.1717 40.9947 94.8402 41.2488C94.5197 41.503 94.1385 41.7019 93.6965 41.8456C93.2544 41.9892 92.7793 42.0611 92.2709 42.0611C91.7405 42.0611 91.2543 41.9892 90.8123 41.8456C90.3703 41.7019 89.989 41.503 89.6685 41.2488C89.3481 40.9947 89.0939 40.6963 88.9061 40.3537C88.7292 40.0112 88.6408 39.641 88.6408 39.2432C88.6408 38.8785 88.7127 38.5359 88.8563 38.2155C89.011 37.895 89.2265 37.6132 89.5028 37.3701C89.779 37.1159 90.0995 36.906 90.4642 36.7402C90.8399 36.5745 91.2543 36.4695 91.7074 36.4253C91.6853 36.2927 91.6245 36.1877 91.525 36.1103C91.4256 36.033 91.2488 35.9556 90.9946 35.8783L91.2764 35.381C91.3979 35.4031 91.5416 35.4307 91.7074 35.4639C91.8731 35.497 92.0389 35.5357 92.2046 35.5799C92.3814 35.6131 92.5527 35.6462 92.7185 35.6794C92.8842 35.7125 93.0334 35.7457 93.166 35.7788C93.1108 35.9004 93.0666 36.0109 93.0334 36.1103C93.0003 36.2098 92.9726 36.3203 92.9505 36.4419ZM94.2435 39.1603C94.2435 38.873 94.1882 38.6078 94.0777 38.3647C93.9782 38.1215 93.8346 37.9116 93.6467 37.7348C93.4699 37.5469 93.26 37.4033 93.0168 37.3038C92.7848 37.1933 92.5306 37.138 92.2544 37.138C91.9671 37.138 91.7018 37.1933 91.4587 37.3038C91.2156 37.4033 91.0001 37.5469 90.8123 37.7348C90.6355 37.9116 90.4918 38.1215 90.3813 38.3647C90.2818 38.6078 90.2321 38.873 90.2321 39.1603C90.2321 39.4476 90.2818 39.7128 90.3813 39.9559C90.4918 40.188 90.6355 40.3924 90.8123 40.5692C91.0001 40.7571 91.2156 40.9007 91.4587 41.0002C91.7018 41.0997 91.9671 41.1494 92.2544 41.1494C92.5306 41.1494 92.7903 41.0997 93.0334 41.0002C93.2765 40.9007 93.4865 40.7571 93.6633 40.5692C93.8401 40.3924 93.9782 40.188 94.0777 39.9559C94.1882 39.7128 94.2435 39.4476 94.2435 39.1603Z" fill="white"/>
<path d="M72.9347 29.6624C73.421 29.7287 73.8685 29.8613 74.2774 30.0602C74.6862 30.248 75.0343 30.4912 75.3216 30.7895C75.62 31.0768 75.8465 31.4084 76.0013 31.7841C76.167 32.1598 76.2499 32.5631 76.2499 32.9941C76.2499 33.4803 76.1449 33.9334 75.935 34.3533C75.736 34.7622 75.4543 35.1213 75.0896 35.4307C74.7249 35.7291 74.294 35.9667 73.7967 36.1435C73.2994 36.3093 72.7635 36.3921 72.1888 36.3921C71.6142 36.3921 71.0783 36.3093 70.581 36.1435C70.0948 35.9667 69.6748 35.7291 69.3212 35.4307C68.9676 35.1213 68.6858 34.7622 68.4759 34.3533C68.2769 33.9334 68.1775 33.4803 68.1775 32.9941C68.1775 32.5521 68.2659 32.1377 68.4427 31.7509C68.6195 31.3531 68.8626 31.005 69.172 30.7066C69.4815 30.4083 69.8516 30.1652 70.2826 29.9773C70.7136 29.7895 71.1888 29.6734 71.7081 29.6292C71.7081 29.4635 71.6584 29.3309 71.5589 29.2314C71.4705 29.1319 71.2882 29.038 71.0119 28.9496L71.2937 28.4523C71.4042 28.4855 71.5424 28.5186 71.7081 28.5518C71.8739 28.5849 72.0396 28.6181 72.2054 28.6513C72.3822 28.6844 72.5535 28.7176 72.7193 28.7507C72.8961 28.7839 73.0508 28.817 73.1834 28.8502C73.1392 28.9496 73.095 29.0712 73.0508 29.2148C73.0066 29.3585 72.9679 29.5077 72.9347 29.6624ZM74.6255 32.9444C74.6255 32.5908 74.5592 32.2648 74.4266 31.9664C74.305 31.657 74.1337 31.3918 73.9127 31.1708C73.7027 30.9387 73.4486 30.7564 73.1502 30.6238C72.8629 30.4912 72.5535 30.4249 72.222 30.4249C71.8905 30.4249 71.581 30.4912 71.2937 30.6238C71.0064 30.7564 70.7523 30.9387 70.5312 31.1708C70.3213 31.3918 70.1555 31.657 70.034 31.9664C69.9124 32.2648 69.8516 32.5908 69.8516 32.9444C69.8516 33.298 69.9124 33.6295 70.034 33.9389C70.1555 34.2373 70.3213 34.497 70.5312 34.718C70.7523 34.9279 71.0064 35.0937 71.2937 35.2153C71.581 35.3368 71.8905 35.3976 72.222 35.3976C72.5535 35.3976 72.8629 35.3368 73.1502 35.2153C73.4486 35.0937 73.7027 34.9279 73.9127 34.718C74.1337 34.497 74.305 34.2373 74.4266 33.9389C74.5592 33.6295 74.6255 33.298 74.6255 32.9444ZM80.1452 37.3204C80.1452 37.6629 80.1341 38.0608 80.112 38.5138C80.101 38.9559 80.0844 39.4034 80.0623 39.8565C80.0402 40.2985 80.0126 40.7184 79.9794 41.1162C79.9463 41.5251 79.9131 41.8511 79.88 42.0942L78.7363 42.2434C78.7142 42.0666 78.6921 41.829 78.67 41.5306C78.6589 41.2323 78.6423 40.9118 78.6202 40.5692C78.6092 40.2377 78.5981 39.8951 78.5871 39.5415C78.5871 39.1769 78.5871 38.8343 78.5871 38.5138V28.1042C78.5871 27.7617 78.4268 27.4854 78.1064 27.2755C77.797 27.0545 77.2776 26.8555 76.5483 26.6787L76.8135 26.0654C77.0897 26.0986 77.3881 26.1428 77.7086 26.198C78.029 26.2422 78.3495 26.2975 78.67 26.3638C78.9904 26.419 79.2943 26.4743 79.5816 26.5296C79.88 26.5848 80.1341 26.629 80.3441 26.6622C80.322 26.7616 80.2944 26.8832 80.2612 27.0268C80.2391 27.1705 80.217 27.3197 80.1949 27.4744C80.1839 27.618 80.1728 27.7506 80.1618 27.8722C80.1507 27.9937 80.1452 28.0821 80.1452 28.1374V32.7289C80.6314 32.6957 81.1784 32.646 81.7862 32.5797C82.394 32.5134 82.9465 32.4361 83.4438 32.3476L83.278 33.6903C83.0791 33.6792 82.847 33.6737 82.5818 33.6737C82.3277 33.6737 82.0569 33.6737 81.7696 33.6737C81.4934 33.6737 81.2116 33.6737 80.9243 33.6737C80.648 33.6737 80.3883 33.6737 80.1452 33.6737V37.3204Z" fill="white"/>
<g clip-path="url(#clip0_871_2237)">
<path d="M27.9434 39.1922L26.9716 40.5834L23.8285 38.3883L23.828 38.388L12.6973 30.599L1.49542 38.4827L0.518555 37.0948L12.6948 28.5254L27.9434 39.1922Z" fill="white"/>
<path d="M50.1703 33.4586L49.1139 34.7869L38.4023 26.2683L24.2162 37.9048L23.1399 36.5925L36.1444 25.9246L36.1447 25.9243L38.386 24.0869L50.1703 33.4586Z" fill="white"/>
<path d="M10.8515 51.1411L9.21104 51.5773L7.0979 43.6278L8.73835 43.1919L10.8515 51.1411Z" fill="white"/>
<path d="M10.1025 52.331L2.57762 53.7907L2.25439 52.1243L9.77924 50.6646L10.1025 52.331Z" fill="white"/>
<path d="M25.9363 0.00243448L25.936 0.00271074C32.7523 0.120933 38.9105 2.98421 43.3765 7.50795L43.5878 7.72481L43.5884 7.72509C48.0648 12.3742 50.7888 18.7328 50.6687 25.6697V25.67L50.3803 42.2044V42.374L50.38 42.3823L50.3518 43.8139C50.3371 44.6475 50.2814 45.4677 50.1847 46.2795C50.1468 46.6054 50.1032 46.9312 50.0537 47.2569L50.0532 47.26C49.9037 48.2213 49.6986 49.1615 49.444 50.0803C49.4292 50.1372 49.4105 50.2078 49.3885 50.2812L49.3888 50.2815C49.2395 50.8053 49.0724 51.3269 48.8904 51.8346V51.8352C48.5918 52.6665 48.252 53.4741 47.8718 54.2638C47.5822 54.8665 47.2691 55.4583 46.932 56.0357C46.9045 56.0839 46.8613 56.1585 46.8088 56.2369C46.3787 56.9645 45.9143 57.6632 45.4103 58.3439L45.4106 58.3442C44.922 59.0054 44.3999 59.645 43.8442 60.2537C43.4013 60.7459 42.9368 61.2247 42.451 61.6842L42.4507 61.6845C41.8698 62.2333 41.2615 62.76 40.6285 63.2553C39.4139 64.2065 38.1118 65.0457 36.7373 65.7652L36.7376 65.7654C36.4435 65.9199 36.1474 66.065 35.8466 66.2036L35.8464 66.2033C35.7509 66.2514 35.6598 66.2931 35.5773 66.3293C35.3188 66.447 35.052 66.5659 34.7786 66.6771C33.8201 67.0759 32.8293 67.424 31.8118 67.7026L31.8116 67.7023C30.4149 68.0858 28.9694 68.3523 27.4925 68.4927L27.4524 68.4966H27.4414C26.5511 68.5785 25.6496 68.6124 24.737 68.5952C23.9703 68.5834 23.2164 68.5338 22.473 68.4518V68.4515C20.8425 68.2789 19.2606 67.9461 17.7368 67.4642L17.539 67.4028C17.3886 67.3553 17.2394 67.3057 17.0906 67.2545H17.0873L16.9516 67.2073C15.7147 66.7764 14.523 66.2493 13.3851 65.6408H13.3848C11.9186 64.8565 10.5394 63.9341 9.26242 62.8826V62.8824C7.43762 61.3849 5.82548 59.6385 4.48197 57.6894C1.84615 53.8863 0.229589 49.3355 0.0233628 44.4421L0.0139699 44.2175C0.00613702 43.9973 0.00303492 43.7779 0.00291935 43.5572C-0.00288556 43.3395 -9.37851e-05 43.125 0.00264309 42.9306V42.9279L0.319517 24.786C0.562496 10.9098 12.0851 -0.240619 25.9363 0.00243448ZM25.9064 1.69952C12.9959 1.47297 2.24326 11.8734 2.0166 24.8155L1.69973 42.9544C1.69686 43.1582 1.69466 43.3414 1.69973 43.5213L1.7 43.5332V43.5453C1.7 43.7535 1.70308 43.9565 1.71022 44.1573L1.71879 44.3573V44.3606L1.71906 44.3642C1.90418 48.7853 3.32357 52.907 5.64918 56.388L5.8771 56.7228L5.8782 56.7245C7.05277 58.4287 8.44856 59.9683 10.023 61.3066L10.3404 61.5715L10.3415 61.5723C11.5313 62.552 12.8171 63.4121 14.1854 64.144L14.3852 64.2496C15.3459 64.7517 16.3451 65.1906 17.3765 65.5571H17.3788L17.5155 65.6055C17.7536 65.6894 17.9908 65.7673 18.2296 65.8398L18.2346 65.8414L18.2396 65.8428C19.6593 66.2924 21.1337 66.6032 22.6554 66.7641L22.6592 66.7647C23.3529 66.8411 24.0531 66.8872 24.763 66.8981H24.766C25.6307 66.9145 26.4846 66.8819 27.3273 66.8028L27.3668 66.7992H27.3676C28.7351 66.6672 30.0722 66.4199 31.3629 66.0655H31.3635C32.3069 65.8072 33.2318 65.4828 34.1327 65.1077L34.1393 65.1049C34.3808 65.0067 34.6232 64.8992 34.8739 64.785L34.8797 64.7822L34.8855 64.7797C34.9714 64.7421 35.0393 64.7112 35.1024 64.6786L35.1192 64.6698L35.1364 64.662C35.4127 64.5347 35.6823 64.4023 35.9483 64.2626L35.9494 64.262C37.2337 63.5898 38.4492 62.8061 39.5823 61.9188L39.5826 61.9185C40.1716 61.4576 40.7401 60.9656 41.2852 60.4507C41.7369 60.0234 42.1707 59.576 42.5864 59.1139L42.5886 59.1116L42.5905 59.1092C43.1041 58.5467 43.5894 57.9529 44.0456 57.3355L44.0459 57.3347C44.5208 56.6932 44.9573 56.0363 45.3606 55.3523L45.3774 55.3235L45.3962 55.2965C45.4099 55.277 45.4252 55.2516 45.4623 55.1868L45.4642 55.1835L45.4661 55.1799C45.7797 54.6428 46.0717 54.0914 46.3422 53.5286L46.3424 53.5281C46.6977 52.7903 47.0143 52.0366 47.2928 51.2614C47.4615 50.7905 47.6171 50.3052 47.7563 49.8165L47.7583 49.809L47.7605 49.8019C47.7745 49.7558 47.7873 49.7071 47.805 49.6394L47.8083 49.6273C48.0162 48.8768 48.1886 48.1123 48.3216 47.3337L48.376 46.9992C48.4224 46.6931 48.4634 46.3871 48.4989 46.0812L48.4992 46.0787C48.5891 45.3239 48.6411 44.5602 48.6547 43.7821V43.7802L48.6829 42.3488V42.1894L48.9716 25.6402C49.0835 19.1739 46.5456 13.2437 42.3656 8.90252V8.90224C38.2453 4.6288 32.5385 1.8977 26.2084 1.7067L25.9064 1.69952Z" fill="white"/>
<path d="M7.96766 42.8616C9.94776 42.7924 11.9971 42.9487 14.0684 43.3363H14.0747L14.1535 43.3515C16.3075 43.7619 18.4883 44.4249 20.6241 45.3488L20.8578 45.4505C21.0877 45.5517 21.3188 45.6571 21.5496 45.7679L21.8037 45.8873C21.9727 45.9679 22.1409 46.0507 22.3079 46.1348L22.5577 46.2616L22.5588 46.2622C23.3257 46.6571 24.0661 47.0755 24.7796 47.5203C24.7978 47.5302 24.8123 47.5388 24.8222 47.5448C24.8295 47.5493 24.8369 47.5539 24.841 47.5564L24.8426 47.5576L24.849 47.5614C25.8319 48.1751 26.7547 48.829 27.6232 49.5171L27.992 49.8141L27.9964 49.8177L28.0011 49.8215C28.1781 49.9704 28.3611 50.1245 28.5393 50.2793C28.6233 50.3521 28.7147 50.4315 28.8045 50.5122C29.3222 50.9717 29.8185 51.4449 30.2902 51.9341C30.7628 52.422 31.2126 52.9224 31.6343 53.4334L31.8133 53.653L31.8138 53.6538C31.9551 53.8298 32.0952 54.008 32.2335 54.1904C32.8612 55.0117 33.4234 55.8586 33.9129 56.7226L34.0494 56.9662C34.1395 57.1292 34.2277 57.2931 34.3135 57.4583L34.4403 57.7069L34.4414 57.7091L34.4425 57.7116C34.5341 57.8976 34.628 58.0911 34.7171 58.284L34.8815 58.6484C35.2547 59.4997 35.5585 60.3614 35.7926 61.2295C35.811 61.2972 35.8288 61.3643 35.8456 61.4306L35.8945 61.6276L35.8951 61.6298C36.2077 62.9251 36.3612 64.2273 36.3401 65.5204L34.643 65.4928C34.6616 64.3539 34.5268 63.1958 34.2458 62.0307L34.2007 61.8489C34.1858 61.7901 34.1706 61.7327 34.1552 61.676L34.1546 61.6735C33.913 60.7768 33.5873 59.8831 33.1769 58.9976L33.1766 58.9965C33.0961 58.822 33.009 58.6424 32.9197 58.4611C32.7701 58.1621 32.6084 57.8629 32.4368 57.5605L32.4363 57.5599C31.9866 56.7663 31.468 55.9838 30.885 55.2211L30.8831 55.2186C30.7564 55.0515 30.626 54.8855 30.4911 54.7175L30.3251 54.5139C29.9337 54.0397 29.5147 53.5728 29.0714 53.1151L29.07 53.1138C28.6313 52.6588 28.1665 52.2155 27.6776 51.7816L27.6754 51.7797L27.6735 51.7777C27.5949 51.707 27.5123 51.6351 27.4279 51.562L27.4271 51.5614C27.2614 51.4175 27.0894 51.2726 26.9113 51.1227C26.0017 50.3792 25.0276 49.6764 23.9812 49.0212L23.9743 49.0184L23.91 48.9784C23.2296 48.5532 22.5203 48.1517 21.7816 47.7714C21.4633 47.6081 21.1496 47.4526 20.839 47.3095L20.8263 47.3034C20.5399 47.1656 20.2485 47.0347 19.9539 46.9081L19.9519 46.9075C17.9485 46.0407 15.906 45.4178 13.8921 45.0297L13.8333 45.0187C11.8532 44.6425 9.90211 44.492 8.02705 44.5576C5.54887 44.6452 3.21918 45.1072 1.16496 45.924L0.537842 44.3468C2.79484 43.4494 5.31991 42.9552 7.96766 42.8616Z" fill="white"/>
<path d="M25.0293 59.3296L25.0343 59.3346L25.0484 59.3431L31.1817 62.992H31.1884L31.5867 63.2335L34.8939 65.2052L34.0245 66.663L30.7176 64.6913L30.7151 64.6896L30.7126 64.6883L30.6726 64.664L24.1807 60.8018L24.1751 60.7985L24.0674 60.7336L23.9795 60.6802L23.979 60.6797L0.437256 46.6657L1.30527 45.207L25.0293 59.3296Z" fill="white"/>
<path d="M17.9421 55.3869L16.305 55.8356L13.1677 44.3925L14.8049 43.9438L17.9421 55.3869Z" fill="white"/>
<path d="M25.4336 59.8573L23.7901 60.2819L20.2852 46.7085L21.9284 46.2842L25.4336 59.8573Z" fill="white"/>
<path d="M32.0271 63.9359L30.3903 64.3848L26.6306 50.6816L28.2677 50.2324L32.0271 63.9359Z" fill="white"/>
<path d="M17.2771 56.4454L5.99535 58.5588L5.68262 56.8905L16.9646 54.7773L17.2771 56.4454Z" fill="white"/>
<path d="M24.8361 60.8048L10.5669 63.481L10.2542 61.8129L24.5231 59.1367L24.8361 60.8048Z" fill="white"/>
<path d="M31.645 64.5729L17.3901 67.2435L17.3127 67.2581H17.231V66.3945L17.0776 65.5751L31.3325 62.9048L31.645 64.5729Z" fill="white"/>
<path d="M36.6515 60.7456C38.008 60.7456 39.267 61.1732 40.2755 61.9106L39.2738 63.2809C38.5567 62.7566 37.6487 62.443 36.6515 62.443C36.1842 62.443 35.7363 62.5125 35.3191 62.6405L34.8213 61.0177C35.3998 60.8402 36.0156 60.7456 36.6515 60.7456Z" fill="white"/>
<path d="M36.6516 56.7881C39.2109 56.7881 41.5507 57.6714 43.3452 59.1416L42.2694 60.4546C40.7767 59.2317 38.8166 58.4854 36.6516 58.4854C35.7001 58.4854 34.7866 58.6307 33.934 58.8968L33.4285 57.2765C34.443 56.9599 35.5268 56.7881 36.6516 56.7881Z" fill="white"/>
<path d="M36.6519 52.3042C40.2339 52.3042 43.5348 53.4837 46.1202 55.4572L45.0903 56.8065C42.7987 55.0572 39.8592 54.0016 36.6519 54.0016C34.8108 54.0016 33.0573 54.3516 31.4628 54.9781L30.8418 53.3985C32.6307 52.6955 34.5947 52.3042 36.6519 52.3042Z" fill="white"/>
<path d="M36.6516 48.0835C40.9137 48.0835 44.8609 49.366 48.077 51.5357L47.1278 52.9427C44.1881 50.9595 40.5707 49.7809 36.6516 49.7809C33.6536 49.7809 30.8335 50.4692 28.3574 51.6829L27.6104 50.1588C30.3167 48.8322 33.3921 48.0835 36.6516 48.0835Z" fill="white"/>
<path d="M36.6516 44.1284C41.3134 44.1284 45.9171 45.4554 49.6586 47.7502L48.7713 49.197C45.299 47.0674 41.0028 45.8258 36.6516 45.8258C32.2982 45.8258 28.2436 46.9952 24.832 49.0144L23.9673 47.5538C27.6392 45.3806 31.9922 44.1284 36.6516 44.1284Z" fill="white"/>
<path d="M36.6516 40.1709C41.4445 40.1709 45.9627 41.2973 49.9103 43.2827L49.1475 44.7991C45.4344 42.9316 41.1772 41.8683 36.6516 41.8683C30.6863 41.8683 25.1851 43.7144 20.7786 46.8247L19.7996 45.4381C24.4909 42.1268 30.3338 40.1709 36.6516 40.1709Z" fill="white"/>
<path d="M25.9017 19.6611C30.5399 19.6611 34.6012 22.1419 36.8249 25.8469L35.3695 26.7205C33.4403 23.506 29.9201 21.3585 25.9017 21.3585C20.2362 21.3585 15.5704 25.6268 14.9427 31.1241L13.2563 30.9316C13.9808 24.587 19.3633 19.6612 25.9017 19.6611Z" fill="white"/>
</g>
<defs>
<clipPath id="clip0_871_2237">
<rect width="50.6718" height="68.6016" fill="white"/>
</clipPath>
</defs>
</svg>
