<svg width="114" height="60" viewBox="0 0 114 60" fill="none" xmlns="http://www.w3.org/2000/svg">
<path d="M107.682 26.5946C108.069 26.8555 108.504 27.1262 108.987 27.4064C109.47 27.6771 109.958 27.938 110.451 28.1893C110.944 28.4406 111.423 28.6725 111.886 28.8852C112.35 29.0978 112.761 29.2718 113.119 29.4071L112.075 30.4654C111.717 30.2044 111.331 29.9338 110.915 29.6535C110.509 29.3636 110.094 29.0785 109.668 28.7982C109.243 28.5082 108.818 28.228 108.393 27.9573C107.967 27.6867 107.566 27.4306 107.189 27.189C106.464 28.0492 105.653 28.7982 104.754 29.4361C103.865 30.074 102.927 30.62 101.941 31.0743L101.564 30.6249C102.164 30.3156 102.734 29.958 103.275 29.5521C103.826 29.1365 104.333 28.7015 104.797 28.2473C105.261 27.7834 105.672 27.3098 106.03 26.8265C106.397 26.3336 106.701 25.8504 106.943 25.3768C107.049 25.1738 107.035 25.0144 106.899 24.8984C106.822 24.8307 106.687 24.7486 106.493 24.6519C106.3 24.5456 106.131 24.4635 105.986 24.4055L106.363 23.9561C106.547 24.0044 106.75 24.0624 106.972 24.13C107.194 24.188 107.416 24.2508 107.639 24.3185C107.861 24.3861 108.079 24.4538 108.291 24.5215C108.504 24.5891 108.702 24.6568 108.886 24.7244C108.712 25.0627 108.523 25.3865 108.32 25.6957C108.127 26.005 107.914 26.3046 107.682 26.5946ZM113.829 34.4377C113.443 34.4184 112.94 34.4039 112.321 34.3942C111.703 34.3845 111.07 34.3749 110.422 34.3652C110.152 34.3652 109.823 34.37 109.436 34.3797C109.05 34.3797 108.629 34.3894 108.175 34.4087C107.731 34.4184 107.271 34.4329 106.798 34.4522C106.334 34.4618 105.889 34.4763 105.464 34.4957C105.039 34.5053 104.652 34.5198 104.304 34.5392C103.966 34.5585 103.7 34.573 103.507 34.5827C103.14 34.602 102.748 34.631 102.333 34.6696C101.917 34.6986 101.531 34.7373 101.173 34.7856L100.709 33.5098C101.144 33.5678 101.603 33.6162 102.086 33.6548C102.579 33.6838 103.048 33.708 103.492 33.7273C103.734 33.737 104.034 33.7418 104.391 33.7418C104.759 33.7418 105.15 33.7418 105.566 33.7418C105.991 33.7321 106.426 33.7225 106.87 33.7128C107.325 33.6935 107.76 33.679 108.175 33.6693C108.6 33.6597 108.992 33.65 109.349 33.6403C109.707 33.621 110.002 33.6065 110.234 33.5968C110.881 33.5582 111.539 33.5098 112.205 33.4519C112.882 33.3939 113.481 33.3262 114.003 33.2489L113.829 34.4377Z" fill="white"/>
<path d="M92.1757 32.9596C92.1757 33.2108 92.1661 33.4815 92.1467 33.7714C92.1371 34.0614 92.1226 34.3513 92.1033 34.6413C92.0839 34.9312 92.0598 35.2115 92.0308 35.4821C92.0018 35.7527 91.9679 35.9895 91.9293 36.1925L90.958 36.3664C90.9386 36.1925 90.9193 35.9799 90.9 35.7286C90.8903 35.4869 90.8806 35.2357 90.871 34.9747C90.8613 34.7041 90.8516 34.4383 90.842 34.1773C90.842 33.9067 90.842 33.6651 90.842 33.4525V31.7998C90.7357 31.7998 90.6245 31.8046 90.5085 31.8143C90.4022 31.8239 90.2959 31.8336 90.1896 31.8433C90.0833 31.8529 89.9335 31.8674 89.7402 31.8868C89.5565 31.8964 89.3536 31.9157 89.1313 31.9447C88.9187 31.9641 88.7012 31.9882 88.4789 32.0172C88.2663 32.0366 88.0778 32.0559 87.9135 32.0752L87.2031 30.8719C87.3578 30.9009 87.5366 30.9251 87.7395 30.9444C87.9522 30.9637 88.1696 30.9831 88.3919 31.0024C88.6142 31.0217 88.8268 31.0362 89.0298 31.0459C89.2328 31.0459 89.4019 31.0459 89.5372 31.0459C90.0784 31.0266 90.5907 31.0024 91.0739 30.9734C91.5572 30.9444 92.0259 30.9058 92.4802 30.8574C92.9344 30.8091 93.379 30.756 93.8139 30.698C94.2489 30.6303 94.6886 30.553 95.1332 30.466V31.0749C94.6113 31.2005 94.1087 31.3069 93.6255 31.3938C93.1422 31.4808 92.659 31.5581 92.1757 31.6258V32.9596ZM95.4667 33.0465C94.5871 33.0755 93.7994 33.1625 93.1036 33.3075L92.5382 32.1767C92.8378 32.2347 93.1277 32.2733 93.408 32.2927C93.6883 32.312 93.9541 32.3168 94.2054 32.3072C94.418 32.2975 94.6306 32.2927 94.8433 32.2927C95.0656 32.283 95.2734 32.2685 95.4667 32.2492V25.16C95.4667 25.015 95.4425 24.8845 95.3942 24.7685C95.3555 24.6525 95.2782 24.5462 95.1622 24.4496C95.0559 24.3529 94.9061 24.2659 94.7128 24.1886C94.5195 24.1113 94.2779 24.034 93.9879 23.9567L94.2489 23.4348C94.7128 23.4928 95.1815 23.5701 95.6551 23.6667C96.1384 23.7537 96.5685 23.8455 96.9454 23.9422C96.9261 24.0292 96.9067 24.1355 96.8874 24.2611C96.8681 24.3868 96.8487 24.5124 96.8294 24.638C96.8197 24.7637 96.8101 24.8797 96.8004 24.986C96.7907 25.0923 96.7859 25.1696 96.7859 25.2179V32.1187C96.7859 32.4183 96.7762 32.7614 96.7569 33.148C96.7473 33.525 96.7279 33.9067 96.6989 34.2933C96.6699 34.6799 96.6361 35.052 96.5974 35.4096C96.5685 35.7672 96.5346 36.0668 96.496 36.3085L95.5826 36.4244C95.5633 36.2408 95.5488 36.0185 95.5391 35.7576C95.5295 35.5063 95.515 35.2357 95.4956 34.9457C95.486 34.6558 95.4763 34.361 95.4667 34.0614C95.4667 33.7521 95.4667 33.4573 95.4667 33.177V33.0465ZM94.3938 28.4219C94.3938 28.7022 94.3214 28.9679 94.1764 29.2192C94.0314 29.4609 93.8333 29.6735 93.582 29.8571C93.3307 30.0311 93.0359 30.1712 92.6976 30.2775C92.3594 30.3839 91.9969 30.437 91.6103 30.437C91.2237 30.437 90.8613 30.3839 90.523 30.2775C90.1848 30.1712 89.8851 30.0262 89.6242 29.8426C89.3729 29.659 89.1699 29.4464 89.0153 29.2047C88.8703 28.9631 88.7978 28.7022 88.7978 28.4219C88.7978 28.1319 88.8703 27.8661 89.0153 27.6245C89.1699 27.3829 89.3729 27.1751 89.6242 27.0011C89.8755 26.8175 90.1703 26.6773 90.5085 26.5807C90.8565 26.4744 91.2237 26.4212 91.6103 26.4212C92.0163 26.4212 92.3884 26.4792 92.7266 26.5952C93.0746 26.7015 93.3694 26.8465 93.611 27.0301C93.8623 27.2138 94.0556 27.4264 94.1909 27.668C94.3262 27.9096 94.3938 28.1609 94.3938 28.4219ZM90.2041 28.4364C90.2041 28.6103 90.2379 28.7795 90.3056 28.9438C90.3829 29.1081 90.4844 29.2531 90.61 29.3787C90.7357 29.4947 90.8855 29.5913 91.0594 29.6686C91.2334 29.7363 91.417 29.7701 91.6103 29.7701C91.8036 29.7701 91.9824 29.7363 92.1467 29.6686C92.3207 29.5913 92.4705 29.4947 92.5962 29.3787C92.7315 29.2531 92.8378 29.1129 92.9151 28.9583C92.9924 28.794 93.0311 28.62 93.0311 28.4364C93.0311 28.2527 92.9924 28.0788 92.9151 27.9145C92.8475 27.7405 92.746 27.5907 92.6107 27.465C92.485 27.3394 92.3352 27.2379 92.1612 27.1606C91.9969 27.0833 91.8133 27.0446 91.6103 27.0446C91.2141 27.0446 90.8806 27.1751 90.61 27.436C90.3394 27.697 90.2041 28.0304 90.2041 28.4364ZM93.379 24.7975C93.2244 24.7975 93.0552 24.7975 92.8716 24.7975C92.6976 24.7975 92.5188 24.8023 92.3352 24.812C92.1612 24.812 91.9921 24.8168 91.8278 24.8265C91.6635 24.8265 91.5185 24.8265 91.3929 24.8265C91.3252 24.8265 91.2286 24.8313 91.1029 24.841C90.9773 24.841 90.842 24.8507 90.697 24.87C90.552 24.8797 90.4071 24.8942 90.2621 24.9135C90.1171 24.9328 89.9915 24.9522 89.8851 24.9715L89.2908 23.8987C89.4067 23.9277 89.5469 23.9567 89.7112 23.9857C89.8851 24.005 90.0591 24.0292 90.2331 24.0581C90.4167 24.0775 90.5955 24.0968 90.7695 24.1161C90.9435 24.1258 91.0884 24.1306 91.2044 24.1306C91.3204 24.1306 91.4702 24.1258 91.6538 24.1161C91.8375 24.1065 92.0404 24.092 92.2627 24.0726C92.4947 24.0437 92.7266 24.0195 92.9586 24.0002C93.2002 23.9712 93.4273 23.9422 93.64 23.9132L93.379 24.7975ZM94.9302 26.0298C94.6113 26.0298 94.2344 26.0346 93.7994 26.0443C93.3742 26.0443 92.9344 26.054 92.4802 26.0733C92.0259 26.083 91.5862 26.0975 91.1609 26.1168C90.7357 26.1264 90.3732 26.1361 90.0736 26.1458C89.9576 26.1554 89.8078 26.1699 89.6242 26.1893C89.4502 26.2086 89.2666 26.2279 89.0733 26.2473C88.8897 26.2666 88.706 26.2859 88.5224 26.3052C88.3484 26.3246 88.2034 26.3439 88.0875 26.3632L87.4931 25.2179C87.6187 25.2469 87.7782 25.2759 87.9715 25.3049C88.1648 25.3243 88.3629 25.3436 88.5659 25.3629C88.7688 25.3822 88.9621 25.4016 89.1458 25.4209C89.3391 25.4306 89.5034 25.4354 89.6387 25.4354C89.948 25.4354 90.3201 25.4306 90.755 25.4209C91.1899 25.4016 91.6538 25.3774 92.1467 25.3484C92.6397 25.3098 93.1374 25.2663 93.64 25.2179C94.1522 25.16 94.6403 25.0875 95.1042 25.0005L94.9302 26.0298ZM96.38 22.7969C96.8632 22.8645 97.3706 22.9515 97.9022 23.0578C98.4435 23.1641 98.8977 23.256 99.265 23.3333C99.2456 23.4203 99.2263 23.5266 99.207 23.6522C99.1877 23.7779 99.1683 23.9035 99.149 24.0292C99.1297 24.1548 99.1152 24.2708 99.1055 24.3771C99.0958 24.4834 99.091 24.5607 99.091 24.6091V32.6406C99.091 32.9402 99.0862 33.2833 99.0765 33.6699C99.0668 34.0469 99.0475 34.4286 99.0185 34.8152C98.9992 35.2018 98.975 35.5691 98.946 35.917C98.917 36.2746 98.888 36.5742 98.859 36.8159L97.8877 36.9463C97.8684 36.7627 97.8491 36.5404 97.8297 36.2795C97.8201 36.0282 97.8056 35.7527 97.7862 35.4531C97.7766 35.1632 97.7669 34.8684 97.7572 34.5688C97.7476 34.2595 97.7427 33.9647 97.7427 33.6844V24.5801C97.7427 24.4351 97.7186 24.3046 97.6703 24.1886C97.6219 24.063 97.5349 23.9518 97.4093 23.8552C97.2933 23.7489 97.129 23.6571 96.9164 23.5797C96.7134 23.4928 96.4525 23.4106 96.1335 23.3333L96.38 22.7969Z" fill="white"/>
<path d="M78.7441 25.2759C78.5798 25.2663 78.3913 25.2663 78.1787 25.2759C77.9757 25.2759 77.7631 25.2808 77.5408 25.2904C77.3185 25.3001 77.101 25.3146 76.8884 25.3339C76.6758 25.3436 76.4825 25.3533 76.3085 25.3629C76.2022 25.3726 76.0621 25.3871 75.8881 25.4064C75.7238 25.4161 75.5401 25.4306 75.3372 25.4499C75.1439 25.4692 74.9409 25.4934 74.7283 25.5224C74.5157 25.5514 74.3175 25.5852 74.1339 25.6239L73.467 24.4641C73.5733 24.4834 73.7183 24.5076 73.9019 24.5366C74.0952 24.5656 74.2934 24.5897 74.4963 24.6091C74.709 24.6284 74.9168 24.6477 75.1197 24.667C75.3324 24.6767 75.516 24.6815 75.6706 24.6815C75.9316 24.6815 76.2505 24.6815 76.6275 24.6815C77.0044 24.6719 77.4055 24.6622 77.8307 24.6525C78.256 24.6332 78.6861 24.6091 79.121 24.5801C79.5656 24.5511 79.986 24.5172 80.3823 24.4786C80.363 24.5366 80.3388 24.6187 80.3098 24.725C80.2905 24.8217 80.2663 24.9232 80.2373 25.0295C80.218 25.1358 80.1987 25.2373 80.1793 25.3339C80.16 25.4306 80.1455 25.5079 80.1358 25.5659L79.8604 27.1896C79.9474 27.1703 80.0295 27.1606 80.1068 27.1606C80.1938 27.1509 80.2808 27.1413 80.3678 27.1316L80.2518 28.0594C79.6912 28.0304 79.1887 28.0159 78.7441 28.0159C78.3092 28.0063 77.9129 28.0063 77.5553 28.0159C77.2074 28.0256 76.8884 28.0401 76.5985 28.0594C76.3182 28.0788 76.0572 28.0933 75.8156 28.1029C75.8156 28.1802 75.8108 28.2576 75.8011 28.3349C75.7914 28.4122 75.7866 28.4895 75.7866 28.5668V29.8426C75.7866 29.9973 75.8204 30.1132 75.8881 30.1906C75.9654 30.2679 76.0621 30.3017 76.178 30.292C76.555 30.263 76.9947 30.2147 77.4973 30.1471C78.0095 30.0794 78.5411 29.9924 79.092 29.8861C79.6526 29.7701 80.218 29.6397 80.7882 29.4947C81.3681 29.3497 81.919 29.1902 82.4409 29.0163V24.5801C82.4409 24.2804 82.3008 24.0388 82.0205 23.8552C81.7499 23.6619 81.2956 23.4879 80.6577 23.3333L80.8752 22.7969C81.1168 22.8259 81.3778 22.8645 81.6581 22.9129C81.948 22.9515 82.2331 22.9998 82.5134 23.0578C82.7937 23.1062 83.0595 23.1545 83.3108 23.2028C83.5621 23.2511 83.7795 23.2898 83.9631 23.3188C83.9438 23.4058 83.9245 23.5121 83.9052 23.6377C83.8858 23.7634 83.8665 23.8938 83.8472 24.0292C83.8375 24.1548 83.8278 24.2708 83.8182 24.3771C83.8085 24.4834 83.8037 24.5607 83.8037 24.6091V27.2766C84.0066 27.2669 84.2289 27.2524 84.4706 27.2331C84.7122 27.2041 84.9586 27.1751 85.2099 27.1461C85.4612 27.1171 85.7077 27.0881 85.9493 27.0591C86.2006 27.0205 86.4374 26.9818 86.6597 26.9431L86.5002 28.0884C86.3262 28.0788 86.1281 28.0739 85.9058 28.0739C85.6835 28.0739 85.4467 28.0739 85.1954 28.0739C84.9538 28.0739 84.7122 28.0739 84.4706 28.0739C84.2289 28.0739 84.0066 28.0739 83.8037 28.0739V29.1467C83.8037 29.3207 83.794 29.5237 83.7747 29.7556C83.765 29.9876 83.7505 30.2244 83.7312 30.466C83.7119 30.698 83.6877 30.9203 83.6587 31.1329C83.6394 31.3359 83.6152 31.4953 83.5862 31.6113L82.5569 31.7708C82.5376 31.6645 82.5231 31.534 82.5134 31.3793C82.5037 31.2247 82.4892 31.0652 82.4699 30.9009C82.4602 30.727 82.4506 30.5578 82.4409 30.3935C82.4409 30.2292 82.4409 30.0794 82.4409 29.9441V29.6107C81.948 29.7846 81.4116 29.9586 80.8317 30.1326C80.2518 30.3065 79.6671 30.466 79.0775 30.611C78.488 30.756 77.9177 30.8864 77.3668 31.0024C76.8256 31.1087 76.3423 31.1909 75.9171 31.2489C75.3758 31.3165 74.9941 31.2489 74.7718 31.0459C74.5495 30.8333 74.4383 30.495 74.4383 30.0311V28.7988C74.4383 28.6248 74.4238 28.4799 74.3949 28.3639C74.3755 28.2479 74.3272 28.1513 74.2499 28.0739C74.1822 27.9966 74.0807 27.929 73.9454 27.871C73.8101 27.813 73.6265 27.7453 73.3945 27.668L73.612 27.2186C74.5495 27.3249 75.429 27.3732 76.2505 27.3636C77.0817 27.3539 77.8742 27.3249 78.6281 27.2766L78.7441 25.2759ZM81.2956 31.8723C81.6726 31.9206 82.0157 32.0172 82.3249 32.1622C82.6439 32.3072 82.9145 32.4908 83.1368 32.7131C83.3688 32.9257 83.5476 33.1722 83.6732 33.4525C83.7988 33.7231 83.8617 34.013 83.8617 34.3223C83.8617 34.6703 83.7795 34.994 83.6152 35.2936C83.4606 35.5933 83.2383 35.8542 82.9483 36.0765C82.668 36.2988 82.3346 36.4728 81.948 36.5984C81.5614 36.7241 81.1458 36.7869 80.7012 36.7869C80.2373 36.7869 79.8121 36.7241 79.4255 36.5984C79.0389 36.4728 78.7054 36.2988 78.4251 36.0765C78.1449 35.8542 77.9226 35.5933 77.7583 35.2936C77.6036 34.994 77.5263 34.6703 77.5263 34.3223C77.5263 34.0034 77.5891 33.7038 77.7148 33.4235C77.8501 33.1432 78.0385 32.8967 78.2802 32.6841C78.5218 32.4618 78.8021 32.2782 79.121 32.1332C79.4496 31.9882 79.8121 31.8964 80.2083 31.8578C80.189 31.7418 80.1358 31.65 80.0488 31.5823C79.9619 31.5147 79.8072 31.447 79.5849 31.3793L79.8314 30.9444C79.9377 30.9638 80.0633 30.9879 80.2083 31.0169C80.3533 31.0459 80.4983 31.0797 80.6432 31.1184C80.7979 31.1474 80.9477 31.1764 81.0927 31.2054C81.2376 31.2344 81.3681 31.2634 81.4841 31.2924C81.4358 31.3987 81.3971 31.4953 81.3681 31.5823C81.3391 31.6693 81.315 31.7659 81.2956 31.8723ZM82.4264 34.2498C82.4264 33.9985 82.3781 33.7666 82.2814 33.554C82.1945 33.3413 82.0688 33.1577 81.9045 33.0031C81.7499 32.8387 81.5662 32.7131 81.3536 32.6261C81.1506 32.5295 80.9284 32.4811 80.6867 32.4811C80.4354 32.4811 80.2035 32.5295 79.9909 32.6261C79.7782 32.7131 79.5898 32.8387 79.4255 33.0031C79.2708 33.1577 79.1452 33.3413 79.0485 33.554C78.9615 33.7666 78.918 33.9985 78.918 34.2498C78.918 34.5011 78.9615 34.7331 79.0485 34.9457C79.1452 35.1487 79.2708 35.3275 79.4255 35.4821C79.5898 35.6464 79.7782 35.7721 79.9909 35.859C80.2035 35.946 80.4354 35.9895 80.6867 35.9895C80.9284 35.9895 81.1555 35.946 81.3681 35.859C81.5807 35.7721 81.7644 35.6464 81.919 35.4821C82.0736 35.3275 82.1945 35.1487 82.2814 34.9457C82.3781 34.7331 82.4264 34.5011 82.4264 34.2498Z" fill="white"/>
<path d="M63.7897 25.9428C64.2149 26.0008 64.6064 26.1168 64.964 26.2908C65.3216 26.4551 65.626 26.6677 65.8773 26.9286C66.1382 27.1799 66.3364 27.4699 66.4717 27.7985C66.6167 28.1271 66.6891 28.4799 66.6891 28.8568C66.6891 29.282 66.5973 29.6783 66.4137 30.0456C66.2397 30.4032 65.9933 30.7173 65.6743 30.9879C65.3554 31.2489 64.9785 31.4567 64.5435 31.6113C64.1086 31.7563 63.6399 31.8288 63.1373 31.8288C62.6347 31.8288 62.166 31.7563 61.731 31.6113C61.3058 31.4567 60.9385 31.2489 60.6292 30.9879C60.3199 30.7173 60.0735 30.4032 59.8899 30.0456C59.7159 29.6783 59.6289 29.282 59.6289 28.8568C59.6289 28.4702 59.7062 28.1078 59.8609 27.7695C60.0155 27.4215 60.2281 27.1171 60.4988 26.8561C60.7694 26.5952 61.0931 26.3826 61.4701 26.2183C61.847 26.054 62.2626 25.9525 62.7169 25.9138C62.7169 25.7688 62.6734 25.6529 62.5864 25.5659C62.5091 25.4789 62.3496 25.3967 62.108 25.3194L62.3544 24.8845C62.4511 24.9135 62.5719 24.9425 62.7169 24.9715C62.8618 25.0005 63.0068 25.0295 63.1518 25.0585C63.3064 25.0875 63.4562 25.1165 63.6012 25.1455C63.7558 25.1745 63.8911 25.2034 64.0071 25.2324C63.9685 25.3194 63.9298 25.4257 63.8911 25.5514C63.8525 25.677 63.8187 25.8075 63.7897 25.9428ZM65.2684 28.8133C65.2684 28.504 65.2104 28.2189 65.0944 27.958C64.9881 27.6873 64.8383 27.4554 64.645 27.2621C64.4614 27.0591 64.2391 26.8996 63.9781 26.7837C63.7268 26.6677 63.4562 26.6097 63.1663 26.6097C62.8763 26.6097 62.6057 26.6677 62.3544 26.7837C62.1031 26.8996 61.8808 27.0591 61.6875 27.2621C61.5039 27.4554 61.3589 27.6873 61.2526 27.958C61.1463 28.2189 61.0931 28.504 61.0931 28.8133C61.0931 29.1226 61.1463 29.4125 61.2526 29.6831C61.3589 29.9441 61.5039 30.1712 61.6875 30.3645C61.8808 30.5482 62.1031 30.6931 62.3544 30.7994C62.6057 30.9058 62.8763 30.9589 63.1663 30.9589C63.4562 30.9589 63.7268 30.9058 63.9781 30.7994C64.2391 30.6931 64.4614 30.5482 64.645 30.3645C64.8383 30.1712 64.9881 29.9441 65.0944 29.6831C65.2104 29.4125 65.2684 29.1226 65.2684 28.8133ZM70.096 32.6406C70.096 32.9402 70.0864 33.2882 70.067 33.6844C70.0574 34.071 70.0429 34.4625 70.0235 34.8587C70.0042 35.2453 69.9801 35.6126 69.9511 35.9605C69.9221 36.3181 69.8931 36.6032 69.8641 36.8159L68.8638 36.9463C68.8444 36.7917 68.8251 36.5839 68.8058 36.323C68.7961 36.062 68.7816 35.7817 68.7623 35.4821C68.7526 35.1922 68.7429 34.8925 68.7333 34.5833C68.7333 34.2643 68.7333 33.9647 68.7333 33.6844V24.5801C68.7333 24.2804 68.5931 24.0388 68.3129 23.8552C68.0422 23.6619 67.588 23.4879 66.9501 23.3333L67.1821 22.7969C67.4237 22.8259 67.6846 22.8645 67.9649 22.9129C68.2452 22.9515 68.5255 22.9998 68.8058 23.0578C69.0861 23.1062 69.3518 23.1545 69.6031 23.2028C69.8641 23.2511 70.0864 23.2898 70.27 23.3188C70.2507 23.4058 70.2265 23.5121 70.1975 23.6377C70.1782 23.7634 70.1589 23.8938 70.1395 24.0292C70.1299 24.1548 70.1202 24.2708 70.1105 24.3771C70.1009 24.4834 70.096 24.5607 70.096 24.6091V28.6248C70.5213 28.5958 70.9997 28.5523 71.5313 28.4944C72.0629 28.4364 72.5461 28.3687 72.981 28.2914L72.836 29.4657C72.6621 29.456 72.4591 29.4512 72.2272 29.4512C72.0049 29.4512 71.7681 29.4512 71.5168 29.4512C71.2752 29.4512 71.0287 29.4512 70.7774 29.4512C70.5358 29.4512 70.3087 29.4512 70.096 29.4512V32.6406Z" fill="white"/>
<g clip-path="url(#clip0_1151_671)">
<path d="M24.4403 34.2785L23.5903 35.4954L20.8413 33.5754L20.8408 33.5752L11.1058 26.7628L1.30848 33.6581L0.454102 32.4441L11.1037 24.9492L24.4403 34.2785Z" fill="white"/>
<path d="M43.8794 29.263L42.9555 30.4247L33.587 22.9743L21.1796 33.1517L20.2383 32.004L31.6122 22.6737L31.6125 22.6734L33.5728 21.0664L43.8794 29.263Z" fill="white"/>
<path d="M9.49095 44.7288L8.05619 45.1104L6.20801 38.1576L7.64277 37.7764L9.49095 44.7288Z" fill="white"/>
<path d="M8.83572 45.77L2.25438 47.0467L1.97168 45.5892L8.55302 44.3125L8.83572 45.77Z" fill="white"/>
<path d="M22.6847 0.00243384L22.6844 0.00267547C28.6461 0.106074 34.0321 2.61034 37.9381 6.56686L38.123 6.75654L38.1234 6.75678C42.0386 10.8229 44.421 16.3842 44.316 22.4514V22.4517L44.0637 36.9128V37.0612L44.0635 37.0684L44.0389 38.3205C44.026 39.0497 43.9773 39.767 43.8927 40.477C43.8596 40.762 43.8214 41.047 43.7781 41.3319L43.7777 41.3346C43.6469 42.1754 43.4676 42.9976 43.2449 43.8013C43.2319 43.851 43.2155 43.9128 43.1963 43.9769L43.1966 43.9772C43.066 44.4354 42.9198 44.8915 42.7607 45.3356V45.3361C42.4995 46.0632 42.2023 46.7696 41.8698 47.4602C41.6165 47.9873 41.3426 48.5049 41.0478 49.01C41.0238 49.0521 40.986 49.1173 40.94 49.1859C40.5639 49.8223 40.1577 50.4334 39.7169 51.0287L39.7172 51.029C39.2898 51.6073 38.8332 52.1667 38.3472 52.6991C37.9598 53.1296 37.5536 53.5483 37.1287 53.9502L37.1284 53.9504C36.6204 54.4304 36.0884 54.8911 35.5347 55.3243C34.4724 56.1562 33.3335 56.8902 32.1314 57.5195L32.1317 57.5197C31.8745 57.6548 31.6154 57.7817 31.3524 57.9029L31.3522 57.9027C31.2687 57.9447 31.189 57.9812 31.1168 58.0129C30.8908 58.1158 30.6574 58.2198 30.4183 58.3171C29.58 58.6659 28.7134 58.9703 27.8235 59.214L27.8233 59.2137C26.6018 59.5491 25.3375 59.7822 24.0457 59.905L24.0107 59.9084H24.001C23.2224 59.98 22.434 60.0097 21.6358 59.9947C20.9652 59.9844 20.3058 59.9409 19.6557 59.8693V59.869C18.2295 59.718 16.846 59.4269 15.5133 59.0054L15.3403 58.9518C15.2088 58.9102 15.0783 58.8668 14.9481 58.8221H14.9452L14.8266 58.7807C13.7448 58.4039 12.7024 57.9429 11.7072 57.4107H11.707C10.4246 56.7248 9.21834 55.918 8.10148 54.9984V54.9981C6.50547 53.6884 5.09547 52.161 3.92042 50.4563C1.6151 47.1301 0.201229 43.1499 0.0208605 38.87L0.0126453 38.6736C0.00579458 38.481 0.00308144 38.2891 0.00298037 38.0961C-0.00209669 37.9057 0.000345032 37.718 0.00273874 37.5481V37.5457L0.279881 21.6785C0.492394 9.5422 10.5703 -0.210145 22.6847 0.00243384ZM22.6586 1.48673C11.3668 1.28858 1.96241 10.385 1.76417 21.7043L1.48703 37.5688C1.48452 37.7471 1.4826 37.9073 1.48703 38.0647L1.48727 38.0751V38.0857C1.48727 38.2677 1.48997 38.4453 1.49621 38.6209L1.5037 38.7958V38.7987L1.50395 38.8019C1.66585 42.6687 2.90727 46.2735 4.94128 49.318L5.14062 49.6109L5.14159 49.6123C6.16888 51.1029 7.38966 52.4495 8.76666 53.6199L9.04429 53.8516L9.04526 53.8523C10.0859 54.7092 11.2104 55.4614 12.4072 56.1016L12.5819 56.1939C13.4222 56.6331 14.2961 57.0169 15.1982 57.3375H15.2001L15.3197 57.3798C15.528 57.4532 15.7354 57.5213 15.9443 57.5847L15.9487 57.5862L15.953 57.5874C17.1947 57.9806 18.4843 58.2525 19.8151 58.3932L19.8185 58.3937C20.4252 58.4605 21.0376 58.5008 21.6585 58.5104H21.6611C22.4174 58.5247 23.1642 58.4962 23.9012 58.427L23.9358 58.4239H23.9365C25.1325 58.3084 26.302 58.0921 27.4309 57.7821H27.4314C28.2565 57.5562 29.0655 57.2725 29.8534 56.9444L29.8592 56.942C30.0704 56.8561 30.2824 56.7621 30.5017 56.6622L30.5067 56.6598L30.5118 56.6576C30.5869 56.6247 30.6463 56.5976 30.7015 56.5692L30.7162 56.5614L30.7312 56.5547C30.9729 56.4433 31.2087 56.3275 31.4413 56.2053L31.4423 56.2048C32.5655 55.6169 33.6287 54.9314 34.6197 54.1553L34.6199 54.1551C35.1351 53.752 35.6323 53.3217 36.109 52.8714C36.5041 52.4977 36.8835 52.1064 37.2471 51.7021L37.249 51.7002L37.2507 51.698C37.6999 51.2061 38.1243 50.6868 38.5233 50.1468L38.5236 50.1461C38.939 49.585 39.3207 49.0104 39.6734 48.4122L39.6882 48.3871L39.7046 48.3634C39.7165 48.3463 39.73 48.3241 39.7624 48.2675L39.7641 48.2646L39.7657 48.2614C40.04 47.7917 40.2954 47.3095 40.5319 46.8172L40.5322 46.8167C40.8429 46.1715 41.1198 45.5123 41.3634 44.8342C41.5109 44.4224 41.647 43.9979 41.7688 43.5705L41.7705 43.564L41.7724 43.5577C41.7847 43.5175 41.7959 43.4748 41.8113 43.4157L41.8142 43.405C41.9961 42.7487 42.1469 42.08 42.2632 41.3991L42.3108 41.1065C42.3514 40.8388 42.3872 40.5711 42.4183 40.3035L42.4185 40.3014C42.4972 39.6413 42.5426 38.9733 42.5546 38.2928V38.2911L42.5792 37.0392V36.8998L42.8317 22.4256C42.9295 16.77 40.7099 11.5835 37.054 7.78658V7.78634C33.4503 4.04872 28.4591 1.66006 22.9227 1.49301L22.6586 1.48673Z" fill="white"/>
<path d="M6.96892 37.4876C8.70076 37.427 10.4931 37.5637 12.3047 37.9027H12.3103L12.3791 37.916C14.2631 38.2749 16.1704 38.8549 18.0384 39.6629L18.2428 39.7518C18.4439 39.8403 18.646 39.9325 18.8479 40.0294L19.0702 40.1338C19.218 40.2044 19.365 40.2768 19.5111 40.3503L19.7295 40.4612L19.7305 40.4617C20.4013 40.8071 21.0488 41.1731 21.6729 41.5621C21.6888 41.5708 21.7015 41.5783 21.7101 41.5836C21.7166 41.5875 21.723 41.5915 21.7266 41.5937L21.728 41.5947L21.7336 41.5981C22.5932 42.1348 23.4004 42.7067 24.16 43.3085L24.4825 43.5683L24.4864 43.5714L24.4905 43.5748C24.6453 43.705 24.8053 43.8398 24.9612 43.9752C25.0346 44.0388 25.1146 44.1083 25.1931 44.1788C25.6459 44.5807 26.08 44.9946 26.4926 45.4225C26.9059 45.8492 27.2993 46.2869 27.6681 46.7338L27.8247 46.9259L27.8251 46.9266C27.9487 47.0805 28.0712 47.2363 28.1922 47.3958C28.7412 48.1142 29.2329 48.8549 29.661 49.6105L29.7804 49.8237C29.8592 49.9662 29.9363 50.1095 30.0113 50.254L30.1223 50.4715L30.1232 50.4734L30.1242 50.4756C30.2043 50.6383 30.2865 50.8075 30.3644 50.9762L30.5081 51.2949C30.8346 52.0394 31.1003 52.7931 31.305 53.5524C31.3211 53.6116 31.3366 53.6703 31.3514 53.7283L31.3942 53.9006L31.3946 53.9025C31.6681 55.0353 31.8023 56.1743 31.7839 57.3053L30.2996 57.2811C30.3158 56.285 30.1979 55.2721 29.9522 54.2531L29.9128 54.0941C29.8997 54.0427 29.8864 53.9925 29.8729 53.9429L29.8724 53.9407C29.6611 53.1565 29.3762 52.3748 29.0173 51.6003L29.0171 51.5993C28.9466 51.4467 28.8704 51.2897 28.7924 51.1311C28.6615 50.8695 28.5201 50.6079 28.37 50.3434L28.3695 50.3429C27.9763 49.6488 27.5226 48.9644 27.0128 48.2973L27.0111 48.2951C26.9003 48.149 26.7863 48.0038 26.6682 47.8568L26.523 47.6788C26.1808 47.2641 25.8142 46.8557 25.4265 46.4554L25.4253 46.4542C25.0417 46.0563 24.6351 45.6686 24.2076 45.2891L24.2056 45.2874L24.2039 45.2857C24.1352 45.2239 24.0629 45.161 23.9891 45.097L23.9884 45.0965C23.8435 44.9706 23.6931 44.8439 23.5373 44.7128C22.7418 44.0625 21.8898 43.4478 20.9746 42.8748L20.9686 42.8724L20.9123 42.8374C20.3173 42.4655 19.6968 42.1144 19.0508 41.7817C18.7724 41.6389 18.4981 41.5029 18.2264 41.3777L18.2153 41.3724C17.9648 41.2519 17.71 41.1374 17.4522 41.0266L17.4506 41.0261C15.6983 40.268 13.9119 39.7232 12.1505 39.3838L12.0991 39.3742C10.3672 39.0451 8.66082 38.9135 7.02087 38.9709C4.85342 39.0475 2.81584 39.4516 1.01919 40.166L0.470703 38.7865C2.44471 38.0016 4.65317 37.5694 6.96892 37.4876Z" fill="white"/>
<path d="M21.8914 51.8909L21.8958 51.8952L21.9081 51.9027L27.2724 55.0941H27.2782L27.6266 55.3052L30.5191 57.0297L29.7587 58.3048L26.8664 56.5803L26.8643 56.5788L26.8621 56.5776L26.8271 56.5564L21.1491 53.1785L21.1443 53.1756L21.0501 53.1188L20.9732 53.0722L20.9728 53.0717L0.382812 40.8148L1.14199 39.5391L21.8914 51.8909Z" fill="white"/>
<path d="M15.6923 48.4419L14.2605 48.8343L11.5166 38.826L12.9485 38.4336L15.6923 48.4419Z" fill="white"/>
<path d="M22.2441 52.3517L20.8067 52.7231L17.7412 40.8516L19.1784 40.4805L22.2441 52.3517Z" fill="white"/>
<path d="M28.0109 55.9188L26.5793 56.3115L23.291 44.3265L24.7229 43.9336L28.0109 55.9188Z" fill="white"/>
<path d="M15.1104 49.3681L5.24324 51.2165L4.96973 49.7574L14.8371 47.9092L15.1104 49.3681Z" fill="white"/>
<path d="M21.7224 53.1806L9.24227 55.5212L8.96875 54.0623L21.4486 51.7217L21.7224 53.1806Z" fill="white"/>
<path d="M27.6773 56.4765L15.2098 58.8123L15.1421 58.8251H15.0706V58.0698L14.9365 57.3531L27.4041 55.0176L27.6773 56.4765Z" fill="white"/>
<path d="M32.0558 53.1289C33.2422 53.1289 34.3433 53.5029 35.2255 54.1478L34.3493 55.3463C33.7222 54.8877 32.928 54.6134 32.0558 54.6134C31.6471 54.6134 31.2554 54.6743 30.8905 54.7862L30.4551 53.3669C30.9611 53.2117 31.4996 53.1289 32.0558 53.1289Z" fill="white"/>
<path d="M32.0563 49.668C34.2947 49.668 36.3411 50.4405 37.9106 51.7264L36.9697 52.8748C35.6642 51.8052 33.9499 51.1525 32.0563 51.1525C31.2241 51.1525 30.4251 51.2795 29.6795 51.5123L29.2373 50.0952C30.1246 49.8182 31.0725 49.668 32.0563 49.668Z" fill="white"/>
<path d="M32.0562 45.7461C35.1891 45.7461 38.0761 46.7777 40.3374 48.5037L39.4366 49.6838C37.4323 48.1539 34.8613 47.2307 32.0562 47.2306C30.446 47.2306 28.9124 47.5367 27.5178 48.0848L26.9746 46.7032C28.5392 46.0883 30.2569 45.7461 32.0562 45.7461Z" fill="white"/>
<path d="M32.056 42.0547C35.7838 42.0547 39.236 43.1764 42.0489 45.074L41.2187 46.3046C38.6476 44.5701 35.4837 43.5392 32.056 43.5392C29.434 43.5392 26.9675 44.1412 24.8018 45.2028L24.1484 43.8698C26.5155 42.7095 29.2052 42.0547 32.056 42.0547Z" fill="white"/>
<path d="M32.0558 38.5957C36.133 38.5957 40.1595 39.7563 43.4319 41.7634L42.6558 43.0288C39.619 41.1662 35.8614 40.0802 32.0558 40.0802C28.2482 40.0803 24.7021 41.1031 21.7182 42.8691L20.9619 41.5916C24.1734 39.6908 27.9806 38.5957 32.0558 38.5957Z" fill="white"/>
<path d="M32.0564 35.1338C36.2483 35.1338 40.2 36.1189 43.6527 37.8554L42.9855 39.1817C39.738 37.5483 36.0146 36.6183 32.0564 36.6183C26.8391 36.6183 22.0277 38.233 18.1737 40.9533L17.3174 39.7406C21.4205 36.8444 26.5308 35.1338 32.0564 35.1338Z" fill="white"/>
<path d="M22.6536 17.1963C26.7102 17.1963 30.2623 19.366 32.2071 22.6065L30.9343 23.3705C29.2469 20.559 26.1681 18.6808 22.6536 18.6808C17.6985 18.6809 13.6176 22.414 13.0686 27.222L11.5938 27.0536C12.2274 21.5045 16.935 17.1963 22.6536 17.1963Z" fill="white"/>
</g>
<defs>
<clipPath id="clip0_1151_671">
<rect width="44.3183" height="60" fill="white"/>
</clipPath>
</defs>
</svg>
