<svg width="35" height="35" viewBox="0 0 35 35" fill="none" xmlns="http://www.w3.org/2000/svg">
<rect width="35" height="35" rx="4" fill="#00509E"/>
<path d="M17.269 25.2327C16.1451 25.2327 15.0393 25.0731 13.9516 24.7538C12.882 24.4346 12.03 24.0308 11.3955 23.5425L12.5648 20.8101C13.1993 21.2608 13.9516 21.627 14.8217 21.9087C15.6919 22.1904 16.562 22.3312 17.4322 22.3312C19.3175 22.3312 20.2602 21.7772 20.2602 20.6692C20.2602 20.1434 20.0064 19.7772 19.4988 19.5706C19.0093 19.3452 18.2298 19.1481 17.1603 18.979C16.0363 18.7912 15.1118 18.5753 14.3867 18.3311C13.6797 18.087 13.0633 17.6645 12.5376 17.0635C12.0119 16.4438 11.749 15.5893 11.749 14.5001C11.749 13.5799 11.9937 12.7629 12.4832 12.0493C12.9727 11.3357 13.6797 10.7817 14.6042 10.3873C15.5287 9.97416 16.6345 9.76758 17.9216 9.76758C18.8824 9.76758 19.8342 9.88965 20.7768 10.1338C21.7376 10.3591 22.5262 10.6878 23.1425 11.1197L21.9461 13.8522C20.7496 13.0634 19.4081 12.669 17.9216 12.669C16.979 12.669 16.272 12.8287 15.8006 13.1479C15.3474 13.4484 15.1208 13.8522 15.1208 14.3592C15.1208 14.9038 15.3656 15.2888 15.855 15.5142C16.3626 15.7208 17.1693 15.9273 18.2751 16.1339C19.3991 16.3405 20.3146 16.5658 21.0216 16.81C21.7285 17.0541 22.3358 17.4767 22.8434 18.0776C23.351 18.6786 23.6048 19.5143 23.6048 20.5847C23.6048 21.9744 23.0428 23.1012 21.9189 23.9651C20.8131 24.8102 19.2631 25.2327 17.269 25.2327Z" fill="white"/>
</svg>
