<svg width="763" height="763" viewBox="0 0 763 763" fill="none" xmlns="http://www.w3.org/2000/svg">
<path d="M726.214 346.917C716.023 334.203 701.775 326.193 688.895 325.198C689.515 328.643 690.171 332.081 690.768 335.531C692.958 341.552 695.079 347.601 697.154 353.662C707.287 365.346 715.523 378.675 721.317 393.021C722.794 396.678 724.208 400.542 727.093 403.239C732.554 408.334 745.63 403.998 751.642 401.411C751.986 401.261 752.314 401.071 752.653 400.905C747.348 380.808 738.284 361.976 726.214 346.922V346.917Z" fill="#EA5028"/>
<path d="M727.099 403.233C724.214 400.542 722.794 396.678 721.323 393.015C715.535 378.669 707.293 365.346 697.16 353.656C701.574 366.548 705.678 379.543 709.103 392.739C711.914 403.584 714.201 414.751 715.851 426.044C721.099 461.942 719.828 499.174 707.873 531.835C722.001 528.057 735.146 515.211 741.836 504.148C759.677 474.61 761.878 435.831 752.659 400.893C752.32 401.06 751.992 401.25 751.647 401.399C745.635 403.987 732.559 408.322 727.099 403.228V403.233Z" fill="#DB3B12"/>
<path d="M35.8927 403.233C38.778 400.542 40.1919 396.678 41.6691 393.015C47.7501 377.95 56.498 363.977 67.3438 351.879C69.9245 344.392 72.5799 336.934 75.3158 329.505C75.5744 328.033 75.8676 326.573 76.132 325.101C62.7342 325.348 47.4972 333.519 36.7663 346.911C24.6963 361.97 15.6322 380.796 10.3271 400.893C10.6663 401.06 10.9939 401.25 11.3387 401.399C17.3508 403.987 30.4267 408.322 35.8869 403.228L35.8927 403.233Z" fill="#EA5028"/>
<path d="M54.7737 392.745C57.067 383.907 59.7051 375.179 62.487 366.496C64.0504 361.608 65.6712 356.738 67.3438 351.885C56.498 363.977 47.75 377.956 41.669 393.021C40.1919 396.678 38.7722 400.542 35.8926 403.239C30.4324 408.334 17.3565 403.998 11.3444 401.411C10.9996 401.261 10.672 401.071 10.3328 400.905C1.11361 435.842 3.30922 474.621 21.1557 504.16C28.0011 515.482 41.6 528.672 56.1014 532.099C40.2838 489.106 42.9967 438.142 54.7794 392.751L54.7737 392.745Z" fill="#DB3B12"/>
<path d="M709.103 392.745C705.678 379.549 701.568 366.553 697.16 353.661C695.085 347.601 692.964 341.557 690.774 335.531C690.176 332.081 689.521 328.643 688.9 325.198C678.233 266.047 663.795 207.58 645.598 150.291C640.333 133.731 634.022 116.204 620.044 105.889C604.841 94.6643 583.391 94.7966 566.027 102.232C548.658 109.672 534.754 123.386 522.696 137.934C507.689 156.041 494.986 175.712 483.744 196.309C416.243 186.327 346.611 183.32 278.725 191.629C268.132 172.734 256.235 154.661 242.371 137.934C230.313 123.386 216.409 109.672 199.04 102.232C181.676 94.7966 160.22 94.6643 145.023 105.889C131.045 116.21 124.728 133.731 119.469 150.291C101.278 207.545 86.8169 265.984 76.1493 325.101C75.8849 326.573 75.5918 328.033 75.3331 329.505C72.5915 336.934 69.9418 344.392 67.3612 351.879C65.6886 356.732 64.0678 361.602 62.5044 366.49C62.6883 366.703 62.8722 366.921 63.0504 367.134C81.9659 389.341 103.066 409.593 125.843 427.758C126.97 421.404 128.395 415.119 130.085 408.989C131.81 402.716 133.913 396.741 136.241 390.951C155.588 342.989 195.235 311.467 247.768 291.848C334.161 259.595 430.44 259.86 516.132 291.848C520.868 293.619 525.466 295.522 529.995 297.489C581.678 319.943 619.061 355.398 633.821 408.989C637.436 422.105 639.873 435.906 640.643 449.689C643.333 457.238 645.201 465.024 646.017 472.862C670.617 459.326 694.027 443.657 715.863 426.038C714.207 414.745 711.925 403.573 709.115 392.734L709.103 392.745Z" fill="#F8F1E6"/>
<path d="M185.021 634.268C185.659 634.475 186.297 634.676 186.935 634.877C313.809 675.059 450.08 675.059 576.948 634.877C577.586 634.676 578.224 634.469 578.862 634.268C581.31 633.486 583.759 632.686 586.207 631.87C621.647 620.053 656.857 604.327 681.555 576.508C693.326 563.248 701.913 548.108 707.873 531.841C719.828 499.18 721.099 461.948 715.851 426.05C694.016 443.668 670.6 459.332 646.006 472.873C647.391 486.052 645.925 499.341 640.873 511.744C615.819 573.242 544.646 589.25 486.227 600.762C406.076 616.557 316.792 612.308 237.675 593.281C179.756 579.354 124.999 545.543 124.855 482.108C121.912 464.443 122.631 445.796 125.826 427.763C103.048 409.599 81.9487 389.347 63.0331 367.14C62.8492 366.927 62.6653 366.709 62.4871 366.496C59.7053 375.179 57.0671 383.907 54.7738 392.745C42.9911 438.137 40.2782 489.1 56.0957 532.094C62.0503 548.263 70.6085 563.317 82.3165 576.508C107.014 604.327 142.224 620.048 177.664 631.87C180.113 632.686 182.561 633.486 185.01 634.268H185.021Z" fill="#F6D4C0"/>
<path d="M613.692 535.44C594.415 555.905 566.355 566.853 538.697 575.179C538.231 575.323 537.766 575.461 537.3 575.599C440.073 604.609 323.252 604.482 226.588 575.599C226.123 575.461 225.657 575.323 225.192 575.179C197.534 566.853 169.474 555.899 150.19 535.44C136.028 520.409 128.154 501.877 124.861 482.108C125.004 545.543 179.762 579.354 237.681 593.281C316.792 612.308 406.082 616.557 486.233 600.762C544.652 589.25 615.83 573.242 640.879 511.744C645.931 499.341 647.391 486.052 646.011 472.873C645.195 465.036 643.333 457.25 640.637 449.7C642.385 481.073 635.436 512.377 613.698 535.44H613.692Z" fill="#FBB287"/>
<path d="M530.363 218.7C543.738 226.543 558.578 231.994 572.344 239.521C583.879 245.824 595.357 252.149 606.669 258.836C616.21 264.471 638.097 281.842 638.097 281.842C638.097 281.842 618.279 252.281 606.197 238.889C597.444 229.188 587.782 220.575 576.924 214.342C550.911 199.42 486.353 196.959 486.353 196.959C486.353 196.959 502.383 203.928 507.372 206.366C515.189 210.184 522.862 214.301 530.363 218.706V218.7Z" fill="#F6D4C0"/>
<path d="M190.039 235.905C203.804 228.378 218.645 222.932 232.02 215.089C239.526 210.685 247.199 206.568 255.016 202.749C260.005 200.317 276.035 193.342 276.035 193.342C276.035 193.342 211.478 195.809 185.464 210.731C174.601 216.958 164.945 225.577 156.191 235.278C144.104 248.67 124.292 278.231 124.292 278.231C124.292 278.231 146.173 260.86 155.714 255.225C167.025 248.543 178.503 242.218 190.045 235.91L190.039 235.905Z" fill="#F6D4C0"/>
<path d="M594.058 348.774C575.832 328.206 553.348 312.163 529.983 297.5C525.454 295.533 520.856 293.63 516.12 291.859C430.428 259.871 334.15 259.607 247.757 291.859C195.217 311.473 155.576 343.001 136.229 390.962C134.137 404.774 133.229 418.701 133.959 432.685C135.902 470.009 150.886 507.978 180.251 531.087C205.954 551.316 239.463 558.245 271.822 562.972C350.789 574.501 432.572 576.301 509.229 554.111C536.11 546.325 562.532 535.429 584.465 518.04C606.398 500.646 623.595 476.174 628.182 448.55C634.131 412.692 618.158 375.972 594.058 348.774Z" fill="#FF5F0F"/>
<path d="M225.186 575.179C225.646 575.323 226.117 575.461 226.582 575.599C323.246 604.482 440.067 604.608 537.295 575.599C537.76 575.461 538.226 575.323 538.691 575.179C566.355 566.853 594.409 555.899 613.687 535.44C635.424 512.371 642.373 481.073 640.626 449.7C639.856 435.917 637.419 422.122 633.803 409.001C619.043 355.41 581.661 319.954 529.978 297.5C553.342 312.163 575.827 328.211 594.053 348.774C618.153 375.972 634.12 412.692 628.176 448.55C623.59 476.174 606.393 500.646 584.46 518.04C562.527 535.429 536.111 546.331 509.223 554.111C432.567 576.301 350.783 574.507 271.816 562.972C239.457 558.245 205.948 551.316 180.245 531.087C150.88 507.978 135.902 470.01 133.953 432.685C133.223 418.701 134.137 404.774 136.224 390.963C133.89 396.753 131.792 402.727 130.068 409.001C128.378 415.13 126.953 421.409 125.826 427.769C122.63 445.801 121.906 464.449 124.855 482.114C128.148 501.882 136.022 520.415 150.185 535.446C169.468 555.911 197.522 566.859 225.186 575.185V575.179Z" fill="#EA5028"/>
<path d="M560.653 350.166C545.043 332.835 524.357 321.087 502.498 313.491C458.69 298.259 410.312 297.88 364.578 301.703C341.587 303.624 318.746 307.356 296.296 312.657C234.698 327.188 162.157 360.355 149.794 429.857C145.225 455.565 156.352 486.098 181.004 494.672C195.436 499.686 211.271 496.449 226.192 493.165C229.163 492.51 232.135 491.854 235.106 491.205C221.254 487.783 208.489 480.136 199.707 468.883C182.711 447.107 184.337 418.195 196.965 395.523C210.455 371.291 236.497 354.179 265.782 360.498C306.584 369.308 332.931 429.799 306.998 464.375C303.061 469.619 298.411 474.334 293.261 478.399C340.702 467.957 388.137 457.515 435.579 447.072C439.918 446.118 444.252 445.163 448.586 444.209C445.321 427.798 448.833 410.335 457.081 395.523C470.57 371.291 496.613 354.179 525.897 360.498C548.06 365.283 565.929 385.316 573.499 408.161C596.409 386.19 575.93 367.134 560.647 350.171L560.653 350.166Z" fill="#FD7029"/>
<path d="M307.003 464.369C332.937 429.793 306.595 369.296 265.787 360.493C236.503 354.173 210.46 371.286 196.97 395.517C184.343 418.189 182.716 447.101 199.712 468.877C208.494 480.13 221.26 487.777 235.112 491.199C246.285 493.959 258.166 493.97 269.241 490.848C278.018 488.375 286.134 484.023 293.261 478.393C298.411 474.328 303.061 469.613 306.998 464.369H307.003Z" fill="#FFD9C5"/>
<path d="M525.897 360.493C496.613 354.173 470.57 371.286 457.08 395.517C448.832 410.329 445.321 427.798 448.585 444.203C450.321 452.909 453.925 461.327 459.822 468.877C475.691 489.203 504.539 497.84 529.357 490.848C544.468 486.593 557.733 476.875 567.113 464.369C578.965 448.573 579.879 427.372 573.505 408.156C565.935 385.31 548.06 365.277 525.903 360.493H525.897Z" fill="#FFD9C5"/>
<path d="M429.216 516.931C429.216 529.184 407.88 549.712 381.562 549.712C355.243 549.712 333.908 529.184 333.908 516.931C333.908 504.677 355.243 513.504 381.562 513.504C407.88 513.504 429.216 504.677 429.216 516.931Z" fill="white"/>
</svg>
