<svg width="753" height="569" viewBox="0 0 753 569" fill="none" xmlns="http://www.w3.org/2000/svg">
<path d="M721.214 249.916C711.023 237.203 696.775 229.193 683.895 228.198C684.515 231.643 685.171 235.081 685.768 238.531C687.958 244.552 690.079 250.601 692.154 256.661C702.287 268.346 710.523 281.674 716.317 296.021C717.794 299.678 719.208 303.542 722.093 306.239C727.554 311.334 740.63 306.998 746.642 304.41C746.986 304.261 747.314 304.071 747.653 303.904C742.348 283.808 733.284 264.976 721.214 249.922V249.916Z" fill="#EA5028"/>
<path d="M722.099 306.233C719.214 303.542 717.794 299.678 716.323 296.015C710.535 281.669 702.293 268.346 692.16 256.656C696.574 269.548 700.678 282.543 704.103 295.739C706.914 306.584 709.201 317.751 710.851 329.044C716.099 364.942 714.828 402.174 702.873 434.835C717.001 431.057 730.146 418.211 736.836 407.148C754.677 377.61 756.878 338.831 747.659 303.893C747.32 304.06 746.992 304.25 746.647 304.399C740.635 306.987 727.559 311.322 722.099 306.228V306.233Z" fill="#DB3B12"/>
<path d="M30.8927 306.233C33.778 303.542 35.1919 299.678 36.6691 296.015C42.7501 280.95 51.498 266.977 62.3438 254.879C64.9245 247.392 67.5799 239.934 70.3158 232.505C70.5744 231.033 70.8676 229.573 71.132 228.101C57.7342 228.348 42.4972 236.519 31.7663 249.911C19.6963 264.97 10.6322 283.796 5.32715 303.893C5.66626 304.06 5.99388 304.25 6.33873 304.399C12.3508 306.987 25.4267 311.322 30.8869 306.228L30.8927 306.233Z" fill="#EA5028"/>
<path d="M49.7737 295.745C52.067 286.907 54.7051 278.179 57.487 269.496C59.0504 264.608 60.6712 259.738 62.3438 254.885C51.498 266.977 42.75 280.956 36.669 296.021C35.1919 299.678 33.7722 303.542 30.8926 306.239C25.4324 311.334 12.3565 306.998 6.34443 304.411C5.99957 304.261 5.67195 304.071 5.33284 303.905C-3.88639 338.842 -1.69078 377.621 16.1557 407.16C23.0011 418.482 36.6 431.672 51.1014 435.099C35.2838 392.106 37.9967 341.142 49.7794 295.751L49.7737 295.745Z" fill="#DB3B12"/>
<path d="M704.103 295.745C700.678 282.549 696.568 269.553 692.16 256.661C690.085 250.601 687.964 244.557 685.774 238.531C685.176 235.081 684.521 231.643 683.9 228.198C673.233 169.047 658.795 110.58 640.598 53.2911C635.333 36.7307 629.022 19.2043 615.044 8.88858C599.841 -2.33566 578.391 -2.20341 561.027 5.2315C543.658 12.6722 529.754 26.3862 517.696 40.934C502.689 59.0412 489.986 78.7124 478.744 99.3093C411.243 89.3271 341.611 86.3198 273.725 94.6287C263.132 75.7338 251.235 57.6611 237.371 40.934C225.313 26.3862 211.409 12.6722 194.04 5.2315C176.676 -2.20341 155.22 -2.33566 140.023 8.88858C126.045 19.2101 119.728 36.7307 114.469 53.2911C96.278 110.545 81.8169 168.984 71.1493 228.101C70.8849 229.573 70.5918 231.033 70.3331 232.505C67.5915 239.934 64.9418 247.392 62.3612 254.879C60.6886 259.732 59.0678 264.602 57.5044 269.49C57.6883 269.703 57.8722 269.921 58.0504 270.134C76.9659 292.341 98.0655 312.593 120.843 330.758C121.97 324.404 123.395 318.119 125.085 311.989C126.81 305.716 128.913 299.741 131.241 293.951C150.588 245.989 190.235 214.467 242.768 194.848C329.161 162.595 425.44 162.86 511.132 194.848C515.868 196.619 520.466 198.522 524.995 200.489C576.678 222.943 614.061 258.398 628.821 311.989C632.436 325.105 634.873 338.906 635.643 352.689C638.333 360.238 640.201 368.024 641.017 375.862C665.617 362.326 689.027 346.657 710.863 329.038C709.207 317.745 706.925 306.573 704.115 295.734L704.103 295.745Z" fill="#F8F1E6"/>
<path d="M180.021 537.267C180.659 537.474 181.297 537.676 181.935 537.877C308.809 578.059 445.08 578.059 571.948 537.877C572.586 537.676 573.224 537.469 573.862 537.267C576.31 536.485 578.759 535.686 581.207 534.87C616.647 523.053 651.857 507.327 676.555 479.507C688.326 466.248 696.913 451.108 702.873 434.84C714.828 402.18 716.099 364.948 710.851 329.05C689.016 346.668 665.6 362.331 641.006 375.873C642.391 389.052 640.925 402.341 635.873 414.744C610.819 476.241 539.646 492.25 481.227 503.761C401.076 519.557 311.792 515.308 232.675 496.281C174.756 482.354 119.999 448.543 119.855 385.108C116.912 367.443 117.631 348.796 120.826 330.763C98.0483 312.599 76.9487 292.347 58.0331 270.14C57.8492 269.927 57.6653 269.708 57.4871 269.496C54.7053 278.178 52.0671 286.907 49.7738 295.745C37.9911 341.136 35.2782 392.1 51.0957 435.093C57.0503 451.263 65.6085 466.317 77.3165 479.507C102.014 507.327 137.224 523.047 172.664 534.87C175.113 535.686 177.561 536.485 180.01 537.267H180.021Z" fill="#F6D4C0"/>
<path d="M608.692 438.44C589.415 458.905 561.355 469.853 533.697 478.179C533.231 478.323 532.766 478.461 532.3 478.599C435.073 507.609 318.252 507.482 221.588 478.599C221.123 478.461 220.657 478.323 220.192 478.179C192.534 469.853 164.474 458.899 145.19 438.44C131.028 423.409 123.154 404.877 119.861 385.108C120.004 448.543 174.762 482.354 232.681 496.281C311.792 515.308 401.082 519.557 481.233 503.762C539.652 492.25 610.83 476.242 635.879 414.744C640.931 402.341 642.391 389.052 641.011 375.873C640.195 368.036 638.333 360.25 635.637 352.7C637.385 384.073 630.436 415.377 608.698 438.44H608.692Z" fill="#FBB287"/>
<path d="M525.363 121.7C538.738 129.543 553.578 134.994 567.344 142.521C578.879 148.824 590.357 155.149 601.669 161.836C611.21 167.471 633.097 184.842 633.097 184.842C633.097 184.842 613.279 155.281 601.197 141.889C592.444 132.188 582.782 123.575 571.925 117.342C545.911 102.42 481.353 99.959 481.353 99.959C481.353 99.959 497.383 106.928 502.372 109.366C510.189 113.184 517.862 117.301 525.363 121.706V121.7Z" fill="#F6D4C0"/>
<path d="M185.039 138.905C198.804 131.378 213.645 125.932 227.02 118.089C234.526 113.685 242.199 109.568 250.016 105.749C255.005 103.317 271.035 96.3423 271.035 96.3423C271.035 96.3423 206.478 98.8091 180.464 113.731C169.601 119.958 159.945 128.577 151.191 138.278C139.104 151.67 119.292 181.231 119.292 181.231C119.292 181.231 141.173 163.86 150.714 158.225C162.025 151.543 173.503 145.218 185.045 138.91L185.039 138.905Z" fill="#F6D4C0"/>
<path d="M589.058 251.774C570.832 231.206 548.348 215.163 524.983 200.5C520.454 198.534 515.856 196.63 511.12 194.859C425.428 162.871 329.15 162.607 242.757 194.859C190.217 214.473 150.576 246.001 131.229 293.963C129.137 307.775 128.229 321.701 128.959 335.686C130.902 373.01 145.886 410.978 175.251 434.088C200.954 454.316 234.463 461.245 266.822 465.972C345.789 477.501 427.572 479.301 504.229 457.111C531.11 449.325 557.532 438.429 579.465 421.04C601.398 403.646 618.595 379.174 623.182 351.55C629.131 315.692 613.158 278.972 589.058 251.774Z" fill="#FF5F0F"/>
<path d="M220.186 478.179C220.646 478.323 221.117 478.461 221.583 478.599C318.247 507.482 435.068 507.608 532.295 478.599C532.76 478.461 533.226 478.323 533.691 478.179C561.355 469.853 589.409 458.899 608.687 438.44C630.424 415.371 637.373 384.073 635.626 352.7C634.856 338.917 632.419 325.122 628.804 312.001C614.044 258.41 576.661 222.954 524.978 200.5C548.342 215.163 570.827 231.211 589.053 251.774C613.153 278.972 629.12 315.692 623.177 351.55C618.59 379.174 601.393 403.646 579.46 421.04C557.527 438.429 531.111 449.331 504.223 457.111C427.567 479.301 345.784 477.507 266.817 465.972C234.457 461.245 200.949 454.316 175.245 434.087C145.88 410.978 130.902 373.01 128.953 335.685C128.224 321.701 129.137 307.774 131.224 293.963C128.89 299.753 126.792 305.727 125.068 312.001C123.378 318.13 121.953 324.409 120.826 330.769C117.631 348.801 116.906 367.449 119.855 385.114C123.148 404.882 131.023 423.415 145.185 438.446C164.468 458.911 192.522 469.859 220.186 478.185V478.179Z" fill="#EA5028"/>
<path d="M555.653 253.165C540.042 235.834 519.357 224.087 497.498 216.491C453.69 201.259 405.312 200.879 359.578 204.703C336.587 206.624 313.746 210.356 291.296 215.657C229.698 230.188 157.157 263.354 144.794 332.856C140.224 358.565 151.352 389.098 176.004 397.672C190.436 402.686 206.271 399.448 221.192 396.165C224.163 395.51 227.135 394.854 230.106 394.204C216.254 390.783 203.489 383.135 194.706 371.882C177.711 350.107 179.337 321.195 191.965 298.522C205.455 274.291 231.497 257.179 260.781 263.498C301.584 272.307 327.931 332.799 301.998 367.374C298.061 372.618 293.411 377.334 288.261 381.399C335.702 370.957 383.137 360.514 430.578 350.072C434.918 349.118 439.252 348.163 443.585 347.209C440.321 330.798 443.833 313.335 452.08 298.522C465.57 274.291 491.613 257.179 520.897 263.498C543.06 268.282 560.929 288.316 568.499 311.161C591.409 289.19 570.93 270.134 555.647 253.171L555.653 253.165Z" fill="#FD7029"/>
<path d="M302.004 367.369C327.937 332.793 301.595 272.296 260.787 263.493C231.503 257.173 205.46 274.286 191.971 298.517C179.343 321.189 177.716 350.101 194.712 371.877C203.495 383.13 216.26 390.777 230.112 394.199C241.285 396.959 253.166 396.97 264.241 393.848C273.018 391.375 281.134 387.023 288.261 381.393C293.411 377.328 298.061 372.613 301.998 367.369H302.004Z" fill="#FFD9C5"/>
<path d="M520.897 263.493C491.613 257.173 465.57 274.286 452.08 298.517C443.832 313.329 440.321 330.798 443.585 347.203C445.321 355.909 448.925 364.327 454.822 371.877C470.691 392.203 499.539 400.84 524.357 393.848C539.468 389.593 552.733 379.875 562.113 367.369C573.965 351.573 574.879 330.372 568.505 311.156C560.935 288.31 543.06 268.277 520.903 263.493H520.897Z" fill="#FFD9C5"/>
<path d="M424.216 419.931C424.216 432.184 402.88 452.712 376.562 452.712C350.243 452.712 328.908 432.184 328.908 419.931C328.908 407.677 350.243 416.504 376.562 416.504C402.88 416.504 424.216 407.677 424.216 419.931Z" fill="white"/>
</svg>
