<svg width="189" height="52" viewBox="0 0 189 52" fill="none" xmlns="http://www.w3.org/2000/svg">
<g clip-path="url(#clip0_178_19)">
<path d="M0 26.0002C0 39.8269 11.2487 51.0738 25.0754 51.0738C38.9021 51.0738 50.149 39.8251 50.149 26.0002C50.149 12.1753 38.9021 0.924805 25.0754 0.924805C11.2487 0.924805 0 12.1753 0 26.0002ZM0.193165 26.0002C0.193165 12.28 11.3552 1.11797 25.0754 1.11797C38.7955 1.11797 49.9558 12.28 49.9558 26.0002C49.9558 39.7204 38.7937 50.8824 25.0754 50.8824C11.357 50.8824 0.193165 39.7222 0.193165 26.0002Z" fill="white"/>
<path d="M31.4229 17.8352V18.6656H23.337V17.8406H19.452V18.6656H13.3032V22.148C13.3032 22.148 13.6986 22.148 13.9008 22.148C13.2888 22.9225 12.9873 23.845 12.9873 25.0401C12.9873 26.0077 13.4061 27.0764 14.1084 27.8979C14.928 28.9576 16.365 29.6201 17.8543 29.6201H25.3734V28.8673H25.8012V29.6002L36.9145 29.6183L36.9091 26.0095H35.3096V22.2329H36.9163L36.9236 18.6656H35.3656V17.8262L31.4247 17.8352H31.4229ZM35.1634 18.0248V18.8642H36.7214C36.7214 19.0447 36.7141 21.8538 36.7141 22.0343H35.1093V26.2081H36.7087C36.7087 26.3904 36.7141 29.2374 36.7141 29.4197C36.521 29.4197 26.1911 29.4017 25.998 29.4017V28.6687H25.1748V29.4215H17.8525C16.4228 29.4215 15.0453 28.7897 14.26 27.7733C13.5849 26.9844 13.1841 25.9626 13.1841 25.0419C13.1841 23.8143 13.4964 22.8846 14.1662 22.1137L14.3088 21.9494C14.3088 21.9494 13.6444 21.9512 13.4982 21.9531V18.8678H19.647V18.0428H23.133V18.8678H31.616V18.0374C31.7984 18.0374 34.9757 18.0302 35.1598 18.0302" fill="white"/>
<path d="M29.296 22.4238C29.296 21.7938 28.8898 21.3714 28.3898 21.3714C27.8897 21.3714 27.4853 21.7938 27.4853 22.4238C27.4853 23.0539 27.8933 23.4817 28.3898 23.4817C28.8862 23.4817 29.296 23.0719 29.296 22.4238ZM20.4826 23.1315C20.4826 22.5917 20.1125 22.1855 19.6522 22.1855C19.1918 22.1855 18.8236 22.5935 18.8236 23.1315C18.8236 23.6695 19.1954 24.0793 19.6522 24.0793C20.1089 24.0793 20.4826 23.6803 20.4826 23.1315ZM29.4296 24.9079C28.8609 24.9079 28.3464 25.2762 28.3464 25.8882C28.3464 26.5002 28.8609 26.8667 29.4296 26.8667C29.9983 26.8667 30.5128 26.4948 30.5128 25.8882C30.5128 25.2816 30.0019 24.9079 29.4296 24.9079ZM36.1001 21.523V19.4776H34.5241V18.6797H32.2188V19.4776H22.5515V18.6797H20.2461V19.4776H14.1786V21.523H16.0037C14.7382 22.0754 13.9204 23.2832 13.9204 25.0469C13.9204 27.4137 16.1463 28.7622 17.939 28.7622H24.633V28.0437H26.5267V28.7622H36.0983V26.7168H34.5223V21.5248H36.0983L36.1001 21.523ZM18.7369 20.8009H20.5711V21.3407H18.7369V20.8009ZM17.9444 23.1315C17.9444 22.7163 18.1881 22.348 18.5798 22.1061H17.9299V21.5645H21.3762V22.1061H20.7263C21.1163 22.3462 21.36 22.7145 21.36 23.1315C21.36 23.8536 20.6252 24.4422 19.6522 24.4422C18.6791 24.4422 17.9444 23.8554 17.9444 23.1315ZM22.945 27.2078L19.7316 27.2042C19.0691 27.2042 18.6611 26.8215 18.6611 26.1933V24.9422H19.6793V26.6663H22.945V27.2078ZM23.6473 22.9113H22.8836V25.2076H21.9467V20.8009H22.8836V22.3715H23.6473V22.9113ZM26.5285 22.4238C26.5285 21.5862 27.3319 20.9056 28.388 20.9056C29.444 20.9056 30.251 21.5862 30.251 22.4238C30.251 23.2615 29.4495 23.9439 28.388 23.9439C27.3264 23.9439 26.5285 23.2651 26.5285 22.4238ZM32.2458 22.135H31.4515V22.9113H32.2458V23.4511H31.4515V25.8882H31.4497C31.4425 26.7132 30.5525 27.3866 29.4314 27.3866C28.3103 27.3866 27.4203 26.7132 27.4131 25.8882C27.4203 25.0614 28.3103 24.3898 29.4314 24.3898C29.8304 24.3898 30.2023 24.4746 30.5146 24.6245V20.8009H31.4533V21.5934H32.2477V22.135H32.2458Z" fill="white"/>
<path d="M25.1691 2.30194C12.0844 2.25139 1.43144 12.8177 1.37909 25.906C1.32854 38.9943 11.8967 49.6437 24.9814 49.6961C38.0679 49.7484 48.719 39.1821 48.7696 26.0938C48.8219 13.0055 38.2538 2.35429 25.1673 2.30194M46.9625 22.7378L45.1337 23.4599V23.4725L47.078 23.6837L47.143 24.5069L44.5254 23.8949L42.9259 24.0953L42.8212 23.2938L44.3936 23.0988L46.8199 21.8839L46.9625 22.7378ZM45.0814 29.5238C45.0742 30.1683 44.6626 30.6864 44.6626 30.6864C44.6626 30.6864 44.26 30.1611 44.2672 29.5166C44.2762 28.8721 44.6878 28.354 44.6878 28.354C44.6878 28.354 45.0886 28.8829 45.0814 29.5256M43.9423 32.9268C43.9423 32.9268 43.2599 32.2588 43.0342 31.2876C42.8104 30.3181 43.0739 29.6412 43.0739 29.6412C43.0739 29.6412 43.7708 30.1755 43.9946 31.1486C44.2221 32.1162 43.9423 32.9268 43.9423 32.9268ZM42.5269 35.7863C42.5269 35.7863 41.9691 35.0065 41.9167 34.0136C41.8644 33.0188 42.2399 32.3996 42.2399 32.3996C42.2399 32.3996 42.8356 33.0459 42.8862 34.0406C42.9403 35.0372 42.5269 35.7882 42.5269 35.7882M46.5834 20.7646L45.8703 20.983L45.6789 20.2717L42.3951 21.2809L42.1586 20.5118L45.4443 19.5027L45.2114 18.8077L45.9227 18.591L46.5852 20.7628L46.5834 20.7646ZM45.3432 17.154L41.5719 18.9124L41.2343 18.1812L45.0056 16.4247L45.3432 17.154ZM25.0103 42.5381C15.8791 42.502 8.50274 35.0678 8.53884 25.9349C8.57495 16.802 16.0091 9.4274 25.142 9.4635C34.2732 9.49961 41.6459 16.9338 41.6098 26.0667C41.5755 35.1978 34.1414 42.5742 25.0103 42.5381ZM37.3349 41.278C36.9414 42.2132 36.2337 42.7223 36.2337 42.7223C36.2337 42.7223 36.0658 41.7618 36.4558 40.8231C36.8457 39.8898 37.4631 39.4854 37.4631 39.4854C37.4631 39.4854 37.7249 40.3447 37.3349 41.2798M34.8527 42.8721C34.2641 43.6989 33.4554 44.0311 33.4554 44.0311C33.4554 44.0311 33.5095 43.0562 34.0999 42.233C34.6902 41.4098 35.3852 41.1571 35.3852 41.1571C35.3852 41.1571 35.4466 42.0507 34.8527 42.8721ZM16.845 44.0329C16.845 44.0329 16.0362 43.7007 15.4459 42.8739C14.8537 42.0525 14.9151 41.1589 14.9151 41.1589C14.9151 41.1589 15.6101 41.4116 16.2005 42.2348C16.7926 43.058 16.845 44.0329 16.845 44.0329ZM14.0666 42.7204C14.0666 42.7204 13.3589 42.2114 12.9654 41.2762C12.5755 40.3411 12.8372 39.4818 12.8372 39.4818C12.8372 39.4818 13.4564 39.888 13.8464 40.8195C14.2363 41.7582 14.0666 42.7186 14.0666 42.7186M42.1478 13.9316C42.7074 13.5723 43.4097 13.6445 43.8809 14.3721C44.0253 14.5995 44.1047 14.8577 44.1083 15.0003L43.4566 15.2657C43.4566 15.1303 43.4151 14.9425 43.2887 14.7458C43.1028 14.4569 42.8374 14.4298 42.6515 14.5508C42.4457 14.6826 42.4024 14.8577 42.4186 15.3812C42.4349 16.0203 42.1947 16.4157 41.8265 16.6521C41.191 17.0601 40.4689 16.8616 40.0302 16.1792C39.8515 15.9011 39.7468 15.5798 39.7414 15.4245L40.3895 15.1465C40.4003 15.3343 40.4978 15.6087 40.6242 15.8037C40.83 16.125 41.0953 16.1755 41.3228 16.0275C41.5755 15.8632 41.599 15.6285 41.6008 15.2133C41.5846 14.5508 41.8337 14.1338 42.1496 13.9316M41.2379 10.9041C41.5376 11.2273 41.7434 11.5703 41.7488 11.9367C41.7561 12.2725 41.6026 12.518 41.3408 12.7599C41.0159 13.0614 40.5772 13.1752 40.1458 13.0001L40.1367 13.0073C40.2487 13.2907 40.1512 13.5741 39.8804 13.9334C39.5969 14.3053 39.2774 14.7909 39.2178 14.948L38.6654 14.2746C38.7178 14.1608 38.9597 13.8088 39.2521 13.4532C39.5789 13.0452 39.5988 12.852 39.4146 12.6534L39.3352 12.5686L38.1256 13.6933L37.5498 13.1264L40.6151 10.2813C40.7975 10.4582 41.0303 10.6785 41.2379 10.9041ZM39.1167 8.89845L38.6817 9.47072L37.8873 8.87317L37.3133 9.6332L38.0679 10.2037L37.6653 10.738L36.9089 10.1676L36.2355 11.0594L37.0894 11.7039L36.6579 12.2815L35.1632 11.1532L37.6797 7.81347L39.1167 8.89664V8.89845ZM33.8959 5.7049L34.7046 6.06957L33.6738 9.20354L33.6846 9.20896L35.6037 6.53352L36.3673 6.97401L33.6287 10.2235L32.8325 9.81553L33.8941 5.7067L33.8959 5.7049ZM31.7674 4.91057L32.5311 5.16873L31.1861 9.12411L30.4243 8.86415L31.7674 4.91057ZM27.5431 4.01154L28.2616 4.10181L28.8609 7.08955H28.8718L29.2671 4.2697L29.9658 4.41593L29.2635 8.5392L28.5468 8.38936L27.9836 5.40522H27.9727L27.5467 8.21244L26.8408 8.1294L27.5467 4.00793L27.5431 4.01154ZM23.9235 3.90142L24.0137 6.60213C24.0354 7.21051 24.2268 7.38742 24.4344 7.38201C24.6672 7.37479 24.8279 7.20148 24.8063 6.57505L24.7106 3.87795L25.5193 3.88337L25.606 6.40715C25.6421 7.46866 25.2612 8.05899 24.4651 8.08607C23.5985 8.11676 23.2411 7.53185 23.205 6.49561L23.1183 3.9628L23.9235 3.90142ZM18.7694 4.76615C19.0691 4.67228 19.3092 4.65783 19.4518 4.67769L19.5276 5.38175C19.3994 5.3637 19.2442 5.37634 19.0492 5.43772C18.5293 5.60561 18.2278 6.09484 18.5582 7.12566C18.8615 8.07343 19.3399 8.29368 19.6973 8.17994C19.7677 8.15648 19.8164 8.13481 19.8435 8.11495L19.5366 7.16176L19.1864 7.27369L18.9842 6.64726L20.0439 6.30606L20.7191 8.41463C20.5729 8.5392 20.2335 8.72514 19.9464 8.81721C19.4951 8.96163 19.1142 8.94177 18.7658 8.76305C18.3235 8.54461 17.9516 8.01747 17.7458 7.33507C17.3035 5.89626 17.9317 5.03694 18.7676 4.76796M13.9258 6.88736L15.2816 8.00664C15.5433 8.22688 15.9766 8.58974 16.2546 8.8497L16.2655 8.84609C16.0326 8.47601 15.6354 7.87305 15.2671 7.2069L14.8176 6.39271L15.4495 6.07137L17.484 9.7361L16.8251 10.0574L15.4892 8.97427C15.2003 8.73417 14.7815 8.3695 14.5197 8.08607L14.5089 8.09329C14.7274 8.45074 15.0631 8.99413 15.4693 9.72527L15.9315 10.5593L15.3249 10.9312L13.2976 7.27008L13.9276 6.88917L13.9258 6.88736ZM11.2143 8.76125L14.5721 11.4511L13.9366 11.9349L13.1712 11.3067L12.6025 11.7869L13.0882 12.6498L12.5105 13.1914L10.4777 9.38226L11.2125 8.75944L11.2143 8.76125ZM7.95032 11.9945L8.91254 12.4296C9.16347 12.5451 9.4469 12.6841 9.7213 12.8358L9.72852 12.8267C9.53355 12.5939 9.3458 12.3465 9.16889 12.0992L8.57314 11.2688L9.13459 10.6622L10.4542 12.9892L11.6963 14.0453L11.1728 14.6573L9.95599 13.6211L7.41776 12.6589L7.94851 11.9927L7.95032 11.9945ZM5.65219 15.3993L8.68868 15.8795L8.6959 15.8686L6.1667 14.5183L6.544 13.9153L10.1798 15.9914L9.77727 16.616L6.83646 16.1539L6.80216 16.1376L9.27359 17.4952L8.95406 18.1307L5.31461 16.0456L5.654 15.3993H5.65219ZM4.29643 18.4051L8.55509 18.981L8.27347 19.7157L7.32028 19.5803L7.08198 20.2862L7.91963 20.7628L7.69939 21.5282L3.99314 19.2933L4.29643 18.4069V18.4051ZM8.38539 34.0136C8.33123 35.0065 7.77521 35.7863 7.77521 35.7863C7.77521 35.7863 7.3618 35.0372 7.41235 34.0388C7.4665 33.0459 8.06225 32.3978 8.06225 32.3978C8.06225 32.3978 8.43594 33.017 8.38539 34.0118M3.10494 23.4725L4.78024 23.6909L4.89036 22.8569L3.20242 22.6385L3.35046 21.8405L7.49719 22.3839L7.34916 23.1819L5.63053 22.9544L5.52041 23.7884L7.23723 24.0159L7.17405 24.8138L3.02551 24.2704L3.10313 23.4725H3.10494ZM7.26792 31.2858C7.04226 32.257 6.35806 32.925 6.35806 32.925C6.35806 32.925 6.08005 32.1144 6.30571 31.1468C6.52956 30.1755 7.22821 29.6394 7.22821 29.6394C7.22821 29.6394 7.49178 30.3163 7.26792 31.2858ZM6.03672 29.5148C6.04213 30.1593 5.63956 30.6846 5.63956 30.6846C5.63956 30.6846 5.22795 30.1683 5.21893 29.522C5.2117 28.8793 5.61428 28.3504 5.61428 28.3504C5.61428 28.3504 6.02769 28.8703 6.03672 29.513M3.28727 29.9715C3.28727 29.9715 4.34156 30.1575 5.11783 31.0366C5.8941 31.9158 6.05477 33.0441 6.05477 33.0441C6.05477 33.0441 4.95535 32.7481 4.17908 31.8689C3.401 30.9897 3.28727 29.9715 3.28727 29.9715ZM4.23505 33.4341C4.23505 33.4341 5.30738 33.4341 6.22627 34.1634C7.14336 34.8963 7.49719 35.9795 7.49719 35.9795C7.49719 35.9795 6.36167 35.8766 5.44278 35.1437C4.5257 34.4125 4.23505 33.4323 4.23505 33.4323M9.68159 39.4727C9.59132 40.0956 9.18694 40.7888 8.82047 40.7346C8.45038 40.6823 8.25722 39.9024 8.34387 39.2796C8.39081 38.9799 8.49552 38.7199 8.63633 38.534C8.41969 38.617 8.13807 38.6459 7.8402 38.6044C7.21557 38.5159 6.52053 38.1079 6.57469 37.7397C6.62885 37.3732 7.40873 37.18 8.03156 37.2703C8.33123 37.3136 8.593 37.4201 8.77533 37.5591C8.6941 37.3425 8.66341 37.0609 8.70673 36.763C8.797 36.1384 9.20138 35.4433 9.56966 35.4975C9.93794 35.5517 10.1329 36.3315 10.0426 36.9544C9.99932 37.254 9.8928 37.514 9.75019 37.6981C9.96863 37.6151 10.2484 37.5862 10.5481 37.6314C11.1709 37.718 11.866 38.1242 11.8154 38.4925C11.7613 38.8607 10.9814 39.0557 10.355 38.9637C10.0571 38.9221 9.79532 38.8156 9.61118 38.673C9.69422 38.8914 9.72311 39.1731 9.67978 39.4727M11.7053 43.0978C10.6239 42.8486 9.97765 42.1355 9.97765 42.1355C9.97765 42.1355 10.8893 41.6969 11.9671 41.9424C13.0466 42.1915 13.7904 42.9678 13.7904 42.9678C13.7904 42.9678 12.7813 43.3433 11.7053 43.0978ZM14.7364 44.9446C13.6803 44.9482 12.9257 44.4228 12.9257 44.4228C12.9257 44.4228 13.6767 43.8199 14.731 43.8181C15.7871 43.8126 16.6446 44.3741 16.6446 44.3741C16.6446 44.3741 15.7889 44.9409 14.7346 44.9446M20.4808 45.3291C20.2172 45.4591 19.9482 45.5186 19.7172 45.5078C19.9049 45.6378 20.0854 45.8472 20.2136 46.1108C20.488 46.665 20.5458 47.4485 20.219 47.6073C19.8923 47.7716 19.3037 47.2463 19.0312 46.6957C18.8994 46.4285 18.8434 46.1577 18.8524 45.932C18.7224 46.118 18.513 46.2985 18.2459 46.4285C17.6934 46.7011 16.9099 46.7571 16.7475 46.4303C16.5868 46.1054 17.1085 45.5168 17.6627 45.2424C17.9281 45.1106 18.1971 45.0565 18.4264 45.0655C18.2386 44.9337 18.0617 44.7261 17.9281 44.4607C17.6573 43.9083 17.5996 43.123 17.9263 42.9624C18.2531 42.7999 18.8398 43.3234 19.1142 43.8776C19.2442 44.1412 19.3019 44.412 19.2911 44.6377C19.4211 44.4535 19.6287 44.2712 19.8959 44.1412C20.4501 43.8686 21.2336 43.8108 21.3961 44.1376C21.5567 44.4662 21.0332 45.0529 20.479 45.3255M25.077 47.2174C24.6131 47.2174 24.2376 46.8419 24.2376 46.378C24.2376 45.914 24.6131 45.5421 25.077 45.5421C25.541 45.5421 25.9147 45.9176 25.9147 46.378C25.9147 46.8383 25.5392 47.2174 25.077 47.2174ZM33.5492 46.4321C33.3886 46.7589 32.6015 46.7011 32.0527 46.4303C31.7873 46.3003 31.5761 46.1198 31.4461 45.9339C31.4569 46.1613 31.3973 46.4303 31.2656 46.6975C30.9948 47.2481 30.4062 47.7734 30.0813 47.6092C29.7527 47.4503 29.8123 46.6668 30.0849 46.1126C30.2149 45.849 30.3936 45.6396 30.5796 45.5096C30.3503 45.5204 30.0831 45.4609 29.8159 45.3309C29.2617 45.0601 28.7382 44.4716 28.9006 44.143C29.0595 43.8163 29.8448 43.874 30.399 44.1466C30.6644 44.2766 30.8738 44.4589 31.0038 44.6431C30.9912 44.4156 31.0507 44.1466 31.1807 43.8831C31.4533 43.3288 32.04 42.8053 32.3668 42.9678C32.6935 43.1284 32.6358 43.9137 32.3632 44.4662C32.2314 44.7315 32.0545 44.9391 31.8667 45.0709C32.0942 45.0619 32.365 45.1161 32.6286 45.2478C33.1828 45.5222 33.7063 46.109 33.5438 46.4357M35.5657 44.9446C34.5133 44.9428 33.6576 44.3741 33.6576 44.3741C33.6576 44.3741 34.5151 43.8126 35.5712 43.8181C36.6273 43.8181 37.3783 44.4228 37.3783 44.4228C37.3783 44.4228 36.6218 44.9482 35.5657 44.9446ZM38.5968 43.0978C37.5191 43.3433 36.5117 42.9678 36.5117 42.9678C36.5117 42.9678 37.2555 42.1897 38.3351 41.9424C39.411 41.6969 40.3245 42.1355 40.3245 42.1355C40.3245 42.1355 39.6782 42.8504 38.5968 43.0978ZM42.4583 38.6026C42.1623 38.6459 41.8806 38.617 41.664 38.5322C41.8048 38.7199 41.9131 38.9799 41.9565 39.2778C42.0467 39.9006 41.8517 40.6805 41.4853 40.7328C41.1152 40.787 40.7108 40.0938 40.6223 39.4709C40.579 39.1713 40.6079 38.8914 40.6909 38.6712C40.505 38.812 40.2432 38.9203 39.9454 38.9618C39.3207 39.0539 38.5409 38.8589 38.4885 38.4907C38.4361 38.1224 39.1294 37.718 39.7558 37.6295C40.0537 37.5844 40.3353 37.6133 40.5519 37.6963C40.4093 37.5122 40.3028 37.2504 40.2595 36.9526C40.1692 36.3297 40.3624 35.5481 40.7325 35.4957C41.1007 35.4433 41.5033 36.1366 41.5954 36.7612C41.6387 37.0591 41.6062 37.3407 41.5268 37.5573C41.7109 37.4165 41.9709 37.31 42.2706 37.2685C42.8934 37.1782 43.6751 37.3714 43.7274 37.7379C43.7816 38.1061 43.0866 38.5123 42.4601 38.6026M44.8557 35.1437C43.9387 35.8748 42.8031 35.9795 42.8031 35.9795C42.8031 35.9795 43.157 34.8963 44.0759 34.1634C44.9965 33.4341 46.0671 33.4341 46.0671 33.4341C46.0671 33.4341 45.7782 34.4143 44.8575 35.1455M46.123 31.8689C45.345 32.7481 44.2437 33.0441 44.2437 33.0441C44.2437 33.0441 44.4044 31.9176 45.1807 31.0366C45.9606 30.1575 47.0149 29.9715 47.0149 29.9715C47.0149 29.9715 46.8993 30.9897 46.123 31.8689ZM18.7784 44.6882C18.4498 44.8507 18.3126 45.2515 18.4733 45.5818C18.6394 45.9122 19.0402 46.0458 19.3705 45.8815C19.7009 45.7208 19.8363 45.3183 19.6738 44.9915C19.5114 44.6593 19.1124 44.5239 18.7784 44.6864M9.86934 38.2127C9.92169 37.8408 9.66353 37.496 9.29345 37.44C8.92156 37.3876 8.57314 37.6458 8.52259 38.0195C8.46663 38.3914 8.72479 38.738 9.09848 38.7921C9.47037 38.8445 9.81698 38.5863 9.86934 38.2127ZM4.90661 19.1272L4.89939 19.1434C5.14852 19.2734 5.53485 19.4702 5.74968 19.5875L6.51512 20.0082L6.70287 19.4503L5.83814 19.3005C5.5872 19.2608 5.17921 19.1813 4.90481 19.1272M31.5219 44.6882C31.1897 44.5257 30.7908 44.6611 30.6265 44.9933C30.464 45.3219 30.6012 45.7244 30.9316 45.8833C31.2601 46.0476 31.6609 45.914 31.8252 45.5836C31.9877 45.2515 31.8505 44.8525 31.5201 44.69M12.0465 10.303C11.8515 10.1369 11.5428 9.86066 11.337 9.67111L11.3226 9.68375C11.467 9.92204 11.6981 10.2903 11.8208 10.5015L12.2595 11.258L12.709 10.877L12.0465 10.303ZM41.0087 37.44C40.6386 37.496 40.3786 37.8408 40.4328 38.2127C40.4869 38.5863 40.83 38.8445 41.2036 38.7921C41.5773 38.738 41.8355 38.3914 41.7813 38.0195C41.729 37.6458 41.3824 37.3876 41.0105 37.44M40.7343 12.2166C40.9906 11.9783 41.0791 11.7039 40.8408 11.4295C40.7938 11.3789 40.7361 11.3247 40.6946 11.3049L39.7865 12.148L39.884 12.2509C40.1223 12.5072 40.4653 12.4639 40.7325 12.2166" fill="white"/>
<path d="M21.7645 35.4531L21.8313 35.491C21.8313 35.5127 21.8349 35.5343 21.8404 35.565C21.844 35.5939 21.8548 35.621 21.8692 35.6409C21.9072 35.695 21.9577 35.742 22.0209 35.7799C22.0859 35.8196 22.1527 35.8521 22.2267 35.8755C22.2989 35.9008 22.3747 35.9207 22.4469 35.9297C22.521 35.9405 22.5914 35.946 22.6509 35.946C23.234 35.946 23.5464 35.6156 23.5861 34.9603C23.4272 35.0487 23.2683 35.1227 23.1131 35.1859C22.9542 35.2491 22.7899 35.2798 22.6166 35.2798C22.4812 35.2798 22.3422 35.2599 22.1996 35.2238C22.057 35.1859 21.9288 35.1282 21.8151 35.0487C21.6995 34.9693 21.6057 34.8664 21.5335 34.7418C21.4613 34.6173 21.4233 34.4674 21.4233 34.2905C21.4233 34.0793 21.4649 33.897 21.5515 33.7471C21.6328 33.5973 21.7447 33.4727 21.8801 33.3752C22.0155 33.2777 22.1671 33.2073 22.3332 33.1604C22.5011 33.1135 22.6654 33.0918 22.8315 33.0918C23.0373 33.0918 23.2268 33.1297 23.3983 33.2073C23.568 33.2832 23.7179 33.3933 23.8406 33.5323C23.9634 33.6713 24.0609 33.8374 24.1258 34.0287C24.1945 34.2201 24.2288 34.4313 24.2288 34.6606C24.2288 34.9332 24.189 35.1769 24.1132 35.3935C24.0374 35.612 23.9273 35.7997 23.7865 35.9568C23.642 36.1138 23.4759 36.2312 23.2774 36.3142C23.0806 36.3937 22.8585 36.4352 22.6166 36.4352C22.4487 36.4352 22.3025 36.4207 22.187 36.3955C22.0678 36.3666 21.9685 36.3359 21.8909 36.2944C21.8115 36.2565 21.7483 36.2222 21.6995 36.1897C21.6508 36.159 21.6093 36.1427 21.5804 36.1427C21.5407 36.1427 21.5028 36.1572 21.4757 36.1806L21.4306 36.1355L21.7681 35.4495L21.7645 35.4531ZM22.5155 33.6623C22.4289 33.6803 22.3531 33.711 22.2845 33.7561C22.2177 33.7977 22.1635 33.8572 22.1238 33.9295C22.0841 34.0017 22.0642 34.0919 22.0642 34.2002C22.0642 34.3086 22.0841 34.3988 22.1238 34.471C22.1635 34.5432 22.2177 34.601 22.2845 34.6443C22.3531 34.6859 22.4289 34.7184 22.5155 34.7364C22.6022 34.7545 22.6906 34.7635 22.7809 34.7635C22.8712 34.7635 22.956 34.7545 23.0445 34.7364C23.1311 34.7166 23.207 34.6859 23.2756 34.6443C23.3442 34.5992 23.3983 34.5432 23.438 34.471C23.4759 34.397 23.494 34.3086 23.494 34.2002C23.494 34.0919 23.4759 34.0017 23.438 33.9295C23.3983 33.8572 23.3442 33.7977 23.2756 33.7561C23.2088 33.7128 23.1311 33.6803 23.0445 33.6623C22.956 33.6442 22.8712 33.6334 22.7809 33.6334C22.6906 33.6334 22.6022 33.6442 22.5155 33.6623Z" fill="white"/>
<path d="M27.8648 35.4531L27.9316 35.491C27.9316 35.5127 27.9352 35.5343 27.9424 35.565C27.946 35.5939 27.9569 35.621 27.9713 35.6409C28.011 35.695 28.0598 35.742 28.1247 35.7799C28.1879 35.8196 28.2565 35.8521 28.3287 35.8755C28.401 35.9008 28.4768 35.9207 28.5508 35.9297C28.6248 35.9405 28.6934 35.946 28.753 35.946C29.3379 35.946 29.6484 35.6156 29.6881 34.9603C29.5311 35.0487 29.3722 35.1227 29.2151 35.1859C29.0581 35.2491 28.8902 35.2798 28.7187 35.2798C28.5833 35.2798 28.4443 35.2599 28.3017 35.2238C28.159 35.1859 28.0291 35.1282 27.9153 35.0487C27.8016 34.9693 27.7077 34.8664 27.6337 34.7418C27.5615 34.6173 27.5254 34.4674 27.5254 34.2905C27.5254 34.0793 27.5687 33.897 27.6536 33.7471C27.7366 33.5973 27.8467 33.4727 27.9821 33.3752C28.1175 33.2777 28.2692 33.2073 28.4353 33.1604C28.6013 33.1135 28.7692 33.0918 28.9317 33.0918C29.1375 33.0918 29.3271 33.1297 29.4986 33.2073C29.6701 33.2832 29.8199 33.3933 29.9409 33.5323C30.0636 33.6713 30.1593 33.8374 30.2279 34.0287C30.2947 34.2201 30.329 34.4313 30.329 34.6606C30.329 34.9332 30.2929 35.1769 30.2135 35.3935C30.1376 35.612 30.0275 35.7997 29.8867 35.9568C29.7441 36.1138 29.5762 36.2312 29.3776 36.3142C29.1808 36.3937 28.9606 36.4352 28.7169 36.4352C28.549 36.4352 28.4046 36.4207 28.2872 36.3955C28.1681 36.3666 28.0688 36.3359 27.9912 36.2944C27.9117 36.2565 27.8485 36.2222 27.8016 36.1897C27.7511 36.159 27.7131 36.1427 27.6824 36.1427C27.6427 36.1427 27.6066 36.1572 27.5759 36.1806L27.5326 36.1355L27.8702 35.4495L27.8648 35.4531ZM28.6158 33.6623C28.5291 33.6803 28.4515 33.711 28.3829 33.7561C28.3179 33.7977 28.2619 33.8572 28.2222 33.9295C28.1843 34.0017 28.1627 34.0919 28.1627 34.2002C28.1627 34.3086 28.1843 34.3988 28.2222 34.471C28.2619 34.5432 28.3179 34.601 28.3829 34.6443C28.4515 34.6859 28.5273 34.7184 28.6158 34.7364C28.7024 34.7545 28.7891 34.7635 28.8812 34.7635C28.9732 34.7635 29.0563 34.7545 29.1447 34.7364C29.2314 34.7166 29.309 34.6859 29.3776 34.6443C29.4444 34.5992 29.4968 34.5432 29.5383 34.471C29.5762 34.397 29.5961 34.3086 29.5961 34.2002C29.5961 34.0919 29.5762 34.0017 29.5383 33.9295C29.4968 33.8572 29.4444 33.7977 29.3776 33.7561C29.309 33.7128 29.2314 33.6803 29.1447 33.6623C29.0581 33.6442 28.9714 33.6334 28.8812 33.6334C28.7909 33.6334 28.7024 33.6442 28.6158 33.6623Z" fill="white"/>
<path d="M24.4634 33.5838L24.5302 33.5278C24.5591 33.5477 24.5916 33.5567 24.6241 33.5567C24.6457 33.5567 24.6764 33.5333 24.7288 33.4845C24.7793 33.4358 24.8533 33.3852 24.9508 33.3257C25.0483 33.2643 25.1711 33.2137 25.3245 33.1668C25.4762 33.118 25.6621 33.0928 25.8787 33.0928C26.025 33.0928 26.1712 33.1072 26.3192 33.1397C26.4673 33.174 26.6009 33.2264 26.72 33.3022C26.841 33.3744 26.9421 33.4665 27.0179 33.582C27.0955 33.6957 27.1316 33.8347 27.1316 33.9954C27.1316 34.1471 27.0937 34.2843 27.0143 34.4106C26.9348 34.5388 26.8283 34.6182 26.6929 34.6525V34.6652C26.8518 34.7049 26.9836 34.7879 27.0865 34.9125C27.1894 35.0353 27.2417 35.1905 27.2417 35.3783C27.2417 35.5895 27.193 35.7664 27.0991 35.9036C27.0034 36.0426 26.8825 36.1509 26.7435 36.2322C26.6009 36.3152 26.4438 36.3676 26.2759 36.3928C26.108 36.4217 25.9473 36.4344 25.7975 36.4344C25.6278 36.4344 25.4707 36.4163 25.3245 36.3802C25.1765 36.3459 25.0483 36.3026 24.9364 36.2574C24.8245 36.2105 24.7306 36.1672 24.6584 36.1257C24.5844 36.0877 24.532 36.0679 24.5031 36.0679C24.4851 36.0679 24.4688 36.0715 24.4544 36.0823C24.4417 36.0895 24.4291 36.0986 24.4129 36.104L24.3623 36.0877L24.6891 35.1905L24.7504 35.2248C24.7468 35.2356 24.7432 35.2483 24.7432 35.2699V35.3133C24.7432 35.409 24.7847 35.4956 24.8678 35.5696C24.9508 35.6473 25.0465 35.7104 25.162 35.761C25.2776 35.8133 25.3985 35.8531 25.5213 35.8819C25.6495 35.9072 25.7542 35.9217 25.839 35.9217C25.9058 35.9217 25.9871 35.9144 26.0791 35.8982C26.1694 35.8837 26.2579 35.8567 26.3355 35.8188C26.4149 35.7808 26.4835 35.7303 26.5395 35.6671C26.5954 35.6003 26.6243 35.5155 26.6243 35.4108C26.6243 35.3061 26.5972 35.2284 26.5449 35.1707C26.4907 35.1075 26.4257 35.0623 26.3463 35.028C26.2687 34.9955 26.1856 34.9739 26.0972 34.963C26.0105 34.9522 25.9347 34.9468 25.8715 34.9468C25.7795 34.9468 25.7036 34.9558 25.6368 34.9757C25.5718 34.9937 25.5267 35.0407 25.505 35.1165H25.4383V34.2662H25.505C25.5123 34.3493 25.5538 34.4052 25.6242 34.4305C25.6982 34.4594 25.7795 34.472 25.8697 34.472C25.9293 34.472 25.9997 34.4666 26.0773 34.454C26.155 34.4413 26.229 34.4197 26.2976 34.3872C26.3662 34.3529 26.4239 34.3059 26.4727 34.25C26.5214 34.1922 26.5467 34.1182 26.5467 34.0315C26.5467 33.9449 26.525 33.8817 26.4817 33.8293C26.4402 33.777 26.3842 33.7373 26.3156 33.7084C26.2452 33.6795 26.1712 33.6578 26.0845 33.6488C26.0015 33.6398 25.9167 33.6326 25.83 33.6326C25.7289 33.6326 25.626 33.6452 25.5213 33.6723C25.4166 33.6939 25.3209 33.7282 25.2343 33.7716C25.1494 33.8113 25.0772 33.86 25.0212 33.9088C24.9635 33.9593 24.9364 34.0099 24.9364 34.0586C24.9364 34.0785 24.94 34.0965 24.9418 34.1182C24.9454 34.1434 24.9508 34.1651 24.958 34.185L24.9093 34.2229L24.458 33.5838H24.4634Z" fill="white"/>
<path d="M20.118 36.3459C20.1577 36.3459 20.1884 36.3351 20.2173 36.3098C20.2443 36.2881 20.2606 36.2412 20.2606 36.169V34.0803C20.2317 34.0803 20.2028 34.0803 20.1685 34.0875C20.1324 34.0893 20.0981 34.0965 20.0638 34.1073C20.0295 34.1182 19.9988 34.1326 19.9717 34.1525C19.9428 34.1705 19.9248 34.1976 19.914 34.2301H19.8472V33.443H19.914C19.914 33.4791 19.9302 33.5062 19.9645 33.5188C20.0006 33.5351 20.0295 33.5423 20.0602 33.5423C20.1234 33.5423 20.1775 33.5188 20.2209 33.4755C20.266 33.434 20.2859 33.3798 20.2859 33.3166C20.2859 33.2589 20.275 33.2209 20.2497 33.2065C20.2245 33.1885 20.1938 33.1758 20.1505 33.1668V33.0928H21.0585V33.1668C21.0152 33.1758 20.9773 33.1921 20.9466 33.2101C20.9177 33.2318 20.9033 33.2625 20.9033 33.304V36.169C20.9033 36.2412 20.9195 36.2881 20.9466 36.3098C20.9773 36.3351 21.0116 36.3459 21.0495 36.3459V36.4199H20.1216V36.3459H20.118Z" fill="white"/>
</g>
<g clip-path="url(#clip1_178_19)">
<path d="M65.1776 37.0107V40.9824H67.1923V37.0107H69.1203V46.9218H67.1923V42.7768H65.1776V46.9218H63.2495V37.0107H65.1776Z" fill="white"/>
<path d="M73.314 44.6599L72.8717 46.9237H71.0015L73.1479 37.0127H75.4587L77.3849 46.9237H75.5183L75.0922 44.6599H73.314ZM74.9135 43.1579L74.5922 41.0854C74.4857 40.4806 74.3575 39.4968 74.2672 38.8342H74.2203C74.121 39.495 73.973 40.524 73.8701 41.0981L73.5018 43.1579H74.9135Z" fill="white"/>
<path d="M79.3887 46.9218V37.0107H81.1506L82.6797 40.8957C82.9722 41.6557 83.4614 42.9231 83.7376 43.7932H83.7683C83.7105 42.7461 83.5787 41.0257 83.5787 39.2024V37.0107H85.2703V46.9218H83.5065L81.9901 43.1559C81.6687 42.3183 81.212 41.069 80.9882 40.17H80.9593C81.0044 41.1683 81.0766 42.7028 81.0766 44.7013V46.9199H79.3887V46.9218Z" fill="white"/>
<path d="M88.9854 46.9216V43.1269L86.8101 37.0088H88.8717L89.5451 39.3755C89.722 40.0074 89.9133 40.7439 90.0632 41.4805H90.0921C90.2058 40.7584 90.3701 40.0399 90.5452 39.334L91.1355 37.0088H93.1322L90.9117 43.0529V46.9198H88.9854V46.9216Z" fill="white"/>
<path d="M95.826 44.6599L95.3856 46.9237H93.5171L95.6654 37.0127H97.9707L99.9006 46.9237H98.0339L97.6061 44.6599H95.826ZM97.4291 43.1579L97.1042 41.0854C97.0049 40.4806 96.8695 39.4968 96.781 38.8342H96.7395C96.6366 39.495 96.4886 40.524 96.3857 41.0981L96.0174 43.1579H97.4273H97.4291Z" fill="white"/>
<path d="M101.901 46.9218V37.0107H103.665L105.194 40.8957C105.488 41.6557 105.972 42.9231 106.253 43.7932H106.282C106.225 42.7461 106.089 41.0257 106.089 39.2024V37.0107H107.779V46.9218H106.017L104.502 43.1559C104.177 42.3183 103.722 41.069 103.502 40.17H103.473C103.517 41.1683 103.591 42.7028 103.591 44.7013V46.9199H101.901V46.9218Z" fill="white"/>
<path d="M115.901 46.6582C115.476 46.8369 114.563 47.0102 113.844 47.0102C112.713 47.0102 111.859 46.6889 111.198 46.0264C110.344 45.2068 109.885 43.7337 109.914 42.0277C109.963 38.4225 112.018 36.9277 114.121 36.9277C114.873 36.9277 115.43 37.0722 115.742 37.2202L115.401 38.8811C115.124 38.7475 114.756 38.6608 114.269 38.6608C112.958 38.6608 111.916 39.5562 111.916 42.1468C111.916 44.5298 112.844 45.3837 113.74 45.3837C113.917 45.3837 114.048 45.3729 114.122 45.3386V42.9411H113.24V41.3651H115.902V46.66L115.901 46.6582Z" fill="white"/>
<path d="M123.373 37.0106V43.4518C123.373 44.9051 123.813 45.351 124.317 45.351C124.876 45.351 125.272 44.9538 125.272 43.4518V37.0106H127.196V43.1143C127.196 45.6561 126.243 47.0371 124.329 47.0371C122.255 47.0371 121.446 45.6128 121.446 43.1269V37.0088H123.374L123.373 37.0106Z" fill="white"/>
<path d="M129.771 46.9218V37.0107H131.538L133.065 40.8957C133.358 41.6557 133.843 42.9231 134.125 43.7932H134.15C134.091 42.7461 133.959 41.0257 133.959 39.2024V37.0107H135.65V46.9218H133.887L132.374 43.1559C132.049 42.3183 131.592 41.069 131.372 40.17H131.339C131.384 41.1683 131.46 42.7028 131.46 44.7013V46.9199H129.771V46.9218Z" fill="white"/>
<path d="M140.2 37.0107V46.9218H138.27V37.0107H140.2Z" fill="white"/>
<path d="M144.211 46.9218L141.991 37.0107H144.125L144.83 41.2911C145.007 42.349 145.213 43.5693 145.343 44.7319H145.372C145.504 43.5549 145.666 42.3652 145.845 41.2459L146.518 37.0107H148.64L146.37 46.9218H144.211Z" fill="white"/>
<path d="M154.579 42.5712H152.313V45.2466H154.876V46.9237H150.387V37.0127H154.7V38.6934H152.313V40.9699H154.579V42.573V42.5712Z" fill="white"/>
<path d="M157.092 37.1583C157.698 37.041 158.46 36.9688 159.195 36.9688C160.256 36.9688 161.199 37.1132 161.841 37.7035C162.448 38.2451 162.625 38.9094 162.625 39.7615C162.625 40.8194 162.107 41.7744 161.094 42.2474V42.2745C161.771 42.5399 162.107 43.1753 162.302 44.2314C162.491 45.3344 162.759 46.5566 162.935 46.9213H160.923C160.803 46.6415 160.581 45.6431 160.433 44.5546C160.256 43.3197 159.951 42.9659 159.303 42.9659H159.023V46.9195H157.094V37.1547L157.092 37.1583ZM159.022 41.4838H159.361C160.197 41.4838 160.681 40.805 160.681 39.9366C160.681 39.0683 160.343 38.496 159.478 38.4653C159.312 38.4653 159.125 38.4798 159.02 38.5249V41.4838H159.022Z" fill="white"/>
<path d="M164.699 44.9539C165.096 45.1723 165.772 45.3348 166.328 45.3348C167.243 45.3348 167.68 44.8636 167.68 44.2173C167.68 43.497 167.243 43.1468 166.405 42.5998C165.049 41.7748 164.537 40.7313 164.537 39.8359C164.537 38.2454 165.595 36.9258 167.667 36.9258C168.317 36.9258 168.931 37.0991 169.227 37.276L168.918 38.9405C168.642 38.7618 168.211 38.5993 167.654 38.5993C166.831 38.5993 166.431 39.1011 166.431 39.6319C166.431 40.2168 166.725 40.5255 167.801 41.1736C169.108 41.9697 169.593 42.9699 169.593 44.0115C169.593 45.824 168.256 47.0119 166.315 47.0119C165.522 47.0119 164.737 46.8097 164.419 46.6165L164.699 44.9575V44.9539Z" fill="white"/>
<path d="M173.549 37.0107V46.9218H171.628V37.0107H173.549Z" fill="white"/>
<path d="M177.253 38.7871H175.504V37.0107H180.947V38.7871H179.183V46.9218H177.253V38.7871Z" fill="white"/>
<path d="M184.478 46.9216V43.1269L182.301 37.0088H184.361L185.038 39.3755C185.215 40.0074 185.404 40.7439 185.55 41.4805H185.579C185.697 40.7584 185.859 40.0399 186.034 39.334L186.623 37.0088H188.626L186.406 43.0529V46.9198H184.48L184.478 46.9216Z" fill="white"/>
<path d="M80.9613 5.9491H77.1865V24.8739H80.9613V14.6307H84.6802V12.4247H80.9613V5.9491ZM68.4507 22.6678H64.6723V32.3279H81.4054V30.093H68.4507V22.6678ZM183.501 26.2441H187.056V5.91841H168.763V8.15516H183.501V26.2441ZM94.5425 5.37683C85.1803 5.37683 85.1803 19.0555 94.5425 19.0555C103.905 19.0555 103.881 5.37683 94.5425 5.37683ZM94.5425 7.48359C99.1117 7.48359 99.1117 16.9722 94.5425 16.9722C89.9733 16.9722 89.948 7.48359 94.5425 7.48359ZM71.8122 9.43691H75.2314V7.20197H69.5628V5.07715H65.7825V7.20377H60.1157V9.43872H63.5277C59.3467 12.6666 60.7259 20.7524 67.6763 20.7524C74.6266 20.7524 75.9769 12.6648 71.814 9.43872L71.8122 9.43691ZM67.6744 10.1031C71.9638 10.1031 71.9638 18.7756 67.6744 18.7756C63.3851 18.7756 63.3508 10.1031 67.6744 10.1031ZM144.507 24.8739H157.708V32.3297H161.484V22.6696H144.507V24.8739ZM161.484 5.9491H157.708V21.4475H161.484V14.6289H165.203V12.4229H161.484V5.9491ZM152.337 9.43691H155.756V7.20197H150.086V5.07715H146.304V7.20377H140.642V9.43872H144.054C139.868 12.6666 141.249 20.7524 148.205 20.7524C155.16 20.7524 156.496 12.6648 152.339 9.43872L152.337 9.43691ZM148.194 10.1031C152.487 10.1031 152.487 18.7756 148.194 18.7756C143.901 18.7756 143.87 10.1031 148.194 10.1031ZM100.677 20.1675C91.033 20.1675 91.0005 33.236 100.677 33.236C110.353 33.236 110.292 20.1675 100.677 20.1675ZM100.677 31.14C95.956 31.14 95.956 22.1967 100.677 22.1967C105.398 22.1967 105.367 31.14 100.677 31.14ZM181.149 28.3382V16.8909H177.66V28.3382H175.156V16.8909H171.662V28.3382H167.844V30.575H188.531V28.3382H181.149ZM107.569 5.97437H103.769V20.0592H107.569V16.3548H111.294V14.1144H107.569V10.9209H111.294V8.71299H107.569V5.97437ZM132.462 14.1144H130.71V5.9491H127.153V20.9961H120.094V8.18765H125.303V5.9491H116.316V23.2365H127.153V32.3568H130.71V16.3566H132.462V32.3568H136.015V5.9491H132.462V14.1144Z" fill="white"/>
</g>
<defs>
<clipPath id="clip0_178_19">
<rect width="50.1508" height="50.1508" fill="white" transform="translate(0 0.924805)"/>
</clipPath>
<clipPath id="clip1_178_19">
<rect width="128.511" height="41.962" fill="white" transform="translate(60.1157 5.07715)"/>
</clipPath>
</defs>
</svg>
