<svg width="129" height="129" viewBox="0 0 129 129" fill="none" xmlns="http://www.w3.org/2000/svg">
<g clip-path="url(#clip0_241_64)">
<path d="M0 64.4C0 99.9104 28.8896 128.795 64.4 128.795C99.9104 128.795 128.795 99.9058 128.795 64.4C128.795 28.8942 99.9104 0 64.4 0C28.8896 0 0 28.8942 0 64.4ZM0.496098 64.4C0.496098 29.1631 29.1631 0.496098 64.4 0.496098C99.6369 0.496098 128.299 29.1631 128.299 64.4C128.299 99.6369 99.6322 128.304 64.4 128.304C29.1678 128.304 0.496098 99.6415 0.496098 64.4Z" fill="#004483"/>
<path d="M80.7017 43.4294V45.5622H59.9351V43.4433H49.9575V45.5622H34.1659V54.5059C34.1659 54.5059 35.1812 54.5059 35.7005 54.5059C34.1288 56.4949 33.3545 58.8641 33.3545 61.9334C33.3545 64.4185 34.4301 67.1633 36.2337 69.2729C38.3387 71.9945 42.0292 73.696 45.8543 73.696H65.165V71.7626H66.2639V73.645L94.8057 73.6914L94.7918 64.4232H90.6839V54.7238H94.8104L94.8289 45.5622H90.8277V43.4062L80.7063 43.4294H80.7017ZM90.3084 43.9163V46.0722H94.3096C94.3096 46.5358 94.2911 53.7501 94.2911 54.2138H90.1693V64.9332H94.2772C94.2772 65.4015 94.2911 72.7131 94.2911 73.1814C93.795 73.1814 67.2653 73.135 66.7692 73.135V71.2526H64.655V73.186H45.8497C42.1776 73.186 38.64 71.5633 36.6232 68.953C34.8891 66.9269 33.8599 64.3026 33.8599 61.9381C33.8599 58.7853 34.662 56.3975 36.3821 54.4178L36.7484 53.9959C36.7484 53.9959 35.0421 54.0005 34.6666 54.0051V46.0815H50.4583V43.9626H59.4112V46.0815H81.1978V43.9487C81.6661 43.9487 89.8262 43.9302 90.2991 43.9302" fill="#004483"/>
<path d="M75.24 55.2151C75.24 53.597 74.1968 52.512 72.9125 52.512C71.6282 52.512 70.5897 53.597 70.5897 55.2151C70.5897 56.8332 71.6375 57.932 72.9125 57.932C74.1875 57.932 75.24 56.8796 75.24 55.2151ZM52.6049 57.0326C52.6049 55.6463 51.6545 54.6031 50.4722 54.6031C49.2899 54.6031 48.3441 55.6509 48.3441 57.0326C48.3441 58.4142 49.2992 59.4667 50.4722 59.4667C51.6452 59.4667 52.6049 58.442 52.6049 57.0326ZM75.5831 61.5948C74.1226 61.5948 72.8012 62.5406 72.8012 64.1124C72.8012 65.6841 74.1226 66.6253 75.5831 66.6253C77.0436 66.6253 78.3649 65.6702 78.3649 64.1124C78.3649 62.5545 77.0528 61.5948 75.5831 61.5948ZM92.7147 52.9015V47.6484H88.6671V45.5991H82.7464V47.6484H57.9183V45.5991H51.9976V47.6484H36.4145V52.9015H41.102C37.8518 54.3202 35.7515 57.422 35.7515 61.9518C35.7515 68.0302 41.4682 71.4936 46.0722 71.4936H63.2641V69.6483H68.1277V71.4936H92.7101V66.2405H88.6625V52.9061H92.7101L92.7147 52.9015ZM48.1215 51.0469H52.8321V52.4332H48.1215V51.0469ZM46.0861 57.0326C46.0861 55.9662 46.712 55.0203 47.7181 54.3991H46.049V53.0081H54.9V54.3991H53.2309C54.2323 55.0157 54.8582 55.9615 54.8582 57.0326C54.8582 58.8871 52.9712 60.3986 50.4722 60.3986C47.9732 60.3986 46.0861 58.8918 46.0861 57.0326ZM58.929 67.5016L50.6762 67.4923C48.9746 67.4923 47.9268 66.5094 47.9268 64.8959V61.6829H50.5417V66.1107H58.929V67.5016ZM60.7326 56.4669H58.7714V62.3644H56.3651V51.0469H58.7714V55.0806H60.7326V56.4669ZM68.1323 55.2151C68.1323 53.0638 70.1956 51.3158 72.9079 51.3158C75.6202 51.3158 77.6927 53.0638 77.6927 55.2151C77.6927 57.3664 75.6341 59.1189 72.9079 59.1189C70.1816 59.1189 68.1323 57.3756 68.1323 55.2151ZM82.8159 54.4732H80.7759V56.4669H82.8159V57.8532H80.7759V64.1124H80.7713C80.7527 66.2312 78.4669 67.9606 75.5877 67.9606C72.7085 67.9606 70.4227 66.2312 70.4042 64.1124C70.4227 61.9889 72.7085 60.2641 75.5877 60.2641C76.6124 60.2641 77.5675 60.4821 78.3696 60.8669V51.0469H80.7805V53.0823H82.8206V54.4732H82.8159Z" fill="#004483"/>
<path d="M64.6411 3.53757C31.0362 3.40775 3.67667 30.5448 3.54221 64.1589C3.41239 97.773 30.5541 125.123 64.1589 125.258C97.7684 125.392 125.123 98.2552 125.253 64.6411C125.388 31.027 98.2459 3.67203 64.6364 3.53757M120.612 56.022L115.915 57.8765V57.909L120.909 58.4514L121.076 60.5657L114.353 58.9939L110.245 59.5085L109.976 57.45L114.014 56.9492L120.246 53.8289L120.612 56.022ZM115.781 73.4503C115.762 75.1055 114.705 76.4361 114.705 76.4361C114.705 76.4361 113.671 75.0869 113.69 73.4317C113.713 71.7765 114.77 70.4459 114.77 70.4459C114.77 70.4459 115.799 71.8044 115.781 73.4549M112.855 82.19C112.855 82.19 111.103 80.4745 110.523 77.9801C109.948 75.4903 110.625 73.7517 110.625 73.7517C110.625 73.7517 112.415 75.124 112.99 77.6231C113.574 80.1082 112.855 82.19 112.855 82.19ZM109.22 89.5341C109.22 89.5341 107.788 87.5311 107.653 84.9811C107.519 82.4264 108.483 80.8361 108.483 80.8361C108.483 80.8361 110.013 82.496 110.143 85.0506C110.282 87.6099 109.22 89.5387 109.22 89.5387M119.638 50.9543L117.807 51.5153L117.316 49.6886L108.882 52.2804L108.275 50.3052L116.713 47.7135L116.115 45.9284L117.941 45.3721L119.643 50.9497L119.638 50.9543ZM116.453 41.6815L106.768 46.1974L105.901 44.3196L115.586 39.8084L116.453 41.6815ZM64.2331 106.874C40.782 106.782 21.8376 87.6888 21.9303 64.2331C22.023 40.7774 41.1158 21.8376 64.5715 21.9303C88.0226 22.023 106.958 41.1158 106.865 64.5715C106.777 88.0226 87.6841 106.967 64.2331 106.874ZM95.886 103.638C94.8752 106.04 93.0578 107.347 93.0578 107.347C93.0578 107.347 92.6266 104.881 93.628 102.47C94.6295 100.073 96.2152 99.0341 96.2152 99.0341C96.2152 99.0341 96.8874 101.241 95.886 103.643M89.5109 107.732C87.9994 109.856 85.9223 110.709 85.9223 110.709C85.9223 110.709 86.0614 108.205 87.5775 106.091C89.0936 103.977 90.8786 103.327 90.8786 103.327C90.8786 103.327 91.0363 105.622 89.5109 107.732ZM43.2625 110.713C43.2625 110.713 41.1854 109.86 39.6693 107.737C38.1485 105.627 38.3062 103.332 38.3062 103.332C38.3062 103.332 40.0912 103.981 41.6073 106.095C43.128 108.21 43.2625 110.713 43.2625 110.713ZM36.127 107.343C36.127 107.343 34.3096 106.035 33.2988 103.633C32.2973 101.232 32.9696 99.0248 32.9696 99.0248C32.9696 99.0248 34.5599 100.068 35.5614 102.46C36.5629 104.871 36.127 107.338 36.127 107.338M108.247 33.4055C109.684 32.4828 111.488 32.6683 112.698 34.5367C113.069 35.1209 113.273 35.7839 113.282 36.1502L111.608 36.8318C111.608 36.484 111.501 36.0018 111.177 35.4965C110.699 34.7546 110.018 34.6851 109.54 34.9957C109.012 35.3342 108.9 35.7839 108.942 37.1285C108.984 38.7698 108.367 39.7852 107.421 40.3925C105.789 41.4404 103.935 40.9304 102.808 39.1778C102.349 38.4638 102.08 37.6385 102.066 37.2398L103.731 36.5258C103.759 37.008 104.009 37.7127 104.334 38.2134C104.862 39.0387 105.544 39.1685 106.128 38.7883C106.777 38.3664 106.837 37.7637 106.842 36.6973C106.8 34.9957 107.44 33.9247 108.251 33.4055M105.91 25.6302C106.68 26.4601 107.208 27.341 107.222 28.2822C107.241 29.1446 106.846 29.7751 106.174 30.3964C105.34 31.1707 104.213 31.4628 103.105 31.0131L103.082 31.0316C103.369 31.7595 103.119 32.4874 102.423 33.4101C101.695 34.3652 100.875 35.6124 100.722 36.0158L99.303 34.2864C99.4375 33.9943 100.059 33.0902 100.81 32.1768C101.649 31.129 101.7 30.6329 101.227 30.1229L101.023 29.9049L97.9167 32.7934L96.4377 31.3376L104.31 24.0306C104.779 24.485 105.377 25.0506 105.91 25.6302ZM100.462 20.4791L99.3447 21.9488L97.3047 20.4142L95.8303 22.3661L97.7684 23.8312L96.7344 25.2036L94.7918 23.7385L93.0624 26.0289L95.2554 27.6841L94.1473 29.1678L90.3083 26.27L96.7715 17.6926L100.462 20.4744V20.4791ZM87.0536 12.2772L89.1307 13.2138L86.4833 21.2626L86.5111 21.2766L91.4396 14.4054L93.4008 15.5367L86.3674 23.8822L84.3227 22.8344L87.0489 12.2819L87.0536 12.2772ZM81.5872 10.2372L83.5484 10.9002L80.0943 21.0586L78.1377 20.391L81.5872 10.2372ZM70.738 7.92827L72.5833 8.16009L74.1226 15.8334H74.1504L75.1658 8.59128L76.9601 8.96683L75.1565 19.5564L73.3158 19.1716L71.8693 11.5076H71.8414L70.7473 18.7172L68.9344 18.504L70.7473 7.919L70.738 7.92827ZM61.4419 7.64545L61.6738 14.5815C61.7294 16.144 62.2209 16.5984 62.754 16.5845C63.3521 16.5659 63.7648 16.1208 63.7092 14.512L63.4634 7.58518L65.5405 7.59908L65.7631 14.0808C65.8558 16.807 64.8775 18.3231 62.8329 18.3927C60.6074 18.4715 59.6894 16.9693 59.5966 14.308L59.3741 7.80309L61.4419 7.64545ZM48.2049 9.8663C48.9746 9.6252 49.5912 9.58811 49.9575 9.63911L50.1522 11.4473C49.823 11.401 49.4243 11.4334 48.9236 11.5911C47.5883 12.0222 46.814 13.2787 47.6625 15.9261C48.4414 18.3602 49.67 18.9259 50.5881 18.6338C50.7689 18.5735 50.8941 18.5179 50.9636 18.4669L50.1754 16.0188L49.2759 16.3063L48.7567 14.6975L51.4783 13.8212L53.2123 19.2365C52.8367 19.5564 51.9651 20.034 51.2279 20.2704C50.0688 20.6414 49.0905 20.5904 48.1957 20.1314C47.0597 19.5703 46.1046 18.2165 45.5761 16.4639C44.4402 12.7687 46.0536 10.5618 48.2003 9.87094M35.7654 15.3141L39.2474 18.1887C39.9196 18.7543 41.0324 19.6863 41.7464 20.3539L41.7742 20.3446C41.1761 19.3942 40.1561 17.8456 39.2103 16.1348L38.0558 14.0437L39.6785 13.2184L44.9038 22.6304L43.2115 23.4557L39.7805 20.6738C39.0387 20.0572 37.9631 19.1206 37.2908 18.3927L37.263 18.4112C37.824 19.3293 38.6863 20.7248 39.7295 22.6026L40.9165 24.7446L39.3586 25.6997L34.1519 16.297L35.77 15.3187L35.7654 15.3141ZM28.8015 20.1267L37.4252 27.035L35.7932 28.2776L33.8274 26.6641L32.3669 27.8974L33.6141 30.1136L32.1304 31.5045L26.9098 21.7216L28.7968 20.1221L28.8015 20.1267ZM20.4188 28.4306L22.89 29.5479C23.5345 29.8447 24.2624 30.2017 24.9671 30.5911L24.9857 30.568C24.485 29.9699 24.0028 29.3347 23.5484 28.6995L22.0184 26.5667L23.4603 25.0089L26.8495 30.9852L30.0394 33.6975L28.6948 35.2693L25.5699 32.608L19.0511 30.1368L20.4142 28.4259L20.4188 28.4306ZM14.5166 37.1749L22.3151 38.4082L22.3337 38.3803L15.838 34.9123L16.807 33.3637L26.1448 38.6956L25.1109 40.2998L17.5581 39.1129L17.47 39.0712L23.8173 42.5578L22.9967 44.1898L13.6496 38.8347L14.5213 37.1749H14.5166ZM11.0347 44.8945L21.972 46.3735L21.2487 48.2606L18.8007 47.9128L18.1887 49.7257L20.34 50.9497L19.7744 52.9155L10.2558 47.1756L11.0347 44.8992V44.8945ZM21.5362 84.9811C21.3971 87.5311 19.9691 89.5341 19.9691 89.5341C19.9691 89.5341 18.9073 87.6099 19.0372 85.046C19.1763 82.496 20.7063 80.8315 20.7063 80.8315C20.7063 80.8315 21.666 82.4218 21.5362 84.9764M7.97464 57.909L12.2772 58.47L12.5601 56.328L8.225 55.7669L8.60519 53.7176L19.2551 55.1132L18.8749 57.1625L14.461 56.5783L14.1782 58.7204L18.5874 59.3045L18.4251 61.3538L7.77064 59.9583L7.97 57.909H7.97464ZM18.6662 77.9754C18.0867 80.4698 16.3295 82.1853 16.3295 82.1853C16.3295 82.1853 15.6155 80.1036 16.195 77.6184C16.7699 75.124 18.5642 73.747 18.5642 73.747C18.5642 73.747 19.2412 75.4857 18.6662 77.9754ZM15.5042 73.4271C15.5181 75.0823 14.4842 76.4315 14.4842 76.4315C14.4842 76.4315 13.4271 75.1055 13.4039 73.4457C13.3854 71.7951 14.4193 70.4366 14.4193 70.4366C14.4193 70.4366 15.481 71.7719 15.5042 73.4225M8.44292 74.6001C8.44292 74.6001 11.1506 75.0777 13.1443 77.3356C15.1379 79.5936 15.5506 82.4913 15.5506 82.4913C15.5506 82.4913 12.727 81.7309 10.7333 79.473C8.73501 77.2151 8.44292 74.6001 8.44292 74.6001ZM10.877 83.4928C10.877 83.4928 13.6311 83.4928 15.991 85.3659C18.3463 87.2483 19.2551 90.0302 19.2551 90.0302C19.2551 90.0302 16.3388 89.7659 13.9788 87.8835C11.6235 86.0057 10.877 83.4882 10.877 83.4882M24.8651 99.0016C24.6333 100.601 23.5948 102.382 22.6536 102.243C21.7031 102.108 21.207 100.105 21.4296 98.5056C21.5501 97.7359 21.819 97.0683 22.1807 96.5907C21.6243 96.804 20.901 96.8782 20.136 96.7715C18.5318 96.5443 16.7468 95.4965 16.8859 94.5507C17.0249 93.6095 19.0279 93.1134 20.6275 93.3452C21.3971 93.4565 22.0694 93.73 22.5377 94.087C22.329 93.5307 22.2502 92.8074 22.3615 92.0424C22.5933 90.4382 23.6319 88.6531 24.5777 88.7922C25.5235 88.9313 26.0243 90.9343 25.7924 92.5338C25.6812 93.3035 25.4076 93.9711 25.0413 94.444C25.6023 94.2308 26.321 94.1566 27.0906 94.2725C28.6902 94.495 30.4752 95.5382 30.3454 96.4841C30.2063 97.4299 28.2034 97.9306 26.5945 97.6942C25.8295 97.5875 25.1572 97.314 24.6843 96.9477C24.8976 97.5087 24.9718 98.232 24.8605 99.0016M30.0626 108.312C27.2854 107.672 25.6255 105.84 25.6255 105.84C25.6255 105.84 27.9669 104.714 30.7349 105.344C33.5075 105.984 35.4177 107.978 35.4177 107.978C35.4177 107.978 32.8259 108.942 30.0626 108.312ZM37.8471 113.055C35.1348 113.064 33.1968 111.715 33.1968 111.715C33.1968 111.715 35.1256 110.166 37.8332 110.162C40.5456 110.148 42.7479 111.59 42.7479 111.59C42.7479 111.59 40.5502 113.045 37.8425 113.055M52.6003 114.042C51.9233 114.376 51.2325 114.529 50.6391 114.501C51.1212 114.835 51.5849 115.373 51.9141 116.05C52.6188 117.473 52.7672 119.485 51.928 119.893C51.0888 120.315 49.5773 118.966 48.8772 117.552C48.5388 116.866 48.395 116.17 48.4182 115.591C48.0844 116.068 47.5466 116.532 46.8604 116.866C45.4416 117.566 43.4294 117.71 43.0121 116.87C42.5995 116.036 43.9394 114.524 45.3628 113.82C46.0444 113.481 46.7352 113.342 47.324 113.365C46.8418 113.027 46.3875 112.494 46.0444 111.812C45.3489 110.393 45.2005 108.377 46.0397 107.964C46.8789 107.547 48.3858 108.891 49.0905 110.315C49.4243 110.991 49.5727 111.687 49.5449 112.266C49.8787 111.794 50.4119 111.325 51.0981 110.991C52.5214 110.291 54.5337 110.143 54.9509 110.982C55.3636 111.826 54.019 113.333 52.5956 114.033M64.4046 118.892C63.2131 118.892 62.2487 117.928 62.2487 116.736C62.2487 115.544 63.2131 114.589 64.4046 114.589C65.5962 114.589 66.5559 115.554 66.5559 116.736C66.5559 117.918 65.5915 118.892 64.4046 118.892ZM86.1634 116.875C85.7507 117.714 83.7293 117.566 82.3198 116.87C81.6382 116.537 81.0958 116.073 80.7619 115.595C80.7898 116.18 80.6368 116.87 80.2983 117.557C79.6028 118.971 78.0914 120.32 77.2568 119.898C76.413 119.49 76.566 117.478 77.2661 116.054C77.5999 115.378 78.0589 114.84 78.5365 114.506C77.9476 114.534 77.2614 114.381 76.5752 114.047C75.1519 113.351 73.8073 111.84 74.2246 110.996C74.6326 110.157 76.6494 110.305 78.0728 111.005C78.7544 111.339 79.2922 111.807 79.626 112.28C79.5936 111.696 79.7466 111.005 80.0804 110.328C80.7805 108.905 82.2873 107.56 83.1265 107.978C83.9657 108.39 83.8173 110.407 83.1172 111.826C82.7788 112.508 82.3244 113.041 81.8422 113.379C82.4264 113.356 83.1219 113.495 83.7988 113.834C85.2222 114.538 86.5667 116.045 86.1495 116.884M91.3423 113.055C88.6392 113.05 86.4416 111.59 86.4416 111.59C86.4416 111.59 88.6439 110.148 91.3562 110.162C94.0685 110.162 95.9972 111.715 95.9972 111.715C95.9972 111.715 94.0546 113.064 91.3423 113.055ZM99.1268 108.312C96.3589 108.942 93.7718 107.978 93.7718 107.978C93.7718 107.978 95.682 105.979 98.4546 105.344C101.218 104.714 103.564 105.84 103.564 105.84C103.564 105.84 101.904 107.676 99.1268 108.312ZM109.044 96.7669C108.284 96.8782 107.56 96.804 107.004 96.5861C107.366 97.0683 107.644 97.7359 107.755 98.5009C107.987 100.1 107.486 102.103 106.545 102.238C105.595 102.377 104.556 100.597 104.329 98.997C104.218 98.2274 104.292 97.5087 104.505 96.9431C104.028 97.3047 103.355 97.5829 102.59 97.6895C100.986 97.926 98.9831 97.4253 98.8486 96.4794C98.7142 95.5336 100.495 94.495 102.103 94.2679C102.868 94.1519 103.592 94.2261 104.148 94.4394C103.782 93.9665 103.508 93.2942 103.397 92.5292C103.165 90.9296 103.661 88.922 104.612 88.7876C105.558 88.6531 106.591 90.4335 106.828 92.0377C106.939 92.8027 106.856 93.526 106.652 94.0824C107.125 93.7208 107.792 93.4472 108.562 93.3406C110.162 93.1087 112.169 93.6048 112.304 94.546C112.443 95.4919 110.658 96.5351 109.049 96.7669M115.201 87.8835C112.846 89.7612 109.93 90.0302 109.93 90.0302C109.93 90.0302 110.838 87.2483 113.198 85.3659C115.563 83.4928 118.312 83.4928 118.312 83.4928C118.312 83.4928 117.571 86.0104 115.206 87.8881M118.456 79.473C116.458 81.7309 113.63 82.4913 113.63 82.4913C113.63 82.4913 114.042 79.5982 116.036 77.3356C118.039 75.0777 120.746 74.6001 120.746 74.6001C120.746 74.6001 120.45 77.2151 118.456 79.473ZM48.2281 112.396C47.3843 112.814 47.0319 113.843 47.4446 114.691C47.8711 115.54 48.9004 115.883 49.7489 115.461C50.5973 115.048 50.9451 114.014 50.5278 113.175C50.1105 112.322 49.0859 111.974 48.2281 112.392M25.3473 95.7654C25.4818 94.8103 24.8188 93.9248 23.8683 93.781C22.9132 93.6466 22.0184 94.3096 21.8886 95.2693C21.7448 96.2244 22.4078 97.1146 23.3676 97.2537C24.3227 97.3882 25.2129 96.7252 25.3473 95.7654ZM12.6018 46.7491L12.5832 46.7908C13.2231 47.1246 14.2153 47.63 14.767 47.9314L16.7329 49.0117L17.215 47.579L14.9942 47.1942C14.3497 47.0922 13.3019 46.8882 12.5972 46.7491M80.9567 112.396C80.1036 111.979 79.0789 112.327 78.657 113.18C78.2397 114.024 78.5921 115.058 79.4406 115.466C80.2844 115.888 81.3137 115.544 81.7356 114.696C82.1529 113.843 81.8005 112.818 80.952 112.401M30.9389 24.0862C30.4381 23.6597 29.6453 22.9503 29.1168 22.4635L29.0797 22.4959C29.4506 23.1079 30.044 24.0538 30.3593 24.5962L31.486 26.5389L32.6404 25.5606L30.9389 24.0862ZM105.321 93.781C104.371 93.9248 103.703 94.8103 103.842 95.7654C103.981 96.7252 104.862 97.3882 105.822 97.2537C106.782 97.1146 107.445 96.2244 107.305 95.2693C107.171 94.3096 106.281 93.6466 105.326 93.781M104.616 29.0008C105.275 28.3888 105.502 27.6841 104.89 26.9794C104.769 26.8495 104.621 26.7104 104.514 26.6594L102.182 28.8247L102.433 29.0889C103.045 29.7473 103.926 29.636 104.612 29.0008" fill="#004483"/>
<path d="M55.8968 88.6763L56.0683 88.7736C56.0683 88.8293 56.0776 88.8849 56.0915 88.9637C56.1008 89.0379 56.1286 89.1075 56.1657 89.1585C56.2631 89.2976 56.3929 89.4181 56.5552 89.5155C56.7221 89.6175 56.8936 89.7009 57.0837 89.7612C57.2692 89.8261 57.4639 89.8771 57.6494 89.9003C57.8395 89.9281 58.0203 89.942 58.1733 89.942C59.6708 89.942 60.4729 89.0935 60.5749 87.4105C60.1669 87.6377 59.7589 87.8278 59.3602 87.9901C58.9522 88.1524 58.5303 88.2312 58.0852 88.2312C57.7375 88.2312 57.3805 88.1802 57.0142 88.0874C56.6479 87.9901 56.3187 87.8417 56.0266 87.6377C55.7299 87.4337 55.4888 87.1694 55.3033 86.8495C55.1179 86.5296 55.0205 86.1448 55.0205 85.6904C55.0205 85.1479 55.1271 84.6797 55.3497 84.2948C55.5583 83.91 55.8458 83.5901 56.1935 83.3397C56.5413 83.0894 56.9307 82.9086 57.3573 82.788C57.7885 82.6675 58.2104 82.6118 58.6369 82.6118C59.1655 82.6118 59.6523 82.7092 60.0928 82.9086C60.5286 83.1033 60.9134 83.3861 61.2287 83.7431C61.544 84.1001 61.7943 84.5267 61.9612 85.0181C62.1374 85.5096 62.2255 86.052 62.2255 86.6409C62.2255 87.341 62.1235 87.9669 61.9288 88.5233C61.7341 89.0843 61.4512 89.5665 61.0896 89.9698C60.7187 90.3732 60.2921 90.6746 59.7821 90.8878C59.2768 91.0918 58.7065 91.1985 58.0852 91.1985C57.654 91.1985 57.2785 91.1614 56.9817 91.0965C56.6757 91.0223 56.4207 90.9435 56.2213 90.8368C56.0173 90.7395 55.8551 90.6514 55.7299 90.5679C55.6047 90.4891 55.4981 90.4474 55.4239 90.4474C55.3219 90.4474 55.2245 90.4845 55.155 90.5447L55.0391 90.4288L55.9061 88.667L55.8968 88.6763ZM57.8255 84.0769C57.603 84.1233 57.4083 84.2021 57.2321 84.318C57.0605 84.4247 56.9214 84.5777 56.8194 84.7631C56.7174 84.9486 56.6664 85.1804 56.6664 85.4586C56.6664 85.7368 56.7174 85.9686 56.8194 86.1541C56.9214 86.3395 57.0605 86.4879 57.2321 86.5991C57.4083 86.7058 57.603 86.7892 57.8255 86.8356C58.0481 86.882 58.2753 86.9052 58.5071 86.9052C58.7389 86.9052 58.9568 86.882 59.184 86.8356C59.4066 86.7846 59.6013 86.7058 59.7775 86.5991C59.9537 86.4832 60.0928 86.3395 60.1948 86.1541C60.2921 85.964 60.3385 85.7368 60.3385 85.4586C60.3385 85.1804 60.2921 84.9486 60.1948 84.7631C60.0928 84.5777 59.9537 84.4247 59.7775 84.318C59.6059 84.2068 59.4066 84.1233 59.184 84.0769C58.9568 84.0306 58.7389 84.0027 58.5071 84.0027C58.2753 84.0027 58.0481 84.0306 57.8255 84.0769Z" fill="#004483"/>
<path d="M71.5633 88.6763L71.7348 88.7736C71.7348 88.8293 71.7441 88.8849 71.7627 88.9637C71.7719 89.0379 71.7998 89.1075 71.8368 89.1585C71.9389 89.2976 72.064 89.4181 72.2309 89.5155C72.3932 89.6175 72.5694 89.7009 72.7549 89.7612C72.9403 89.8261 73.135 89.8771 73.3251 89.9003C73.5152 89.9281 73.6914 89.942 73.8444 89.942C75.3466 89.942 76.1441 89.0935 76.2461 87.4105C75.8427 87.6377 75.4347 87.8278 75.0313 87.9901C74.628 88.1524 74.1968 88.2312 73.7563 88.2312C73.4086 88.2312 73.0516 88.1802 72.6853 88.0874C72.319 87.9901 71.9852 87.8417 71.6931 87.6377C71.401 87.4337 71.1599 87.1694 70.9698 86.8495C70.7844 86.5296 70.6917 86.1448 70.6917 85.6904C70.6917 85.1479 70.8029 84.6797 71.0208 84.2948C71.2341 83.91 71.5169 83.5901 71.8647 83.3397C72.2124 83.0894 72.6019 82.9086 73.0284 82.788C73.455 82.6675 73.8861 82.6118 74.3034 82.6118C74.832 82.6118 75.3188 82.7092 75.7593 82.9086C76.1997 83.1033 76.5846 83.3861 76.8952 83.7431C77.2105 84.1001 77.4562 84.5267 77.6324 85.0181C77.8039 85.5096 77.892 86.052 77.892 86.6409C77.892 87.341 77.7993 87.9669 77.5953 88.5233C77.4006 89.0843 77.1177 89.5665 76.7561 89.9698C76.3898 90.3732 75.9586 90.6746 75.4486 90.8878C74.9433 91.0918 74.3776 91.1985 73.7517 91.1985C73.3205 91.1985 72.9496 91.1614 72.6482 91.0965C72.3422 91.0223 72.0872 90.9435 71.8878 90.8368C71.6838 90.7395 71.5216 90.6514 71.401 90.5679C71.2712 90.4891 71.1738 90.4474 71.095 90.4474C70.993 90.4474 70.9003 90.4845 70.8215 90.5447L70.7102 90.4288L71.5772 88.667L71.5633 88.6763ZM73.4921 84.0769C73.2695 84.1233 73.0701 84.2021 72.894 84.318C72.727 84.4247 72.5833 84.5777 72.4813 84.7631C72.3839 84.9486 72.3283 85.1804 72.3283 85.4586C72.3283 85.7368 72.3839 85.9686 72.4813 86.1541C72.5833 86.3395 72.727 86.4879 72.894 86.5991C73.0701 86.7058 73.2649 86.7892 73.4921 86.8356C73.7146 86.882 73.9371 86.9052 74.1736 86.9052C74.4101 86.9052 74.6233 86.882 74.8505 86.8356C75.0731 86.7846 75.2724 86.7058 75.4486 86.5991C75.6202 86.4832 75.7546 86.3395 75.8613 86.1541C75.9586 85.964 76.0096 85.7368 76.0096 85.4586C76.0096 85.1804 75.9586 84.9486 75.8613 84.7631C75.7546 84.5777 75.6202 84.4247 75.4486 84.318C75.2724 84.2068 75.0731 84.1233 74.8505 84.0769C74.628 84.0306 74.4054 84.0027 74.1736 84.0027C73.9418 84.0027 73.7146 84.0306 73.4921 84.0769Z" fill="#004483"/>
<path d="M62.8282 83.8778L62.9998 83.7341C63.074 83.7851 63.1574 83.8083 63.2409 83.8083C63.2965 83.8083 63.3753 83.748 63.5098 83.6228C63.6396 83.4976 63.8297 83.3678 64.0801 83.2148C64.3305 83.0572 64.6457 82.9273 65.0398 82.8068C65.4293 82.6816 65.9068 82.6167 66.4632 82.6167C66.8388 82.6167 67.2143 82.6538 67.5945 82.7372C67.9747 82.8253 68.3178 82.9598 68.6238 83.1545C68.9344 83.34 69.1941 83.5764 69.3888 83.8732C69.5882 84.1653 69.6809 84.5223 69.6809 84.9349C69.6809 85.3244 69.5835 85.6767 69.3795 86.0013C69.1755 86.3305 68.902 86.5345 68.5542 86.6226V86.655C68.9622 86.757 69.3007 86.9703 69.565 87.2902C69.8292 87.6055 69.9637 88.0042 69.9637 88.4864C69.9637 89.0289 69.8385 89.4832 69.5974 89.8356C69.3517 90.1926 69.0411 90.4708 68.6841 90.6794C68.3178 90.8927 67.9144 91.0272 67.4832 91.0921C67.052 91.1663 66.6394 91.1987 66.2546 91.1987C65.8187 91.1987 65.4154 91.1524 65.0398 91.0596C64.6596 90.9715 64.3305 90.8603 64.043 90.7444C63.7555 90.6238 63.5144 90.5125 63.329 90.4059C63.1389 90.3085 63.0044 90.2575 62.9302 90.2575C62.8839 90.2575 62.8422 90.2668 62.8051 90.2946C62.7726 90.3132 62.7402 90.3364 62.6984 90.3503L62.5686 90.3085L63.4078 88.0042L63.5654 88.0923C63.5562 88.1201 63.5469 88.1526 63.5469 88.2082V88.3195C63.5469 88.5652 63.6535 88.7878 63.8668 88.9779C64.0801 89.1772 64.3258 89.3395 64.6225 89.4693C64.9193 89.6038 65.2299 89.7058 65.5452 89.78C65.8744 89.8449 66.1433 89.882 66.3612 89.882C66.5328 89.882 66.7414 89.8634 66.9779 89.8217C67.2097 89.7846 67.4369 89.7151 67.6362 89.6177C67.8402 89.5203 68.0164 89.3905 68.1601 89.2282C68.3039 89.0567 68.378 88.8388 68.378 88.5699C68.378 88.301 68.3085 88.1016 68.174 87.9532C68.035 87.791 67.868 87.675 67.664 87.587C67.4647 87.5035 67.2514 87.4479 67.0242 87.42C66.8017 87.3922 66.6069 87.3783 66.4447 87.3783C66.2082 87.3783 66.0135 87.4015 65.8419 87.4525C65.675 87.4989 65.5591 87.6194 65.5035 87.8141H65.3319V85.6304H65.5035C65.522 85.8437 65.6286 85.9874 65.8095 86.0523C65.9996 86.1265 66.2082 86.1589 66.44 86.1589C66.593 86.1589 66.7738 86.145 66.9732 86.1126C67.1726 86.0801 67.3627 86.0245 67.5389 85.941C67.715 85.8529 67.8634 85.7324 67.9886 85.5887C68.1138 85.4403 68.1787 85.2502 68.1787 85.0276C68.1787 84.8051 68.123 84.6428 68.0118 84.5084C67.9051 84.3739 67.7614 84.2719 67.5852 84.1977C67.4044 84.1235 67.2143 84.0679 66.9918 84.0447C66.7785 84.0215 66.5606 84.003 66.338 84.003C66.0784 84.003 65.8141 84.0354 65.5452 84.105C65.2763 84.1606 65.0305 84.2487 64.808 84.36C64.5901 84.462 64.4046 84.5872 64.2609 84.7124C64.1125 84.8422 64.043 84.972 64.043 85.0972C64.043 85.1482 64.0523 85.1946 64.0569 85.2502C64.0662 85.3151 64.0801 85.3707 64.0986 85.4217L63.9734 85.5191L62.8143 83.8778H62.8282Z" fill="#004483"/>
<path d="M51.6684 90.9715C51.7704 90.9715 51.8492 90.9437 51.9234 90.8788C51.9929 90.8232 52.0346 90.7026 52.0346 90.5172V85.1528C51.9605 85.1528 51.8863 85.1528 51.7982 85.1714C51.7055 85.176 51.6174 85.1946 51.5293 85.2224C51.4412 85.2502 51.3624 85.2873 51.2928 85.3383C51.2186 85.3846 51.1723 85.4542 51.1444 85.5377H50.9729V83.5162H51.1444C51.1444 83.6089 51.1862 83.6784 51.2743 83.7109C51.367 83.7526 51.4412 83.7712 51.52 83.7712C51.6823 83.7712 51.8214 83.7109 51.9326 83.5996C52.0486 83.493 52.0996 83.3539 52.0996 83.1916C52.0996 83.0432 52.0717 82.9459 52.0068 82.9088C51.9419 82.8624 51.8631 82.83 51.7518 82.8068V82.6167H54.0839V82.8068C53.9727 82.83 53.8753 82.8717 53.7965 82.9181C53.7223 82.9737 53.6852 83.0525 53.6852 83.1592V90.5172C53.6852 90.7026 53.7269 90.8232 53.7965 90.8788C53.8753 90.9437 53.9634 90.9715 54.0608 90.9715V91.1616H51.6776V90.9715H51.6684Z" fill="#004483"/>
</g>
<defs>
<clipPath id="clip0_241_64">
<rect width="128.8" height="128.8" fill="white"/>
</clipPath>
</defs>
</svg>
