<svg width="121" height="84" viewBox="0 0 121 84" fill="none" xmlns="http://www.w3.org/2000/svg">
<g clip-path="url(#clip0_97_914)">
<path d="M57.4913 16.387C57.4217 16.3174 57.352 16.2432 57.2778 16.1735C57.2082 16.1039 57.1386 16.0297 57.0643 15.9601C56.9947 15.8904 56.9251 15.8162 56.8508 15.7466C56.7812 15.677 56.7116 15.6027 56.6374 15.5331C56.5677 15.4635 56.4981 15.3892 56.4239 15.3196C56.3543 15.25 56.2846 15.1757 56.2104 15.1061C56.1408 15.0365 56.0712 14.9623 55.9969 14.8927C55.9273 14.823 55.8577 14.7488 55.7834 14.6792C55.7138 14.6096 55.6442 14.5353 55.57 14.4657C55.5003 14.3961 55.4307 14.3218 55.3565 14.2522C55.2869 14.1826 55.2172 14.1083 55.143 14.0387C55.0734 13.9691 55.0038 13.8949 54.9295 13.8253C54.8599 13.7556 54.7903 13.6814 54.716 13.6118C54.6464 13.5422 54.5768 13.4679 54.5025 13.3983C54.4329 13.3287 54.3633 13.2544 54.2891 13.1848C54.2195 13.1152 54.1498 13.0409 54.0756 12.9713C54.006 12.9017 53.9364 12.8275 53.8621 12.7578C53.7925 12.6882 53.7229 12.614 53.6486 12.5444C53.579 12.4748 53.5094 12.4005 53.4351 12.3309C53.3655 12.2613 53.2959 12.187 53.2217 12.1174C53.1521 12.0478 53.0824 11.9735 53.0082 11.9039C52.9386 11.8343 52.869 11.7601 52.7947 11.6904C52.7251 11.6208 52.6555 11.5466 52.5812 11.477C52.5116 11.4074 52.442 11.3331 52.3677 11.2635C52.2981 11.1939 52.2285 11.1196 52.1543 11.05C52.0846 10.9804 52.015 10.9061 51.9408 10.8365C51.8712 10.7669 51.8016 10.6927 51.7273 10.623C51.6577 10.5534 51.5881 10.4792 51.5138 10.4096C51.4442 10.3399 51.3746 10.2657 51.3003 10.1961C51.2307 10.1265 51.1611 10.0522 51.0869 9.9826C51.0172 9.91299 50.9476 9.83873 50.8734 9.76912C50.8038 9.6995 50.7341 9.62525 50.6599 9.55564C50.5903 9.48602 50.5207 9.41177 50.4464 9.34216C50.3768 9.27254 50.3072 9.19829 50.2329 9.12868C50.1633 9.05906 50.0937 8.98481 50.0195 8.9152C49.9498 8.84558 49.8802 8.77133 49.806 8.70172C49.7364 8.6321 49.6667 8.55785 49.5925 8.48824C49.5229 8.41862 49.4533 8.34437 49.379 8.27475C49.3094 8.20514 49.2398 8.13089 49.1655 8.06127C46.6827 5.56912 43.7775 3.62459 40.4871 2.28801C38.2038 1.02569 35.6234 0.389893 32.8157 0.389893C24.8148 0.389893 16.4705 5.64801 11.76 10.1497C11.7368 10.1729 11.7136 10.1914 11.695 10.2146C2.84951 19.4639 -1.53613 36.5795 1.34122 50.9755C2.72885 57.9183 5.68973 63.6637 9.92221 67.7941C9.99183 67.8637 10.0614 67.938 10.1357 68.0076C10.2053 68.0772 10.2749 68.1514 10.3492 68.2211C10.4188 68.2907 10.4884 68.3649 10.5627 68.4345C10.6323 68.5042 10.7019 68.5784 10.7761 68.648C10.8458 68.7176 10.9154 68.7919 10.9896 68.8615C11.0592 68.9311 11.1288 69.0054 11.2031 69.075C11.2727 69.1446 11.3423 69.2188 11.4166 69.2885C11.4862 69.3581 11.5558 69.4323 11.6301 69.5019C11.6997 69.5715 11.7693 69.6458 11.8435 69.7154C11.9132 69.785 11.9828 69.8593 12.057 69.9289C12.1266 69.9985 12.1962 70.0728 12.2705 70.1424C12.3401 70.212 12.4097 70.2862 12.484 70.3559C12.5536 70.4255 12.6232 70.4997 12.6975 70.5693C12.7671 70.639 12.8367 70.7132 12.9109 70.7828C12.9806 70.8524 13.0502 70.9267 13.1244 70.9963C13.194 71.0659 13.2637 71.1402 13.3379 71.2098C13.4075 71.2794 13.4771 71.3536 13.5514 71.4233C13.621 71.4929 13.6906 71.5671 13.7649 71.6367C13.8345 71.7064 13.9041 71.7806 13.9783 71.8502C14.048 71.9198 14.1176 71.9941 14.1918 72.0637C14.2614 72.1333 14.3311 72.2076 14.4053 72.2772C14.4749 72.3468 14.5445 72.4211 14.6188 72.4907C14.6884 72.5603 14.758 72.6345 14.8323 72.7041C14.9019 72.7738 14.9715 72.848 15.0458 72.9176C15.1154 72.9872 15.185 73.0615 15.2592 73.1311C15.3288 73.2007 15.3985 73.275 15.4727 73.3446C15.5423 73.4142 15.6119 73.4885 15.6862 73.5581C15.7558 73.6277 15.8254 73.7019 15.8997 73.7716C15.9693 73.8412 16.0389 73.9154 16.1132 73.985C16.1828 74.0546 16.2524 74.1289 16.3266 74.1985C16.3962 74.2681 16.4659 74.3424 16.5401 74.412C16.6097 74.4816 16.6793 74.5559 16.7536 74.6255C16.8232 74.6951 16.8928 74.7693 16.9671 74.839C17.0367 74.9086 17.1063 74.9828 17.1806 75.0524C17.2502 75.122 17.3198 75.1963 17.394 75.2659C17.4637 75.3355 17.5333 75.4098 17.6075 75.4794C17.6771 75.549 17.7467 75.6233 17.821 75.6929C17.8906 75.7625 17.9602 75.8367 18.0345 75.9064C18.1041 75.976 18.1737 76.0502 18.248 76.1198C20.4941 78.3614 23.1023 80.1435 26.0307 81.4058C29.9848 83.1044 33.8877 83.9629 37.6329 83.9629C44.933 83.9629 51.5834 80.719 56.8694 74.5744C61.4639 69.2374 64.8564 61.8074 66.4157 53.6487C68.1003 44.8728 67.5852 35.9298 64.9631 28.4719C63.2645 23.6454 60.7631 19.6032 57.5655 16.4566L57.4913 16.387Z" fill="#2F201C"/>
<path d="M13.5885 12.057C19.7006 6.21882 31.1589 -0.0602987 39.4614 4.65948C70.7039 17.1017 55.4818 86.4179 18.4939 70.5322C-2.26938 61.6171 -0.357337 26.4159 13.5885 12.057ZM27.9242 29.9152C24.4111 31.0011 20.6195 48.3163 29.5903 46.9936C34.5514 46.2604 35.7627 27.4926 27.9242 29.9152Z" fill="white"/>
<path d="M29.9662 72.5603C26.7222 72.5603 23.3112 71.7945 19.8398 70.2909C12.6557 67.1722 7.68066 60.2991 5.82895 50.9245C3.22077 37.7304 7.14696 22.1046 15.1664 13.7649C19.3432 9.73198 26.6804 5.02148 33.6093 5.02148C35.9204 5.02148 38.0228 5.55519 39.8606 6.61331C46.3439 9.22148 51.1565 14.6049 53.7925 22.1835C56.1593 28.9916 56.6188 37.1875 55.0873 45.2579C53.6672 52.7298 50.6181 59.5147 46.4924 64.3552C41.9211 69.7247 36.2035 72.5603 29.9662 72.5603ZM30.1147 30.6716C29.7017 30.6716 29.2608 30.7459 28.806 30.8851C26.5459 31.5905 24.4528 38.5565 25.1304 43.1046C25.446 45.2301 26.4716 47.7594 29.5392 47.7594C29.8316 47.7594 30.1425 47.7362 30.4581 47.6898C33.0849 47.2999 34.6674 41.7634 34.324 37.0807C34.0316 33.0663 32.4583 30.6716 30.1101 30.6716H30.1147Z" fill="#FF5906"/>
<path d="M29.1123 73.7345C25.5991 73.7345 21.9282 72.9316 18.1644 71.3119C10.3817 67.9705 4.9936 60.6286 3.00266 50.6461C0.227414 36.7513 4.42277 20.2761 12.9852 11.4677C12.9945 11.4584 12.9991 11.4538 13.0084 11.4445C20.1971 4.576 31.6462 -0.705322 39.8327 3.89379C49.0681 7.59722 55.0687 16.3221 56.7255 28.4766C58.8696 44.172 52.9803 61.2319 42.724 69.0379C38.6168 72.1612 34.0177 73.7345 29.1123 73.7345ZM14.1872 12.6604C5.99603 21.0976 1.98631 36.9323 4.65946 50.3119C6.53902 59.7329 11.5744 66.6385 18.8327 69.7572C27.2606 73.3771 35.1686 72.6624 41.6984 67.692C51.4999 60.2341 57.1154 43.8379 55.0455 28.7086C53.4676 17.1621 47.8243 8.90131 39.1459 5.44849C39.1087 5.43457 39.0763 5.416 39.0391 5.39744C31.1125 0.886502 19.8398 7.26308 14.1872 12.6604ZM28.6389 47.9126C25.989 47.9126 24.179 46.3022 23.4922 43.281C22.3412 38.2178 24.7684 30.0081 27.6736 29.1077C29.9291 28.4116 31.3863 29.2748 32.2124 30.1194C34.7881 32.7647 34.9459 39.1877 33.4794 43.5316C32.6208 46.0702 31.2842 47.597 29.7202 47.829C29.349 47.8847 28.987 47.9126 28.6435 47.9126H28.6389ZM29.2469 30.5464C28.9127 30.5464 28.56 30.6067 28.1748 30.7227C26.6433 31.1961 24.0584 38.1203 25.1443 42.9051C25.7198 45.4343 27.1306 46.4971 29.4696 46.1537C30.3468 46.0237 31.2471 44.8403 31.8736 42.9886C33.1498 39.2063 33.0478 33.4052 31.0011 31.2982C30.5092 30.7924 29.9291 30.5417 29.2469 30.5417V30.5464Z" fill="#FF5906"/>
<path d="M116.495 56.1037C116.426 56.0341 116.356 55.9598 116.282 55.8902C116.212 55.8206 116.143 55.7463 116.069 55.6767C115.999 55.6071 115.929 55.5329 115.855 55.4632C115.785 55.3936 115.716 55.324 115.642 55.2498C115.572 55.1802 115.502 55.1105 115.428 55.0363C115.358 54.9667 115.289 54.8924 115.215 54.8228C115.145 54.7532 115.075 54.6789 115.001 54.6093C114.932 54.5397 114.862 54.4655 114.788 54.3958C114.718 54.3262 114.648 54.2566 114.574 54.1824C114.505 54.1128 114.435 54.0385 114.361 53.9689C114.291 53.8993 114.221 53.825 114.147 53.7554C114.078 53.6858 114.008 53.6162 113.934 53.5419C113.864 53.4723 113.794 53.4027 113.72 53.3284C113.651 53.2588 113.581 53.1846 113.507 53.115C113.437 53.0453 113.368 52.9711 113.293 52.9015C113.224 52.8319 113.154 52.7576 113.08 52.688C113.01 52.6184 112.941 52.5441 112.866 52.4745C112.797 52.4049 112.727 52.3307 112.653 52.261C112.583 52.1914 112.514 52.1218 112.439 52.0476C112.37 51.9779 112.3 51.9083 112.226 51.8341C112.156 51.7645 112.087 51.6949 112.012 51.6206C111.943 51.551 111.873 51.4814 111.799 51.4071C111.729 51.3375 111.66 51.2632 111.585 51.1936C111.516 51.124 111.446 51.0498 111.372 50.9802C111.302 50.9105 111.233 50.8363 111.158 50.7667C111.093 50.7017 111.029 50.6321 110.959 50.5671C111.353 48.9753 111.878 47.3835 112.43 45.7267C113.368 42.9097 114.337 39.9952 114.695 36.8579C115.289 31.5905 114.727 25.6641 113.191 21C112.073 17.6122 110.481 14.9298 108.471 13.0084C108.402 12.9388 108.332 12.8646 108.258 12.795C108.188 12.7253 108.119 12.6511 108.044 12.5815C107.975 12.5119 107.905 12.4376 107.831 12.368C107.761 12.2984 107.692 12.2241 107.617 12.1545C107.548 12.0849 107.478 12.0106 107.404 11.941C107.334 11.8714 107.265 11.7972 107.191 11.7276C107.121 11.6579 107.051 11.5837 106.977 11.5141C106.907 11.4445 106.838 11.3702 106.764 11.3006C106.694 11.231 106.624 11.1567 106.55 11.0871C106.48 11.0175 106.411 10.9432 106.337 10.8736C106.267 10.804 106.197 10.7298 106.123 10.6602C106.053 10.5905 105.984 10.5163 105.91 10.4467C105.84 10.3771 105.77 10.3028 105.696 10.2332C105.627 10.1636 105.557 10.0893 105.483 10.0197C105.413 9.9501 105.343 9.87584 105.269 9.80623C105.2 9.73662 105.13 9.66236 105.056 9.59275C104.986 9.52314 104.916 9.44888 104.842 9.37927C104.773 9.30965 104.703 9.2354 104.629 9.16579C104.559 9.09617 104.49 9.02192 104.415 8.95231C104.346 8.88269 104.276 8.80844 104.202 8.73883C104.132 8.66921 104.063 8.59496 103.988 8.52535C103.919 8.45573 103.849 8.38148 103.775 8.31186C103.705 8.24225 103.636 8.168 103.561 8.09838C103.492 8.02877 103.422 7.95452 103.348 7.8849C103.278 7.81529 103.209 7.74104 103.134 7.67142C103.065 7.60181 102.995 7.52755 102.921 7.45794C102.851 7.38833 102.782 7.31407 102.707 7.24446C102.638 7.17485 102.568 7.10059 102.494 7.03098C102.424 6.96137 102.355 6.88711 102.28 6.8175C102.211 6.74789 102.141 6.67363 102.067 6.60402C101.997 6.53441 101.928 6.46015 101.853 6.39054C101.784 6.32093 101.714 6.24667 101.64 6.17706C101.57 6.10745 101.501 6.03319 101.427 5.96358C101.357 5.89396 101.287 5.81971 101.213 5.7501C101.143 5.68048 101.074 5.60623 101 5.53662C100.93 5.467 100.86 5.39275 100.786 5.32314C100.716 5.25352 100.647 5.17927 100.573 5.10965C100.503 5.04004 100.433 4.96579 100.359 4.89617C100.29 4.82656 100.22 4.75231 100.146 4.68269C98.1361 2.67319 95.695 1.44336 92.8734 1.05816C92.2886 0.979268 91.6621 0.9375 91.0031 0.9375C80.8488 0.9375 61.269 11.0639 59.1295 21.427C58.3591 25.1536 59.3059 28.9963 61.7284 31.9665C62.0672 32.3795 62.4245 32.7693 62.8051 33.136C62.8747 33.2056 62.9443 33.2798 63.0186 33.3494C63.0882 33.419 63.1578 33.4933 63.2321 33.5629C63.3017 33.6325 63.3713 33.7068 63.4455 33.7764C63.5152 33.846 63.5848 33.9203 63.659 33.9899C63.7286 34.0595 63.7982 34.1337 63.8725 34.2034C63.9421 34.273 64.0117 34.3472 64.086 34.4168C64.1556 34.4865 64.2252 34.5607 64.2995 34.6303C64.3691 34.6999 64.4387 34.7742 64.5129 34.8438C64.5825 34.9134 64.6522 34.9877 64.7264 35.0573C64.796 35.1269 64.8656 35.2011 64.9399 35.2708C65.0095 35.3404 65.0791 35.4146 65.1534 35.4842C65.223 35.5539 65.2926 35.6281 65.3669 35.6977C65.4365 35.7673 65.5061 35.8416 65.5803 35.9112C65.65 35.9808 65.7196 36.0551 65.7938 36.1247C65.8634 36.1943 65.933 36.2686 66.0073 36.3382C66.0769 36.4078 66.1465 36.482 66.2208 36.5516C66.2904 36.6213 66.36 36.6955 66.4343 36.7651C66.5039 36.8347 66.5735 36.909 66.6477 36.9786C66.7174 37.0482 66.787 37.1225 66.8612 37.1921C66.9308 37.2617 67.0005 37.336 67.0747 37.4056C67.1443 37.4752 67.2139 37.5494 67.2882 37.619C67.3578 37.6887 67.4274 37.7629 67.5017 37.8325C67.5713 37.9021 67.6409 37.9764 67.7151 38.046C67.7848 38.1156 67.8544 38.1899 67.9286 38.2595C67.9982 38.3291 68.0679 38.4034 68.1421 38.473C68.2117 38.5426 68.2813 38.6168 68.3556 38.6865C68.4252 38.7561 68.4948 38.8303 68.5691 38.8999C68.6387 38.9695 68.7083 39.0438 68.7826 39.1134C68.8522 39.183 68.9218 39.2573 68.996 39.3269C69.0656 39.3965 69.1353 39.4708 69.2095 39.5404C69.2791 39.61 69.3487 39.6842 69.423 39.7539C69.4926 39.8235 69.5622 39.8977 69.6365 39.9673C69.7061 40.037 69.7757 40.1112 69.85 40.1808C69.9196 40.2504 69.9892 40.3247 70.0634 40.3943C70.133 40.4639 70.2027 40.5382 70.2769 40.6078C70.3465 40.6774 70.4161 40.7516 70.4904 40.8213C70.56 40.8909 70.6296 40.9651 70.7039 41.0347C70.7735 41.1044 70.8431 41.1786 70.9174 41.2482C70.987 41.3178 71.0566 41.3921 71.1308 41.4617C71.5068 41.8423 71.9012 42.195 72.3143 42.5245C72.0915 43.3041 71.9198 44.1163 71.8316 44.9563C62.935 46.4414 59.8767 50.7435 58.916 54.2752C56.9437 59.8489 58.4844 63.8076 60.1273 66.1512C60.6053 66.8334 61.1669 67.4831 61.8027 68.0911C61.8723 68.1607 61.9419 68.235 62.0161 68.3046C62.0858 68.3742 62.1554 68.4484 62.2296 68.5181C62.2992 68.5877 62.3689 68.6619 62.4431 68.7315C62.5127 68.8011 62.5823 68.8754 62.6566 68.945C62.7262 69.0146 62.7958 69.0889 62.8701 69.1585C62.9397 69.2281 63.0093 69.3024 63.0835 69.372C63.1532 69.4416 63.2228 69.5158 63.297 69.5855C63.3666 69.6551 63.4363 69.7293 63.5105 69.7989C63.5801 69.8685 63.6497 69.9428 63.724 70.0124C63.7936 70.082 63.8632 70.1563 63.9375 70.2259C64.0071 70.2955 64.0767 70.3698 64.1509 70.4394C64.2206 70.509 64.2902 70.5833 64.3644 70.6529C64.434 70.7225 64.5037 70.7967 64.5779 70.8663C64.6475 70.936 64.7171 71.0102 64.7914 71.0798C64.861 71.1494 64.9306 71.2237 65.0049 71.2933C65.0745 71.3629 65.1441 71.4372 65.2184 71.5068C65.288 71.5764 65.3576 71.6506 65.4318 71.7203C65.5014 71.7899 65.5711 71.8641 65.6453 71.9337C65.7149 72.0034 65.7845 72.0776 65.8588 72.1472C65.9284 72.2168 65.998 72.2911 66.0723 72.3607C66.1419 72.4303 66.2115 72.5046 66.2858 72.5742C66.3554 72.6438 66.425 72.718 66.4992 72.7877C66.5688 72.8573 66.6385 72.9315 66.7127 73.0011C66.7823 73.0708 66.8519 73.145 66.9262 73.2146C66.9958 73.2842 67.0654 73.3585 67.1397 73.4281C67.2093 73.4977 67.2789 73.572 67.3532 73.6416C67.4228 73.7112 67.4924 73.7855 67.5666 73.8551C67.6363 73.9247 67.7059 73.9989 67.7801 74.0686C67.8497 74.1382 67.9193 74.2124 67.9936 74.282C68.0632 74.3516 68.1328 74.4259 68.2071 74.4955C68.2767 74.5651 68.3463 74.6394 68.4206 74.709C68.4902 74.7786 68.5598 74.8529 68.634 74.9225C68.7037 74.9921 68.7733 75.0663 68.8475 75.1359C68.9171 75.2056 68.9867 75.2798 69.061 75.3494C69.1306 75.419 69.2002 75.4933 69.2745 75.5629C69.3441 75.6325 69.4137 75.7068 69.488 75.7764C69.5576 75.846 69.6272 75.9203 69.7014 75.9899C69.7711 76.0595 69.8407 76.1337 69.9149 76.2034C69.9845 76.273 70.0542 76.3472 70.1284 76.4168C74.4723 80.7654 82.5521 83.3085 92.3582 83.3085C104.991 83.3085 119.062 78.8951 120.115 69.1678C120.779 62.2436 119.447 58.9578 116.523 56.1223L116.495 56.1037Z" fill="#2F201C"/>
<path d="M74.3887 47.235C73.8458 41.4618 78.5516 37.2942 79.5494 31.8737C76.686 31.8366 75.187 34.4308 72.1797 34.4401C65.6453 34.4633 60.3872 28.6065 61.7331 22.0675C63.6497 12.7718 83.8144 2.49226 92.646 3.69889C102.814 5.08651 104.675 19.9791 103.752 28.161C103.125 33.7115 100.308 38.7515 99.5284 44.2602C106.573 49.6854 110.059 50.3259 109.093 60.4476C107.339 76.6861 53.3284 77.4333 61.385 55.0828C62.8469 49.4673 69.2791 47.7594 74.3841 47.235H74.3887Z" fill="white"/>
<path d="M84.7565 71.9801C75.1359 71.9801 67.2232 69.1956 64.1045 64.7125C62.2992 62.1136 62.0254 58.9996 63.2877 55.4539C64.3876 51.189 68.5505 48.6597 75.665 47.9218L75.7856 47.9079L75.7764 47.7872C75.4747 44.5618 76.8391 41.9118 78.2824 39.1041C79.2849 37.1503 80.3244 35.1315 80.7282 32.9178L80.756 32.7739H80.5565C79.1828 32.7739 78.1154 33.4005 77.0804 34.0084C76.0362 34.621 74.9549 35.2568 73.5348 35.2615C70.4161 35.2615 67.5388 33.8831 65.5989 31.4791C63.7658 29.2051 63.0464 26.2628 63.6265 23.4133C64.4108 19.5706 68.5319 15.1711 74.9317 11.3423C80.7607 7.85703 87.3507 5.60156 91.7178 5.60156C92.2329 5.60156 92.7202 5.63405 93.1657 5.69438C102.629 6.99847 104.661 20.8608 103.719 29.2886C103.408 32.0639 102.522 34.7602 101.663 37.3638C100.86 39.7956 100.03 42.3156 99.6676 44.9006L99.6583 44.9702L99.714 45.0119C100.716 45.7916 101.663 46.4831 102.499 47.0957C107.399 50.6785 109.632 52.3121 108.847 60.6053C108.049 68.0725 96.122 71.9801 84.7518 71.9801H84.7565Z" fill="#FF5906"/>
<path d="M83.7587 73.1589C75.4376 73.1589 67.2186 71.168 62.8283 66.7405C59.7003 63.5801 58.9207 59.4636 60.5775 54.832C61.8027 50.2004 66.1465 47.3927 73.4977 46.4831C73.4466 43.2391 74.876 40.4871 76.259 37.8232C77.1269 36.1525 77.9529 34.5607 78.4449 32.8621C77.7302 33.0617 77.0805 33.4422 76.3611 33.8599C75.2148 34.5235 73.92 35.28 72.1797 35.2846H72.1379C68.6433 35.2846 65.3761 33.7392 63.1671 31.0382C61.0601 28.4625 60.234 25.1304 60.9023 21.8957C62.2157 15.5238 70.625 10.2007 74.1799 8.20508C81.0484 4.35314 88.3392 2.25546 92.7574 2.85878C103.301 4.29745 105.608 19.1993 104.587 28.2537C104.253 31.2192 103.311 34.0455 102.401 36.779C101.631 39.0902 100.837 41.4802 100.438 43.8888C101.324 44.5618 102.164 45.1697 102.916 45.7173C107.998 49.3976 110.801 51.421 109.929 60.5264C109.465 64.8424 105.613 68.467 99.0875 70.7503C94.6184 72.3142 89.1607 73.1589 83.7494 73.1589H83.7587ZM79.4937 31.0243C79.4937 31.0243 79.5401 31.0243 79.5633 31.0243C79.8139 31.0243 80.0506 31.1403 80.2084 31.3352C80.3662 31.5302 80.4312 31.7808 80.3848 32.0267C79.9439 34.4121 78.8394 36.5423 77.7673 38.6029C76.3147 41.4013 74.941 44.042 75.2334 47.156C75.2751 47.6201 74.941 48.0285 74.4769 48.0749C67.3949 48.7989 63.2692 51.2261 62.2111 55.2915C62.2064 55.3147 62.1971 55.3425 62.1879 55.3657C60.7306 59.408 61.3525 62.8329 64.0349 65.5432C70.6343 72.2075 87.6942 72.9454 98.5399 69.1492C104.415 67.0933 107.868 63.9699 108.258 60.35C109.038 52.2192 106.958 50.7156 101.937 47.0818C101.065 46.4506 100.076 45.7359 99.0226 44.9238C98.7812 44.7381 98.6606 44.4365 98.7023 44.1348C99.0875 41.4013 99.9647 38.7792 100.809 36.236C101.691 33.5861 102.605 30.8433 102.921 28.0588C103.872 19.6402 101.895 5.80574 92.5439 4.5295C83.7308 3.32287 64.3319 13.7045 62.573 22.2298C62.0022 25.0051 62.6798 27.7478 64.4897 29.9615C66.3739 32.2634 69.1631 33.5861 72.1472 33.5861H72.1843C73.4698 33.5861 74.463 33.0013 75.5165 32.3887C76.6767 31.7158 77.874 31.0197 79.4937 31.0197V31.0243Z" fill="#FF5906"/>
</g>
<defs>
<clipPath id="clip0_97_914">
<rect width="120.663" height="84" fill="white"/>
</clipPath>
</defs>
</svg>
