<svg width="120" height="87" viewBox="0 0 120 87" fill="none" xmlns="http://www.w3.org/2000/svg">
<g clip-path="url(#clip0_215_3178)">
<path d="M58.5527 17.0257C58.4813 16.9542 58.4098 16.8779 58.3335 16.8065C58.2621 16.735 58.1906 16.6588 58.1143 16.5873C58.0429 16.5158 57.9714 16.4396 57.8952 16.3681C57.8237 16.2966 57.7522 16.2204 57.676 16.1489C57.6045 16.0774 57.533 16.0012 57.4568 15.9297C57.3853 15.8582 57.3138 15.782 57.2376 15.7105C57.1661 15.639 57.0946 15.5628 57.0184 15.4913C56.9469 15.4198 56.8754 15.3436 56.7992 15.2721C56.7277 15.2007 56.6562 15.1244 56.58 15.0529C56.5085 14.9815 56.4371 14.9052 56.3608 14.8337C56.2893 14.7623 56.2179 14.686 56.1416 14.6146C56.0701 14.5431 55.9987 14.4668 55.9224 14.3954C55.851 14.3239 55.7795 14.2476 55.7032 14.1762C55.6318 14.1047 55.5603 14.0285 55.4841 13.957C55.4126 13.8855 55.3411 13.8093 55.2649 13.7378C55.1934 13.6663 55.1219 13.5901 55.0457 13.5186C54.9742 13.4471 54.9027 13.3709 54.8265 13.2994C54.755 13.2279 54.6835 13.1517 54.6073 13.0802C54.5358 13.0087 54.4643 12.9325 54.3881 12.861C54.3166 12.7895 54.2451 12.7133 54.1689 12.6418C54.0974 12.5704 54.026 12.4941 53.9497 12.4226C53.8782 12.3512 53.8068 12.2749 53.7305 12.2034C53.659 12.132 53.5876 12.0557 53.5113 11.9843C53.4399 11.9128 53.3684 11.8365 53.2921 11.7651C53.2207 11.6936 53.1492 11.6173 53.0729 11.5459C53.0015 11.4744 52.93 11.3982 52.8538 11.3267C52.7823 11.2552 52.7108 11.179 52.6346 11.1075C52.5631 11.036 52.4916 10.9598 52.4154 10.8883C52.3439 10.8168 52.2724 10.7406 52.1962 10.6691C52.1247 10.5976 52.0532 10.5214 51.977 10.4499C51.9055 10.3784 51.834 10.3022 51.7578 10.2307C51.6863 10.1592 51.6148 10.083 51.5386 10.0115C51.4671 9.94005 51.3956 9.86381 51.3194 9.79234C51.2479 9.72086 51.1765 9.64462 51.1002 9.57315C51.0287 9.50167 50.9573 9.42543 50.881 9.35395C50.8096 9.28248 50.7381 9.20624 50.6618 9.13476C50.5904 9.06329 50.5189 8.98705 50.4426 8.91557C50.3712 8.8441 50.2997 8.76785 50.2235 8.69638C50.152 8.6249 50.0805 8.54866 50.0043 8.47719C47.455 5.91836 44.4721 3.92181 41.0936 2.54949C38.7492 1.2534 36.0999 0.600586 33.217 0.600586C25.0021 0.600586 16.4346 5.99937 11.5981 10.6215C11.5743 10.6453 11.5504 10.6643 11.5314 10.6882C2.44922 20.1849 -2.05374 37.7536 0.900584 52.5347C2.32533 59.6632 5.36542 65.5623 9.71113 69.8032C9.78261 69.8747 9.85408 69.9509 9.93032 70.0224C10.0018 70.0938 10.0733 70.1701 10.1495 70.2416C10.221 70.313 10.2925 70.3893 10.3687 70.4608C10.4402 70.5322 10.5117 70.6085 10.5879 70.6799C10.6594 70.7514 10.7308 70.8277 10.8071 70.8991C10.8786 70.9706 10.95 71.0469 11.0263 71.1183C11.0978 71.1898 11.1692 71.2661 11.2455 71.3375C11.3169 71.409 11.3884 71.4852 11.4647 71.5567C11.5361 71.6282 11.6076 71.7044 11.6839 71.7759C11.7553 71.8474 11.8268 71.9236 11.903 71.9951C11.9745 72.0666 12.046 72.1428 12.1222 72.2143C12.1937 72.2858 12.2652 72.362 12.3414 72.4335C12.4129 72.505 12.4844 72.5812 12.5606 72.6527C12.6321 72.7242 12.7036 72.8004 12.7798 72.8719C12.8513 72.9433 12.9228 73.0196 12.999 73.0911C13.0705 73.1625 13.142 73.2388 13.2182 73.3102C13.2897 73.3817 13.3611 73.458 13.4374 73.5294C13.5089 73.6009 13.5803 73.6772 13.6566 73.7486C13.7281 73.8201 13.7995 73.8963 13.8758 73.9678C13.9472 74.0393 14.0187 74.1155 14.095 74.187C14.1664 74.2585 14.2379 74.3347 14.3142 74.4062C14.3856 74.4777 14.4571 74.5539 14.5333 74.6254C14.6048 74.6969 14.6763 74.7731 14.7525 74.8446C14.824 74.9161 14.8955 74.9923 14.9717 75.0638C15.0432 75.1353 15.1147 75.2115 15.1909 75.283C15.2624 75.3544 15.3339 75.4307 15.4101 75.5022C15.4816 75.5736 15.5531 75.6499 15.6293 75.7214C15.7008 75.7928 15.7723 75.8691 15.8485 75.9405C15.92 76.012 15.9914 76.0883 16.0677 76.1597C16.1392 76.2312 16.2106 76.3074 16.2869 76.3789C16.3584 76.4504 16.4298 76.5266 16.5061 76.5981C16.5775 76.6696 16.649 76.7458 16.7253 76.8173C16.7967 76.8888 16.8682 76.965 16.9445 77.0365C17.0159 77.108 17.0874 77.1842 17.1636 77.2557C17.2351 77.3272 17.3066 77.4034 17.3828 77.4749C17.4543 77.5464 17.5258 77.6226 17.602 77.6941C17.6735 77.7656 17.745 77.8418 17.8212 77.9133C17.8927 77.9847 17.9642 78.061 18.0404 78.1325C18.1119 78.2039 18.1834 78.2802 18.2596 78.3516C20.5659 80.6532 23.2438 82.4829 26.2506 83.779C30.3104 85.523 34.3178 86.4046 38.1632 86.4046C45.6585 86.4046 52.4868 83.0738 57.9142 76.7649C62.6316 71.2851 66.1148 63.6563 67.7159 55.2794C69.4456 46.2687 68.9167 37.0865 66.2244 29.429C64.4804 24.4734 61.9121 20.3231 58.629 17.0924L58.5527 17.0257Z" fill="#2F201C"/>
<path d="M13.4755 12.5751C19.7511 6.58541 31.5207 0.138315 40.0406 4.97959C72.1188 17.7546 56.4895 88.9252 18.5121 72.6145C-2.80661 63.4609 -0.843417 27.3181 13.4755 12.5751ZM28.1947 30.9157C24.5876 32.0307 20.6945 49.809 29.9053 48.451C34.9992 47.6981 36.2428 28.4283 28.1947 30.9157Z" fill="white"/>
<path d="M30.2913 74.6971C26.9606 74.6971 23.4583 73.9109 19.894 72.367C12.5177 69.1649 7.40963 62.1079 5.50838 52.4825C2.83043 38.9355 6.86165 22.8917 15.0956 14.3289C19.3842 10.1881 26.9177 5.35156 34.0319 5.35156C36.4049 5.35156 38.5634 5.89954 40.4504 6.98597C47.1071 9.66392 52.0485 15.1914 54.755 22.9727C57.1852 29.963 57.6569 38.378 56.0844 46.6644C54.6263 54.3361 51.4957 61.3026 47.2596 66.2725C42.566 71.7857 36.6955 74.6971 30.2913 74.6971ZM30.4438 31.6879C30.0197 31.6879 29.567 31.7642 29.1001 31.9071C26.7795 32.6314 24.6305 39.7837 25.3262 44.4534C25.6502 46.6358 26.7033 49.2328 29.8529 49.2328C30.1531 49.2328 30.4724 49.2089 30.7964 49.1613C33.4934 48.761 35.1183 43.0763 34.7657 38.2684C34.4655 34.1467 32.8501 31.6879 30.439 31.6879H30.4438Z" fill="#FF5906"/>
<path d="M29.4146 75.9026C25.8074 75.9026 22.0383 75.0783 18.1738 73.4153C10.1829 69.9844 4.65067 62.4461 2.60647 52.1966C-0.243022 37.9348 4.06457 21.0142 12.8561 11.9701C12.8656 11.9606 12.8704 11.9558 12.8799 11.9463C20.2609 4.89406 32.0163 -0.528551 40.4218 4.1936C49.9042 7.9961 56.0654 16.9544 57.7665 29.434C59.9679 45.5493 53.9211 63.0656 43.3904 71.0804C39.1733 74.2873 34.4512 75.9026 29.4146 75.9026ZM14.0902 13.1947C5.67992 21.8623 1.56293 38.1159 4.30759 51.8582C6.23742 61.5313 11.4075 68.6216 18.86 71.8237C27.5133 75.5405 35.6329 74.8066 42.3373 69.7033C52.4011 62.0459 58.1668 45.211 56.0416 29.677C54.4214 17.8216 48.6272 9.33984 39.7166 5.79465C39.6784 5.78035 39.6451 5.76129 39.607 5.74223C31.4635 1.11062 19.8845 7.66254 14.0807 13.1995L14.0902 13.1947ZM28.9285 49.3899C26.2077 49.3899 24.3493 47.7365 23.6441 44.6344C22.4624 39.4358 24.9545 31.0064 27.9374 30.082C30.2532 29.3673 31.7494 30.2536 32.5976 31.1208C35.2422 33.8369 35.4042 40.4317 33.8984 44.8918C33.0169 47.4982 31.6446 49.0659 30.0388 49.3042C29.6576 49.3614 29.2859 49.3899 28.9333 49.3899H28.9285ZM29.5527 31.564C29.2097 31.564 28.8475 31.6259 28.452 31.745C26.8796 32.2311 24.2254 39.3405 25.3404 44.2532C25.9313 46.8502 27.3799 47.9414 29.7815 47.5888C30.682 47.4553 31.6065 46.2403 32.2497 44.339C33.5601 40.4555 33.4553 34.4992 31.3539 32.3359C30.8488 31.8165 30.2532 31.5592 29.5527 31.5592V31.564Z" fill="#FF5906"/>
<path d="M115.99 58.314C115.919 58.2425 115.848 58.1663 115.771 58.0948C115.7 58.0233 115.628 57.9471 115.552 57.8756C115.481 57.8041 115.409 57.7279 115.333 57.6564C115.261 57.585 115.19 57.5087 115.114 57.4372C115.042 57.3658 114.971 57.2895 114.895 57.2181C114.823 57.1466 114.752 57.0703 114.675 56.9989C114.604 56.9274 114.532 56.8511 114.456 56.7797C114.385 56.7082 114.313 56.632 114.237 56.5605C114.165 56.489 114.094 56.4128 114.018 56.3413C113.946 56.2698 113.875 56.1936 113.799 56.1221C113.727 56.0506 113.656 55.9744 113.579 55.9029C113.508 55.8314 113.436 55.7552 113.36 55.6837C113.289 55.6122 113.217 55.536 113.141 55.4645C113.07 55.393 112.998 55.3168 112.922 55.2453C112.85 55.1739 112.779 55.0976 112.703 55.0261C112.631 54.9547 112.56 54.8784 112.483 54.8069C112.412 54.7355 112.34 54.6592 112.264 54.5877C112.193 54.5163 112.121 54.44 112.045 54.3686C111.974 54.2971 111.902 54.2208 111.826 54.1494C111.754 54.0779 111.683 54.0017 111.607 53.9302C111.535 53.8587 111.464 53.7825 111.387 53.711C111.316 53.6395 111.244 53.5633 111.168 53.4918C111.097 53.4203 111.025 53.3441 110.949 53.2726C110.878 53.2011 110.806 53.1249 110.73 53.0534C110.658 52.9819 110.587 52.9057 110.511 52.8342C110.439 52.7627 110.368 52.6865 110.291 52.615C110.22 52.5435 110.149 52.4673 110.072 52.3958C110.001 52.3244 109.929 52.2481 109.853 52.1766C109.782 52.1052 109.71 52.0289 109.634 51.9575C109.562 51.886 109.491 51.8097 109.415 51.7383C109.343 51.6668 109.272 51.5905 109.196 51.5191C109.129 51.4524 109.062 51.3856 108.995 51.3189C113.384 46.044 117.396 39.3206 117.977 31.9395C118.478 25.5735 116.343 19.7363 111.626 14.5996C111.578 14.5472 111.53 14.4995 111.478 14.4519C111.464 14.4423 111.454 14.4328 111.44 14.4185C111.43 14.4042 111.421 14.3947 111.407 14.3804C111.359 14.328 111.311 14.2803 111.259 14.2327C111.244 14.2231 111.235 14.2136 111.221 14.1993C111.211 14.185 111.202 14.1755 111.187 14.1612C111.14 14.1088 111.092 14.0611 111.04 14.0135C111.025 14.004 111.016 13.9944 111.001 13.9801C110.992 13.9658 110.982 13.9563 110.968 13.942C110.92 13.8896 110.873 13.8419 110.82 13.7943C110.806 13.7848 110.797 13.7752 110.782 13.7609C110.773 13.7466 110.763 13.7371 110.749 13.7228C110.701 13.6704 110.654 13.6227 110.601 13.5751C110.587 13.5656 110.577 13.556 110.563 13.5417C110.554 13.5274 110.544 13.5179 110.53 13.5036C110.482 13.4512 110.434 13.4036 110.382 13.3559C110.368 13.3464 110.358 13.3368 110.344 13.3226C110.334 13.3083 110.325 13.2987 110.311 13.2844C110.263 13.232 110.215 13.1844 110.163 13.1367C110.149 13.1272 110.139 13.1177 110.125 13.1034C110.115 13.0891 110.106 13.0795 110.091 13.0652C110.044 13.0128 109.996 12.9652 109.944 12.9175C109.929 12.908 109.92 12.8985 109.906 12.8842C109.896 12.8699 109.886 12.8603 109.872 12.846C109.825 12.7936 109.777 12.746 109.724 12.6983C109.71 12.6888 109.701 12.6793 109.686 12.665C109.677 12.6507 109.667 12.6412 109.653 12.6269C109.605 12.5744 109.558 12.5268 109.505 12.4791C109.491 12.4696 109.481 12.4601 109.467 12.4458C109.458 12.4315 109.448 12.422 109.434 12.4077C109.386 12.3552 109.338 12.3076 109.286 12.2599C109.272 12.2504 109.262 12.2409 109.248 12.2266C109.238 12.2123 109.229 12.2028 109.215 12.1885C109.167 12.1361 109.119 12.0884 109.067 12.0408C109.053 12.0312 109.043 12.0217 109.029 12.0074C109.019 11.9931 109.01 11.9836 108.995 11.9693C108.948 11.9169 108.9 11.8692 108.848 11.8216C108.833 11.812 108.824 11.8025 108.81 11.7882C108.8 11.7739 108.791 11.7644 108.776 11.7501C108.729 11.6977 108.681 11.65 108.628 11.6024C108.614 11.5928 108.605 11.5833 108.59 11.569C108.581 11.5547 108.571 11.5452 108.557 11.5309C108.509 11.4785 108.462 11.4308 108.409 11.3832C108.395 11.3737 108.385 11.3641 108.371 11.3498C108.362 11.3355 108.352 11.326 108.338 11.3117C108.29 11.2593 108.243 11.2116 108.19 11.164C108.176 11.1545 108.166 11.1449 108.152 11.1306C108.142 11.1163 108.133 11.1068 108.119 11.0925C108.071 11.0401 108.023 10.9924 107.971 10.9448C107.957 10.9353 107.947 10.9257 107.933 10.9114C107.923 10.8971 107.914 10.8876 107.899 10.8733C107.852 10.8209 107.804 10.7733 107.752 10.7256C107.737 10.7161 107.728 10.7065 107.714 10.6923C107.704 10.678 107.695 10.6684 107.68 10.6541C107.633 10.6017 107.585 10.5541 107.533 10.5064C107.518 10.4969 107.509 10.4874 107.494 10.4731C107.485 10.4588 107.475 10.4492 107.461 10.4349C107.413 10.3825 107.366 10.3349 107.313 10.2872C107.299 10.2777 107.29 10.2682 107.275 10.2539C107.266 10.2396 107.256 10.23 107.242 10.2157C107.194 10.1633 107.147 10.1157 107.094 10.068C107.08 10.0585 107.07 10.049 107.056 10.0347C107.046 10.0204 107.037 10.0109 107.023 9.99656C106.975 9.94414 106.927 9.89649 106.875 9.84884C106.861 9.83931 106.851 9.82978 106.837 9.81549C106.827 9.80119 106.818 9.79166 106.803 9.77737C106.756 9.72495 106.708 9.6773 106.656 9.62965C106.641 9.62012 106.632 9.61059 106.618 9.59629C106.608 9.582 106.599 9.57247 106.584 9.55817C106.537 9.50576 106.489 9.45811 106.437 9.41046C106.422 9.40093 106.413 9.3914 106.398 9.3771C106.389 9.36281 106.379 9.35328 106.365 9.33898C106.317 9.28657 106.27 9.23892 106.217 9.19127C106.203 9.18174 106.194 9.17221 106.179 9.15791C106.17 9.14362 106.16 9.13409 106.146 9.11979C106.098 9.06738 106.051 9.01972 105.998 8.97207C105.984 8.96254 105.974 8.95301 105.96 8.93872C105.951 8.92442 105.941 8.91489 105.927 8.9006C105.879 8.84818 105.831 8.80053 105.779 8.75288C105.765 8.74335 105.755 8.73382 105.741 8.71953C105.731 8.70523 105.722 8.6957 105.708 8.68141C105.66 8.62899 105.612 8.58134 105.56 8.53369C105.546 8.52416 105.536 8.51463 105.522 8.50034C105.512 8.48604 105.503 8.47651 105.488 8.46222C105.441 8.4098 105.393 8.36215 105.341 8.3145C105.326 8.30497 105.317 8.29544 105.302 8.28114C105.293 8.26685 105.283 8.25732 105.269 8.24302C105.221 8.19061 105.174 8.14296 105.121 8.09531C105.107 8.08578 105.098 8.07625 105.083 8.06195C105.074 8.04766 105.064 8.03813 105.05 8.02383C105.002 7.97142 104.955 7.92377 104.902 7.87612C104.888 7.86659 104.878 7.85706 104.864 7.84276C104.855 7.82847 104.845 7.81894 104.831 7.80464C104.783 7.75223 104.735 7.70458 104.683 7.65693C104.669 7.6474 104.659 7.63787 104.645 7.62357C104.635 7.60927 104.626 7.59974 104.612 7.58545C104.564 7.53303 104.516 7.48538 104.464 7.43773C104.45 7.4282 104.44 7.41867 104.426 7.40438C104.416 7.39008 104.407 7.38055 104.392 7.36626C104.345 7.31384 104.297 7.26619 104.245 7.21854C104.23 7.20901 104.221 7.19948 104.207 7.18519C104.197 7.17089 104.187 7.16136 104.173 7.14707C104.126 7.09465 104.078 7.047 104.025 6.99935C104.011 6.98982 104.002 6.98029 103.987 6.96599C103.978 6.9517 103.968 6.94217 103.954 6.92787C103.906 6.87546 103.859 6.82781 103.806 6.78016C103.792 6.77063 103.782 6.7611 103.768 6.7468C103.759 6.73251 103.749 6.72298 103.735 6.70868C103.687 6.65627 103.639 6.60862 103.587 6.56097C103.573 6.55144 103.563 6.54191 103.549 6.52761C103.539 6.51332 103.53 6.50379 103.516 6.48949C103.468 6.43708 103.42 6.38943 103.368 6.34178C103.354 6.33225 103.344 6.32271 103.33 6.30842C103.32 6.29412 103.311 6.28459 103.296 6.2703C103.249 6.21788 103.201 6.17023 103.149 6.12258C103.134 6.11305 103.125 6.10352 103.111 6.08923C103.101 6.07493 103.092 6.0654 103.077 6.05111C103.03 5.99869 102.982 5.95104 102.93 5.90339C102.915 5.89386 102.906 5.88433 102.891 5.87004C102.882 5.85574 102.872 5.84621 102.858 5.83192C102.81 5.7795 102.763 5.73185 102.71 5.6842C98.7172 1.98177 92.3797 -0.138672 85.3084 -0.138672C73.1909 -0.138672 60.2777 6.08446 59.0531 17.978C58.4193 24.1439 59.4486 28.7708 62.1122 31.7251C62.2695 31.9014 62.4363 32.0682 62.603 32.2302C62.6745 32.3017 62.746 32.3779 62.8222 32.4494C62.8937 32.5209 62.9652 32.5971 63.0414 32.6686C63.1129 32.7401 63.1844 32.8163 63.2606 32.8878C63.3321 32.9593 63.4036 33.0355 63.4798 33.107C63.5513 33.1785 63.6227 33.2547 63.699 33.3262C63.7705 33.3976 63.8419 33.4739 63.9182 33.5454C63.9896 33.6168 64.0611 33.6931 64.1374 33.7645C64.2088 33.836 64.2803 33.9123 64.3566 33.9837C64.428 34.0552 64.4995 34.1315 64.5758 34.2029C64.6472 34.2744 64.7187 34.3506 64.7949 34.4221C64.8664 34.4936 64.9379 34.5698 65.0141 34.6413C65.0856 34.7128 65.1571 34.789 65.2333 34.8605C65.3048 34.932 65.3763 35.0082 65.4525 35.0797C65.524 35.1512 65.5955 35.2274 65.6717 35.2989C65.7432 35.3704 65.8147 35.4466 65.8909 35.5181C65.9624 35.5896 66.0339 35.6658 66.1101 35.7373C66.1816 35.8088 66.253 35.885 66.3293 35.9565C66.4008 36.0279 66.4722 36.1042 66.5485 36.1757C66.62 36.2471 66.6914 36.3234 66.7677 36.3948C66.8391 36.4663 66.9106 36.5426 66.9869 36.614C67.0583 36.6855 67.1298 36.7618 67.206 36.8332C67.2775 36.9047 67.349 36.9809 67.4252 37.0524C67.4967 37.1239 67.5682 37.2001 67.6444 37.2716C67.7159 37.3431 67.7874 37.4193 67.8636 37.4908C67.9351 37.5623 68.0066 37.6385 68.0828 37.71C68.1543 37.7815 68.2258 37.8577 68.302 37.9292C68.3735 38.0007 68.445 38.0769 68.5212 38.1484C68.5927 38.2199 68.6641 38.2961 68.7404 38.3676C68.7833 38.4152 68.8262 38.4629 68.8738 38.5058C62.9652 42.3893 56.7659 47.0304 55.8033 56.2174C55.1696 62.2499 56.5943 67.2437 60.0347 71.0605C60.311 71.3702 60.6017 71.6656 60.9067 71.9515C60.9781 72.023 61.0496 72.0993 61.1259 72.1707C61.1973 72.2422 61.2688 72.3184 61.3451 72.3899C61.4165 72.4614 61.488 72.5376 61.5642 72.6091C61.6357 72.6806 61.7072 72.7568 61.7834 72.8283C61.8549 72.8998 61.9264 72.976 62.0026 73.0475C62.0741 73.119 62.1456 73.1952 62.2218 73.2667C62.2933 73.3382 62.3648 73.4144 62.441 73.4859C62.5125 73.5574 62.584 73.6336 62.6602 73.7051C62.7317 73.7765 62.8032 73.8528 62.8794 73.9243C62.9509 73.9957 63.0223 74.072 63.0986 74.1435C63.1701 74.2149 63.2415 74.2912 63.3178 74.3626C63.3893 74.4341 63.4607 74.5104 63.537 74.5818C63.6084 74.6533 63.6799 74.7295 63.7562 74.801C63.8276 74.8725 63.8991 74.9487 63.9754 75.0202C64.0468 75.0917 64.1183 75.1679 64.1945 75.2394C64.266 75.3109 64.3375 75.3871 64.4137 75.4586C64.4852 75.5301 64.5567 75.6063 64.6329 75.6778C64.7044 75.7493 64.7759 75.8255 64.8521 75.897C64.9236 75.9685 64.9951 76.0447 65.0713 76.1162C65.1428 76.1877 65.2143 76.2639 65.2905 76.3354C65.362 76.4068 65.4335 76.4831 65.5097 76.5546C65.5812 76.626 65.6526 76.7023 65.7289 76.7737C65.8004 76.8452 65.8718 76.9215 65.9481 76.9929C66.0196 77.0644 66.091 77.1407 66.1673 77.2121C66.2387 77.2836 66.3102 77.3598 66.3865 77.4313C66.4579 77.5028 66.5294 77.579 66.6057 77.6505C66.6771 77.722 66.7486 77.7982 66.8248 77.8697C66.8963 77.9412 66.9678 78.0174 67.044 78.0889C67.1155 78.1604 67.187 78.2366 67.2632 78.3081C67.3347 78.3796 67.4062 78.4558 67.4824 78.5273C67.5539 78.5988 67.6254 78.675 67.7016 78.7465C67.7731 78.8179 67.8446 78.8942 67.9208 78.9657C67.9923 79.0371 68.0638 79.1134 68.14 79.1849C68.2115 79.2563 68.2829 79.3326 68.3592 79.404C68.4307 79.4755 68.5021 79.5518 68.5784 79.6232C68.6499 79.6947 68.7213 79.771 68.7976 79.8424C68.869 79.9139 68.9405 79.9902 69.0168 80.0616C69.0882 80.1331 69.1597 80.2093 69.236 80.2808C69.3074 80.3523 69.3789 80.4285 69.4551 80.5C73.677 84.6885 80.41 86.99 88.5629 86.99C99.9228 86.99 114.018 82.3203 117.768 73.6669C120.603 67.1246 119.216 62.7312 117.549 60.1962C117.096 59.51 116.572 58.881 115.981 58.3045L115.99 58.314Z" fill="#2F201C"/>
<path d="M101.076 7.73359C114.709 22.5862 101.367 40.3312 88.7869 50.3187C99.5606 45.2154 112.402 50.7809 106.694 63.9515C100.652 77.894 55.6318 83.7978 58.4813 56.5752C60.0966 41.1317 78.2752 40.5933 84.1743 27.9326C80.5767 28.0469 77.9798 31.7303 74.468 32.3831C63.9134 34.3463 60.8114 27.8134 61.7834 18.3834C63.4321 2.3777 90.6119 -1.96802 101.076 7.73359Z" fill="white"/>
<path d="M80.8865 75.3485C73.4054 75.3485 67.3585 73.1948 63.8705 69.2779C61.0877 66.1568 59.9441 62.0065 60.4731 56.9317C61.3355 48.5929 67.0726 44.8237 73.148 40.8402C77.8082 37.781 82.6257 34.617 85.1273 29.1944L85.2131 29.0086H85.0082C83.1165 29.0753 81.4916 30.1665 79.9192 31.2243C78.5849 32.1202 77.2078 33.0493 75.6735 33.3352C74.487 33.5592 73.3672 33.6736 72.3475 33.6736C69.56 33.6736 67.4014 32.8349 65.9195 31.1767C63.88 28.8895 63.1129 25.0917 63.6418 19.8931C64.6615 9.91986 75.7783 4.70215 86.2328 4.70215C92.3607 4.70215 97.7976 6.50333 101.147 9.64349C105.155 14.0559 106.975 19.0401 106.556 24.4532C105.617 36.504 94.2143 46.8632 89.3587 50.761L89.4921 50.9754C91.9604 49.7937 94.6288 49.1694 97.1972 49.1694C101.343 49.1694 104.74 50.7419 106.522 53.4818C108.304 56.2217 108.3 59.8717 106.518 64.0364C103.84 70.2785 92.3464 75.3628 80.8912 75.3628L80.8865 75.3485Z" fill="#FF5906"/>
<path d="M79.8906 76.5645C76.7933 76.5645 73.8247 76.2214 71.1753 75.5257C61.4213 72.9669 56.6086 66.2053 57.6236 56.4846C58.5718 47.412 65.0284 43.2187 71.2754 39.1589C75.5258 36.4 79.9049 33.5553 82.5542 29.1476C81.4964 29.5383 80.4814 30.215 79.4284 30.9154C77.956 31.897 76.4312 32.9072 74.6347 33.2408C70.0079 34.1032 66.4579 33.4266 64.0802 31.2394C61.3594 28.733 60.2968 24.3778 60.9257 18.2976C61.5833 11.922 66.2721 6.64234 73.7913 3.81191C83.6549 0.0951781 95.6438 1.51039 101.672 7.09978C101.691 7.11407 101.705 7.13313 101.719 7.14743C106.093 11.9172 108.081 17.3065 107.618 23.177C106.794 33.5981 98.6315 42.7613 92.8324 48.0219C97.9548 46.9021 103.015 47.9028 106.093 50.8809C107.99 52.7155 110.697 56.9039 107.49 64.2993C105.617 68.6211 100.252 72.3998 92.7705 74.6584C88.582 75.9259 84.1172 76.5645 79.8858 76.5692L79.8906 76.5645ZM84.1743 27.0653C84.465 27.0653 84.7366 27.213 84.8986 27.456C85.0654 27.7086 85.0892 28.0278 84.9606 28.2994C82.2636 34.0842 77.1554 37.4054 72.2141 40.617C66.0386 44.6292 60.211 48.4174 59.3437 56.6657C58.1668 67.8969 65.362 72.2045 71.6089 73.8436C77.5891 75.4113 85.3084 75.0921 92.2701 72.9907C99.1556 70.9084 104.254 67.4013 105.898 63.6036C107.966 58.8338 107.609 54.7549 104.888 52.1246C101.424 48.7748 94.9576 48.3554 89.1586 51.1001C88.7583 51.2859 88.2818 51.1478 88.0483 50.7761C87.8148 50.4044 87.9006 49.9089 88.2437 49.6372C93.2279 45.6823 104.926 35.1754 105.879 23.0388C106.303 17.6829 104.478 12.7416 100.456 8.34822C94.8671 3.19245 83.674 1.93925 74.3965 5.43678C70.3557 6.96159 63.4512 10.6783 62.6459 18.4739C62.0884 23.9013 62.9842 27.8753 65.2476 29.9624C67.1965 31.7588 70.2461 32.2878 74.306 31.5349C75.7545 31.268 77.0649 30.3913 78.4515 29.4716C80.1765 28.3232 81.9586 27.1415 84.141 27.07C84.1505 27.07 84.16 27.07 84.1696 27.07L84.1743 27.0653Z" fill="#FF5906"/>
</g>
<defs>
<clipPath id="clip0_215_3178">
<rect width="119.407" height="87" fill="white"/>
</clipPath>
</defs>
</svg>
