<svg width="41" height="39" viewBox="0 0 41 39" fill="none" xmlns="http://www.w3.org/2000/svg">
<path d="M33.825 0H7.175C3.21236 0 0 3.16102 0 7.06034V31.9397C0 35.839 3.21236 39 7.175 39H33.825C37.7876 39 41 35.839 41 31.9397V7.06034C41 3.16102 37.7876 0 33.825 0Z" fill="#330000"/>
<path d="M20.635 24.2069H14.5209L12.9424 28.6919C12.9241 28.8399 12.829 28.9138 12.6571 28.9138H9.78706C9.59573 28.9138 9.5291 28.8214 9.58718 28.6365L15.1256 12.4498C15.282 11.9569 15.3593 11.4431 15.3545 10.9268C15.3514 10.904 15.3537 10.8808 15.3612 10.859C15.3687 10.8372 15.3812 10.8174 15.3977 10.8012C15.4142 10.7849 15.4343 10.7726 15.4565 10.7652C15.4786 10.7579 15.5022 10.7556 15.5253 10.7587H19.5434C19.6595 10.7587 19.7261 10.8057 19.7449 10.8965L25.9428 28.665C26.0009 28.8331 25.953 28.9138 25.7993 28.9138H22.5859C22.5264 28.9173 22.4673 28.9032 22.4161 28.8732C22.365 28.8432 22.3241 28.7988 22.2989 28.7457L20.635 24.2069ZM15.2042 21.1811H19.967C19.8526 20.934 17.7103 14.1325 17.5566 13.5593H17.5292L15.2042 21.1811ZM29.368 14.1207C29.0986 14.1321 28.8297 14.0901 28.577 13.9975C28.3244 13.9048 28.0932 13.7632 27.8971 13.5811C27.7052 13.3891 27.556 13.16 27.4589 12.9082C27.3619 12.6564 27.3191 12.3875 27.3333 12.1186C27.3206 11.8463 27.3655 11.5743 27.4652 11.32C27.5649 11.0656 27.7172 10.8344 27.9125 10.641C28.1102 10.4558 28.3435 10.3114 28.5987 10.2161C28.854 10.1208 29.1259 10.0767 29.3987 10.0862C29.672 10.0722 29.9453 10.1143 30.2011 10.2098C30.457 10.3053 30.6899 10.4522 30.885 10.641C31.0717 10.839 31.2164 11.0716 31.3106 11.3254C31.4048 11.5791 31.4465 11.8488 31.4333 12.1186C31.4476 12.3875 31.4048 12.6564 31.3078 12.9082C31.2107 13.16 31.0615 13.3891 30.8696 13.5811C30.6684 13.7649 30.4319 13.9073 30.1741 13.9999C29.9162 14.0926 29.6422 14.1337 29.368 14.1207ZM27.675 28.6617V15.6908C27.6704 15.6602 27.6732 15.6289 27.683 15.5995C27.6929 15.5701 27.7096 15.5434 27.7319 15.5215C27.7541 15.4996 27.7813 15.4832 27.8112 15.4734C27.841 15.4637 27.8728 15.461 27.9039 15.4656H30.8628C30.8938 15.4614 30.9254 15.4643 30.9551 15.4742C30.9849 15.484 31.0118 15.5005 31.034 15.5223C31.0562 15.5441 31.0729 15.5707 31.0829 15.5999C31.0929 15.6291 31.0959 15.6603 31.0917 15.6908V28.6886C31.0963 28.7192 31.0935 28.7505 31.0837 28.7799C31.0738 28.8093 31.0571 28.836 31.0348 28.8579C31.0126 28.8798 30.9854 28.8962 30.9555 28.9059C30.9257 28.9157 30.8939 28.9184 30.8628 28.9138H27.9313C27.8965 28.9186 27.8611 28.9153 27.8278 28.9043C27.7945 28.8933 27.7642 28.8749 27.7394 28.8505C27.7146 28.826 27.6958 28.7963 27.6847 28.7635C27.6735 28.7308 27.6702 28.6959 27.675 28.6617Z" fill="#FF9A00"/>
</svg>
