<svg width="27" height="41" viewBox="0 0 27 41" fill="none" xmlns="http://www.w3.org/2000/svg">
<path d="M6.69767 41C10.3948 41 13.3953 37.9387 13.3953 34.1667V27.3334H6.69767C3.00056 27.3334 0 30.3947 0 34.1667C0 37.9387 3.00056 41 6.69767 41Z" fill="#0ACF83"/>
<path d="M0 20.5C0 16.728 3.00056 13.6666 6.69767 13.6666H13.3953V27.3333H6.69767C3.00056 27.3333 0 24.272 0 20.5Z" fill="#A259FF"/>
<path d="M0 6.83333C0 3.06133 3.00056 0 6.69767 0H13.3953V13.6667H6.69767C3.00056 13.6667 0 10.6053 0 6.83333Z" fill="#F24E1E"/>
<path d="M13.3954 0H20.0931C23.7902 0 26.7907 3.06133 26.7907 6.83333C26.7907 10.6053 23.7902 13.6667 20.0931 13.6667H13.3954V0Z" fill="#FF7262"/>
<path d="M26.7907 20.5C26.7907 24.272 23.7902 27.3333 20.0931 27.3333C16.3959 27.3333 13.3954 24.272 13.3954 20.5C13.3954 16.728 16.3959 13.6666 20.0931 13.6666C23.7902 13.6666 26.7907 16.728 26.7907 20.5Z" fill="#1ABCFE"/>
</svg>
