<svg width="345" height="225" viewBox="0 0 345 225" fill="none" xmlns="http://www.w3.org/2000/svg">
<g clip-path="url(#clip0_192_5313)">
<path d="M75 47.5006C68.5382 49.4482 67.4019 51.0264 65.9996 60.0012C64.5981 51.0253 63.4618 49.447 57 47.5006C63.4618 45.553 64.5981 43.9747 66.0004 35C67.4027 43.9747 68.539 45.553 75.0008 47.5006H75Z" fill="white"/>
</g>
<g opacity="0.8" clip-path="url(#clip1_192_5313)">
<path d="M228.147 224.294C287.263 224.294 335.186 176.273 335.186 117.036C335.186 57.7987 287.263 9.77771 228.147 9.77771C169.032 9.77771 121.109 57.7987 121.109 117.036C121.109 176.273 169.032 224.294 228.147 224.294Z" stroke="white" stroke-miterlimit="10"/>
<path d="M114.933 116.682C114.115 114.817 113.297 112.938 112.917 110.946C112.536 108.953 112.62 106.806 113.551 104.997C113.748 104.616 113.988 104.248 114.341 103.994C114.693 103.74 115.173 103.655 115.553 103.839C115.807 103.966 115.976 104.192 116.146 104.404C118.923 108.162 119.628 113.376 117.936 117.728C119.163 119.706 120.39 121.67 121.617 123.648" stroke="white" stroke-miterlimit="10"/>
<path d="M115.497 103.838C118.106 102.68 120.531 101.083 122.632 99.1475" stroke="white" stroke-miterlimit="10"/>
<path d="M159.999 212.721C156.417 211.294 153.428 208.398 151.891 204.851C151.764 204.569 151.651 204.244 151.75 203.947C151.849 203.664 152.145 203.481 152.441 203.424C152.737 203.368 153.047 203.424 153.343 203.509C157.644 204.512 161.451 207.451 163.538 211.337C167.331 210.305 171.308 209.952 175.228 210.305" stroke="white" stroke-miterlimit="10"/>
<path d="M152.511 192.996C153.315 196.6 153.174 200.4 152.102 203.919" stroke="white" stroke-miterlimit="10"/>
<path d="M280.729 213.979C284.395 213.795 288.09 214.643 291.319 216.367" stroke="white" stroke-miterlimit="10"/>
<path d="M300.738 196.105C299.582 199.256 298.947 202.59 298.905 205.953C298.905 206.575 298.905 207.239 298.552 207.748C298.129 208.355 297.354 208.581 296.649 208.822C294.59 209.542 292.743 210.87 291.403 212.594C291.008 213.117 290.642 213.682 290.515 214.332C290.388 214.982 290.515 215.703 290.994 216.155C291.699 216.819 292.813 216.664 293.73 216.367C297.029 215.279 299.793 212.637 301.034 209.373" stroke="white" stroke-miterlimit="10"/>
<path d="M333.86 101.578C334.368 104.05 335.665 106.339 337.527 108.035C338.133 108.586 338.81 109.095 339.303 109.745C340.981 112.005 340.037 115.283 341.024 117.926C341.39 118.901 342.363 119.876 343.322 119.494C344.21 119.141 344.337 117.954 344.281 116.993C344.098 114.464 343.534 111.963 342.603 109.603" stroke="white" stroke-miterlimit="10"/>
<path d="M342.095 119.31C339.162 120.102 336.54 121.967 334.805 124.468" stroke="white" stroke-miterlimit="10"/>
<path d="M241.91 1.18686C245.294 0.211914 249.087 0.73471 252.09 2.59982C252.457 2.82589 252.81 3.08023 253.049 3.41934C253.289 3.75845 253.416 4.22472 253.261 4.62035C253.021 5.22793 252.288 5.42574 251.653 5.53878C248.579 6.01919 245.393 5.72246 242.46 4.67687C241.797 4.43667 241.106 4.16821 240.415 4.29537C239.738 4.40841 239.202 4.88882 238.667 5.32683C235.762 7.71474 232.237 9.32552 228.528 9.96135" stroke="white" stroke-miterlimit="10"/>
<path d="M252.669 5.17145C253.092 8.32235 254.375 11.3602 256.335 13.8612" stroke="white" stroke-miterlimit="10"/>
<path d="M156.586 61.9301C158.081 57.3804 161.677 53.5654 166.147 51.8416C166.316 56.9706 163.242 62.0714 158.631 64.2897C159.294 67.4972 158.955 70.9165 157.686 73.9261" stroke="white" stroke-miterlimit="10"/>
<path d="M165.977 52.0394C169.207 53.5936 173 53.9327 176.454 53.0143" stroke="white" stroke-miterlimit="10"/>
<path d="M201.68 19.8239C201.61 21.4629 202.668 22.9889 204.063 23.8508C205.459 24.7127 207.109 25.0094 208.745 25.1083C212.369 25.3344 216.035 24.7127 219.377 23.2856" stroke="white" stroke-miterlimit="10"/>
<path d="M228.021 54.1588C229.797 58.1858 232.519 61.7747 235.931 64.5582" stroke="white" stroke-miterlimit="10"/>
<path d="M192.741 86.4591C193.107 90.3589 192.303 94.3576 190.442 97.8052" stroke="white" stroke-miterlimit="10"/>
<path d="M247.24 129.116C246.76 131.066 247.762 133.129 249.256 134.457C250.751 135.786 252.669 136.52 254.53 137.241" stroke="white" stroke-miterlimit="10"/>
<path d="M198.085 180.647C197.563 177.468 194.884 174.769 191.711 174.218" stroke="white" stroke-miterlimit="10"/>
<path d="M245.139 194.367L241.388 198.761C241.021 199.185 240.641 199.623 240.133 199.863C239.005 200.372 237.736 199.736 236.551 199.397C234.465 198.79 232.096 199.185 230.319 200.429C229.304 201.135 228.415 202.407 228.937 203.537C229.388 204.512 230.615 204.766 231.687 204.851C234.972 205.077 238.3 204.569 241.36 203.382" stroke="white" stroke-miterlimit="10"/>
<path d="M228.768 202.703C227.837 200.146 225.976 197.928 223.607 196.571" stroke="white" stroke-miterlimit="10"/>
<path d="M286.863 126.079C287.229 127.972 288.231 129.738 289.683 131.024C290.219 131.49 290.825 131.928 291.149 132.55C291.587 133.384 291.446 134.373 291.305 135.291C290.839 138.357 290.515 141.72 292.122 144.376C292.418 144.857 292.785 145.323 293.279 145.563C293.772 145.804 294.449 145.761 294.83 145.351C295.154 144.998 295.196 144.461 295.21 143.981C295.295 140.109 294.773 136.21 293.673 132.493" stroke="white" stroke-miterlimit="10"/>
<path d="M292.926 145.464C291.996 146.058 291.051 146.651 290.219 147.4C289.387 148.149 288.696 149.053 288.329 150.099" stroke="white" stroke-miterlimit="10"/>
<path d="M295.507 91.5881C296.395 91.7153 297.185 92.2664 297.777 92.9446C298.369 93.6228 298.792 94.4282 299.201 95.2336C300.019 96.802 300.837 98.3704 301.64 99.9387" stroke="white" stroke-miterlimit="10"/>
<path d="M284.311 52.8589C288.104 54.7381 290.684 58.8781 290.698 63.1311C290.176 63.442 289.5 63.3855 288.964 63.1311C288.428 62.8768 287.977 62.4529 287.554 62.0149C285.41 59.8107 283.577 57.2956 282.153 54.5686C279.488 55.3316 276.541 55.1196 274.003 53.9893" stroke="white" stroke-miterlimit="10"/>
<path d="M290.205 63.2725C288.907 65.9571 288.4 69.0373 288.766 72.0046" stroke="white" stroke-miterlimit="10"/>
<path d="M166.09 136.76C165.258 138.965 163.383 140.745 161.127 141.466C159.914 141.847 158.518 141.988 157.658 142.921C157.009 143.613 156.798 144.602 156.699 145.535C156.403 148.107 156.671 150.749 157.475 153.207" stroke="white" stroke-miterlimit="10"/>
<path d="M158.194 142.511C159.012 142.596 159.731 143.133 160.182 143.811C160.633 144.489 160.845 145.309 160.986 146.129C161.282 148.008 161.155 149.958 160.619 151.78C160.394 152.558 160.083 153.349 160.14 154.154C160.196 154.804 160.478 155.398 160.76 155.977C161.874 158.308 162.988 160.64 164.116 162.971" stroke="white" stroke-miterlimit="10"/>
</g>
<g opacity="0.6" clip-path="url(#clip2_192_5313)">
<path d="M39.998 149.599C61.8688 149.599 79.5986 131.869 79.5986 109.998C79.5986 88.1271 61.8688 70.3973 39.998 70.3973C18.1272 70.3973 0.3974 88.1271 0.3974 109.998C0.3974 131.869 18.1272 149.599 39.998 149.599Z" stroke="white" stroke-width="2" stroke-miterlimit="10"/>
<path d="M8.42084 86.0986C10.6105 86.7464 13.1538 86.4364 15.2958 85.5224C18.3717 84.211 20.8713 81.8782 23.4742 79.784C25.2466 78.3533 27.1104 76.9982 28.5569 75.2417C29.4749 74.1211 30.2061 72.8494 30.7188 71.4943" stroke="white" stroke-width="2" stroke-miterlimit="10"/>
<path d="M3.54083 94.5115C8.07513 94.3525 12.5737 93.3233 16.7304 91.4953C20.0408 90.0328 23.1087 88.0776 26.1607 86.1304C29.3796 84.0798 32.6343 81.9935 35.2134 79.1799C37.4428 76.7479 39.1357 73.6601 39.4417 70.4054" stroke="white" stroke-width="2" stroke-miterlimit="10"/>
<path d="M1.73663 99.7691C2.59104 99.6061 3.52492 99.7015 4.37932 99.9042C5.79406 100.242 7.16508 100.838 8.61558 100.878C10.4516 100.933 12.1842 100.107 13.8334 99.2962C15.5859 98.4338 17.3424 97.5754 19.0234 96.5819C21.1773 95.3103 23.2 93.828 25.35 92.5484C31.0765 89.1387 37.566 87.2391 43.5269 84.2666C48.4308 81.8226 53.1757 78.3772 55.8621 73.7078" stroke="white" stroke-width="2" stroke-miterlimit="10"/>
<path d="M63.0669 77.8129C62.6695 78.5004 62.1171 79.1163 61.4972 79.6012C60.1103 80.686 58.4173 81.2861 56.8158 82.0213C55.2143 82.7565 53.6128 83.7063 52.7187 85.2243C51.8245 86.7424 51.8961 88.9519 53.2989 90.0209C54.5268 90.9588 56.2476 90.7442 57.7855 90.5653C63.6829 89.8778 69.7193 90.458 75.3902 92.2304H75.3941" stroke="white" stroke-width="2" stroke-miterlimit="10"/>
<path d="M0.401367 109.763C6.26695 111.23 12.6293 110.185 18.3558 108.09C24.7419 105.762 30.5956 102.213 36.7473 99.3278C42.899 96.4388 49.5952 94.1816 56.3668 94.7101C63.7465 95.2863 70.8758 99.1252 78.1044 99.1967" stroke="white" stroke-width="2" stroke-miterlimit="10"/>
<path d="M0.755066 115.331C10.0224 117.461 19.9692 116.627 28.7318 112.915C36.1274 109.779 42.7878 104.653 50.6801 103.155C56.8039 101.994 63.1822 103.151 68.9921 105.396C72.68 106.823 76.1771 108.675 79.5907 110.674" stroke="white" stroke-width="2" stroke-miterlimit="10"/>
<path d="M79.1217 116.166C73.6377 113.133 66.9852 112.525 60.7382 113.38C53.9427 114.306 47.481 116.817 41.071 119.257C34.661 121.693 28.1397 124.094 21.3164 124.781C20.6328 124.853 19.9255 124.908 19.3095 125.214C18.6935 125.52 18.1769 126.14 18.2246 126.828C18.2922 127.825 19.389 128.37 20.3268 128.711C31.7083 132.88 43.5984 137.112 55.6435 135.765C62.5145 134.99 69.0914 132.391 74.9332 128.656" stroke="white" stroke-width="2" stroke-miterlimit="10"/>
<path d="M77.1467 123.74C65.0579 126.323 52.7703 127.94 40.4272 128.576C39.6085 128.616 38.7462 128.648 38.019 128.27C37.2877 127.897 36.7751 126.971 37.1367 126.24C37.399 125.711 37.9911 125.457 38.5396 125.246C44.3376 122.993 50.1594 120.732 56.2277 119.357C63.504 117.704 71.44 117.437 78.2037 120.442" stroke="white" stroke-width="2" stroke-miterlimit="10"/>
<path d="M6.69214 131.434C10.2846 132.058 13.8254 133.198 17.2391 134.486C23.4067 136.81 29.4312 139.648 35.8849 140.987C45.4701 142.978 55.7468 141.452 64.3425 136.763" stroke="white" stroke-width="2" stroke-miterlimit="10"/>
</g>
<g clip-path="url(#clip3_192_5313)">
<path d="M136 207.501C129.538 209.448 128.402 211.026 127 220.001C125.598 211.025 124.462 209.447 118 207.501C124.462 205.553 125.598 203.975 127 195C128.403 203.975 129.539 205.553 136.001 207.501H136Z" fill="white"/>
</g>
<defs>
<clipPath id="clip0_192_5313">
<rect width="18" height="25" fill="white" transform="translate(57 35)"/>
</clipPath>
<clipPath id="clip1_192_5313">
<rect width="233" height="225" fill="white" transform="translate(112)"/>
</clipPath>
<clipPath id="clip2_192_5313">
<rect width="80" height="80" fill="white" transform="translate(0 70)"/>
</clipPath>
<clipPath id="clip3_192_5313">
<rect width="18" height="25" fill="white" transform="translate(118 195)"/>
</clipPath>
</defs>
</svg>
