<svg width="41" height="39" viewBox="0 0 41 39" fill="none" xmlns="http://www.w3.org/2000/svg">
<path d="M33.825 0H7.175C3.21236 0 0 3.16102 0 7.06034V31.9397C0 35.839 3.21236 39 7.175 39H33.825C37.7876 39 41 35.839 41 31.9397V7.06034C41 3.16102 37.7876 0 33.825 0Z" fill="#001E36"/>
<path d="M8.54169 28.7255V10.4224C8.53834 10.3969 8.54098 10.371 8.54941 10.3466C8.55784 10.3223 8.57184 10.3001 8.59032 10.282C8.6088 10.2638 8.63128 10.25 8.65602 10.2417C8.68076 10.2334 8.70711 10.2308 8.73303 10.2341C10.1185 10.1988 11.7534 10.0862 13.8854 10.0862C16.4 10.0862 18.245 10.6023 19.4204 11.7134C19.9913 12.2391 20.4434 12.8773 20.7472 13.5863C21.0509 14.2953 21.1996 15.0593 21.1834 15.8286C21.1834 17.8559 20.4545 19.3621 18.9967 20.3472C17.5389 21.3323 15.7053 21.8254 13.4959 21.8265L11.9584 21.8534V28.6986C11.9627 28.7278 11.96 28.7577 11.9505 28.7857C11.941 28.8137 11.925 28.8392 11.9038 28.8601C11.8826 28.881 11.8567 28.8967 11.8282 28.906C11.7997 28.9153 11.7694 28.918 11.7397 28.9138H8.76036C8.61515 28.9138 8.54169 28.8516 8.54169 28.7255ZM11.9584 12.712V19.3319C11.9584 19.3319 12.7374 19.3016 13.6667 19.3016C14.8887 19.3016 15.8773 19.0371 16.6324 18.5082C17.3874 17.9792 17.7656 17.1129 17.7667 15.9093C17.7667 14.8514 17.4341 14.0355 16.769 13.4617C16.1039 12.8879 15.1427 12.6033 13.8854 12.6077C13.5762 12.6077 13.2704 12.6077 12.9697 12.6212C12.669 12.6346 12.423 12.6346 12.2317 12.6346C12.0404 12.6346 11.9379 12.6279 11.9584 12.712ZM32.4584 24.5431C32.4584 26.6023 31.0917 27.5689 31.0917 27.5689V27.5589C31.0097 27.6379 30.9209 27.7118 30.8337 27.7841C29.893 28.5372 28.6214 28.9138 27.019 28.9138C25.4166 28.9138 24.1069 28.6235 23.0899 28.043C23.0336 28.0237 22.9859 27.9859 22.9547 27.936C22.9236 27.886 22.911 27.827 22.919 27.769V25.2357C22.9165 25.2071 22.9214 25.1783 22.9334 25.1521C22.9454 25.1259 22.9639 25.1032 22.9874 25.0861C23.0059 25.0729 23.0288 25.067 23.0515 25.0695C23.0742 25.072 23.0952 25.0827 23.1104 25.0995C24.1945 25.9378 25.5309 26.3978 26.9097 26.4073C27.5463 26.4073 28.0338 26.2953 28.372 26.0711C28.528 25.9796 28.6571 25.8499 28.747 25.6947C28.8368 25.5394 28.8842 25.3639 28.8845 25.1852C28.8882 25.0049 28.8536 24.8259 28.783 24.6594C28.7124 24.493 28.6074 24.3429 28.4745 24.2186C28.2012 23.9542 27.6636 23.6678 26.8619 23.3596C25.4029 22.7993 24.3871 22.1952 23.8142 21.5475C23.2079 20.8984 22.8777 20.0453 22.8917 19.1638C22.892 18.6154 23.0117 18.0735 23.2428 17.5744C23.4738 17.0754 23.8108 16.6308 24.231 16.2707C25.0863 15.5075 26.3072 15.1259 27.8937 15.1259C29.3743 15.1259 30.5131 15.326 31.3104 15.7261C31.4009 15.7798 31.447 15.8942 31.447 16.0791V18.3401C31.447 18.5586 31.365 18.6124 31.201 18.5082C30.2507 17.8938 29.1401 17.5628 28.003 17.555C27.3641 17.555 26.896 17.6744 26.5954 17.9097C26.4585 18.0053 26.3465 18.1311 26.2681 18.2771C26.1898 18.4231 26.1474 18.5852 26.1444 18.7502C26.1439 18.9117 26.1776 19.0716 26.2435 19.2195C26.3094 19.3674 26.406 19.5002 26.527 19.6092C26.7821 19.8547 27.3197 20.1404 28.1397 20.4666C29.5701 21.0168 30.5951 21.5951 31.2147 22.2014L31.2301 22.2165C31.8673 22.7931 32.4584 23.5866 32.4584 24.5431Z" fill="#31A8FF"/>
</svg>
