<svg width="339" height="365" viewBox="0 0 339 365" fill="none" xmlns="http://www.w3.org/2000/svg">
<path d="M157.006 300.867C159.347 296.708 158.438 291.697 154.305 285.979C154.138 285.747 153.965 285.515 153.801 285.3L153.592 285.012C149.361 279.157 144.799 276.659 140.03 277.584C130.318 279.468 123.455 294.643 121.827 301.239C120.143 306.745 117.278 310.936 113.31 313.695C112.891 313.984 112.64 314.162 112.644 314.561L112.645 314.994L113.031 315.185C113.445 315.388 113.74 315.165 114.151 314.859C118.084 311.895 123.064 310.456 128.915 310.584C137.65 311.282 152.617 308.677 157.006 300.872L157.006 300.867Z" fill="#FF5906"/>
<path d="M172.396 253.388C174.419 241.716 167.497 224.558 165.695 221.377L183.645 217.615C181.864 222.387 178.723 235.613 189.935 247.682L172.394 253.385L172.396 253.388Z" fill="#FF5906"/>
<path d="M209.714 247.832C210.642 242.343 207.392 239.797 204.04 239.982C200.687 240.164 182.97 239.771 165.716 254.483C148.462 269.194 145.526 277.54 145.526 277.54C145.463 283.312 151.559 294.843 159.938 295.761C172.962 292.075 205.92 270.249 209.713 247.837L209.714 247.832Z" fill="white" stroke="#EA5028"/>
<path d="M168.215 292.324C165.035 293.953 162.196 295.128 159.943 295.762C151.561 294.846 145.465 283.315 145.529 277.538C145.529 277.538 146.593 274.513 151.19 268.899C155.268 282.233 163.381 289.019 168.217 292.327L168.215 292.324Z" fill="#FF5906"/>
<path d="M186.746 269.82C188.25 271.842 189.92 273.714 191.606 275.575C192.032 275.139 192.45 274.692 192.852 274.263C191.2 272.449 189.583 270.609 188.101 268.626C187.597 267.937 186.24 269.138 186.744 269.826L186.746 269.82Z" fill="#FF5906"/>
<path d="M181.362 276.255C182.497 277.999 183.697 279.704 185.297 280.979C185.738 280.572 186.179 280.166 186.624 279.733C185.025 278.492 183.83 276.8 182.705 275.07C182.241 274.375 180.898 275.559 181.358 276.258L181.362 276.255Z" fill="#FF5906"/>
<path d="M175.815 284.012C176.314 284.977 176.902 285.869 177.578 286.68C178.025 286.307 178.455 285.95 178.904 285.58C178.218 284.755 177.646 283.854 177.129 282.865C176.759 282.136 175.449 283.296 175.815 284.012Z" fill="#FF5906"/>
<path d="M168.56 288.409C169.188 289.289 169.818 290.172 170.525 290.965C171.001 290.624 171.476 290.283 171.955 289.916C171.183 289.105 170.536 288.162 169.882 287.247C169.398 286.593 168.077 287.749 168.561 288.403L168.56 288.409Z" fill="#FF5906"/>
<path d="M79.8604 194.123C82.2012 189.964 81.2918 184.953 77.1591 179.235C76.9917 179.004 76.8192 178.771 76.6545 178.556L76.4463 178.268C72.2149 172.413 67.653 169.916 62.884 170.84C53.1724 172.725 46.3092 187.899 44.6808 194.496C42.997 200.002 40.1318 204.192 36.1642 206.951C35.7451 207.241 35.4936 207.418 35.4975 207.817L35.4986 208.25L35.8851 208.441C36.2984 208.644 36.594 208.421 37.0032 208.112C40.9356 205.148 45.916 203.709 51.7669 203.837C60.5015 204.535 75.4687 201.93 79.8575 194.126L79.8604 194.123Z" fill="#FF5906"/>
<path d="M113.598 172.032C125.316 173.774 139.435 185.73 141.89 188.439L151.094 172.576C146.004 172.769 132.46 171.602 124.52 157.169L113.6 172.035L113.598 172.032Z" fill="#FF5906"/>
<path d="M130.585 138.345C136.088 139.186 137.485 143.071 136.258 146.195C135.034 149.322 129.848 166.268 110.465 178.034C91.0821 189.801 82.237 189.97 82.237 189.97C76.7364 188.219 67.7008 178.812 69.458 170.568C77.0446 159.359 108.11 134.914 130.58 138.344L130.585 138.345Z" fill="white" stroke="#EA5028"/>
<path d="M75.3169 163.785C72.7724 166.293 70.766 168.62 69.4567 170.56C67.6965 178.806 76.7321 188.213 82.2378 189.965C82.2378 189.965 85.4432 189.903 92.2167 187.3C80.8359 179.245 76.9379 169.411 75.3148 163.782L75.3169 163.785Z" fill="#FF5906"/>
<path d="M102.666 153.41C101.191 151.362 99.8841 149.169 98.5899 146.961C99.0686 146.597 99.5554 146.243 100.024 145.906C101.284 148.067 102.574 150.197 104.02 152.212C104.524 152.901 103.167 154.101 102.663 153.413L102.666 153.41Z" fill="#FF5906"/>
<path d="M94.8537 156.485C93.5417 154.897 92.2782 153.248 91.4837 151.262C91.9407 150.877 92.3978 150.492 92.8789 150.108C93.6432 152.085 94.8931 153.723 96.1971 155.301C96.7176 155.946 95.3743 157.131 94.8502 156.488L94.8537 156.485Z" fill="#FF5906"/>
<path d="M85.7038 159.273C84.9415 158.538 84.2637 157.724 83.6778 156.834C84.1091 156.44 84.5232 156.061 84.9526 155.665C85.5483 156.568 86.238 157.367 87.0179 158.126C87.5953 158.674 86.2699 159.814 85.7038 159.273Z" fill="#FF5906"/>
<path d="M79.2665 164.805C78.6085 163.946 77.9525 163.09 77.3913 162.169C77.7992 161.738 78.2071 161.306 78.6369 160.872C79.2004 161.866 79.9093 162.755 80.591 163.645C81.0751 164.3 79.754 165.456 79.2699 164.802L79.2665 164.805Z" fill="#FF5906"/>
<path d="M298.71 101.415C288.763 185.743 176.4 229.866 142.001 235.703C132.788 231.998 119.278 212.623 120.621 206.12C136.954 175.293 214.109 82.4463 297.299 99.4618C298.456 99.6692 298.847 100.309 298.71 101.415Z" fill="white" stroke="#EA5028"/>
<path d="M273.624 158.741C276.016 155.747 278.284 152.644 280.404 149.48C273.125 148.445 260.66 145.056 252.549 133.295C243.929 121.907 244.62 109.005 245.922 101.768C242.267 102.778 238.631 103.964 235.053 105.285C234.501 113.439 235.398 126.631 244.705 139.009C253.503 151.688 265.694 156.694 273.621 158.744L273.624 158.741Z" fill="#FF5906"/>
<path d="M280.403 149.467C273.125 148.44 260.661 145.045 252.546 133.292C243.93 121.901 244.621 109 245.93 101.767C262.432 97.1582 279.737 95.8508 297.302 99.4546C298.455 99.6743 298.85 100.302 298.719 101.414C296.629 119.223 289.957 135.244 280.403 149.467Z" fill="white" stroke="#EA5028"/>
<path d="M117.399 226.402C116.388 225.003 116.554 223.075 117.789 221.87L128.179 211.718C128.901 211.01 129.901 210.649 130.91 210.738C131.919 210.827 132.842 211.348 133.435 212.168L140.983 222.613C141.578 223.435 141.783 224.476 141.549 225.458C141.316 226.444 140.66 227.28 139.761 227.745L126.862 234.423C125.33 235.218 123.447 234.771 122.437 233.373L117.396 226.399L117.399 226.402Z" fill="#2F201C"/>
<path d="M161.047 230.842C153.462 233.25 146.927 234.882 142.003 235.711C132.794 232.007 119.276 212.62 120.62 206.125C122.861 201.884 126.265 196.482 130.668 190.353C133.228 202.577 140.637 216.843 161.047 230.842Z" fill="#FF5906"/>
<path d="M200.008 128.437C199.448 127.206 198.891 125.97 198.353 124.738C198.798 124.369 199.256 123.987 199.702 123.62C200.281 124.946 200.868 126.283 201.472 127.604C201.812 128.35 200.35 129.186 200.009 128.44L200.008 128.437Z" fill="#D7521E"/>
<path d="M190.778 132.841C190.404 132.155 190.004 131.493 189.57 130.846C190.002 130.472 190.427 130.088 190.867 129.724C191.306 130.371 191.707 131.033 192.075 131.72C192.469 132.404 191.172 133.526 190.778 132.841Z" fill="#D7521E"/>
<path d="M182.095 141.062C181.274 140.247 180.484 139.444 179.788 138.537C180.212 138.133 180.633 137.726 181.064 137.332C181.762 138.272 182.583 139.087 183.412 139.912C183.98 140.486 182.644 141.634 182.095 141.062Z" fill="#D7521E"/>
<path d="M172.88 148.296L171.12 145.918C171.527 145.487 171.942 145.067 172.36 144.649L174.203 147.139C174.686 147.792 173.363 148.949 172.88 148.296Z" fill="#D7521E"/>
<path d="M163.846 157.819C162.978 156.94 162.191 156.008 161.428 155.038C161.836 154.606 162.236 154.163 162.637 153.72C163.442 154.746 164.27 155.734 165.171 156.659C165.729 157.25 164.399 158.396 163.846 157.819Z" fill="#D7521E"/>
<path d="M155.402 166.462C154.528 165.607 153.728 164.687 152.975 163.708C153.368 163.255 153.766 162.809 154.158 162.356C154.949 163.394 155.785 164.392 156.727 165.302C157.298 165.881 155.969 167.027 155.402 166.462Z" fill="#D7521E"/>
<path d="M217.662 174.048C227.377 175.612 236.521 169.004 238.084 159.288C239.648 149.573 233.04 140.429 223.324 138.865C213.609 137.302 204.465 143.91 202.902 153.625C201.338 163.341 207.946 172.484 217.662 174.048Z" fill="#FF5906"/>
<path d="M218.241 170.446C225.967 171.689 233.239 166.434 234.482 158.708C235.726 150.982 230.471 143.711 222.745 142.467C215.019 141.224 207.747 146.479 206.504 154.205C205.26 161.931 210.515 169.202 218.241 170.446Z" fill="#2F201C"/>
<mask id="mask0_184_4623" style="mask-type:luminance" maskUnits="userSpaceOnUse" x="207" y="140" width="27" height="32">
<path d="M216.892 171.895C223.868 171.448 231.136 164.175 233.125 155.649C235.114 147.123 231.071 140.573 224.094 141.019C217.118 141.465 209.85 148.738 207.861 157.264C205.872 165.79 209.915 172.341 216.892 171.895Z" fill="white"/>
</mask>
<g mask="url(#mask0_184_4623)">
<g opacity="0.1">
<path d="M237.825 155.247C232.436 148.122 222.064 157.102 216.673 149.974C214.176 146.674 215.268 142.533 216.473 138.475L206.457 147.148C205.259 151.007 204.134 154.688 206.942 158.4C212.332 165.526 222.703 156.545 228.095 163.673C229.537 165.58 229.777 167.766 229.494 170.054L239.526 161.367C239.717 159.313 239.366 157.285 237.824 155.245L237.825 155.247Z" fill="white"/>
</g>
</g>
<path d="M229.399 154.997C227.662 155.394 226.483 162.719 222.377 166.906C228.591 163.916 233.674 154.52 229.399 154.997Z" fill="white"/>
<path d="M169.97 192.972C175.734 200.947 186.873 202.74 194.848 196.976C202.824 191.212 204.617 180.074 198.852 172.098C193.088 164.122 181.95 162.33 173.974 168.094C165.999 173.858 164.206 184.996 169.97 192.972Z" fill="#FF5906"/>
<path d="M172.927 190.835C177.511 197.177 186.369 198.603 192.711 194.019C199.054 189.435 200.479 180.578 195.895 174.235C191.312 167.893 182.454 166.467 176.112 171.051C169.769 175.635 168.343 184.492 172.927 190.835Z" fill="#2F201C"/>
<mask id="mask1_184_4623" style="mask-type:luminance" maskUnits="userSpaceOnUse" x="169" y="168" width="30" height="29">
<path d="M171.745 193.198C175.673 198.237 184.528 197.549 191.523 191.66C198.519 185.771 201.005 176.911 197.078 171.872C193.15 166.832 184.295 167.521 177.299 173.41C170.304 179.299 167.817 188.158 171.745 193.198Z" fill="white"/>
</mask>
<g mask="url(#mask1_184_4623)">
<g opacity="0.1">
<path d="M201.743 181.325C196.354 174.199 185.982 183.18 180.591 176.051C178.094 172.751 179.185 168.61 180.391 164.552L170.375 173.225C169.177 177.084 168.052 180.765 170.86 184.477C176.249 191.603 186.621 182.622 192.013 189.75C193.455 191.657 193.695 193.843 193.408 196.134L203.441 187.447C203.631 185.393 203.281 183.365 201.738 181.325L201.743 181.325Z" fill="white"/>
</g>
</g>
<path d="M193.317 181.075C191.58 181.472 190.401 188.796 186.295 192.984C192.509 189.993 197.592 180.598 193.317 181.075Z" fill="white"/>
</svg>
