<svg width="204" height="199" viewBox="0 0 204 199" fill="none" xmlns="http://www.w3.org/2000/svg">
<g clip-path="url(#clip0_184_5243)">
<g style="mix-blend-mode:overlay" opacity="0.5">
<path d="M135.324 126.156L131.832 122.392L138.96 115.776L129.839 105.945L128.704 106.997C128.494 106.731 128.273 106.471 128.04 106.222C125.079 103.033 121.017 101.483 117.004 101.61L116.949 101.66L110.451 94.6572L123.159 82.8659L137.383 98.2001L201.043 39.1051L166.938 2.3472L103.278 61.4422L120.53 80.0371L107.822 91.8284L93.5645 76.4609L91.7214 78.1715L86.8121 72.8792C95.6732 61.7079 97.4222 48.0732 90.2492 40.3452C90.2215 40.3175 90.1938 40.2898 90.1662 40.2621L86.1424 43.9988L54.4119 42.7532C54.4063 41.6184 53.9968 40.4836 53.1666 39.5868C51.4065 37.688 48.4344 37.5772 46.536 39.3376C44.6376 41.098 44.5269 44.0708 46.2869 45.9696C46.8736 46.6007 47.5931 47.0324 48.3624 47.2649L48.0802 79.323L44.2003 82.9268C44.228 82.9545 44.2501 82.9877 44.2778 83.0154C51.4508 90.7434 65.1769 90.0182 76.9714 82.0134L81.8807 87.3056L86.3583 83.1482L80.0376 89.0162L94.2951 104.378L81.2663 116.468L83.8898 119.297L96.9185 107.207L103.416 114.21L103.361 114.26C102.929 118.256 104.175 122.425 107.136 125.614C107.368 125.863 107.612 126.101 107.861 126.333L106.726 127.385L115.853 137.217L122.982 130.601L126.474 134.366C124.216 139.625 125.101 145.952 129.241 150.42C134.848 156.459 144.29 156.814 150.329 151.206C156.372 145.598 156.721 136.154 151.114 130.114C146.969 125.647 140.731 124.296 135.318 126.156H135.324ZM84.2329 45.7758L67.3133 61.481L53.0393 46.1024C53.4876 45.654 53.8252 45.1447 54.0577 44.5911L84.2329 45.7758ZM49.962 77.5847L50.2276 47.4421C50.5929 47.4033 50.9582 47.3258 51.3124 47.1985L65.8355 62.8483L49.962 77.5847Z" fill="#DB3B12"/>
<path d="M141.894 156.764C136.658 157.301 131.61 155.402 128.035 151.549C123.823 147.01 122.511 140.522 124.559 134.731L122.904 132.949L115.775 139.564L104.39 127.296L105.508 126.261C102.769 123.067 101.396 118.937 101.667 114.747L96.841 109.549L83.8122 121.639L78.9306 116.38L91.9594 104.29L77.7019 88.9276L79.545 87.217L76.7167 84.1723C71.6027 87.4108 66.1288 89.3982 60.8155 89.9462C53.5318 90.6935 47.2278 88.6342 43.0656 84.1502L41.9144 82.8603L43.0712 81.7144L46.4252 78.5977L46.6909 48.361C46.0876 48.0344 45.5397 47.6082 45.0692 47.1044C42.6893 44.5358 42.8387 40.5057 45.4013 38.1253C46.4197 37.1787 47.6871 36.6029 49.0708 36.4645C51.0744 36.2597 53.0115 36.9849 54.3786 38.463C55.0926 39.2324 55.5963 40.1569 55.8564 41.1534L85.5114 42.3159L90.2547 37.9149L91.4612 39.2214C98.8999 47.2373 97.8317 60.8831 88.9761 72.7851L91.7989 75.8298L93.6419 74.1193L107.899 89.4867L118.172 79.954L100.92 61.3592L167.027 0L203.39 39.1882L137.294 100.542L123.07 85.2075L112.798 94.7402L117.624 99.9384C121.819 99.9771 125.837 101.654 128.821 104.627L129.939 103.592L141.324 115.859L134.195 122.475L135.85 124.257C136.719 124.025 137.604 123.859 138.501 123.765C143.737 123.228 148.784 125.126 152.36 128.979C155.376 132.229 156.942 136.453 156.776 140.881C156.61 145.31 154.734 149.407 151.485 152.418C148.823 154.887 145.513 156.387 141.91 156.758L141.894 156.764ZM123.076 128.26L128.433 134.034L128.007 135.024C125.937 139.846 126.9 145.448 130.47 149.29C133.331 152.374 137.372 153.891 141.556 153.464C144.434 153.171 147.08 151.97 149.21 149.993C151.806 147.585 153.312 144.308 153.445 140.765C153.577 137.222 152.321 133.845 149.913 131.249C147.057 128.171 143.017 126.649 138.833 127.081C137.826 127.186 136.829 127.402 135.877 127.734L134.853 128.083L129.496 122.314L136.625 115.699L129.761 108.297L128.538 109.432L127.42 108.048C127.232 107.816 127.038 107.583 126.828 107.356C124.448 104.793 121.138 103.321 117.663 103.271L116.86 104.013L108.104 94.5742L123.247 80.5187L137.471 95.8529L198.696 39.0221L166.855 4.69992L105.63 61.5308L122.882 80.1256L107.739 94.1811L93.4814 78.8136L91.6383 80.5242L84.6314 72.9733L85.5169 71.8551C93.5201 61.7688 95.2802 49.8004 90.0222 42.6702L46.6189 82.9545C50.056 85.9161 54.9044 87.2115 60.4779 86.6358C65.6639 86.1043 71.0437 84.0284 76.047 80.6349L77.2259 79.8322L81.9747 84.9529L85.2347 81.9303L87.4928 84.3661L82.3898 89.1048L96.6473 104.472L83.6185 116.562L83.9838 116.956L97.0126 104.865L105.774 114.304L104.971 115.046C104.761 118.511 105.984 121.921 108.359 124.49C108.569 124.711 108.785 124.922 109.001 125.132L110.301 126.35L109.078 127.485L115.947 134.886L123.076 128.271V128.26ZM51.8659 50.2321L51.6555 73.7484L63.4888 62.7653L51.8659 50.2377V50.2321ZM55.4966 46.3072L67.4018 59.1338L80.1759 47.276L55.4966 46.3072ZM49.4195 39.7694C48.7609 39.8358 48.1576 40.1126 47.6705 40.561C46.4474 41.6959 46.3754 43.6224 47.51 44.8458C47.8753 45.2388 48.3292 45.5212 48.8494 45.6762L49.4361 45.8533L50.0505 45.7869C50.3051 45.7592 50.5375 45.7094 50.7478 45.6319L51.3733 45.4049L51.8659 44.9177C52.1481 44.6354 52.3695 44.3088 52.5245 43.9434L52.7569 43.3788V42.7588C52.7514 41.9948 52.4636 41.2696 51.9489 40.7161C51.2958 40.013 50.3715 39.6642 49.414 39.7639L49.4195 39.7694Z" fill="#DB3B12"/>
<path d="M66.0062 100.377L2.34302 159.466L36.4443 196.222L100.107 137.134L66.0062 100.377Z" fill="#DB3B12"/>
<path d="M36.3631 198.565L0 159.377L66.0956 98.023L102.459 137.211L36.3631 198.565ZM4.69344 159.554L36.5402 193.876L97.7653 137.04L65.9185 102.723L4.69344 159.554Z" fill="#DB3B12"/>
</g>
<path d="M131.835 122.408L122.987 130.621L127.663 135.66L136.511 127.448L131.835 122.408Z" fill="#DB3B12"/>
<path d="M151.125 130.114C145.519 124.075 136.077 123.72 130.038 129.328C124 134.936 123.646 144.38 129.252 150.42C134.859 156.459 144.301 156.814 150.339 151.206C156.383 145.598 156.732 136.154 151.125 130.114Z" fill="#FFE4D5"/>
<path d="M120.727 79.8553L81.2765 116.471L83.9005 119.3L123.351 82.6837L120.727 79.8553Z" fill="#DB3B12"/>
<path d="M116.998 101.61L103.372 114.26C102.94 118.256 104.186 122.425 107.147 125.614C112.543 131.432 121.598 131.808 127.365 126.449C133.132 121.096 133.437 112.034 128.035 106.216C125.074 103.027 121.011 101.477 116.998 101.605V101.61Z" fill="#FFE4D5"/>
<path d="M93.5672 76.4763L80.0491 89.023L103.428 114.222L116.946 101.676L93.5672 76.4763Z" fill="white"/>
<path d="M129.839 105.952L106.734 127.397L115.856 137.229L138.961 115.785L129.839 105.952Z" fill="white"/>
<path d="M84.6477 70.5533L74.8175 79.6772L81.8877 87.2979L91.718 78.174L84.6477 70.5533Z" fill="#DB3B12"/>
<path d="M91.3672 44.2036L48.4122 42.5207L48.0414 84.438L49.901 84.4547L50.2442 46.0415L68.6859 65.9207L70.1637 64.5533L51.5449 44.4915L91.3007 46.0526L91.3672 44.2036Z" fill="#DB3B12"/>
<path d="M44.2113 82.9268C44.239 82.9544 44.2611 82.9877 44.2888 83.0153C52.5577 91.928 69.5548 89.603 82.2459 77.8227C94.937 66.0425 98.5235 49.2634 90.2546 40.3507C90.227 40.323 90.1993 40.2953 90.1716 40.2676L44.2113 82.9323V82.9268Z" fill="white"/>
<path d="M53.172 39.5923C51.4119 37.6935 48.4398 37.5828 46.5414 39.3431C44.643 41.1035 44.5323 44.0763 46.2923 45.9751C48.0524 47.8739 51.019 47.9846 52.9174 46.2242C54.8158 44.4638 54.9265 41.4966 53.1664 39.5923H53.172Z" fill="white"/>
<path d="M66.0062 100.377L2.34302 159.466L36.4443 196.222L100.107 137.134L66.0062 100.377Z" fill="white"/>
<path d="M17.2399 150.615L7.71729 159.484L21.1413 173.903L30.6639 165.033L17.2399 150.615Z" fill="#EA5028"/>
<path d="M29.3338 139.388L19.8071 148.261L33.2311 162.68L42.7578 153.807L29.3338 139.388Z" fill="#EA5028"/>
<path d="M41.4481 128.143L31.9214 137.016L45.3454 151.435L54.8721 142.562L41.4481 128.143Z" fill="#EA5028"/>
<path d="M53.542 116.916L44.0153 125.789L57.4393 140.208L66.966 131.335L53.542 116.916Z" fill="#EA5028"/>
<path d="M65.6466 105.686L56.1239 114.556L69.5479 128.974L79.0705 120.105L65.6466 105.686Z" fill="#EA5028"/>
<path d="M32.9875 167.589L23.4608 176.462L36.8848 190.881L46.4115 182.008L32.9875 167.589Z" fill="#EA5028"/>
<path d="M45.0828 156.355L35.5602 165.225L48.9842 179.643L58.5068 170.774L45.0828 156.355Z" fill="#EA5028"/>
<path d="M57.186 145.127L47.6633 153.996L61.0873 168.415L70.61 159.545L57.186 145.127Z" fill="#EA5028"/>
<path d="M69.291 133.883L59.7683 142.753L73.1923 157.171L82.715 148.302L69.291 133.883Z" fill="#EA5028"/>
<path d="M81.3996 122.65L71.8729 131.523L85.2969 145.941L94.8236 137.068L81.3996 122.65Z" fill="#EA5028"/>
<path d="M166.938 2.35905L103.275 61.4477L137.376 98.2038L201.039 39.1152L166.938 2.35905Z" fill="white"/>
<path d="M118.155 52.5854L108.632 61.4548L122.056 75.8733L131.579 67.0039L118.155 52.5854Z" fill="#EA5028"/>
<path d="M130.269 41.3627L120.747 50.2321L134.171 64.6506L143.693 55.7812L130.269 41.3627Z" fill="#EA5028"/>
<path d="M142.377 30.125L132.85 38.9982L146.274 53.4167L155.801 44.5436L142.377 30.125Z" fill="#EA5028"/>
<path d="M154.477 18.8964L144.955 27.7658L158.379 42.1844L167.901 33.315L154.477 18.8964Z" fill="#EA5028"/>
<path d="M166.581 7.65707L157.058 16.5265L170.482 30.945L180.005 22.0756L166.581 7.65707Z" fill="#EA5028"/>
<path d="M133.918 69.5616L124.391 78.4347L137.815 92.8533L147.342 83.9801L133.918 69.5616Z" fill="#EA5028"/>
<path d="M146.012 58.3212L136.491 67.1923L149.917 81.6085L159.438 72.7374L146.012 58.3212Z" fill="#EA5028"/>
<path d="M158.122 47.1014L148.599 55.9708L162.023 70.3894L171.546 61.52L158.122 47.1014Z" fill="#EA5028"/>
<path d="M170.221 35.8636L160.698 44.7329L174.122 59.1515L183.645 50.2821L170.221 35.8636Z" fill="#EA5028"/>
<path d="M182.334 24.6315L172.807 33.5046L186.231 47.9231L195.758 39.05L182.334 24.6315Z" fill="#EA5028"/>
</g>
<defs>
<clipPath id="clip0_184_5243">
<rect width="203.384" height="198.565" fill="white"/>
</clipPath>
</defs>
</svg>
