<svg width="135" height="88" viewBox="0 0 135 88" fill="none" xmlns="http://www.w3.org/2000/svg">
<g clip-path="url(#clip0_184_4559)">
<path d="M46.8601 5.15952C54.6925 0.979005 63.8579 -0.876369 73.3269 0.39476C77.0104 0.888211 80.5244 1.82774 83.8253 3.14624C73.6227 10.8362 59.4448 5.89772 46.8601 5.16347V5.15952Z" fill="#FFE4D5"/>
<path d="M24.7118 33.9139C25.1417 32.0783 25.682 30.29 26.3288 28.5609C27.1254 26.4292 28.0798 24.3804 29.1762 22.4303C30.0951 20.796 31.1126 19.2327 32.2208 17.7445C32.8558 16.8958 33.5183 16.0707 34.2085 15.2693C33.8417 18.3248 34.031 21.5737 34.4017 24.2541C35.2851 29.5518 34.6068 34.6363 32.4141 39.1208C30.7103 42.7842 27.4607 45.7883 23.6352 47.0081C23.438 44.1106 23.5287 41.1538 23.927 38.1655C24.1203 36.7206 24.3845 35.3034 24.7079 33.9139H24.7118Z" fill="#FFE4D5"/>
<path d="M107.677 53.5848C108.415 52.0729 109.559 51.1807 110.947 50.6636C110.769 51.8242 110.548 52.965 110.288 54.0901C109.858 55.9257 109.318 57.714 108.671 59.443C108.131 60.8918 107.512 62.2932 106.833 63.6591C106.865 63.3275 106.881 62.988 106.869 62.6367C106.897 59.4549 106.143 56.1665 107.681 53.5848H107.677Z" fill="#FFA95C"/>
<path d="M100.239 73.3623C95.2426 78.9323 88.8773 83.176 81.7548 85.6275C82.1295 76.1295 92.1546 74.9532 100.239 73.3623Z" fill="#FFA95C"/>
<path d="M68.6496 80.618C71.4418 74.6176 78.7891 73.2123 82.7013 67.7646C87.213 60.801 89.0942 52.6887 94.7772 45.883C99.0681 40.8577 104.834 39.03 111.049 38.0036C111.574 41.8407 111.601 45.812 111.065 49.8385C111.03 50.1149 110.986 50.3912 110.943 50.6636C109.555 51.1807 108.411 52.0729 107.673 53.5848C106.135 56.1665 106.889 59.4549 106.861 62.6367C106.873 62.988 106.861 63.3275 106.826 63.6591C106.502 64.3065 106.171 64.946 105.816 65.5737C104.897 67.208 103.879 68.7712 102.771 70.2595C101.971 71.3332 101.127 72.3675 100.235 73.3583C92.1546 74.9492 82.1295 76.1256 81.7509 85.6236C76.6752 87.3684 71.2131 88.2053 65.5931 87.9566C66.0309 85.3314 67.2574 82.8721 68.6417 80.618H68.6496Z" fill="#FF8E2E"/>
<path d="M45.823 72.782C50.804 68.2699 58.2302 69.2647 64.4062 67.7054C72.6408 65.621 69.3635 54.4296 73.0431 47.7542C74.7902 43.6092 78.6748 41.3393 82.8473 39.9063C91.6262 37.218 103.363 35.5442 108.163 27.278C109.563 30.6808 110.545 34.2771 111.053 38.0036C104.838 39.03 99.0721 40.8617 94.7813 45.883C89.0982 52.6887 87.2171 60.801 82.7054 67.7646C78.7931 73.2162 71.4419 74.6216 68.6536 80.618C67.2694 82.8721 66.0428 85.3314 65.6051 87.9566C64.3036 87.8974 62.9903 87.7908 61.6731 87.6131C54.2154 86.6144 47.4557 83.7958 41.7609 79.6666C42.5536 76.9743 43.6776 74.4242 45.8269 72.782H45.823Z" fill="#EA5028"/>
<path d="M48.2365 42.8355C48.2681 33.681 41.6031 18.0484 53.6947 16.88C68.7009 15.0048 86.1798 22.9356 98.7408 13.0508C102.759 17.1208 105.97 21.9566 108.162 27.274C103.363 35.5363 91.6301 37.2141 82.8473 39.9024C78.6787 41.3354 74.794 43.6013 73.043 47.7502C69.3634 54.4256 72.6447 65.621 64.4061 67.7014C58.2301 69.2647 50.8 68.2699 45.8229 72.778C43.6736 74.4242 42.5496 76.9704 41.7569 79.6627C37.7066 76.7256 34.2006 73.1294 31.3768 69.0515C42.1355 65.0249 48.0906 54.4769 48.2365 42.8315V42.8355Z" fill="#FF8E2E"/>
<path d="M32.4179 39.1247C34.6107 34.6402 35.289 29.5518 34.4056 24.258C34.0349 21.5776 33.8456 18.3287 34.2124 15.2733C37.7697 11.152 42.0645 7.72151 46.8601 5.16347C59.4448 5.90167 73.6227 10.8362 83.8253 3.14624C89.5122 5.42006 94.5603 8.82684 98.7407 13.0547C86.1797 22.9395 68.6969 15.0088 53.6947 16.8839C41.603 18.0524 48.2681 33.681 48.2365 42.8394C48.0906 54.4848 42.1355 65.0328 31.3768 69.0594C26.944 62.6603 24.1833 55.0809 23.6391 47.016C27.4645 45.7962 30.7142 42.792 32.4179 39.1287V39.1247Z" fill="#FFCC95"/>
<path d="M0.157722 12.6481C1.70763 9.31239 14.2528 11.5665 32.2208 17.7445C31.1126 19.2327 30.0951 20.796 29.1762 22.4303C25.4887 21.8263 23.154 22.0079 22.6413 23.1172C22.1286 24.2225 23.4932 26.1252 26.3287 28.5609C32.8518 34.1586 47.1638 42.571 64.4297 50.6083C81.6957 58.6456 97.3446 64.188 105.824 65.5736C109.511 66.1776 111.846 65.996 112.359 64.8868C112.871 63.7814 111.507 61.8787 108.671 59.443C109.318 57.714 109.858 55.9257 110.288 54.0901C126.584 63.8683 136.388 72.024 134.838 75.3598C133.288 78.6955 120.743 76.4414 102.775 70.2634C91.2278 66.2921 77.4403 60.6984 62.8877 53.9243C48.3391 47.1502 35.1826 40.1984 24.7118 33.9178C8.41208 24.1396 -1.39219 15.9878 0.157722 12.6521V12.6481Z" fill="#FFEFE4"/>
</g>
<defs>
<clipPath id="clip0_184_4559">
<rect width="135" height="88" fill="white" transform="matrix(-1 0 0 1 135 0)"/>
</clipPath>
</defs>
</svg>
