<svg width="176" height="114" viewBox="0 0 176 114" fill="none" xmlns="http://www.w3.org/2000/svg">
<g clip-path="url(#clip0_215_3057)">
<path d="M101.043 15.1504L82.6982 15.396L57.19 25.0307L63.9741 32.0871L101.043 15.1504Z" fill="#FF5906"/>
<path d="M59.3742 29.1838C72.5363 22.2288 92.5352 13.055 118.127 6.66032C145.876 -0.274357 169.208 -3.74575 174.953 8.71879C180.697 21.1833 146.158 38.0856 135.493 43.5667C112.79 55.2355 92.9026 62.3671 79.3224 66.6343C72.6723 54.1514 66.0223 41.6686 59.3742 29.1858V29.1838Z" fill="white"/>
<path d="M154.784 0.00961888C164.822 -0.167319 172.337 2.07494 175.321 8.54953C176.852 11.8707 175.664 15.4308 173.034 18.8975C170.398 22.3711 166.245 25.8527 161.609 29.0949C152.331 35.583 141.002 41.1926 135.678 43.9284C112.95 55.6104 93.0398 62.7502 79.444 67.0223L79.1225 67.1232L78.9641 66.8258C72.314 54.343 65.6639 41.8601 59.0158 29.3772L58.9682 29.2878V28.9397L59.1845 28.8255C72.3666 21.8599 92.3967 12.6718 118.028 6.26711C131.904 2.79958 144.714 0.187131 154.784 0.00961888ZM174.584 8.88933C171.823 2.89941 164.8 0.645151 154.798 0.821443C144.829 0.997173 132.099 3.58781 118.225 7.05494C92.9057 13.3817 73.0688 22.433 59.9233 29.3538C66.4549 41.6178 72.9884 53.8818 79.5219 66.1458C93.078 61.8723 112.808 54.77 135.307 43.2062C140.649 40.4609 151.921 34.8788 161.144 28.4294C165.757 25.2029 169.828 21.7792 172.387 18.4068C174.951 15.0274 175.926 11.8004 174.584 8.88933Z" fill="#FF5906"/>
<path d="M78.8604 66.8472C85.0348 63.7362 85.7649 52.728 80.4911 42.2598C75.2173 31.7915 65.9366 25.8273 59.7622 28.9383C53.5877 32.0493 52.8576 43.0575 58.1314 53.5257C63.4053 63.994 72.6859 69.9582 78.8604 66.8472Z" fill="#001C2E"/>
<path d="M80.1285 42.4427C77.5184 37.2619 73.9251 33.2136 70.2449 30.8485C66.5557 28.4777 62.8516 27.8365 59.9448 29.3011C57.0381 30.7657 55.349 34.1242 55.0587 38.5001C54.7692 42.8653 55.884 48.1625 58.494 53.3433C61.104 58.524 64.6974 62.5723 68.3776 64.9374C72.0668 67.3083 75.7709 67.9494 78.6777 66.4848C81.5844 65.0202 83.2735 61.6617 83.5638 57.2858C83.8533 52.9206 82.7385 47.6234 80.1285 42.4427ZM80.8536 42.0773C83.5174 47.3648 84.6746 52.8059 84.374 57.3395C84.074 61.8625 82.3107 65.5635 79.043 67.21C75.7753 68.8564 71.7519 68.0711 67.9387 65.6205C64.1165 63.1642 60.4326 58.9961 57.7689 53.7086C55.1051 48.4212 53.9478 42.98 54.2485 38.4464C54.5485 33.9234 56.3118 30.2224 59.5795 28.5759C62.8472 26.9295 66.8706 27.7148 70.6838 30.1654C74.506 32.6217 78.1898 36.7898 80.8536 42.0773Z" fill="#FF5906"/>
<path d="M137.344 42.1504L124.32 61.8237L97.1838 72.0003L85.5157 60.6036L137.344 42.1504Z" fill="#FF5906"/>
<path d="M61.8832 62.0422L52.3141 43.8833L64.849 41.3234C65.8863 41.0189 67.0413 41.3052 67.8837 42.0908C68.8439 42.9861 70.0902 44.3178 71.0098 45.9012C71.9294 47.4847 72.4693 49.2264 72.7718 50.5034C73.0377 51.6239 72.7149 52.7689 71.9355 53.52L61.8812 62.0402L61.8832 62.0422Z" fill="#FF5906"/>
<path d="M64.7578 40.9424C65.9307 40.6056 67.2185 40.9346 68.151 41.8041C69.1259 42.7131 70.4022 44.0749 71.3485 45.7045C72.2947 47.3338 72.8459 49.1163 73.1531 50.4128L73.1788 50.5298C73.4262 51.7401 73.0648 52.9758 72.2073 53.8021C72.2013 53.8079 72.195 53.8135 72.1886 53.8189L62.1698 62.3089C62.1535 62.3264 62.1356 62.3428 62.1157 62.3575C61.9597 62.4724 61.743 62.4561 61.606 62.319L61.604 62.317C61.5718 62.2848 61.5462 62.2474 61.5271 62.207L51.9676 44.0659C51.9101 43.9569 51.9073 43.8271 51.9601 43.7156C52.0128 43.6042 52.115 43.524 52.2358 43.4994L64.7578 40.9424ZM67.6165 42.3773C66.8692 41.6803 65.856 41.4361 64.9594 41.6993C64.9488 41.7024 64.938 41.705 64.9273 41.7072L52.9041 44.1625L62.0007 61.4249L71.6718 53.2295C72.3397 52.5801 72.6255 51.5837 72.3906 50.5938V50.5936C72.0928 49.3363 71.5638 47.6354 70.6709 46.098C69.834 44.6568 68.7128 43.4226 67.7969 42.5476L67.6165 42.3773Z" fill="#FF5906"/>
<path d="M61.3914 62.3543C63.9571 61.1034 64.0178 55.9474 61.527 50.8379C59.0362 45.7284 54.9371 42.6004 52.3714 43.8513C49.8058 45.1022 49.7451 50.2583 52.2359 55.3677C54.7267 60.4772 58.8258 63.6052 61.3914 62.3543Z" fill="#001C2E"/>
<path d="M61.1621 51.0154C59.9384 48.5052 58.3277 46.5002 56.731 45.2817C55.1132 44.0471 53.6203 43.6936 52.5493 44.2158C51.4784 44.7379 50.8373 46.1318 50.8134 48.1668C50.7897 50.1753 51.3772 52.6792 52.6008 55.1894C53.8245 57.6995 55.4351 59.7044 57.0318 60.9229C58.6496 62.1574 60.1426 62.5111 61.2135 61.989C62.2845 61.4668 62.9255 60.0728 62.9494 58.0377C62.973 56.0293 62.3857 53.5255 61.1621 51.0154ZM61.8919 50.6595C63.159 53.2589 63.7868 55.8878 63.7613 58.0475C63.7362 60.1805 63.064 61.9902 61.5694 62.7189C60.0747 63.4476 58.2351 62.8626 56.5394 61.5685C54.8224 60.2583 53.1381 58.1445 51.871 55.5452C50.6038 52.9459 49.9761 50.317 50.0016 48.1573C50.0267 46.0242 50.6988 44.2146 52.1935 43.4859C53.6882 42.7571 55.5277 43.3422 57.2235 44.6362C58.9405 45.9464 60.6248 48.0602 61.8919 50.6595Z" fill="#FF5906"/>
<path d="M94.5185 47.2397C94.4271 47.2032 94.3479 47.1849 94.2789 47.1788C94.2119 47.1727 94.1429 47.1849 94.0739 47.2093C93.9541 47.2539 93.8608 47.3534 93.7897 47.5097C93.7187 47.666 93.6862 47.8467 93.6923 48.0517C93.6963 48.1979 93.7268 48.3502 93.7816 48.5126C93.7917 48.5349 93.8547 48.6831 93.9684 48.9572C94.082 49.2312 94.1693 49.5174 94.2343 49.8199C94.2972 50.1204 94.3337 50.4371 94.3439 50.772C94.3703 51.6876 94.214 52.5118 93.875 53.2426C93.536 53.9734 93.1097 54.4342 92.6002 54.623C92.4256 54.688 92.2206 54.7063 91.9851 54.6819L91.91 52.0753C92.0359 52.0733 92.1333 52.057 92.2023 52.0327C92.4804 51.9292 92.6124 51.651 92.5981 51.1983C92.5941 51.0522 92.5799 50.9324 92.5535 50.839C92.5291 50.7436 92.4581 50.567 92.3464 50.3051C92.1597 49.891 92.0379 49.558 91.9831 49.3104C91.9283 49.0627 91.8958 48.7765 91.8877 48.4517C91.8633 47.6133 92.0196 46.8114 92.3586 46.044C92.6976 45.2787 93.1198 44.8016 93.6253 44.6149C93.8689 44.5255 94.1409 44.5194 94.4454 44.5966L94.5225 47.2418L94.5185 47.2397Z" fill="#FF5906"/>
<path d="M93.5904 44.5194C93.8402 44.4279 94.1136 44.418 94.4105 44.484L94.4704 44.498L94.5445 44.5169L94.5469 44.5936L94.629 47.4083L94.4777 47.3326C94.3957 47.3001 94.3272 47.2849 94.27 47.2798C94.2218 47.2755 94.1679 47.2836 94.109 47.3042C94.0227 47.3365 93.946 47.4109 93.882 47.5516C93.8265 47.6739 93.7961 47.8153 93.7932 47.9777L93.7938 48.0486C93.7975 48.1818 93.825 48.3233 93.8767 48.4773C93.8936 48.5158 93.9564 48.6635 94.062 48.9182C94.1638 49.1634 94.2447 49.4177 94.3076 49.6838L94.3334 49.7986L94.3336 49.799C94.3898 50.0674 94.4254 50.3479 94.4403 50.6419L94.4454 50.7688C94.4722 51.6979 94.3135 52.5382 93.9671 53.2852C93.633 54.0055 93.2075 54.4855 92.6863 54.6983L92.6355 54.7181C92.4424 54.79 92.2207 54.8082 91.9746 54.7827L91.8862 54.7736L91.8055 51.9753L91.9084 51.9737C92.027 51.9718 92.1125 51.9563 92.1679 51.9369C92.2806 51.8946 92.3631 51.8186 92.4181 51.7027C92.4746 51.5835 92.5036 51.4186 92.4968 51.2014V51.201C92.4928 51.0588 92.4789 50.9484 92.4557 50.8665L92.4551 50.864C92.4332 50.778 92.3663 50.6103 92.2539 50.3467L92.1865 50.1941C92.036 49.8465 91.9339 49.5577 91.884 49.3321C91.8275 49.0769 91.7946 48.7842 91.7863 48.4545C91.7615 47.601 91.9207 46.7842 92.2658 46.0029C92.6099 45.2262 93.0476 44.7199 93.59 44.5194H93.5904ZM94.3461 44.6776C94.0883 44.6235 93.8617 44.6359 93.6602 44.7098L93.6604 44.71C93.192 44.8831 92.7853 45.3311 92.4514 46.085C92.1186 46.8384 91.9652 47.6252 91.9891 48.4485V48.4489C91.9971 48.7686 92.0291 49.0483 92.0823 49.2883C92.1282 49.4961 92.2246 49.7713 92.3725 50.1128L92.4389 50.2633L92.4399 50.2653C92.5494 50.5221 92.6237 50.7061 92.651 50.8112C92.6806 50.916 92.6954 51.0451 92.6996 51.195L92.7006 51.2817C92.6987 51.4799 92.6676 51.6508 92.6016 51.7898C92.5248 51.9517 92.4025 52.0662 92.2377 52.1276L92.2361 52.1282C92.1758 52.1494 92.1015 52.1643 92.0143 52.1716L92.0838 54.5878C92.2702 54.5984 92.4297 54.578 92.5648 54.5278C93.0393 54.3519 93.4498 53.9177 93.7829 53.1997C94.1144 52.4851 94.2684 51.6769 94.2424 50.7749C94.2324 50.4456 94.1965 50.135 94.135 49.841C94.0712 49.544 93.9856 49.2637 93.8745 48.9959C93.7605 48.721 93.6984 48.5748 93.6892 48.5544L93.687 48.5498L93.6854 48.5449C93.6281 48.3752 93.5952 48.2129 93.5908 48.0546C93.5844 47.8371 93.6187 47.6405 93.6973 47.4676C93.7753 47.2958 93.8854 47.1712 94.0384 47.1141L94.04 47.1133C94.1186 47.0856 94.2027 47.0699 94.288 47.0776C94.3287 47.0812 94.3713 47.0885 94.4167 47.0998L94.3461 44.6776Z" fill="#DB3B12"/>
<path d="M97.2426 48.378C97.267 49.2164 97.2731 49.7828 97.2629 50.0812C97.2447 50.6415 97.1736 51.1429 97.0518 51.5855C96.7798 52.5924 96.3413 53.2095 95.7364 53.4328C95.5639 53.4978 95.4055 53.4958 95.2634 53.4267L95.1863 50.7735L95.3954 50.7349C95.5436 50.6801 95.637 50.5705 95.6715 50.406C95.706 50.2416 95.7202 49.9838 95.71 49.6346L95.5476 44.0824L97.1026 43.5059L97.2447 48.378H97.2426Z" fill="#FF5906"/>
<path d="M97.204 43.5027L97.3461 48.3748L97.3493 48.4793H97.3469C97.3688 49.2605 97.3742 49.7952 97.3643 50.0845C97.3459 50.6509 97.2738 51.1602 97.1496 51.6116C96.8745 52.63 96.4228 53.287 95.7719 53.5275L95.7721 53.5277C95.5783 53.6006 95.3904 53.601 95.219 53.5178L95.1637 53.491L95.0822 50.6892L95.1679 50.6735L95.3659 50.6368C95.4762 50.5942 95.5448 50.5147 95.5721 50.385C95.6041 50.2327 95.6186 49.9845 95.6086 49.6375L95.444 44.0124L97.2 43.3613L97.204 43.5027ZM95.651 44.1519L95.8116 49.6315L95.8141 49.7592C95.8178 50.0481 95.8031 50.2722 95.7707 50.4267C95.7294 50.6235 95.6131 50.7624 95.4305 50.8299L95.4224 50.8329L95.4139 50.8345L95.2902 50.8573L95.3629 53.357C95.4623 53.3894 95.5735 53.3854 95.7007 53.3375L95.7013 53.3373C96.26 53.1311 96.685 52.554 96.9538 51.5589L96.954 51.5583C97.0733 51.1248 97.1435 50.6316 97.1615 50.0778C97.1716 49.783 97.1655 49.2194 97.1411 48.3808L97.1381 48.2763H97.1403L97.0051 43.65L95.651 44.1519Z" fill="#DB3B12"/>
<path d="M99.9567 51.6994L98.3713 52.2861L98.1033 43.1326L99.6887 42.5459L99.9567 51.6994Z" fill="#FF5906"/>
<path d="M100.06 51.7692L99.9919 51.7943L98.274 52.4301L97.9996 43.0625L99.6535 42.4505L99.7859 42.4014L100.06 51.7692ZM98.2068 43.2023L98.4685 52.1415L99.8529 51.6292L99.5913 42.6898L98.2068 43.2023Z" fill="#DB3B12"/>
<path d="M104.753 49.9232L103.207 50.4957L103.046 44.9617C103.026 44.2939 102.902 44.0036 102.675 44.0868C102.545 44.1335 102.464 44.2451 102.429 44.4177C102.395 44.5902 102.382 44.8521 102.393 45.2033L102.553 50.7372L100.998 51.3138L100.848 46.1777C100.832 45.6296 100.838 45.183 100.864 44.8338C100.892 44.4867 100.939 44.1497 101.004 43.8208C101.13 43.1854 101.341 42.6373 101.633 42.1745C101.926 41.7116 102.25 41.4132 102.608 41.2813C103.243 41.0458 103.755 41.3361 104.144 42.1521C104.315 42.5135 104.437 42.952 104.506 43.4717C104.556 43.8513 104.593 44.3751 104.611 45.0409L104.753 49.9191V49.9232Z" fill="#FF5906"/>
<path d="M102.572 41.186C102.913 41.0596 103.232 41.0718 103.518 41.234C103.782 41.3836 104.007 41.6543 104.198 42.0315L104.236 42.1082L104.236 42.1086C104.412 42.4816 104.536 42.9307 104.606 43.4581C104.658 43.8427 104.694 44.3704 104.713 45.038L104.855 49.916V49.9937L104.789 50.0183L103.109 50.6398L102.945 44.9648L102.94 44.8453C102.925 44.5783 102.892 44.3934 102.845 44.2822C102.818 44.2191 102.792 44.1921 102.774 44.1817C102.762 44.1742 102.744 44.1694 102.71 44.1819L102.709 44.1823C102.623 44.2133 102.559 44.2876 102.529 44.4375C102.496 44.5983 102.484 44.8508 102.494 45.2003L102.654 50.7342L102.656 50.807L102.588 50.8323L100.901 51.458L100.746 46.1806C100.73 45.6305 100.736 45.18 100.763 44.826V44.8254C100.792 44.4746 100.839 44.1338 100.904 43.8011L100.93 43.6809C101.06 43.0856 101.266 42.5654 101.548 42.1201C101.847 41.6466 102.187 41.3285 102.572 41.186ZM103.418 41.4106C103.206 41.2906 102.969 41.2695 102.698 41.3573L102.643 41.3763C102.314 41.4978 102.005 41.7765 101.719 42.2286C101.435 42.6794 101.227 43.2155 101.104 43.8405C101.04 44.1653 100.993 44.4981 100.965 44.8413C100.939 45.1856 100.933 45.6286 100.949 46.1747L101.095 51.1692L102.449 50.6672L102.291 45.2063C102.281 44.8534 102.293 44.5819 102.33 44.3976C102.369 44.2027 102.467 44.0539 102.64 43.9914L102.67 43.9819C102.74 43.9631 102.812 43.9682 102.877 44.0071C102.948 44.0486 102.996 44.1203 103.032 44.2027C103.093 44.3464 103.128 44.5604 103.143 44.8365L103.148 44.9587L103.304 50.3512L104.65 49.8532L104.51 45.0437C104.492 44.3796 104.455 43.8597 104.405 43.4851C104.337 42.9734 104.218 42.5455 104.053 42.1959L104.017 42.1227C103.836 41.7656 103.634 41.5332 103.418 41.4106Z" fill="#DB3B12"/>
<path d="M94.8351 47.2397C94.7438 47.2032 94.6646 47.1849 94.5956 47.1788C94.5286 47.1727 94.4596 47.1849 94.3906 47.2093C94.2708 47.2539 94.1774 47.3534 94.1064 47.5097C94.0354 47.666 94.0029 47.8467 94.009 48.0517C94.013 48.1979 94.0435 48.3502 94.0983 48.5126C94.1084 48.5349 94.1714 48.6831 94.285 48.9572C94.3987 49.2312 94.486 49.5174 94.551 49.8199C94.6139 50.1204 94.6504 50.4371 94.6606 50.772C94.687 51.6876 94.5307 52.5118 94.1917 53.2426C93.8527 53.9734 93.4264 54.4342 92.9169 54.623C92.7423 54.688 92.5373 54.7063 92.3018 54.6819L92.2267 52.0753C92.3525 52.0733 92.45 52.057 92.519 52.0327C92.7971 51.9292 92.929 51.651 92.9148 51.1983C92.9108 51.0522 92.8966 50.9324 92.8702 50.839C92.8458 50.7436 92.7748 50.567 92.6631 50.3051C92.4764 49.891 92.3546 49.558 92.2998 49.3104C92.245 49.0627 92.2125 48.7765 92.2044 48.4517C92.18 47.6133 92.3363 46.8114 92.6753 46.044C93.0143 45.2787 93.4365 44.8016 93.942 44.6149C94.1856 44.5255 94.4576 44.5194 94.7621 44.5966L94.8392 47.2418L94.8351 47.2397Z" fill="#FF5906"/>
<path d="M93.9071 44.5194C94.1569 44.4279 94.4303 44.418 94.7272 44.484L94.7871 44.498L94.8612 44.5169L94.8636 44.5936L94.9457 47.4083L94.7944 47.3326C94.7124 47.3001 94.6439 47.2849 94.5867 47.2798C94.5385 47.2755 94.4846 47.2836 94.4257 47.3042C94.3394 47.3365 94.2627 47.4109 94.1987 47.5516C94.1432 47.6739 94.1128 47.8153 94.1099 47.9777L94.1105 48.0486C94.1142 48.1818 94.1416 48.3233 94.1934 48.4773C94.2103 48.5158 94.2731 48.6635 94.3787 48.9182C94.4804 49.1634 94.5614 49.4177 94.6243 49.6838L94.6501 49.7986L94.6503 49.799C94.7065 50.0674 94.742 50.3479 94.7569 50.6419L94.7621 50.7688C94.7889 51.6979 94.6302 52.5382 94.2838 53.2852C93.9496 54.0055 93.5242 54.4855 93.003 54.6983L92.9522 54.7181C92.759 54.79 92.5374 54.8082 92.2913 54.7827L92.2029 54.7736L92.1222 51.9753L92.2251 51.9737C92.3437 51.9718 92.4292 51.9563 92.4846 51.9369C92.5973 51.8946 92.6798 51.8186 92.7347 51.7027C92.7913 51.5835 92.8203 51.4186 92.8134 51.2014V51.201C92.8095 51.0588 92.7956 50.9484 92.7724 50.8665L92.7718 50.864C92.7499 50.778 92.6829 50.6103 92.5706 50.3467L92.5032 50.1941C92.3527 49.8465 92.2506 49.5577 92.2007 49.3321C92.1442 49.0769 92.1112 48.7842 92.103 48.4545C92.0782 47.601 92.2374 46.7842 92.5825 46.0029C92.9265 45.2262 93.3643 44.7199 93.9067 44.5194H93.9071ZM94.6628 44.6776C94.405 44.6235 94.1784 44.6359 93.9769 44.7098L93.9771 44.71C93.5087 44.8831 93.102 45.3311 92.768 46.085C92.4352 46.8384 92.2819 47.6252 92.3058 48.4485V48.4489C92.3138 48.7686 92.3458 49.0483 92.3989 49.2883C92.4449 49.4961 92.5413 49.7713 92.6892 50.1128L92.7556 50.2633L92.7566 50.2653C92.8661 50.5221 92.9404 50.7061 92.9677 50.8112C92.9973 50.916 93.0121 51.0451 93.0162 51.195L93.0172 51.2817C93.0154 51.4799 92.9842 51.6508 92.9183 51.7898C92.8415 51.9517 92.7192 52.0662 92.5544 52.1276L92.5528 52.1282C92.4925 52.1494 92.4182 52.1643 92.3309 52.1716L92.4005 54.5878C92.5869 54.5984 92.7463 54.578 92.8814 54.5278C93.356 54.3519 93.7665 53.9177 94.0996 53.1997C94.4311 52.4851 94.5851 51.6769 94.5591 50.7749C94.5491 50.4456 94.5132 50.135 94.4517 49.841C94.3879 49.544 94.3023 49.2637 94.1912 48.9959C94.0772 48.721 94.0151 48.5748 94.0058 48.5544L94.0039 48.5498L94.0021 48.5449C93.9448 48.3752 93.9119 48.2129 93.9075 48.0546C93.9011 47.8371 93.9354 47.6405 94.014 47.4676C94.092 47.2958 94.202 47.1712 94.3551 47.1141L94.3567 47.1133C94.4353 47.0856 94.5194 47.0699 94.6047 47.0776C94.6453 47.0812 94.688 47.0885 94.7334 47.0998L94.6628 44.6776Z" fill="white"/>
<path d="M97.5593 48.378C97.5837 49.2164 97.5898 49.7828 97.5796 50.0812C97.5613 50.6415 97.4903 51.1429 97.3685 51.5855C97.0965 52.5924 96.658 53.2095 96.0531 53.4328C95.8806 53.4978 95.7222 53.4958 95.5801 53.4267L95.503 50.7735L95.7121 50.7349C95.8603 50.6801 95.9536 50.5705 95.9881 50.406C96.0227 50.2416 96.0369 49.9838 96.0267 49.6346L95.8643 44.0824L97.4192 43.5059L97.5613 48.378H97.5593Z" fill="#FF5906"/>
<path d="M97.5206 43.5027L97.6628 48.3748L97.6659 48.4793H97.6636C97.6854 49.2605 97.6909 49.7952 97.681 50.0845C97.6625 50.6509 97.5905 51.1602 97.4663 51.6116C97.1912 52.63 96.7395 53.287 96.0886 53.5275L96.0888 53.5277C95.8949 53.6006 95.7071 53.601 95.5357 53.5178L95.4804 53.491L95.3989 50.6892L95.4846 50.6735L95.6826 50.6368C95.7929 50.5942 95.8615 50.5147 95.8888 50.385C95.9207 50.2327 95.9353 49.9845 95.9252 49.6375L95.7607 44.0124L97.5167 43.3613L97.5206 43.5027ZM95.9677 44.1519L96.1282 49.6315L96.1308 49.7592C96.1345 50.0481 96.1198 50.2722 96.0874 50.4267C96.0461 50.6235 95.9298 50.7624 95.7472 50.8299L95.7391 50.8329L95.7306 50.8345L95.6069 50.8573L95.6796 53.357C95.7789 53.3894 95.8902 53.3854 96.0174 53.3375L96.018 53.3373C96.5767 53.1311 97.0016 52.554 97.2705 51.5589L97.2707 51.5583C97.39 51.1248 97.4602 50.6316 97.4782 50.0778C97.4882 49.783 97.4822 49.2194 97.4578 48.3808L97.4548 48.2763H97.457L97.3218 43.65L95.9677 44.1519Z" fill="white"/>
<path d="M100.273 51.6994L98.688 52.2861L98.42 43.1326L100.005 42.5459L100.273 51.6994Z" fill="#FF5906"/>
<path d="M100.377 51.7692L100.309 51.7943L98.5907 52.4301L98.3163 43.0625L99.9702 42.4505L100.103 42.4014L100.377 51.7692ZM98.5235 43.2023L98.7851 52.1415L100.17 51.6292L99.9079 42.6898L98.5235 43.2023Z" fill="white"/>
<path d="M105.072 49.9232L103.525 50.4957L103.365 44.9617C103.345 44.2939 103.221 44.0036 102.993 44.0868C102.864 44.1335 102.782 44.2451 102.748 44.4177C102.713 44.5902 102.701 44.8521 102.711 45.2033L102.872 50.7372L101.317 51.3138L101.166 46.1777C101.15 45.6296 101.156 45.183 101.183 44.8338C101.211 44.4867 101.258 44.1497 101.323 43.8208C101.449 43.1854 101.66 42.6373 101.952 42.1745C102.244 41.7116 102.569 41.4132 102.926 41.2813C103.562 41.0458 104.073 41.3361 104.463 42.1521C104.634 42.5135 104.755 42.952 104.824 43.4717C104.875 43.8513 104.912 44.3751 104.93 45.0409L105.072 49.9191V49.9232Z" fill="#FF5906"/>
<path d="M102.891 41.186C103.232 41.0596 103.551 41.0718 103.837 41.234C104.101 41.3836 104.326 41.6543 104.517 42.0315L104.555 42.1082L104.555 42.1086C104.731 42.4816 104.855 42.9307 104.925 43.4581C104.976 43.8427 105.013 44.3704 105.031 45.038L105.174 49.916V49.9937L105.107 50.0183L103.428 50.6398L103.263 44.9648L103.258 44.8453C103.244 44.5783 103.211 44.3934 103.164 44.2822C103.137 44.2191 103.11 44.1921 103.093 44.1817C103.08 44.1742 103.063 44.1694 103.028 44.1819L103.028 44.1823C102.942 44.2133 102.877 44.2876 102.847 44.4375C102.815 44.5983 102.803 44.8508 102.813 45.2003L102.973 50.7342L102.975 50.807L102.907 50.8323L101.219 51.458L101.065 46.1806C101.049 45.6305 101.055 45.18 101.082 44.826V44.8254C101.11 44.4746 101.157 44.1338 101.223 43.8011L101.248 43.6809C101.378 43.0856 101.585 42.5654 101.866 42.1201C102.165 41.6466 102.506 41.3285 102.891 41.186ZM103.737 41.4106C103.525 41.2906 103.288 41.2695 103.016 41.3573L102.962 41.3763C102.633 41.4978 102.323 41.7765 102.038 42.2286C101.753 42.6794 101.546 43.2155 101.422 43.8405C101.358 44.1653 101.312 44.4981 101.284 44.8413C101.258 45.1856 101.252 45.6286 101.268 46.1747L101.414 51.1692L102.768 50.6672L102.61 45.2063C102.6 44.8534 102.611 44.5819 102.648 44.3976C102.687 44.2027 102.785 44.0539 102.959 43.9914L102.988 43.9819C103.059 43.9631 103.13 43.9682 103.196 44.0071C103.266 44.0486 103.315 44.1203 103.35 44.2027C103.411 44.3464 103.447 44.5604 103.461 44.8365L103.466 44.9587L103.623 50.3512L104.968 49.8532L104.828 45.0437C104.81 44.3796 104.774 43.8597 104.724 43.4851C104.656 42.9734 104.536 42.5455 104.372 42.1959L104.335 42.1227C104.154 41.7656 103.953 41.5332 103.737 41.4106Z" fill="white"/>
</g>
<path d="M54.2291 55.3881C54.0583 55.395 53.9273 55.5369 53.9368 55.7054C53.9463 55.8738 54.0926 56.0049 54.2635 55.998C54.8955 55.9727 55.5332 55.9577 56.1761 55.9532C56.3471 55.952 56.4828 55.8144 56.4791 55.6459C56.4753 55.4773 56.3335 55.3414 56.1624 55.3426C55.5126 55.3471 54.868 55.3625 54.2291 55.3881ZM43.6268 80.9595C43.4559 80.9508 43.3121 81.0803 43.3058 81.2487C43.2806 81.9145 43.1823 82.5931 42.9996 83.2813L42.9489 83.4649C42.8264 83.8916 42.6757 84.305 42.4997 84.7045C42.4319 84.8583 42.5046 85.039 42.6617 85.108C42.8188 85.177 43.001 85.1084 43.0687 84.9546C43.2553 84.5312 43.4152 84.0924 43.5453 83.6393L43.5992 83.4441C43.7934 82.7128 43.8981 81.9902 43.9249 81.2805C43.9313 81.1121 43.7978 80.9683 43.6268 80.9595ZM38.6572 89.3188C38.52 89.4174 38.4915 89.6083 38.5936 89.7451C38.6958 89.8817 38.8897 89.9125 39.0269 89.8139C39.8883 89.195 40.6841 88.4717 41.3733 87.6539C41.4818 87.5251 41.4623 87.3324 41.33 87.2235C41.1977 87.1147 41.0026 87.1308 40.8941 87.2595C40.2389 88.0369 39.4807 88.727 38.6572 89.3188ZM40.4848 73.1671C40.3516 73.2709 40.3305 73.4626 40.4378 73.5954C41.3147 74.6809 42.0656 75.8946 42.5798 77.1982C42.6421 77.3561 42.8219 77.4362 42.9812 77.3771C43.1406 77.3181 43.2194 77.1421 43.1571 76.9842C42.6162 75.6127 41.8297 74.3455 40.9203 73.2197C40.8129 73.0869 40.6181 73.0633 40.4848 73.1671ZM33.0322 91.636C32.8634 91.661 32.7492 91.8162 32.7769 91.9829C32.8046 92.1497 32.9639 92.2645 33.1327 92.2397C34.1657 92.0876 35.2147 91.7934 36.2321 91.3706C36.3889 91.3054 36.4605 91.1265 36.392 90.971C36.3235 90.8155 36.1409 90.7423 35.9841 90.8075C35.011 91.2119 34.0114 91.4918 33.0322 91.636ZM46.5618 56.24C46.3942 56.2714 46.2863 56.4313 46.3207 56.5969C46.3551 56.7625 46.5187 56.8712 46.6862 56.8398C47.9113 56.6103 49.1698 56.4238 50.4577 56.2819C50.6274 56.2633 50.7476 56.1123 50.7261 55.9447C50.7046 55.7772 50.5497 55.6565 50.3799 55.6752C49.0767 55.8187 47.8027 56.0075 46.5618 56.24ZM26.639 90.329C26.5312 90.4582 26.5511 90.6507 26.6838 90.759C27.1691 91.1549 27.7043 91.4854 28.291 91.7384C28.7906 91.9538 29.3227 92.1111 29.8767 92.2134C30.0453 92.2445 30.2056 92.1353 30.2347 91.9697C30.2638 91.804 30.1506 91.6444 29.982 91.6133C29.4704 91.5188 28.9843 91.3748 28.5322 91.1798C28.002 90.9511 27.517 90.6517 27.0749 90.291C26.9421 90.1828 26.747 90.1998 26.639 90.329ZM33.7582 68.2666C33.6961 68.4227 33.775 68.6009 33.9343 68.6645C34.5091 68.8936 35.0743 69.1636 35.6267 69.4771L35.627 69.4773C36.1992 69.8018 36.7961 70.1949 37.3936 70.6491C37.53 70.7528 37.7245 70.7292 37.8277 70.5963C37.931 70.4633 37.9041 70.2713 37.7677 70.1676C37.2263 69.7561 36.6834 69.3916 36.1554 69.0796L35.93 68.9493C35.352 68.6212 34.7607 68.3386 34.1594 68.0988C33.9999 68.0353 33.8203 68.1104 33.7582 68.2666ZM39.1435 58.2944C38.9846 58.3545 38.907 58.531 38.9704 58.6884C39.0338 58.8459 39.2141 58.9248 39.373 58.8646C40.5277 58.4273 41.7316 58.0358 42.9798 57.6924C43.1439 57.6473 43.2379 57.479 43.1896 57.3166C43.1414 57.1542 42.9692 57.0591 42.8051 57.1042C41.5391 57.4525 40.3168 57.85 39.1435 58.2944ZM23.4758 84.0578C23.3086 84.0913 23.2026 84.2524 23.239 84.4176C23.51 85.6462 23.9 86.8089 24.4229 87.8458C24.4995 87.9976 24.6857 88.0614 24.8387 87.9881C24.9916 87.9149 25.0536 87.7324 24.977 87.5805C24.4815 86.5979 24.1066 85.4855 23.8444 84.2965C23.808 84.1312 23.6429 84.0244 23.4758 84.0578ZM32.3099 61.7866C32.1699 61.8814 32.1359 62.0712 32.2341 62.2107C32.3324 62.3501 32.5257 62.3862 32.6658 62.2914C33.6779 61.6063 34.7627 60.9703 35.9135 60.3866C36.0647 60.3099 36.1224 60.1258 36.0423 59.9757C35.9623 59.8256 35.7748 59.7661 35.6237 59.8427C34.4513 60.4374 33.3443 61.0864 32.3099 61.7866ZM26.4714 67.1362C26.3016 67.1548 26.1813 67.3057 26.2027 67.4733C26.2241 67.6408 26.3791 67.7614 26.5489 67.7428C27.7969 67.606 29.0566 67.6012 30.3005 67.7493C30.4706 67.7695 30.6232 67.6502 30.6412 67.4829C30.6592 67.3156 30.5359 67.1634 30.3658 67.1431C29.3952 67.0275 28.4173 67.0017 27.4446 67.0556C28.1228 66.1988 28.8838 65.3829 29.7219 64.6113C29.8459 64.497 29.851 64.3039 29.7333 64.18C29.6155 64.056 29.4195 64.0481 29.2954 64.1623C28.3331 65.0483 27.4675 65.9929 26.7081 66.9922C26.6791 67.0303 26.6609 67.0731 26.6526 67.1172C26.5922 67.1232 26.5318 67.1296 26.4714 67.1362ZM23.2051 77.0055C23.0348 76.9873 22.8837 77.1086 22.8678 77.2762C22.7558 78.4548 22.7235 79.6614 22.7797 80.8531C22.7877 81.0215 22.9327 81.1537 23.1036 81.1484C23.2745 81.143 23.4065 81.002 23.3985 80.8335C23.3438 79.6715 23.3752 78.4933 23.4846 77.3418C23.5005 77.1743 23.3754 77.0237 23.2051 77.0055ZM24.7049 70.2608C24.4285 70.8391 24.1837 71.431 23.9721 72.036C23.7811 72.5818 23.6108 73.1562 23.4625 73.7518C23.4218 73.9149 23.5237 74.0815 23.6898 74.124C23.856 74.1665 24.0239 74.0688 24.0645 73.9056C24.2088 73.3265 24.3739 72.7697 24.5584 72.2425C24.7627 71.6583 24.9989 71.0863 25.2661 70.5274C25.3385 70.3757 25.2717 70.1931 25.1168 70.1194C24.9618 70.0458 24.7773 70.1091 24.7049 70.2608ZM19.1311 69.4344C18.9815 69.514 18.9273 69.6991 19.0101 69.8477C19.093 69.9964 19.2817 70.0525 19.4314 69.9731C20.5216 69.3939 21.6811 68.9033 22.8812 68.5237C23.0433 68.4724 23.1307 68.3006 23.0763 68.1401C23.0218 67.9795 22.846 67.8908 22.6838 67.9421C21.4471 68.3332 20.2533 68.8383 19.1311 69.4344ZM5.13632 100.252C4.9772 100.312 4.89888 100.487 4.96137 100.645C5.2175 101.291 5.52697 101.921 5.89364 102.53C5.98148 102.676 6.17174 102.726 6.31856 102.642C6.46537 102.557 6.51317 102.37 6.42538 102.224C6.07663 101.645 5.78217 101.046 5.53814 100.43C5.47554 100.273 5.29554 100.193 5.13632 100.252ZM13.0855 74.3159C12.9742 74.4424 12.9892 74.6355 13.1192 74.7471C13.2491 74.8585 13.4447 74.8465 13.556 74.7201C14.0194 74.1937 14.4799 73.7031 14.9321 73.2535L14.9323 73.2536C15.3624 72.8255 15.8251 72.4121 16.3164 72.0173C16.4481 71.9116 16.4663 71.7192 16.357 71.5879C16.2477 71.4567 16.0523 71.4362 15.9207 71.5419C15.4768 71.8986 15.0547 72.2704 14.6574 72.655L14.4886 72.8206C14.0265 73.2802 13.5569 73.7804 13.0855 74.3159ZM4.50302 92.2058C4.33345 92.1811 4.17751 92.2963 4.15488 92.4631C3.96592 93.8553 3.91352 95.2392 4.02877 96.5893C4.04314 96.7575 4.19309 96.8844 4.36358 96.8727C4.53401 96.861 4.66064 96.7151 4.64628 96.547C4.53531 95.247 4.58532 93.9077 4.76922 92.5528C4.79186 92.386 4.67261 92.2306 4.50302 92.2058ZM8.34502 80.9782C8.26136 81.124 8.31458 81.3109 8.46375 81.3956C8.61293 81.4802 8.80186 81.4305 8.88558 81.2848C9.57064 80.0922 10.3038 78.9522 11.0591 77.8873C11.1563 77.7501 11.1213 77.5595 10.9806 77.4616C10.8399 77.3636 10.6467 77.3955 10.5494 77.5327C9.78343 78.6128 9.03981 79.7687 8.34502 80.9782ZM6.48848 84.6224C5.93092 85.875 5.4426 87.159 5.04805 88.4546C4.99908 88.6154 5.09222 88.7868 5.25616 88.8375C5.42009 88.8881 5.59269 88.7988 5.64166 88.638C6.02835 87.3683 6.50771 86.1071 7.05643 84.8744C7.12472 84.7209 7.05305 84.54 6.89631 84.4703C6.73945 84.4007 6.55683 84.4689 6.48848 84.6224Z" fill="white"/>
<defs>
<clipPath id="clip0_215_3057">
<rect width="126" height="72" fill="white" transform="translate(50)"/>
</clipPath>
</defs>
</svg>
