<svg width="33" height="33" viewBox="0 0 33 33" fill="none" xmlns="http://www.w3.org/2000/svg">
<path d="M24.0062 1.2801C24.0062 0.272608 22.8691 0.272581 22.3635 0.398524C23.0711 -0.155583 23.9011 -0.0212406 24.1958 0.146666L31.0298 3.47015C31.681 3.78682 32.0941 4.44574 32.0941 5.1678V27.0316C32.0941 27.7633 31.67 28.429 31.0055 28.7406L24.5749 31.7564C24.1327 31.9452 23.1722 32.4114 22.3635 31.7564C23.3744 31.9455 23.9221 31.2317 24.0062 30.7489V1.2801Z" fill="url(#paint0_linear_56_15411)"/>
<path d="M22.5228 0.380551C23.0547 0.275156 24.0706 0.324047 24.0706 1.28228V8.82467L3.52269 24.405C3.16353 24.6773 2.65807 24.6323 2.35216 24.3005L0.234424 22.0036C-0.0973465 21.6439 -0.074134 21.0805 0.286091 20.7497L22.4412 0.39875L22.5228 0.380551Z" fill="url(#paint1_linear_56_15411)"/>
<path d="M24.0706 23.3461L3.52269 7.85878C3.16353 7.58807 2.65807 7.63297 2.35216 7.96277L0.234424 10.2459C-0.0973465 10.6035 -0.074134 11.1636 0.286091 11.4923L22.4412 31.7218C23.4438 31.9099 23.9869 31.199 24.0706 30.7181V23.3461Z" fill="url(#paint2_linear_56_15411)"/>
<defs>
<linearGradient id="paint0_linear_56_15411" x1="27.2287" y1="-5.41802e-06" x2="27.2287" y2="32.0942" gradientUnits="userSpaceOnUse">
<stop stop-color="#32B5F1"/>
<stop offset="1" stop-color="#2B9FED"/>
</linearGradient>
<linearGradient id="paint1_linear_56_15411" x1="24.0706" y1="4.05884" x2="1.12748" y2="23.273" gradientUnits="userSpaceOnUse">
<stop stop-color="#0F6FB3"/>
<stop offset="0.271" stop-color="#1279B7"/>
<stop offset="0.421" stop-color="#1176B5"/>
<stop offset="0.618" stop-color="#0E69AC"/>
<stop offset="0.855" stop-color="#0F70AF"/>
<stop offset="1" stop-color="#0F6DAD"/>
</linearGradient>
<linearGradient id="paint2_linear_56_15411" x1="1.32403" y1="9.20147" x2="24.0906" y2="28.1218" gradientUnits="userSpaceOnUse">
<stop stop-color="#1791D2"/>
<stop offset="1" stop-color="#1173C5"/>
</linearGradient>
</defs>
</svg>
